<svg width="80" height="80" viewBox="0 0 80 80" fill="none" xmlns="http://www.w3.org/2000/svg">
<g clip-path="url(#clip0_3722_3640)">
<path d="M73 63H0V65C0 66.104 0.896 67 2 67H78C79.104 67 80 66.104 80 65V63H73Z" fill="#79F7C6"/>
<path d="M73 22.6C73 20.616 71.392 19 69.4 19H55V43H26.8C25.808 43 25 42.192 25 41.2V19H10.6C8.616 19 7 20.616 7 22.6V63H73V22.6Z" fill="#00124D"/>
<path d="M26.8 43H55V19H25V41.2C25 42.192 25.808 43 26.8 43ZM35.808 25.768C36.232 25.344 36.912 25.344 37.336 25.768L38.92 27.352V20.816C38.92 20.216 39.4 19.736 40 19.736C40.6 19.736 41.08 20.216 41.08 20.816V27.352L42.664 25.768C43.088 25.344 43.768 25.344 44.192 25.768C44.616 26.192 44.616 26.872 44.192 27.296L40 31.488L35.808 27.296C35.384 26.872 35.384 26.192 35.808 25.768ZM31.736 29.96C31.736 29.36 32.216 28.88 32.816 28.88C33.416 28.88 33.896 29.36 33.896 29.96V34.104H46.104V29.96C46.104 29.36 46.584 28.88 47.184 28.88C47.784 28.88 48.264 29.36 48.264 29.96V34.528C48.264 35.48 47.488 36.264 46.528 36.264H33.472C32.52 36.264 31.736 35.488 31.736 34.528V29.96Z" fill="#2E69FF"/>
<path d="M50.448 19H55V14.92C55 13.856 54.144 13 53.08 13H25V19H50.448Z" fill="#79F7C6"/>
<path d="M40.0002 31.4881L44.1922 27.2961C44.6162 26.8721 44.6162 26.1921 44.1922 25.7681C43.7682 25.3441 43.0882 25.3441 42.6642 25.7681L41.0802 27.3521V20.8161C41.0802 20.2161 40.6002 19.7361 40.0002 19.7361C39.4002 19.7361 38.9202 20.2161 38.9202 20.8161V27.3521L37.3362 25.7681C36.9122 25.3441 36.2322 25.3441 35.8082 25.7681C35.3842 26.1921 35.3842 26.8721 35.8082 27.2961L40.0002 31.4881Z" fill="white"/>
<path d="M33.4723 36.2639H46.5283C47.4803 36.2639 48.2643 35.4879 48.2643 34.5279V29.9599C48.2643 29.3599 47.7843 28.8799 47.1843 28.8799C46.5843 28.8799 46.1043 29.3599 46.1043 29.9599V34.1039H33.8963V29.9599C33.8963 29.3599 33.4163 28.8799 32.8163 28.8799C32.2163 28.8799 31.7363 29.3599 31.7363 29.9599V34.5279C31.7363 35.4799 32.5123 36.2639 33.4723 36.2639Z" fill="white"/>
</g>
<defs>
<clipPath id="clip0_3722_3640">
<rect width="80" height="80" fill="white"/>
</clipPath>
</defs>
</svg>
