<svg width="24" height="24" viewBox="0 0 24 24" fill="none" xmlns="http://www.w3.org/2000/svg">
<g clip-path="url(#clip0_1587_17313)">
<path d="M19.5 3H17.25V2.25C17.25 1.83581 16.9142 1.5 16.5 1.5C16.0858 1.5 15.75 1.83581 15.75 2.25V3H8.25V2.25C8.25 1.83581 7.91419 1.5 7.5 1.5C7.08581 1.5 6.75 1.83581 6.75 2.25V3H4.5C3.67153 3 3 3.67153 3 4.5V19.5C3 20.3285 3.67153 21 4.5 21H19.5C20.3285 21 21 20.3285 21 19.5V4.5C21 3.67153 20.3285 3 19.5 3ZM15.8906 12.5438L11.5125 16.6688C11.375 16.8035 11.1893 16.8777 10.9969 16.875C10.8048 16.8757 10.6199 16.8018 10.4813 16.6688L8.10938 14.4188C7.79728 14.1464 7.76503 13.6727 8.03728 13.3605C8.30963 13.0484 8.78334 13.0162 9.09553 13.2884C9.11119 13.302 9.12619 13.3163 9.14062 13.3312L10.9969 15.0937L14.8594 11.4562C15.1528 11.1712 15.6218 11.1781 15.9067 11.4715C15.9108 11.4757 15.9147 11.48 15.9188 11.4843C16.2032 11.7848 16.1906 12.2588 15.8906 12.5438ZM19.5 7.5H4.5V4.5H6.75V5.25C6.75 5.66419 7.08581 6 7.5 6C7.91419 6 8.25 5.66419 8.25 5.25V4.5H15.75V5.25C15.75 5.66419 16.0858 6 16.5 6C16.9142 6 17.25 5.66419 17.25 5.25V4.5H19.5V7.5Z" fill="#FFCA36"/>
</g>
<defs>
<clipPath id="clip0_1587_17313">
<rect width="24" height="24" fill="white"/>
</clipPath>
</defs>
</svg>
