<svg width="40" height="40" viewBox="0 0 40 40" fill="none" xmlns="http://www.w3.org/2000/svg">
<g clip-path="url(#clip0_674_5768)">
<path d="M0.5 39.5V0.5H39.5V39.5H0.5Z" stroke="#FFCA36"/>
<path d="M38.75 32.4999C38.75 33.1903 38.1903 33.7499 37.5 33.7499H2.5C1.80969 33.7499 1.25 33.1903 1.25 32.4999C1.25 31.8096 1.80969 31.2499 2.5 31.2499H37.5C38.1903 31.2499 38.75 31.8096 38.75 32.4999ZM2.54687 15.3437C2.39375 14.8054 2.61719 14.2309 3.09375 13.9374L19.3438 3.93744C19.745 3.68557 20.255 3.68557 20.6562 3.93744L36.9062 13.9374C37.4931 14.301 37.6739 15.0717 37.3103 15.6584C37.0828 16.0254 36.6819 16.2492 36.25 16.2499H32.5V26.2499H35C35.6903 26.2499 36.25 26.8096 36.25 27.4999C36.25 28.1903 35.6903 28.7499 35 28.7499H5C4.30969 28.7499 3.75 28.1903 3.75 27.4999C3.75 26.8096 4.30969 26.2499 5 26.2499H7.5V16.2499H3.75C3.19156 16.2506 2.70047 15.8806 2.54687 15.3437ZM22.5 24.9999C22.5 25.6903 23.0597 26.2499 23.75 26.2499C24.4403 26.2499 25 25.6903 25 24.9999V17.4999C25 16.8096 24.4403 16.2499 23.75 16.2499C23.0597 16.2499 22.5 16.8096 22.5 17.4999V24.9999ZM15 24.9999C15 25.6903 15.5597 26.2499 16.25 26.2499C16.9403 26.2499 17.5 25.6903 17.5 24.9999V17.4999C17.5 16.8096 16.9403 16.2499 16.25 16.2499C15.5597 16.2499 15 16.8096 15 17.4999V24.9999Z" fill="#FFCA36"/>
</g>
<defs>
<clipPath id="clip0_674_5768">
<rect width="40" height="40" fill="white"/>
</clipPath>
</defs>
</svg>
