<svg width="40" height="40" viewBox="0 0 40 40" fill="none" xmlns="http://www.w3.org/2000/svg">
<g clip-path="url(#clip0_674_5789)">
<path d="M37.5 32.5H36.25V16.25C36.25 14.8692 35.1308 13.75 33.75 13.75H23.75V6.25C23.75 4.86922 22.6308 3.75 21.25 3.75H6.25C4.86922 3.75 3.75 4.86922 3.75 6.25V32.5H2.5C1.80969 32.5 1.25 33.0597 1.25 33.75C1.25 34.4403 1.80969 35 2.5 35H37.5C38.1903 35 38.75 34.4403 38.75 33.75C38.75 33.0597 38.1903 32.5 37.5 32.5ZM18.75 21.25C18.75 21.9403 18.1903 22.5 17.5 22.5H12.5C11.8097 22.5 11.25 21.9403 11.25 21.25C11.25 20.5597 11.8097 20 12.5 20H17.5C18.1903 20 18.75 20.5597 18.75 21.25ZM10 10H15C15.6903 10 16.25 10.5597 16.25 11.25C16.25 11.9403 15.6903 12.5 15 12.5H10C9.30969 12.5 8.75 11.9403 8.75 11.25C8.75 10.5597 9.30969 10 10 10ZM10 26.25H15C15.6903 26.25 16.25 26.8097 16.25 27.5C16.25 28.1903 15.6903 28.75 15 28.75H10C9.30969 28.75 8.75 28.1903 8.75 27.5C8.75 26.8097 9.30969 26.25 10 26.25ZM23.75 16.25H33.75V32.5H23.75V16.25Z" fill="#2E69FF"/>
<path d="M30 26.25H27.5C26.8097 26.25 26.25 26.8097 26.25 27.5C26.25 28.1903 26.8097 28.75 27.5 28.75H30C30.6903 28.75 31.25 28.1903 31.25 27.5C31.25 26.8097 30.6903 26.25 30 26.25Z" fill="#2E69FF"/>
<path d="M27.5 22.5H30C30.6903 22.5 31.25 21.9403 31.25 21.25C31.25 20.5597 30.6903 20 30 20H27.5C26.8097 20 26.25 20.5597 26.25 21.25C26.25 21.9403 26.8097 22.5 27.5 22.5Z" fill="#2E69FF"/>
</g>
<defs>
<clipPath id="clip0_674_5789">
<rect width="40" height="40" fill="white"/>
</clipPath>
</defs>
</svg>
