<svg width="40" height="40" viewBox="0 0 40 40" fill="none" xmlns="http://www.w3.org/2000/svg">
<g clip-path="url(#clip0_674_5760)">
<path d="M20 25.625C23.797 25.625 26.875 22.547 26.875 18.75C26.875 14.953 23.797 11.875 20 11.875C16.203 11.875 13.125 14.953 13.125 18.75C13.125 22.547 16.203 25.625 20 25.625Z" fill="#FFCA36"/>
<path d="M20 3.75C11.0253 3.75 3.75 11.0253 3.75 20C3.75 28.9747 11.0253 36.25 20 36.25C28.9747 36.25 36.25 28.9747 36.25 20C36.2328 11.0325 28.9675 3.76719 20 3.75ZM30.2812 29.125C29.2694 27.6736 27.9655 26.4495 26.4531 25.5312C22.8453 28.9877 17.1547 28.9877 13.5469 25.5312C12.0345 26.4495 10.7306 27.6736 9.71875 29.125C4.67641 23.4469 5.19172 14.7561 10.8698 9.71359C16.548 4.67109 25.2388 5.18656 30.2812 10.8647C34.9062 16.073 34.9062 23.9169 30.2812 29.125Z" fill="#FFCA36"/>
</g>
<defs>
<clipPath id="clip0_674_5760">
<rect width="40" height="40" fill="white"/>
</clipPath>
</defs>
</svg>
