<svg width="210" height="74" viewBox="0 0 210 74" fill="none" xmlns="http://www.w3.org/2000/svg">
<g clip-path="url(#clip0_2318_6877)">
<path d="M208.211 57.6902C207.912 57.7678 207.495 57.8573 206.952 57.9469C206.409 58.0364 205.782 58.0841 205.067 58.0841C204.112 58.0841 203.229 57.9349 202.424 57.6365C201.618 57.3381 200.962 56.7652 200.467 55.9178C199.966 55.0704 199.721 53.8172 199.721 52.1641V27.1115H209.147V19.5683H199.721V9.19637H190.349V19.5683H171.514V13.5349C171.514 11.5596 171.968 10.4615 172.875 9.41717C173.781 8.37282 175.303 7.84766 177.432 7.84766C178.351 7.84766 179.139 7.92524 179.807 8.08637C180.475 8.24749 181.018 8.39669 181.436 8.53395L183.559 0.996687C182.921 0.757978 181.943 0.495398 180.63 0.202979C179.312 -0.0834727 177.743 -0.232666 175.905 -0.232666C173.411 -0.232666 171.121 0.250721 169.027 1.2175C166.932 2.18427 165.256 3.6404 163.991 5.58588C162.727 7.53137 162.094 9.84088 162.094 12.7472V19.5683H152.662V27.1115H162.094V65.4483H171.514V27.0996H190.343V53.9783C190.367 56.7891 190.903 59.1225 192.168 60.9785C193.433 62.8344 195.098 64.201 197.162 65.0902C199.226 65.9794 201.481 66.4031 203.933 66.3614C205.389 66.3196 206.606 66.1823 207.596 65.9735C208.586 65.7646 209.475 65.5319 210.078 65.3469L208.205 57.6902H208.211ZM112.69 39.6438L105.245 37.9669C102.775 37.3701 100.985 36.6181 99.8756 35.711C98.772 34.8039 98.2171 33.6104 98.2171 32.1364C98.2171 30.4236 99.0464 29.0152 100.699 27.9172C102.351 26.8191 104.404 26.2701 106.856 26.2701C108.669 26.2701 110.185 26.5625 111.402 27.1533C112.619 27.7441 113.585 28.496 114.301 29.427C114.838 30.1193 115.262 30.8354 115.572 31.5754C115.679 31.826 115.769 32.0827 115.852 32.3452H124.67C124.598 31.9156 124.515 31.468 124.401 30.9965C124.181 30.0656 123.888 29.1883 123.536 28.3528C122.492 25.8583 120.905 23.8591 118.716 22.218C115.805 20.0338 111.819 18.9417 106.754 18.9417C103.246 18.9417 100.144 19.5146 97.4416 20.6604C94.739 21.8062 92.6271 23.4056 91.0998 25.4585C89.5785 27.5114 88.8148 29.9044 88.8148 32.6377C88.8148 35.9259 89.841 38.6472 91.8933 40.7896C93.9455 42.932 97.1373 44.4836 101.463 45.4385L109.236 47.1452C111.408 47.6227 113.025 48.3388 114.08 49.2817C115.136 50.2306 115.661 51.4122 115.661 52.8265C115.661 54.5393 114.808 55.9894 113.108 57.177C111.402 58.3646 109.129 58.9554 106.277 58.9554C103.646 58.9554 101.51 58.3944 99.8637 57.2665C98.2171 56.1386 97.1254 54.4677 96.5884 52.2536H87.3711C87.3711 52.6714 87.395 53.0951 87.4666 53.5128C87.8245 55.5657 88.5046 57.3859 89.5129 58.9733C90.5151 60.5607 91.8455 61.9154 93.4921 63.0373C96.7913 65.2812 101.069 66.4031 106.331 66.4031C110.077 66.4031 113.371 65.7885 116.21 64.5651C119.05 63.3357 121.275 61.6469 122.892 59.4985C124.509 57.3441 125.314 54.8735 125.314 52.0806C125.314 48.8341 124.27 46.1844 122.188 44.1435C120.106 42.1025 116.932 40.5986 112.667 39.6438H112.69ZM134.776 65.4304H144.202V19.5504H134.776V65.4244V65.4304Z" fill="black"/>
<path d="M139.471 14.8417C142.595 14.8417 145.127 12.3088 145.127 9.18427C145.127 6.05977 142.595 3.52686 139.471 3.52686C136.348 3.52686 133.815 6.05977 133.815 9.18427C133.815 12.3088 136.348 14.8417 139.471 14.8417Z" fill="#2E69FF"/>
<path d="M40.0072 40.6224C38.1697 42.4605 35.1808 42.4605 33.3433 40.6224C31.5058 38.7843 31.5058 35.7945 33.3433 33.9564C35.1808 32.1184 38.1697 32.1184 40.0072 33.9564C41.8447 35.7945 41.8447 38.7843 40.0072 40.6224ZM21.7455 22.3551C19.908 24.1932 19.908 27.183 21.7455 29.0211C23.583 30.8592 26.572 30.8592 28.4095 29.0211C30.247 27.183 30.247 24.1932 28.4095 22.3551C26.572 20.5171 23.583 20.5171 21.7455 22.3551ZM10.1478 17.4198C11.9853 19.2579 14.9742 19.2579 16.8117 17.4198C18.6492 15.5818 18.6492 12.5919 16.8117 10.7539C14.9742 8.91579 11.9853 8.91579 10.1478 10.7539C8.31031 12.5919 8.31031 15.5818 10.1478 17.4198ZM63.1967 57.153C61.3592 55.315 58.3703 55.315 56.5328 57.153C54.6953 58.9911 54.6953 61.981 56.5328 63.819C58.3703 65.6571 61.3592 65.6571 63.1967 63.819C65.0342 61.981 65.0342 58.9911 63.1967 57.153ZM51.5989 52.2177C53.4364 50.3797 53.4364 47.3898 51.5989 45.5518C49.7614 43.7137 46.7725 43.7137 44.935 45.5518C43.0975 47.3898 43.0975 50.3797 44.935 52.2177C46.7725 54.0558 49.7614 54.0558 51.5989 52.2177ZM44.935 22.3492C43.0975 24.1872 43.0975 27.1771 44.935 29.0151C46.7725 30.8532 49.7614 30.8532 51.5989 29.0151C53.4364 27.1771 53.4364 24.1872 51.5989 22.3492C49.7614 20.5111 46.7725 20.5111 44.935 22.3492ZM40.0012 10.7479C38.1637 8.90982 35.1748 8.90982 33.3373 10.7479C31.4998 12.586 31.4998 15.5758 33.3373 17.4139C35.1748 19.2519 38.1637 19.2519 40.0012 17.4139C41.8387 15.5758 41.8387 12.586 40.0012 10.7479ZM21.7396 5.81257C23.5771 7.65063 26.566 7.65063 28.4035 5.81257C29.8472 4.36837 30.1515 2.22595 29.3342 0.477402C26.22 1.09208 23.243 2.09466 20.4569 3.43144C20.6359 4.30273 21.0595 5.13224 21.7396 5.81257ZM68.1245 45.5458C66.287 47.3839 66.287 50.3737 68.1245 52.2118C68.7987 52.8861 69.6339 53.3158 70.5049 53.4948C71.8413 50.7079 72.8436 47.73 73.458 44.6148C71.71 43.7972 69.5683 44.1016 68.1245 45.5458ZM56.5268 33.9445C54.6893 35.7826 54.6893 38.7724 56.5268 40.6105C58.3643 42.4485 61.3532 42.4485 63.1907 40.6105C65.0282 38.7724 65.0282 35.7826 63.1907 33.9445C61.3532 32.1064 58.3643 32.1064 56.5268 33.9445ZM56.5268 10.7419C54.6893 12.58 54.6893 15.5698 56.5268 17.4079C58.3643 19.246 61.3532 19.246 63.1907 17.4079C65.0282 15.5698 65.0282 12.58 63.1907 10.7419C61.3532 8.90385 58.3643 8.90385 56.5268 10.7419ZM44.9291 5.8066C46.7666 7.64466 49.7555 7.64466 51.593 5.8066C52.2671 5.13224 52.6967 4.29676 52.8756 3.42547C50.0896 2.08869 47.1126 1.08611 43.9984 0.471436C43.181 2.21998 43.4853 4.3624 44.9291 5.8066ZM68.1245 29.0092C69.5683 30.4534 71.71 30.7577 73.458 29.9401C72.8436 26.825 71.8413 23.8471 70.5049 21.0601C69.6339 21.2392 68.8046 21.6629 68.1245 22.3432C66.287 24.1813 66.287 27.1711 68.1245 29.0092ZM16.8058 63.8071C18.6433 61.969 18.6433 58.9792 16.8058 57.1411C14.9683 55.3031 11.9793 55.3031 10.1418 57.1411C8.30434 58.9792 8.30434 61.969 10.1418 63.8071C11.9793 65.6451 14.9683 65.6451 16.8058 63.8071ZM5.20803 45.5398C3.76428 44.0956 1.62252 43.7913 -0.125488 44.6089C0.489 47.724 1.49127 50.7019 2.82764 53.4889C3.69866 53.3098 4.53389 52.8861 5.20803 52.2058C7.04553 50.3677 7.04553 47.3779 5.20803 45.5398ZM28.4035 68.7424C26.566 66.9043 23.5771 66.9043 21.7396 68.7424C21.0654 69.4168 20.6359 70.2522 20.4569 71.1235C23.243 72.4603 26.22 73.4629 29.3342 74.0776C30.1515 72.329 29.8472 70.1866 28.4035 68.7424ZM28.4035 52.2058C30.241 50.3677 30.241 47.3779 28.4035 45.5398C26.566 43.7018 23.5771 43.7018 21.7396 45.5398C19.9021 47.3779 19.9021 50.3677 21.7396 52.2058C23.5771 54.0439 26.566 54.0439 28.4035 52.2058ZM10.1418 33.9385C8.30434 35.7766 8.30434 38.7664 10.1418 40.6045C11.9793 42.4426 14.9683 42.4426 16.8058 40.6045C18.6433 38.7664 18.6433 35.7766 16.8058 33.9385C14.9683 32.1005 11.9793 32.1005 10.1418 33.9385ZM5.20803 29.0032C7.04553 27.1651 7.04553 24.1753 5.20803 22.3372C4.53389 21.6629 3.69866 21.2332 2.82764 21.0542C1.49127 23.8411 0.489 26.819 -0.125488 29.9342C1.62252 30.7518 3.76428 30.4474 5.20803 29.0032ZM51.593 68.7364C49.7555 66.8984 46.7666 66.8984 44.9291 68.7364C43.4853 70.1806 43.181 72.3231 43.9984 74.0716C47.1126 73.4569 50.0896 72.4543 52.8756 71.1176C52.6967 70.2463 52.2731 69.4168 51.593 68.7364ZM33.3313 57.1351C31.4938 58.9732 31.4938 61.9631 33.3313 63.8011C35.1688 65.6392 38.1578 65.6392 39.9953 63.8011C41.8328 61.9631 41.8328 58.9732 39.9953 57.1351C38.1578 55.2971 35.1688 55.2971 33.3313 57.1351Z" fill="#2E69FF"/>
</g>
<defs>
<clipPath id="clip0_2318_6877">
<rect width="210" height="74" fill="white"/>
</clipPath>
</defs>
</svg>
