<svg width="100" height="100" viewBox="0 0 100 100" fill="none" xmlns="http://www.w3.org/2000/svg">
<path d="M54.5403 54.5484C52.0431 57.0456 47.9812 57.0456 45.484 54.5484C42.9869 52.0512 42.9869 47.9893 45.484 45.4921C47.9812 42.995 52.0431 42.995 54.5403 45.4921C57.0375 47.9893 57.0375 52.0512 54.5403 54.5484ZM29.7227 29.7308C27.2255 32.228 27.2255 36.2899 29.7227 38.7871C32.2199 41.2842 36.2818 41.2842 38.779 38.7871C41.2761 36.2899 41.2761 32.228 38.779 29.7308C36.2818 27.2337 32.2199 27.2337 29.7227 29.7308ZM13.9614 23.0258C16.4586 25.5229 20.5205 25.5229 23.0177 23.0258C25.5148 20.5286 25.5148 16.4667 23.0177 13.9695C20.5205 11.4724 16.4586 11.4724 13.9614 13.9695C11.4642 16.4667 11.4642 20.5286 13.9614 23.0258ZM86.0548 77.0066C83.5576 74.5095 79.4957 74.5095 76.9985 77.0066C74.5014 79.5038 74.5014 83.5658 76.9985 86.0629C79.4957 88.5601 83.5576 88.5601 86.0548 86.0629C88.552 83.5658 88.552 79.5038 86.0548 77.0066ZM70.2935 70.3016C72.7906 67.8044 72.7906 63.7425 70.2935 61.2453C67.7963 58.7482 63.7344 58.7482 61.2372 61.2453C58.7401 63.7425 58.7401 67.8044 61.2372 70.3016C63.7344 72.7988 67.7963 72.7988 70.2935 70.3016ZM61.2372 29.7227C58.7401 32.2199 58.7401 36.2818 61.2372 38.779C63.7344 41.2761 67.7963 41.2761 70.2935 38.779C72.7906 36.2818 72.7906 32.2199 70.2935 29.7227C67.7963 27.2255 63.7344 27.2255 61.2372 29.7227ZM54.5322 13.9614C52.035 11.4642 47.9731 11.4642 45.4759 13.9614C42.9788 16.4586 42.9788 20.5205 45.4759 23.0177C47.9731 25.5148 52.035 25.5148 54.5322 23.0177C57.0293 20.5205 57.0293 16.4586 54.5322 13.9614ZM29.7146 7.25636C32.2118 9.75353 36.2737 9.75353 38.7709 7.25636C40.7329 5.29431 41.1464 2.38365 40.0357 0.00810631C35.8035 0.843196 31.7577 2.20529 27.9715 4.0214C28.2147 5.20512 28.7903 6.33209 29.7146 7.25636ZM92.7517 61.2372C90.2546 63.7344 90.2546 67.7963 92.7517 70.2935C93.6679 71.2097 94.803 71.7934 95.9867 72.0366C97.8028 68.2504 99.1649 64.2046 100 59.9724C97.6245 58.8617 94.7138 59.2752 92.7517 61.2372ZM76.9904 45.4759C74.4933 47.9731 74.4933 52.035 76.9904 54.5322C79.4876 57.0293 83.5495 57.0293 86.0467 54.5322C88.5439 52.035 88.5439 47.9731 86.0467 45.4759C83.5495 42.9788 79.4876 42.9788 76.9904 45.4759ZM76.9904 13.9533C74.4933 16.4505 74.4933 20.5124 76.9904 23.0096C79.4876 25.5067 83.5495 25.5067 86.0467 23.0096C88.5439 20.5124 88.5439 16.4505 86.0467 13.9533C83.5495 11.4561 79.4876 11.4561 76.9904 13.9533ZM61.2291 7.24826C63.7263 9.74542 67.7882 9.74542 70.2854 7.24826C71.2016 6.33209 71.7853 5.19702 72.0285 4.0133C68.2422 2.19718 64.1965 0.83509 59.9643 0C58.8536 2.37555 59.2671 5.2862 61.2291 7.24826ZM92.7517 38.7709C94.7138 40.7329 97.6245 41.1464 100 40.0357C99.1649 35.8035 97.8028 31.7577 95.9867 27.9715C94.803 28.2147 93.676 28.7903 92.7517 29.7146C90.2546 32.2118 90.2546 36.2737 92.7517 38.7709ZM23.0096 86.0467C25.5067 83.5495 25.5067 79.4876 23.0096 76.9904C20.5124 74.4933 16.4505 74.4933 13.9533 76.9904C11.4561 79.4876 11.4561 83.5495 13.9533 86.0467C16.4505 88.5439 20.5124 88.5439 23.0096 86.0467ZM7.24826 61.2291C5.2862 59.2671 2.37555 58.8536 0 59.9643C0.83509 64.1965 2.19718 68.2422 4.0133 72.0285C5.19702 71.7853 6.33209 71.2097 7.24826 70.2854C9.74542 67.7882 9.74542 63.7263 7.24826 61.2291ZM38.7709 92.7517C36.2737 90.2546 32.2118 90.2546 29.7146 92.7517C28.7984 93.6679 28.2147 94.803 27.9715 95.9867C31.7577 97.8028 35.8035 99.1649 40.0357 100C41.1464 97.6245 40.7329 94.7138 38.7709 92.7517ZM38.7709 70.2854C41.268 67.7882 41.268 63.7263 38.7709 61.2291C36.2737 58.732 32.2118 58.732 29.7146 61.2291C27.2174 63.7263 27.2174 67.7882 29.7146 70.2854C32.2118 72.7825 36.2737 72.7825 38.7709 70.2854ZM13.9533 45.4678C11.4561 47.965 11.4561 52.0269 13.9533 54.5241C16.4505 57.0212 20.5124 57.0212 23.0096 54.5241C25.5067 52.0269 25.5067 47.965 23.0096 45.4678C20.5124 42.9706 16.4505 42.9706 13.9533 45.4678ZM7.24826 38.7628C9.74542 36.2656 9.74542 32.2037 7.24826 29.7065C6.33209 28.7903 5.19702 28.2066 4.0133 27.9634C2.19718 31.7496 0.83509 35.7954 0 40.0276C2.37555 41.1383 5.2862 40.7248 7.24826 38.7628ZM70.2854 92.7436C67.7882 90.2465 63.7263 90.2465 61.2291 92.7436C59.2671 94.7057 58.8536 97.6163 59.9643 99.9919C64.1965 99.1568 68.2422 97.7947 72.0285 95.9786C71.7853 94.7949 71.2097 93.6679 70.2854 92.7436ZM45.4678 76.9823C42.9706 79.4795 42.9706 83.5414 45.4678 86.0386C47.965 88.5358 52.0269 88.5358 54.5241 86.0386C57.0212 83.5414 57.0212 79.4795 54.5241 76.9823C52.0269 74.4852 47.965 74.4852 45.4678 76.9823Z" fill="#2E69FF"/>
</svg>
