<svg width="148" height="80" viewBox="0 0 148 80" fill="none" xmlns="http://www.w3.org/2000/svg">
<path d="M145.052 69.5287C144.694 69.6218 144.192 69.7293 143.541 69.8368C142.889 69.9442 142.137 70.0015 141.278 70.0015C140.132 70.0015 139.072 69.8224 138.105 69.4643C137.138 69.1061 136.351 68.4184 135.756 67.4012C135.155 66.384 134.861 64.8796 134.861 62.8953V32.8231H146.176V23.7684H134.861V11.3183H123.611V23.7684H101.003V16.5261C101.003 14.155 101.547 12.837 102.635 11.5833C103.724 10.3297 105.55 9.69935 108.107 9.69935C109.21 9.69935 110.155 9.79247 110.957 9.98589C111.759 10.1793 112.411 10.3584 112.912 10.5231L115.461 1.47567C114.695 1.18914 113.521 0.873944 111.945 0.522934C110.362 0.179087 108.479 0 106.273 0C103.28 0 100.53 0.580242 98.0164 1.74073C95.5028 2.90121 93.4905 4.6491 91.9723 6.98439C90.4541 9.31969 89.695 12.092 89.695 15.5806V23.7684H78.373V32.8231H89.695V78.8412H101.003V32.8087H123.604V65.073C123.632 68.447 124.277 71.248 125.795 73.4758C127.313 75.7036 129.311 77.3441 131.789 78.4114C134.267 79.4788 136.974 79.9874 139.917 79.9373C141.664 79.8871 143.125 79.7224 144.314 79.4716C145.503 79.2209 146.57 78.9415 147.293 78.7195L145.045 69.5287H145.052ZM30.3925 47.8664L21.4552 45.8534C18.4904 45.1371 16.342 44.2345 15.01 43.1456C13.6852 42.0568 13.0192 40.6241 13.0192 38.8547C13.0192 36.7988 14.0146 35.1082 15.9983 33.7901C17.982 32.472 20.4455 31.813 23.3887 31.813C25.5658 31.813 27.3847 32.164 28.8456 32.8732C30.3065 33.5824 31.4667 34.485 32.326 35.6025C32.9705 36.4334 33.479 37.2931 33.8514 38.1813C33.9803 38.4822 34.0877 38.7902 34.188 39.1054H44.7723C44.6864 38.5897 44.5861 38.0524 44.4501 37.4865C44.1851 36.369 43.8342 35.316 43.4117 34.3131C42.1585 31.3187 40.2536 28.919 37.6254 26.949C34.1307 24.3272 29.3469 23.0163 23.267 23.0163C19.0562 23.0163 15.3323 23.704 12.0882 25.0793C8.84418 26.4547 6.30909 28.3745 4.4758 30.8388C2.64967 33.303 1.73303 36.1756 1.73303 39.4564C1.73303 43.4035 2.96477 46.6701 5.42825 49.2418C7.89173 51.8134 11.723 53.6759 16.9149 54.8221L26.2461 56.8709C28.8528 57.4439 30.7935 58.3036 32.061 59.4354C33.3286 60.5744 33.9588 61.9927 33.9588 63.6905C33.9588 65.7464 32.9347 67.4871 30.8938 68.9127C28.8456 70.3382 26.1172 71.0474 22.6941 71.0474C19.536 71.0474 16.9722 70.374 14.9957 69.0201C13.0192 67.6662 11.7087 65.6604 11.0642 63.0028H0C0 63.5042 0.0286477 64.0128 0.114583 64.5143C0.54426 66.9785 1.36064 69.1634 2.5709 71.0689C3.77399 72.9744 5.37097 74.6005 7.34748 75.9472C11.3077 78.6407 16.4423 79.9874 22.7585 79.9874C27.2558 79.9874 31.2088 79.2496 34.6176 77.7811C38.0264 76.3054 40.6976 74.2781 42.6383 71.6993C44.579 69.1132 45.5457 66.1476 45.5457 62.7951C45.5457 58.8981 44.2925 55.7175 41.7932 53.2676C39.2939 50.8177 35.4841 49.0125 30.3638 47.8664H30.3925ZM56.9035 78.8198H68.2183V23.7469H56.9035V78.8126V78.8198Z" fill="black"/>
<path d="M62.5379 18.0951C66.2873 18.0951 69.3268 15.0547 69.3268 11.3042C69.3268 7.55361 66.2873 4.51318 62.5379 4.51318C58.7885 4.51318 55.749 7.55361 55.749 11.3042C55.749 15.0547 58.7885 18.0951 62.5379 18.0951Z" fill="#2E69FF"/>
</svg>
