<svg width="60" height="61" viewBox="0 0 60 61" fill="none" xmlns="http://www.w3.org/2000/svg">
<g clip-path="url(#clip0_2318_7523)">
<path d="M54.375 23C54.375 20.9288 52.6962 19.25 50.625 19.25H43.125V11.75C43.125 9.67883 41.4462 8 39.375 8H9.37501C7.30384 8 5.62501 9.67883 5.62501 11.75V41.75C5.6229 42.4752 6.0443 43.1347 6.70313 43.4375C7.34837 43.753 8.11876 43.6613 8.67188 43.2031L16.875 36.5703V43.625C16.875 45.6962 18.5538 47.375 20.625 47.375H42.5625L51.3281 54.4531C51.8813 54.9113 52.6516 55.003 53.2969 54.6875C53.9557 54.3847 54.3771 53.7252 54.375 53V23ZM44.3906 44.0469C44.0625 43.7717 43.647 43.6222 43.2188 43.625H20.625V36.125H39.375C41.4462 36.125 43.125 34.4462 43.125 32.375V23H50.625V49.0625L44.3906 44.0469Z" fill="#FFCA36"/>
</g>
<defs>
<clipPath id="clip0_2318_7523">
<rect width="60" height="60" fill="white" transform="translate(0 0.5)"/>
</clipPath>
</defs>
</svg>
