<svg width="24" height="25" viewBox="0 0 24 25" fill="none" xmlns="http://www.w3.org/2000/svg">
<path d="M20.25 2.68555H3.75C3.35218 2.68555 2.97064 2.84358 2.68934 3.12489C2.40804 3.40619 2.25 3.78772 2.25 4.18555V20.6855C2.25 21.0834 2.40804 21.4649 2.68934 21.7462C2.97064 22.0275 3.35218 22.1855 3.75 22.1855H20.25C20.6478 22.1855 21.0294 22.0275 21.3107 21.7462C21.592 21.4649 21.75 21.0834 21.75 20.6855V4.18555C21.75 3.78772 21.592 3.40619 21.3107 3.12489C21.0294 2.84358 20.6478 2.68555 20.25 2.68555ZM20.25 20.6855H3.75V4.18555H20.25V20.6855ZM9 10.9355V16.9355C9 17.1345 8.92098 17.3252 8.78033 17.4659C8.63968 17.6065 8.44891 17.6855 8.25 17.6855C8.05109 17.6855 7.86032 17.6065 7.71967 17.4659C7.57902 17.3252 7.5 17.1345 7.5 16.9355V10.9355C7.5 10.7366 7.57902 10.5459 7.71967 10.4052C7.86032 10.2646 8.05109 10.1855 8.25 10.1855C8.44891 10.1855 8.63968 10.2646 8.78033 10.4052C8.92098 10.5459 9 10.7366 9 10.9355ZM17.25 13.5605V16.9355C17.25 17.1345 17.171 17.3252 17.0303 17.4659C16.8897 17.6065 16.6989 17.6855 16.5 17.6855C16.3011 17.6855 16.1103 17.6065 15.9697 17.4659C15.829 17.3252 15.75 17.1345 15.75 16.9355V13.5605C15.75 13.0633 15.5525 12.5864 15.2008 12.2347C14.8492 11.8831 14.3723 11.6855 13.875 11.6855C13.3777 11.6855 12.9008 11.8831 12.5492 12.2347C12.1975 12.5864 12 13.0633 12 13.5605V16.9355C12 17.1345 11.921 17.3252 11.7803 17.4659C11.6397 17.6065 11.4489 17.6855 11.25 17.6855C11.0511 17.6855 10.8603 17.6065 10.7197 17.4659C10.579 17.3252 10.5 17.1345 10.5 16.9355V10.9355C10.5009 10.7518 10.5693 10.5749 10.692 10.4382C10.8148 10.3015 10.9834 10.2146 11.166 10.1941C11.3485 10.1735 11.5323 10.2206 11.6824 10.3265C11.8325 10.4325 11.9385 10.5898 11.9803 10.7687C12.4877 10.4245 13.0792 10.225 13.6914 10.1917C14.3036 10.1583 14.9133 10.2923 15.455 10.5794C15.9968 10.8664 16.4501 11.2955 16.7664 11.8208C17.0826 12.346 17.2498 12.9475 17.25 13.5605ZM9.375 8.31055C9.375 8.53305 9.30902 8.75056 9.1854 8.93556C9.06179 9.12057 8.88609 9.26476 8.68052 9.34991C8.47495 9.43506 8.24875 9.45734 8.03052 9.41393C7.81229 9.37052 7.61184 9.26338 7.4545 9.10604C7.29717 8.94871 7.19002 8.74825 7.14662 8.53002C7.10321 8.3118 7.12549 8.08559 7.21064 7.88003C7.29578 7.67446 7.43998 7.49876 7.62498 7.37514C7.80999 7.25153 8.0275 7.18555 8.25 7.18555C8.54837 7.18555 8.83452 7.30407 9.0455 7.51505C9.25647 7.72603 9.375 8.01218 9.375 8.31055Z" fill="#FF3B84"/>
</svg>
