<svg width="40" height="40" viewBox="0 0 40 40" fill="none" xmlns="http://www.w3.org/2000/svg">
<path d="M19.9999 1.00195C9.52328 1.00195 1 9.52543 1 20.002C1 30.4785 9.52328 39.002 19.9999 39.002C30.4765 39.002 39 30.4785 39 20.002C39 9.52543 30.4765 1.00195 19.9999 1.00195ZM19.9999 36.401C10.9575 36.401 3.60099 29.0445 3.60082 20.002C3.60082 10.9596 10.9573 3.60307 19.9999 3.6029C29.0424 3.60307 36.3988 10.9596 36.3988 20.0022C36.3988 29.0443 29.0424 36.401 19.9999 36.401Z" fill="white"/>
<path d="M22.5515 11.8642C22.0436 11.3565 21.2201 11.3567 20.7124 11.8642C20.2044 12.3723 20.2044 13.1955 20.7126 13.7036L25.71 18.7007L11.2386 18.7021C10.5203 18.7023 9.93823 19.2844 9.93823 20.0029C9.9384 20.7211 10.5205 21.303 11.2387 21.303L25.7107 21.3016L20.7121 26.2998C20.2042 26.8077 20.2042 27.6313 20.7121 28.139C20.9661 28.3929 21.2988 28.52 21.6318 28.52C21.9645 28.52 22.2973 28.3929 22.5513 28.1392L29.7698 20.921C30.0137 20.6772 30.1507 20.3466 30.1507 20.0015C30.1506 19.6565 30.0136 19.326 29.7696 19.0816L22.5515 11.8642Z" fill="white"/>
</svg>
