<svg width="40" height="40" viewBox="0 0 40 40" fill="none" xmlns="http://www.w3.org/2000/svg">
<path d="M20.0001 1.00195C30.4767 1.00195 39 9.52543 39 20.002C39 30.4785 30.4767 39.002 20.0001 39.002C9.52346 39.002 1 30.4785 1 20.002C1 9.52543 9.52346 1.00195 20.0001 1.00195ZM20.0001 36.401C29.0425 36.401 36.399 29.0445 36.3992 20.002C36.3992 10.9596 29.0427 3.60307 20.0001 3.6029C10.9576 3.60307 3.60117 10.9596 3.60117 20.0022C3.60117 29.0443 10.9576 36.401 20.0001 36.401Z" fill="white"/>
<path d="M17.4485 11.8642C17.9564 11.3565 18.7799 11.3567 19.2876 11.8642C19.7956 12.3723 19.7956 13.1955 19.2874 13.7036L14.29 18.7007L28.7614 18.7021C29.4797 18.7023 30.0618 19.2844 30.0618 20.0029C30.0616 20.7211 29.4795 21.303 28.7613 21.303L14.2893 21.3016L19.2879 26.2998C19.7958 26.8077 19.7958 27.6313 19.2879 28.139C19.0339 28.3929 18.7012 28.52 18.3682 28.52C18.0355 28.52 17.7027 28.3929 17.4487 28.1392L10.2302 20.921C9.98626 20.6772 9.84927 20.3466 9.84927 20.0015C9.84945 19.6565 9.98643 19.326 10.2304 19.0816L17.4485 11.8642Z" fill="white"/>
</svg>
