<svg width="182" height="237" viewBox="0 0 182 237" fill="none" xmlns="http://www.w3.org/2000/svg">
<path d="M15.6836 174.643L92.1623 213.69L165.737 174.643V21.9531H15.6836V174.643Z" fill="white"/>
<path d="M167.286 22.5352L14.1348 177.362L93.5177 216.797L167.286 178.916V22.5352Z" fill="#F2F3F2"/>
<path d="M10.6484 72.8499V177.946L13.3591 179.306L89.8378 218.352L92.1612 219.518L94.4846 218.352L168.253 179.306L170.963 177.946V16.9023H10.6484V72.8499ZM15.6825 175.032V21.9532H165.929V175.032L92.1612 214.079L15.6825 175.032Z" fill="#DCDEDC"/>
<path d="M90.8063 24.4786C91.5808 24.4786 92.3553 24.4786 93.1297 24.6728L90.8063 29.1409C87.3212 28.9466 84.2233 31.6663 84.0297 35.163C83.8361 38.6597 86.5467 41.7679 90.0319 41.9622H90.8063C92.3553 41.9622 93.9042 41.3794 95.0659 40.4081L97.5829 44.6819C95.6468 46.0417 93.3233 46.8187 90.8063 46.8187C84.6106 47.013 79.3829 42.3507 79.1893 36.1343C78.9957 29.9179 83.6425 24.6728 89.8382 24.4786H90.8063ZM98.7446 33.9974L101.649 38.854L98.7446 43.5163L96.034 38.854H90.4191L93.3233 33.9974H98.7446ZM94.0978 32.2491C94.0978 31.472 94.2914 30.695 94.6787 30.1122C95.0659 29.5294 95.8404 28.9466 96.4212 28.5581L96.8084 28.3638C97.5829 27.9753 97.7765 27.781 97.7765 27.3925C97.7765 27.004 97.1957 26.6155 96.8084 26.6155C96.034 26.6155 95.4531 27.004 95.0659 27.781L94.0978 26.8097C94.2914 26.4212 94.6787 26.0327 95.0659 25.6441C95.6467 25.2556 96.2276 25.2556 96.8084 25.2556C97.3893 25.2556 98.1638 25.4499 98.551 25.8384C98.9382 26.2269 99.3255 26.8097 99.3255 27.3925C99.3255 28.3638 98.7446 29.1409 97.5829 29.5294L97.0021 29.9179C96.4212 30.3064 96.034 30.5007 95.8404 31.0835H99.3255V32.4433L94.0978 32.2491ZM90.8063 56.5319L109.2 46.0417V16.9023H72.2191V45.8474L90.8063 56.5319ZM174.642 125.301H6.97016L0.774414 138.899L6.97016 152.497H174.642L180.645 138.899L174.642 125.301Z" fill="#FF492C"/>
<path d="M36.9613 116.559C36.8451 116.559 36.7483 116.52 36.6709 116.443C36.5934 116.352 36.5547 116.248 36.5547 116.132V92.5094C36.5547 92.3928 36.5934 92.2892 36.6709 92.1986C36.7483 92.1209 36.8451 92.082 36.9613 92.082H41.0466C41.1628 92.082 41.2596 92.1209 41.337 92.1986C41.4274 92.2892 41.4726 92.3928 41.4726 92.5094V112.149C41.4726 112.266 41.5306 112.324 41.6468 112.324H53.0315C53.1477 112.324 53.2509 112.363 53.3413 112.441C53.4187 112.531 53.4575 112.635 53.4575 112.752V116.132C53.4575 116.248 53.4187 116.352 53.3413 116.443C53.2509 116.52 53.1477 116.559 53.0315 116.559H36.9613ZM72.0253 105.719C72.1673 106.6 72.2125 107.591 72.1609 108.691C72.148 108.976 71.9995 109.119 71.7155 109.119H60.9504C60.8084 109.119 60.7633 109.177 60.8149 109.294C60.8794 109.76 61.0021 110.226 61.1828 110.692C61.7894 111.987 63.0221 112.635 64.8809 112.635C66.3653 112.622 67.5399 112.02 68.4047 110.828C68.495 110.686 68.5983 110.615 68.7145 110.615C68.7919 110.615 68.8758 110.66 68.9662 110.751L71.4638 113.237C71.58 113.354 71.6381 113.457 71.6381 113.548C71.6381 113.6 71.5929 113.697 71.5026 113.839C70.741 114.785 69.7536 115.523 68.5402 116.054C67.3398 116.572 66.0167 116.831 64.5711 116.831C62.5704 116.831 60.8794 116.378 59.4983 115.471C58.1172 114.565 57.1233 113.295 56.5166 111.664C56.0261 110.498 55.7809 108.97 55.7809 107.079C55.7809 105.797 55.9551 104.67 56.3036 103.699C56.8458 102.041 57.7816 100.72 59.1111 99.736C60.4535 98.7647 62.0411 98.279 63.8741 98.279C66.1975 98.279 68.0626 98.9524 69.4696 100.299C70.8765 101.646 71.7285 103.453 72.0253 105.719ZM63.9128 102.533C62.4413 102.533 61.4732 103.22 61.0085 104.593C60.9182 104.903 60.8407 105.279 60.7762 105.719C60.7762 105.836 60.8343 105.894 60.9504 105.894H66.9719C67.1139 105.894 67.1591 105.836 67.1075 105.719C66.9913 105.046 66.9332 104.722 66.9332 104.748C66.7267 104.049 66.3653 103.505 65.8489 103.116C65.3197 102.728 64.6743 102.533 63.9128 102.533ZM82.1709 98.2984C83.6811 98.2984 85.0299 98.5639 86.2175 99.0949C87.405 99.6129 88.3279 100.332 88.9862 101.251C89.6445 102.158 89.9736 103.168 89.9736 104.282V116.132C89.9736 116.248 89.9349 116.352 89.8575 116.443C89.78 116.52 89.6832 116.559 89.567 116.559H85.4817C85.3655 116.559 85.2687 116.52 85.1913 116.443C85.1009 116.352 85.0558 116.248 85.0558 116.132V114.986C85.0558 114.921 85.0364 114.875 84.9977 114.85C84.946 114.824 84.9009 114.843 84.8621 114.908C83.8811 116.19 82.3128 116.831 80.1572 116.831C78.3372 116.831 76.8722 116.391 75.7621 115.51C74.6392 114.629 74.0777 113.321 74.0777 111.586C74.0777 109.799 74.7102 108.407 75.9751 107.409C77.2272 106.425 79.0149 105.933 81.3383 105.933H84.8815C84.9977 105.933 85.0558 105.875 85.0558 105.758V104.981C85.0558 104.217 84.8234 103.615 84.3587 103.174C83.8941 102.747 83.197 102.533 82.2677 102.533C81.5577 102.533 80.964 102.663 80.4864 102.922C80.0088 103.181 79.699 103.544 79.557 104.01C79.4925 104.269 79.3441 104.385 79.1117 104.359L74.8909 103.796C74.6069 103.744 74.4778 103.641 74.5036 103.485C74.594 102.501 74.9812 101.614 75.6653 100.824C76.3494 100.034 77.2594 99.4187 78.3953 98.9783C79.5183 98.5251 80.7768 98.2984 82.1709 98.2984ZM81.4738 113.159C82.4677 113.159 83.3132 112.894 84.0102 112.363C84.7072 111.832 85.0558 111.146 85.0558 110.304V109.041C85.0558 108.925 84.9977 108.866 84.8815 108.866H82.3838C81.3383 108.866 80.5187 109.067 79.9249 109.469C79.3311 109.857 79.0343 110.414 79.0343 111.139C79.0343 111.774 79.2537 112.266 79.6926 112.616C80.1314 112.978 80.7252 113.159 81.4738 113.159ZM104.553 92.5094C104.553 92.3928 104.592 92.2892 104.669 92.1986C104.747 92.1209 104.843 92.082 104.96 92.082H109.045C109.161 92.082 109.258 92.1209 109.335 92.1986C109.413 92.2892 109.451 92.3928 109.451 92.5094V116.132C109.451 116.248 109.413 116.352 109.335 116.443C109.258 116.52 109.161 116.559 109.045 116.559H104.96C104.843 116.559 104.747 116.52 104.669 116.443C104.592 116.352 104.553 116.248 104.553 116.132V114.986C104.553 114.921 104.527 114.882 104.476 114.869C104.424 114.856 104.379 114.869 104.34 114.908C103.359 116.19 102.023 116.831 100.332 116.831C98.7058 116.831 97.3053 116.378 96.1306 115.471C94.956 114.565 94.1106 113.321 93.5943 111.741C93.207 110.524 93.0134 109.112 93.0134 107.506C93.0134 105.849 93.2199 104.405 93.633 103.174C94.1751 101.672 95.0206 100.487 96.1694 99.6194C97.3182 98.7387 98.738 98.2984 100.429 98.2984C102.107 98.2984 103.411 98.8812 104.34 100.047C104.379 100.124 104.424 100.15 104.476 100.124C104.527 100.099 104.553 100.053 104.553 99.9885V92.5094ZM103.817 111.1C104.282 110.246 104.514 109.067 104.514 107.565C104.514 106.011 104.256 104.787 103.74 103.893C103.211 102.987 102.436 102.533 101.416 102.533C100.319 102.533 99.4931 102.987 98.9381 103.893C98.3572 104.813 98.0668 106.049 98.0668 107.604C98.0668 109.002 98.3121 110.168 98.8026 111.1C99.3834 112.11 100.242 112.616 101.378 112.616C102.423 112.616 103.236 112.11 103.817 111.1ZM129.007 105.719C129.149 106.6 129.194 107.591 129.142 108.691C129.129 108.976 128.981 109.119 128.697 109.119H117.932C117.79 109.119 117.745 109.177 117.796 109.294C117.861 109.76 117.984 110.226 118.164 110.692C118.771 111.987 120.004 112.635 121.862 112.635C123.347 112.622 124.521 112.02 125.386 110.828C125.477 110.686 125.58 110.615 125.696 110.615C125.773 110.615 125.857 110.66 125.948 110.751L128.445 113.237C128.561 113.354 128.62 113.457 128.62 113.548C128.62 113.6 128.574 113.697 128.484 113.839C127.722 114.785 126.735 115.523 125.522 116.054C124.321 116.572 122.998 116.831 121.553 116.831C119.552 116.831 117.861 116.378 116.48 115.471C115.099 114.565 114.105 113.295 113.498 111.664C113.008 110.498 112.762 108.97 112.762 107.079C112.762 105.797 112.937 104.67 113.285 103.699C113.827 102.041 114.763 100.72 116.093 99.736C117.435 98.7647 119.023 98.279 120.856 98.279C123.179 98.279 125.044 98.9524 126.451 100.299C127.858 101.646 128.71 103.453 129.007 105.719ZM120.894 102.533C119.423 102.533 118.455 103.22 117.99 104.593C117.9 104.903 117.822 105.279 117.758 105.719C117.758 105.836 117.816 105.894 117.932 105.894H123.953C124.095 105.894 124.141 105.836 124.089 105.719C123.973 105.046 123.915 104.722 123.915 104.748C123.708 104.049 123.347 103.505 122.83 103.116C122.301 102.728 121.656 102.533 120.894 102.533ZM141.108 98.3373C141.947 98.3373 142.605 98.4992 143.083 98.8229C143.276 98.9265 143.347 99.1014 143.296 99.3474L142.56 103.349C142.547 103.621 142.386 103.699 142.076 103.582C141.727 103.466 141.321 103.408 140.856 103.408C140.675 103.408 140.424 103.433 140.101 103.485C139.262 103.55 138.552 103.854 137.971 104.398C137.39 104.955 137.1 105.687 137.1 106.593V116.132C137.1 116.248 137.061 116.352 136.984 116.443C136.893 116.52 136.79 116.559 136.674 116.559H132.608C132.492 116.559 132.389 116.52 132.298 116.443C132.221 116.352 132.182 116.248 132.182 116.132V98.9978C132.182 98.8812 132.221 98.7841 132.298 98.7064C132.389 98.6287 132.492 98.5898 132.608 98.5898H136.674C136.79 98.5898 136.893 98.6287 136.984 98.7064C137.061 98.7841 137.1 98.8812 137.1 98.9978V100.338C137.1 100.403 137.119 100.448 137.158 100.474C137.21 100.5 137.248 100.487 137.274 100.435C138.229 99.0366 139.507 98.3373 141.108 98.3373Z" fill="#252530"/>
<path d="M55.6462 134.586C55.6462 134.651 55.6268 134.703 55.5881 134.741C55.5365 134.793 55.4784 134.819 55.4139 134.819H48.8115C48.747 134.819 48.7147 134.851 48.7147 134.916V138.549C48.7147 138.614 48.747 138.646 48.8115 138.646H53.2453C53.3099 138.646 53.368 138.666 53.4196 138.704C53.4583 138.756 53.4777 138.814 53.4777 138.879V140.356C53.4777 140.42 53.4583 140.479 53.4196 140.53C53.368 140.569 53.3099 140.589 53.2453 140.589H48.8115C48.747 140.589 48.7147 140.621 48.7147 140.686V144.435C48.7147 144.5 48.747 144.532 48.8115 144.532H55.4139C55.4784 144.532 55.5365 144.558 55.5881 144.61C55.6268 144.649 55.6462 144.701 55.6462 144.765V146.242C55.6462 146.306 55.6268 146.358 55.5881 146.397C55.5365 146.449 55.4784 146.475 55.4139 146.475H46.7011C46.6366 146.475 46.5849 146.449 46.5462 146.397C46.4946 146.358 46.4688 146.306 46.4688 146.242V133.11C46.4688 133.045 46.4946 132.993 46.5462 132.954C46.5849 132.902 46.6366 132.876 46.7011 132.876H55.4139C55.4784 132.876 55.5365 132.902 55.5881 132.954C55.6268 132.993 55.6462 133.045 55.6462 133.11V134.586ZM62.4615 136.393C63.507 136.393 64.3461 136.703 64.9785 137.325C65.5981 137.947 65.9079 138.795 65.9079 139.87V146.242C65.9079 146.306 65.8821 146.358 65.8305 146.397C65.7917 146.449 65.7401 146.475 65.6756 146.475H63.8943C63.8297 146.475 63.7717 146.449 63.72 146.397C63.6813 146.358 63.6619 146.306 63.6619 146.242V140.336C63.6619 139.74 63.4941 139.255 63.1585 138.879C62.8229 138.517 62.3776 138.335 61.8226 138.335C61.2675 138.335 60.8158 138.517 60.4673 138.879C60.1317 139.242 59.9639 139.721 59.9639 140.317V146.242C59.9639 146.306 59.9445 146.358 59.9058 146.397C59.8541 146.449 59.7961 146.475 59.7315 146.475H57.9502C57.8857 146.475 57.8341 146.449 57.7953 146.397C57.7437 146.358 57.7179 146.306 57.7179 146.242V136.781C57.7179 136.716 57.7437 136.658 57.7953 136.606C57.8341 136.567 57.8857 136.548 57.9502 136.548H59.7315C59.7961 136.548 59.8541 136.567 59.9058 136.606C59.9445 136.658 59.9639 136.716 59.9639 136.781V137.403C59.9639 137.442 59.9768 137.468 60.0026 137.481C60.0284 137.493 60.0478 137.481 60.0607 137.442C60.5899 136.742 61.3902 136.393 62.4615 136.393ZM73.4977 138.141C73.4977 138.206 73.4719 138.258 73.4202 138.296C73.3815 138.348 73.3299 138.374 73.2653 138.374H71.2905C71.2259 138.374 71.1936 138.406 71.1936 138.471V143.153C71.1936 143.645 71.2969 144.001 71.5034 144.221C71.7229 144.442 72.0649 144.552 72.5296 144.552H73.1104C73.175 144.552 73.2266 144.571 73.2653 144.61C73.317 144.662 73.3428 144.72 73.3428 144.785V146.242C73.3428 146.384 73.2653 146.468 73.1104 146.494L72.1036 146.514C71.0839 146.514 70.3224 146.339 69.819 145.989C69.3156 145.64 69.0574 144.979 69.0445 144.008V138.471C69.0445 138.406 69.0122 138.374 68.9477 138.374H67.8441C67.7795 138.374 67.7214 138.348 67.6698 138.296C67.6311 138.258 67.6117 138.206 67.6117 138.141V136.781C67.6117 136.716 67.6311 136.658 67.6698 136.606C67.7214 136.567 67.7795 136.548 67.8441 136.548H68.9477C69.0122 136.548 69.0445 136.516 69.0445 136.451V134.178C69.0445 134.113 69.0639 134.055 69.1026 134.003C69.1542 133.964 69.2123 133.945 69.2768 133.945H70.9613C71.0258 133.945 71.0775 133.964 71.1162 134.003C71.1678 134.055 71.1936 134.113 71.1936 134.178V136.451C71.1936 136.516 71.2259 136.548 71.2905 136.548H73.2653C73.3299 136.548 73.3815 136.567 73.4202 136.606C73.4719 136.658 73.4977 136.716 73.4977 136.781V138.141ZM83.6432 140.394C83.6949 140.718 83.7207 141.081 83.7207 141.482L83.7013 142.085C83.7013 142.24 83.6239 142.318 83.469 142.318H77.4087C77.3442 142.318 77.3119 142.35 77.3119 142.415C77.3507 142.842 77.4088 143.134 77.4862 143.289C77.796 144.221 78.5511 144.694 79.7515 144.707C80.6292 144.707 81.3263 144.344 81.8426 143.619C81.8942 143.541 81.9587 143.503 82.0362 143.503C82.0878 143.503 82.133 143.522 82.1717 143.561L83.3722 144.552C83.4883 144.642 83.5077 144.746 83.4302 144.862C83.0301 145.432 82.5009 145.873 81.8426 146.183C81.1714 146.494 80.4292 146.65 79.616 146.65C78.6092 146.65 77.7508 146.423 77.0409 145.97C76.3439 145.516 75.834 144.882 75.5113 144.066C75.2144 143.367 75.066 142.395 75.066 141.152C75.066 140.401 75.1434 139.792 75.2983 139.326C75.5565 138.419 76.047 137.701 76.7698 137.17C77.4797 136.652 78.3381 136.393 79.3449 136.393C81.8878 136.393 83.3205 137.727 83.6432 140.394ZM79.3449 138.335C78.8673 138.335 78.4672 138.458 78.1445 138.704C77.8347 138.937 77.6153 139.268 77.4862 139.695C77.4088 139.915 77.3571 140.2 77.3313 140.55C77.3055 140.615 77.3313 140.647 77.4087 140.647H81.3392C81.4037 140.647 81.436 140.615 81.436 140.55C81.4102 140.226 81.3714 139.98 81.3198 139.812C81.2036 139.345 80.9778 138.983 80.6422 138.724C80.2936 138.465 79.8612 138.335 79.3449 138.335ZM90.3811 136.432C90.7941 136.432 91.1556 136.516 91.4653 136.684C91.5686 136.736 91.6073 136.833 91.5815 136.975L91.2524 138.724C91.2395 138.879 91.1491 138.925 90.9813 138.86C90.7877 138.795 90.5618 138.763 90.3036 138.763C90.1358 138.763 90.0068 138.769 89.9164 138.782C89.3743 138.808 88.9225 138.996 88.5611 139.345C88.1997 139.708 88.019 140.174 88.019 140.744V146.242C88.019 146.306 87.9996 146.358 87.9609 146.397C87.9092 146.449 87.8512 146.475 87.7866 146.475H86.0053C85.9408 146.475 85.8892 146.449 85.8505 146.397C85.7988 146.358 85.773 146.306 85.773 146.242V136.781C85.773 136.716 85.7988 136.658 85.8505 136.606C85.8892 136.567 85.9408 136.548 86.0053 136.548H87.7866C87.8512 136.548 87.9092 136.567 87.9609 136.606C87.9996 136.658 88.019 136.716 88.019 136.781V137.655C88.019 137.707 88.0254 137.733 88.0383 137.733C88.0641 137.746 88.09 137.733 88.1158 137.694C88.6579 136.852 89.413 136.432 90.3811 136.432ZM101.437 139.112C101.669 139.773 101.785 140.582 101.785 141.541C101.785 142.46 101.675 143.25 101.456 143.911C101.172 144.765 100.72 145.432 100.101 145.911C99.4682 146.391 98.6744 146.63 97.7192 146.63C96.8027 146.63 96.067 146.3 95.5119 145.64C95.4861 145.614 95.4603 145.607 95.4345 145.62C95.4087 145.633 95.3958 145.659 95.3958 145.698V149.913C95.3958 149.978 95.3764 150.03 95.3377 150.069C95.2861 150.121 95.228 150.146 95.1634 150.146H93.3822C93.3176 150.146 93.266 150.121 93.2273 150.069C93.1756 150.03 93.1498 149.978 93.1498 149.913V136.781C93.1498 136.716 93.1756 136.658 93.2273 136.606C93.266 136.567 93.3176 136.548 93.3822 136.548H95.1634C95.228 136.548 95.2861 136.567 95.3377 136.606C95.3764 136.658 95.3958 136.716 95.3958 136.781V137.364C95.3958 137.403 95.4087 137.429 95.4345 137.442C95.4603 137.455 95.4861 137.442 95.5119 137.403C96.0799 136.729 96.8221 136.393 97.7385 136.393C98.655 136.393 99.4295 136.632 100.062 137.111C100.694 137.591 101.153 138.258 101.437 139.112ZM98.9196 143.872C99.3068 143.276 99.5005 142.486 99.5005 141.502C99.5005 140.556 99.3456 139.812 99.0358 139.268C98.6744 138.633 98.1258 138.316 97.39 138.316C96.7188 138.316 96.2154 138.627 95.8798 139.248C95.5829 139.753 95.4345 140.505 95.4345 141.502C95.4345 142.525 95.5958 143.302 95.9185 143.833C96.2541 144.403 96.7382 144.688 97.3707 144.688C98.0548 144.688 98.5711 144.416 98.9196 143.872ZM108.562 136.432C108.975 136.432 109.336 136.516 109.646 136.684C109.749 136.736 109.788 136.833 109.762 136.975L109.433 138.724C109.42 138.879 109.33 138.925 109.162 138.86C108.968 138.795 108.742 138.763 108.484 138.763C108.316 138.763 108.187 138.769 108.097 138.782C107.555 138.808 107.103 138.996 106.742 139.345C106.38 139.708 106.2 140.174 106.2 140.744V146.242C106.2 146.306 106.18 146.358 106.142 146.397C106.09 146.449 106.032 146.475 105.967 146.475H104.186C104.121 146.475 104.07 146.449 104.031 146.397C103.979 146.358 103.954 146.306 103.954 146.242V136.781C103.954 136.716 103.979 136.658 104.031 136.606C104.07 136.567 104.121 136.548 104.186 136.548H105.967C106.032 136.548 106.09 136.567 106.142 136.606C106.18 136.658 106.2 136.716 106.2 136.781V137.655C106.2 137.707 106.206 137.733 106.219 137.733C106.245 137.746 106.271 137.733 106.296 137.694C106.839 136.852 107.594 136.432 108.562 136.432ZM112.512 135.188C112.111 135.188 111.782 135.059 111.524 134.8C111.266 134.541 111.137 134.21 111.137 133.809C111.137 133.407 111.266 133.077 111.524 132.818C111.782 132.559 112.111 132.43 112.512 132.43C112.912 132.43 113.241 132.559 113.499 132.818C113.757 133.077 113.886 133.407 113.886 133.809C113.886 134.21 113.757 134.541 113.499 134.8C113.241 135.059 112.912 135.188 112.512 135.188ZM111.582 146.475C111.518 146.475 111.466 146.449 111.427 146.397C111.376 146.358 111.35 146.306 111.35 146.242V136.762C111.35 136.697 111.376 136.645 111.427 136.606C111.466 136.555 111.518 136.529 111.582 136.529H113.363C113.428 136.529 113.486 136.555 113.538 136.606C113.576 136.645 113.596 136.697 113.596 136.762V146.242C113.596 146.306 113.576 146.358 113.538 146.397C113.486 146.449 113.428 146.475 113.363 146.475H111.582ZM119.85 146.591C119.036 146.591 118.32 146.468 117.7 146.222C117.094 145.989 116.623 145.659 116.287 145.232C115.951 144.817 115.784 144.351 115.784 143.833V143.658C115.784 143.593 115.803 143.535 115.842 143.483C115.893 143.444 115.951 143.425 116.016 143.425H117.72C117.784 143.425 117.842 143.444 117.894 143.483C117.933 143.535 117.952 143.593 117.952 143.658V143.697C117.952 144.021 118.126 144.306 118.475 144.552C118.836 144.785 119.288 144.901 119.83 144.901C120.347 144.901 120.766 144.798 121.089 144.591C121.411 144.37 121.573 144.098 121.573 143.775C121.573 143.477 121.437 143.25 121.166 143.095C120.908 142.952 120.482 142.797 119.888 142.628L119.153 142.395C118.494 142.201 117.939 141.994 117.487 141.774C117.036 141.554 116.655 141.249 116.345 140.861C116.035 140.485 115.88 139.999 115.88 139.404C115.88 138.497 116.235 137.778 116.945 137.247C117.655 136.703 118.591 136.432 119.753 136.432C120.54 136.432 121.231 136.555 121.824 136.801C122.418 137.06 122.876 137.409 123.199 137.85C123.522 138.303 123.683 138.814 123.683 139.384C123.683 139.449 123.664 139.507 123.625 139.559C123.574 139.598 123.515 139.617 123.451 139.617H121.805C121.741 139.617 121.683 139.598 121.631 139.559C121.592 139.507 121.573 139.449 121.573 139.384C121.573 139.048 121.411 138.769 121.089 138.549C120.753 138.316 120.301 138.199 119.733 138.199C119.23 138.199 118.823 138.29 118.514 138.471C118.191 138.666 118.03 138.931 118.03 139.268C118.03 139.579 118.178 139.812 118.475 139.967C118.785 140.135 119.295 140.317 120.004 140.511L120.43 140.628C121.115 140.835 121.689 141.042 122.154 141.249C122.618 141.469 123.012 141.767 123.335 142.143C123.657 142.531 123.819 143.03 123.819 143.639C123.819 144.558 123.457 145.277 122.734 145.795C122.012 146.326 121.05 146.591 119.85 146.591ZM134.061 140.394C134.113 140.718 134.139 141.081 134.139 141.482L134.119 142.085C134.119 142.24 134.042 142.318 133.887 142.318H127.827C127.762 142.318 127.73 142.35 127.73 142.415C127.769 142.842 127.827 143.134 127.904 143.289C128.214 144.221 128.969 144.694 130.169 144.707C131.047 144.707 131.744 144.344 132.26 143.619C132.312 143.541 132.377 143.503 132.454 143.503C132.506 143.503 132.551 143.522 132.59 143.561L133.79 144.552C133.906 144.642 133.926 144.746 133.848 144.862C133.448 145.432 132.912 145.873 132.241 146.183C131.583 146.494 130.847 146.65 130.034 146.65C129.027 146.65 128.169 146.423 127.459 145.97C126.762 145.516 126.252 144.882 125.929 144.066C125.632 143.367 125.484 142.395 125.484 141.152C125.484 140.401 125.561 139.792 125.716 139.326C125.974 138.419 126.458 137.701 127.168 137.17C127.891 136.652 128.756 136.393 129.763 136.393C132.306 136.393 133.738 137.727 134.061 140.394ZM129.763 138.335C129.285 138.335 128.885 138.458 128.562 138.704C128.253 138.937 128.033 139.268 127.904 139.695C127.827 139.915 127.775 140.2 127.749 140.55C127.723 140.615 127.749 140.647 127.827 140.647H131.757C131.822 140.647 131.854 140.615 131.854 140.55C131.828 140.226 131.789 139.98 131.738 139.812C131.622 139.345 131.389 138.983 131.041 138.724C130.705 138.465 130.279 138.335 129.763 138.335Z" fill="white"/>
<path d="M78.3953 162.383C78.3953 162.448 78.3695 162.5 78.3179 162.538C78.2791 162.59 78.2275 162.616 78.163 162.616H71.8317C71.7672 162.616 71.7349 162.649 71.7349 162.713V165.724C71.7349 165.789 71.7672 165.822 71.8317 165.822H75.9945C76.059 165.822 76.1106 165.841 76.1494 165.88C76.201 165.932 76.2268 165.99 76.2268 166.055V167.939C76.2268 168.004 76.201 168.062 76.1494 168.114C76.1106 168.153 76.059 168.172 75.9945 168.172H71.8317C71.7672 168.172 71.7349 168.204 71.7349 168.269V173.631C71.7349 173.696 71.7155 173.747 71.6768 173.786C71.6252 173.838 71.5671 173.864 71.5025 173.864H69.2372C69.1727 173.864 69.1211 173.838 69.0823 173.786C69.0307 173.747 69.0049 173.696 69.0049 173.631V160.499C69.0049 160.434 69.0307 160.382 69.0823 160.343C69.1211 160.292 69.1727 160.266 69.2372 160.266H78.163C78.2275 160.266 78.2791 160.292 78.3179 160.343C78.3695 160.382 78.3953 160.434 78.3953 160.499V162.383ZM86.9532 173.864C86.8241 173.864 86.7402 173.799 86.7015 173.67L86.1206 171.766C86.0948 171.714 86.0625 171.688 86.0238 171.688H81.2608C81.2221 171.688 81.1898 171.714 81.164 171.766L80.6025 173.67C80.5638 173.799 80.4799 173.864 80.3508 173.864H77.8919C77.8145 173.864 77.7564 173.838 77.7176 173.786C77.6789 173.747 77.6725 173.683 77.6983 173.592L81.8804 160.46C81.9191 160.33 82.003 160.266 82.1321 160.266H85.1719C85.301 160.266 85.3849 160.33 85.4236 160.46L89.6057 173.592C89.6186 173.618 89.6251 173.65 89.6251 173.689C89.6251 173.806 89.5541 173.864 89.4121 173.864H86.9532ZM81.8611 169.454C81.8481 169.532 81.874 169.571 81.9385 169.571H85.3462C85.4236 169.571 85.4494 169.532 85.4236 169.454L83.6811 163.685C83.6681 163.633 83.6488 163.607 83.623 163.607C83.5972 163.62 83.5778 163.646 83.5649 163.685L81.8611 169.454ZM91.5613 173.864C91.4967 173.864 91.4451 173.838 91.4064 173.786C91.3547 173.747 91.3289 173.696 91.3289 173.631V160.499C91.3289 160.434 91.3547 160.382 91.4064 160.343C91.4451 160.292 91.4967 160.266 91.5613 160.266H93.8266C93.8911 160.266 93.9492 160.292 94.0008 160.343C94.0396 160.382 94.0589 160.434 94.0589 160.499V171.416C94.0589 171.481 94.0912 171.513 94.1557 171.513H100.487C100.552 171.513 100.61 171.533 100.661 171.572C100.7 171.623 100.719 171.682 100.719 171.747V173.631C100.719 173.696 100.7 173.747 100.661 173.786C100.61 173.838 100.552 173.864 100.487 173.864H91.5613ZM102.636 173.864C102.572 173.864 102.514 173.838 102.462 173.786C102.423 173.747 102.404 173.696 102.404 173.631V160.499C102.404 160.434 102.423 160.382 102.462 160.343C102.514 160.292 102.572 160.266 102.636 160.266H104.901C104.966 160.266 105.018 160.292 105.056 160.343C105.108 160.382 105.134 160.434 105.134 160.499V171.416C105.134 171.481 105.166 171.513 105.231 171.513H111.562C111.626 171.513 111.685 171.533 111.736 171.572C111.775 171.623 111.794 171.682 111.794 171.747V173.631C111.794 173.696 111.775 173.747 111.736 173.786C111.685 173.838 111.626 173.864 111.562 173.864H102.636ZM73.6904 189.658C73.6646 189.683 73.6581 189.709 73.6711 189.735C73.684 189.761 73.7098 189.774 73.7485 189.774H78.9955C79.0601 189.774 79.1181 189.793 79.1698 189.832C79.2085 189.884 79.2279 189.942 79.2279 190.007V191.892C79.2279 191.956 79.2085 192.008 79.1698 192.047C79.1181 192.099 79.0601 192.125 78.9955 192.125H70.2828C70.2182 192.125 70.1601 192.099 70.1085 192.047C70.0698 192.008 70.0504 191.956 70.0504 191.892V190.104C70.0504 189.988 70.0891 189.891 70.1666 189.813C70.7991 189.191 71.4445 188.518 72.1028 187.793C72.7611 187.054 73.1741 186.595 73.3419 186.413C73.7033 185.986 74.0712 185.578 74.4455 185.189C75.6201 183.881 76.2074 182.91 76.2074 182.276C76.2074 181.822 76.0461 181.447 75.7234 181.149C75.4007 180.864 74.9812 180.721 74.4649 180.721C73.9486 180.721 73.5291 180.864 73.2064 181.149C72.8837 181.447 72.7223 181.835 72.7223 182.314V182.8C72.7223 182.865 72.6965 182.923 72.6449 182.975C72.6062 183.014 72.5545 183.033 72.49 183.033H70.2053C70.1408 183.033 70.0891 183.014 70.0504 182.975C69.9988 182.923 69.973 182.865 69.973 182.8V181.887C70.0117 181.188 70.2311 180.566 70.6313 180.022C71.0314 179.491 71.5606 179.083 72.2189 178.798C72.8901 178.513 73.6388 178.371 74.4649 178.371C75.3813 178.371 76.1816 178.539 76.8657 178.876C77.5369 179.226 78.0597 179.692 78.434 180.275C78.7954 180.857 78.9762 181.505 78.9762 182.217C78.9762 182.761 78.8406 183.318 78.5696 183.888C78.2985 184.458 77.8919 185.073 77.3498 185.733C76.9496 186.238 76.5172 186.737 76.0525 187.229C75.5879 187.721 74.8973 188.434 73.9808 189.366L73.6904 189.658ZM85.5204 192.338C84.1006 192.338 82.9776 191.937 82.1515 191.134C81.3254 190.344 80.9123 189.263 80.9123 187.89V182.761C80.9123 181.414 81.3254 180.346 82.1515 179.556C82.9776 178.766 84.1006 178.371 85.5204 178.371C86.9403 178.371 88.0697 178.766 88.9087 179.556C89.7348 180.346 90.1479 181.414 90.1479 182.761V187.89C90.1479 189.263 89.7348 190.344 88.9087 191.134C88.0697 191.937 86.9403 192.338 85.5204 192.338ZM85.5204 189.988C86.1013 189.988 86.5659 189.806 86.9145 189.444C87.2501 189.094 87.4179 188.621 87.4179 188.026V182.683C87.4179 182.088 87.2501 181.615 86.9145 181.265C86.5659 180.903 86.1013 180.721 85.5204 180.721C84.9525 180.721 84.5007 180.903 84.1651 181.265C83.8166 181.615 83.6423 182.088 83.6423 182.683V188.026C83.6423 188.621 83.8166 189.094 84.1651 189.444C84.5007 189.806 84.9525 189.988 85.5204 189.988ZM95.5691 189.658C95.5433 189.683 95.5369 189.709 95.5498 189.735C95.5627 189.761 95.5885 189.774 95.6272 189.774H100.874C100.939 189.774 100.997 189.793 101.049 189.832C101.087 189.884 101.107 189.942 101.107 190.007V191.892C101.107 191.956 101.087 192.008 101.049 192.047C100.997 192.099 100.939 192.125 100.874 192.125H92.1615C92.0969 192.125 92.0453 192.099 92.0066 192.047C91.955 192.008 91.9291 191.956 91.9291 191.892V190.104C91.9291 189.988 91.9679 189.891 92.0453 189.813C92.6778 189.191 93.3232 188.518 93.9815 187.793C94.6398 187.054 95.0528 186.595 95.2206 186.413C95.5821 185.986 95.9499 185.578 96.3242 185.189C97.4989 183.881 98.0862 182.91 98.0862 182.276C98.0862 181.822 97.9248 181.447 97.6021 181.149C97.2794 180.864 96.8599 180.721 96.3436 180.721C95.8273 180.721 95.4078 180.864 95.0851 181.149C94.7624 181.447 94.6011 181.835 94.6011 182.314V182.8C94.6011 182.865 94.5817 182.923 94.543 182.975C94.4913 183.014 94.4333 183.033 94.3687 183.033H92.084C92.0195 183.033 91.9679 183.014 91.9291 182.975C91.8775 182.923 91.8517 182.865 91.8517 182.8V181.887C91.8904 181.188 92.1098 180.566 92.51 180.022C92.9101 179.491 93.4458 179.083 94.117 178.798C94.7753 178.513 95.5175 178.371 96.3436 178.371C97.2601 178.371 98.0603 178.539 98.7445 178.876C99.4157 179.226 99.9384 179.692 100.313 180.275C100.674 180.857 100.855 181.505 100.855 182.217C100.855 182.761 100.719 183.318 100.448 183.888C100.177 184.458 99.7706 185.073 99.2285 185.733C98.8284 186.238 98.396 186.737 97.9313 187.229C97.4666 187.721 96.776 188.434 95.8596 189.366L95.5691 189.658ZM110.865 185.636C111.123 186.232 111.252 186.918 111.252 187.695C111.252 188.395 111.136 189.042 110.904 189.638C110.594 190.467 110.078 191.114 109.355 191.581C108.619 192.047 107.754 192.28 106.76 192.28C105.779 192.28 104.921 192.034 104.185 191.542C103.436 191.05 102.901 190.383 102.578 189.541C102.397 189.036 102.294 188.492 102.268 187.909C102.268 187.754 102.346 187.676 102.501 187.676H104.785C104.94 187.676 105.018 187.754 105.018 187.909C105.069 188.337 105.14 188.654 105.231 188.861C105.347 189.198 105.54 189.457 105.811 189.638C106.07 189.832 106.379 189.929 106.741 189.929C107.464 189.929 107.961 189.612 108.232 188.978C108.412 188.589 108.503 188.136 108.503 187.618C108.503 187.009 108.406 186.51 108.212 186.122C107.915 185.513 107.419 185.209 106.721 185.209C106.579 185.209 106.431 185.248 106.276 185.325C106.121 185.416 105.934 185.539 105.715 185.695C105.663 185.733 105.611 185.753 105.56 185.753C105.482 185.753 105.424 185.714 105.386 185.636L104.243 184.024C104.217 183.985 104.204 183.94 104.204 183.888C104.204 183.81 104.23 183.745 104.282 183.694L107.36 180.993C107.386 180.968 107.399 180.942 107.399 180.916C107.386 180.89 107.36 180.877 107.322 180.877H102.772C102.707 180.877 102.656 180.851 102.617 180.799C102.565 180.76 102.539 180.708 102.539 180.644V178.759C102.539 178.695 102.565 178.643 102.617 178.604C102.656 178.552 102.707 178.526 102.772 178.526H110.846C110.91 178.526 110.968 178.552 111.02 178.604C111.059 178.643 111.078 178.695 111.078 178.759V180.896C111.078 181 111.033 181.097 110.942 181.188L108.406 183.519C108.38 183.545 108.374 183.571 108.387 183.597C108.387 183.622 108.412 183.635 108.464 183.635C109.587 183.856 110.387 184.523 110.865 185.636Z" fill="#252530"/>
</svg>
