<svg width="182" height="205" viewBox="0 0 182 205" fill="none" xmlns="http://www.w3.org/2000/svg">
<g clip-path="url(#clip0_674_1154)">
<path d="M92.5878 199.216L12.8369 159.469V26.8448C19.2582 26.0858 25.3327 23.5245 30.3564 19.4577C35.3801 15.3909 39.1472 9.98525 41.2212 3.86719H140.624C142.72 10.0545 146.544 15.5134 151.646 19.5988C156.748 23.6842 162.914 26.2254 169.415 26.9222V159.469L92.5878 199.216Z" fill="white"/>
<path d="M13.5527 159.469L92.4323 199.216L168.446 159.43V26.9222C162.127 26.0551 156.131 23.5994 151.021 19.7852L13.5527 159.469Z" fill="#F7F8F7"/>
<path d="M172.319 23.2097H172.067C165.293 23.1977 158.722 20.8982 153.422 16.6847C148.122 12.4712 144.403 6.59127 142.87 0L38.7232 0C37.1901 6.56229 33.4926 12.419 28.2251 16.6286C22.9576 20.8382 16.4261 23.1561 9.68066 23.2097V162.894L12.43 164.286L90.1479 203.82L92.4713 205L94.7753 203.781L169.628 164.248L172.319 162.836V27.078V23.2097ZM92.4326 199.217L13.553 159.47V26.8459C19.9287 26.0662 25.9512 23.4922 30.9184 19.424C35.8856 15.3558 39.5929 9.96089 41.6081 3.86829H139.946C141.985 10.0355 145.756 15.4875 150.809 19.5749C155.862 23.6623 161.984 26.213 168.447 26.9233V159.47L92.4326 199.217Z" fill="#E9E9EA"/>
<mask id="mask0_674_1154" style="mask-type:luminance" maskUnits="userSpaceOnUse" x="0" y="110" width="182" height="30">
<path d="M175.785 110.227H6.21511L0 124.733L6.21511 139.239H175.785L182 124.733L175.785 110.227Z" fill="white"/>
</mask>
<g mask="url(#mask0_674_1154)">
<path d="M-9.68066 100.555H191.681V148.908H-9.68066V100.555Z" fill="#9132A2"/>
</g>
<mask id="mask1_674_1154" style="mask-type:luminance" maskUnits="userSpaceOnUse" x="71" y="0" width="40" height="41">
<path d="M91.0004 40.617L110.362 29.7858V0H71.6387V29.7858L91.0004 40.617ZM94.8727 15.2024C94.8421 14.4016 95.0439 13.609 95.4536 12.9201C95.9829 12.2078 96.6908 11.6474 97.5059 11.2954L97.9706 11.102C98.7644 10.7152 98.958 10.3864 98.958 9.99953C98.958 9.6127 98.5321 9.20653 97.8544 9.20653C97.4462 9.17632 97.039 9.2761 96.6911 9.49155C96.3432 9.707 96.0727 10.027 95.9182 10.4057L94.8727 9.3806C95.1331 8.87518 95.5373 8.45796 96.0344 8.18143C96.5578 7.87972 97.1535 7.72595 97.7576 7.73658C98.4882 7.71266 99.2074 7.92276 99.8099 8.33616C100.085 8.51671 100.309 8.76415 100.461 9.05517C100.614 9.34618 100.689 9.67118 100.681 9.99953C100.681 11.1213 100.023 11.7983 98.7451 12.4172L98.0287 12.746C97.2929 13.1135 96.9251 13.423 96.8089 13.9839H100.681V15.4732H94.8727V15.2024ZM99.7131 17.4073L102.617 22.2427L99.7131 27.078L96.8089 22.2233H91.0004L93.9046 17.4073H99.7131ZM91.5619 7.73658C92.3678 7.73527 93.172 7.81301 93.9627 7.96868L91.5619 12.688C89.7575 12.6517 88.0124 13.3318 86.7093 14.5791C85.4063 15.8264 84.6517 17.5391 84.611 19.3414C84.6567 21.1404 85.4135 22.8482 86.716 24.0913C88.0185 25.3345 89.7608 26.0119 91.5619 25.9756C93.2193 25.9854 94.8283 25.4177 96.1119 24.3702L98.7451 28.7027C96.6358 30.165 94.1293 30.9479 91.5619 30.9463C88.4083 31.0139 85.3564 29.8307 83.074 27.6558C80.7916 25.4809 79.4646 22.4914 79.3834 19.3414C79.4646 16.1915 80.7916 13.202 83.074 11.0271C85.3564 8.85218 88.4083 7.66904 91.5619 7.73658Z" fill="white"/>
</mask>
<g mask="url(#mask1_674_1154)">
<path d="M61.958 -9.69141H120.043V50.2671H61.958V-9.69141Z" fill="#9132A2"/>
</g>
<path d="M36.9613 100.769C36.8451 100.769 36.7483 100.73 36.6709 100.653C36.5934 100.562 36.5547 100.459 36.5547 100.343V76.8239C36.5547 76.7079 36.5934 76.6047 36.6709 76.5145C36.7483 76.4371 36.8451 76.3984 36.9613 76.3984H41.0466C41.1628 76.3984 41.2596 76.4371 41.337 76.5145C41.4274 76.6047 41.4726 76.7079 41.4726 76.8239V96.3782C41.4726 96.4942 41.5306 96.5522 41.6468 96.5522H53.0315C53.1477 96.5522 53.2509 96.5909 53.3413 96.6683C53.4187 96.7585 53.4575 96.8617 53.4575 96.9777V100.343C53.4575 100.459 53.4187 100.562 53.3413 100.653C53.2509 100.73 53.1477 100.769 53.0315 100.769H36.9613ZM72.0253 89.9761C72.1673 90.8529 72.2125 91.8394 72.1609 92.9354C72.1479 93.2191 71.9995 93.3609 71.7155 93.3609H60.9504C60.8084 93.3609 60.7633 93.4189 60.8149 93.535C60.8794 93.9992 61.0021 94.4634 61.1828 94.9275C61.7894 96.217 63.0221 96.8617 64.8809 96.8617C66.3653 96.8488 67.5399 96.2492 68.4047 95.0629C68.495 94.9211 68.5983 94.8502 68.7145 94.8502C68.7919 94.8502 68.8758 94.8953 68.9662 94.9856L71.4638 97.4613C71.58 97.5773 71.6381 97.6805 71.6381 97.7707C71.6381 97.8223 71.5929 97.919 71.5026 98.0609C70.741 99.0021 69.7536 99.7371 68.5402 100.266C67.3398 100.782 66.0167 101.039 64.5711 101.039C62.5704 101.039 60.8794 100.588 59.4983 99.6855C58.1172 98.7829 57.1233 97.5193 56.5166 95.8946C56.0261 94.7341 55.7809 93.2126 55.7809 91.33C55.7809 90.0535 55.9551 88.9317 56.3036 87.9646C56.8458 86.3142 57.7816 84.9989 59.1111 84.019C60.4535 83.0519 62.0411 82.5684 63.874 82.5684C66.1975 82.5684 68.0626 83.2389 69.4696 84.5799C70.8765 85.9209 71.7284 87.7196 72.0253 89.9761ZM63.9128 86.8041C62.4413 86.8041 61.4732 87.4875 61.0085 88.8543C60.9182 89.1638 60.8407 89.5377 60.7762 89.9761C60.7762 90.0922 60.8343 90.1502 60.9504 90.1502H66.9719C67.1139 90.1502 67.1591 90.0922 67.1075 89.9761C66.9913 89.3056 66.9332 88.9833 66.9332 89.0091C66.7267 88.3128 66.3653 87.7712 65.8489 87.3844C65.3197 86.9976 64.6743 86.8041 63.9128 86.8041ZM82.1709 82.5877C83.6811 82.5877 85.0299 82.852 86.2175 83.3807C87.405 83.8965 88.3279 84.6121 88.9862 85.5276C89.6445 86.4302 89.9736 87.436 89.9736 88.5449V100.343C89.9736 100.459 89.9349 100.562 89.8575 100.653C89.78 100.73 89.6832 100.769 89.567 100.769H85.4817C85.3655 100.769 85.2687 100.73 85.1913 100.653C85.1009 100.562 85.0558 100.459 85.0558 100.343V99.202C85.0558 99.1375 85.0364 99.0924 84.9977 99.0666C84.946 99.0408 84.9009 99.0602 84.8621 99.1246C83.8811 100.401 82.3128 101.039 80.1572 101.039C78.3372 101.039 76.8722 100.601 75.7621 99.7242C74.6392 98.8474 74.0777 97.5451 74.0777 95.8173C74.0777 94.0378 74.7101 92.6517 75.9751 91.6588C77.2272 90.6789 79.0149 90.1889 81.3383 90.1889H84.8815C84.9977 90.1889 85.0558 90.1309 85.0558 90.0148V89.2412C85.0558 88.4804 84.8234 87.8808 84.3587 87.4424C83.8941 87.0169 83.197 86.8041 82.2677 86.8041C81.5577 86.8041 80.964 86.9331 80.4864 87.191C80.0088 87.4489 79.699 87.8099 79.557 88.2741C79.4925 88.532 79.344 88.648 79.1117 88.6222L74.8909 88.0613C74.6069 88.0098 74.4778 87.9066 74.5036 87.7519C74.594 86.7719 74.9812 85.8886 75.6653 85.1021C76.3494 84.3155 77.2594 83.7031 78.3953 83.2647C79.5183 82.8134 80.7768 82.5877 82.1709 82.5877ZM81.4738 97.3839C82.4677 97.3839 83.3132 97.1196 84.0102 96.5909C84.7072 96.0622 85.0558 95.3788 85.0558 94.5407V93.2835C85.0558 93.1675 84.9977 93.1094 84.8815 93.1094H82.3838C81.3383 93.1094 80.5187 93.3093 79.9249 93.709C79.3311 94.0959 79.0343 94.6503 79.0343 95.3724C79.0343 96.0042 79.2537 96.4942 79.6926 96.8424C80.1314 97.2034 80.7252 97.3839 81.4738 97.3839ZM104.553 76.8239C104.553 76.7079 104.592 76.6047 104.669 76.5145C104.747 76.4371 104.843 76.3984 104.96 76.3984H109.045C109.161 76.3984 109.258 76.4371 109.335 76.5145C109.413 76.6047 109.451 76.7079 109.451 76.8239V100.343C109.451 100.459 109.413 100.562 109.335 100.653C109.258 100.73 109.161 100.769 109.045 100.769H104.96C104.843 100.769 104.747 100.73 104.669 100.653C104.592 100.562 104.553 100.459 104.553 100.343V99.202C104.553 99.1375 104.527 99.0989 104.476 99.086C104.424 99.0731 104.379 99.086 104.34 99.1246C103.359 100.401 102.023 101.039 100.332 101.039C98.7058 101.039 97.3053 100.588 96.1306 99.6855C94.956 98.7829 94.1106 97.5451 93.5943 95.972C93.207 94.7599 93.0134 93.3544 93.0134 91.7555C93.0134 90.1051 93.2199 88.6674 93.633 87.4424C94.1751 85.9467 95.0206 84.7668 96.1694 83.9029C97.3182 83.0261 98.738 82.5877 100.429 82.5877C102.107 82.5877 103.411 83.1679 104.34 84.3284C104.379 84.4058 104.424 84.4316 104.476 84.4058C104.527 84.38 104.553 84.3349 104.553 84.2704V76.8239ZM103.817 95.3337C104.282 94.4827 104.514 93.3093 104.514 91.8136C104.514 90.2663 104.256 89.0477 103.74 88.158C103.211 87.2554 102.436 86.8041 101.416 86.8041C100.319 86.8041 99.4931 87.2554 98.9381 88.158C98.3572 89.0735 98.0668 90.3049 98.0668 91.8523C98.0668 93.2448 98.3121 94.4053 98.8026 95.3337C99.3834 96.3395 100.242 96.8424 101.378 96.8424C102.423 96.8424 103.236 96.3395 103.817 95.3337ZM129.007 89.9761C129.149 90.8529 129.194 91.8394 129.142 92.9354C129.129 93.2191 128.981 93.3609 128.697 93.3609H117.932C117.79 93.3609 117.745 93.4189 117.796 93.535C117.861 93.9992 117.984 94.4634 118.164 94.9275C118.771 96.217 120.004 96.8617 121.862 96.8617C123.347 96.8488 124.521 96.2492 125.386 95.0629C125.477 94.9211 125.58 94.8502 125.696 94.8502C125.773 94.8502 125.857 94.8953 125.948 94.9856L128.445 97.4613C128.562 97.5773 128.62 97.6805 128.62 97.7707C128.62 97.8223 128.574 97.919 128.484 98.0609C127.722 99.0021 126.735 99.7371 125.522 100.266C124.321 100.782 122.998 101.039 121.553 101.039C119.552 101.039 117.861 100.588 116.48 99.6855C115.099 98.7829 114.105 97.5193 113.498 95.8946C113.008 94.7341 112.762 93.2126 112.762 91.33C112.762 90.0535 112.937 88.9317 113.285 87.9646C113.827 86.3142 114.763 84.9989 116.093 84.019C117.435 83.0519 119.023 82.5684 120.856 82.5684C123.179 82.5684 125.044 83.2389 126.451 84.5799C127.858 85.9209 128.71 87.7196 129.007 89.9761ZM120.894 86.8041C119.423 86.8041 118.455 87.4875 117.99 88.8543C117.9 89.1638 117.822 89.5377 117.758 89.9761C117.758 90.0922 117.816 90.1502 117.932 90.1502H123.953C124.095 90.1502 124.141 90.0922 124.089 89.9761C123.973 89.3056 123.915 88.9833 123.915 89.0091C123.708 88.3128 123.347 87.7712 122.83 87.3844C122.301 86.9976 121.656 86.8041 120.894 86.8041ZM141.108 82.6264C141.947 82.6264 142.605 82.7876 143.083 83.1099C143.276 83.2131 143.347 83.3871 143.296 83.6321L142.56 87.6165C142.547 87.8873 142.386 87.9646 142.076 87.8486C141.727 87.7325 141.321 87.6745 140.856 87.6745C140.675 87.6745 140.424 87.7003 140.101 87.7519C139.262 87.8163 138.552 88.1194 137.971 88.6609C137.39 89.2154 137.1 89.9439 137.1 90.8465V100.343C137.1 100.459 137.061 100.562 136.984 100.653C136.893 100.73 136.79 100.769 136.674 100.769H132.608C132.492 100.769 132.389 100.73 132.298 100.653C132.221 100.562 132.182 100.459 132.182 100.343V83.284C132.182 83.1679 132.221 83.0712 132.298 82.9939C132.389 82.9165 132.492 82.8778 132.608 82.8778H136.674C136.79 82.8778 136.893 82.9165 136.984 82.9939C137.061 83.0712 137.1 83.1679 137.1 83.284V84.6186C137.1 84.683 137.119 84.7282 137.158 84.7539C137.21 84.7797 137.248 84.7668 137.274 84.7153C138.229 83.3227 139.507 82.6264 141.108 82.6264Z" fill="#252530"/>
<path d="M60.0012 132.101C59.8721 132.101 59.7882 132.037 59.7495 131.908L59.1106 129.838C59.0847 129.787 59.0525 129.761 59.0137 129.761H53.9023C53.8635 129.761 53.8313 129.787 53.8054 129.838L53.1665 131.908C53.1278 132.037 53.0439 132.101 52.9148 132.101H50.9786C50.9012 132.101 50.8431 132.075 50.8044 132.024C50.7657 131.985 50.7592 131.921 50.785 131.83L54.9865 118.755C55.0252 118.627 55.1091 118.562 55.2382 118.562H57.6584C57.7875 118.562 57.8714 118.627 57.9101 118.755L62.131 131.83C62.1439 131.856 62.1503 131.888 62.1503 131.927C62.1503 132.043 62.0793 132.101 61.9374 132.101H60.0012ZM54.4057 127.885C54.3928 127.962 54.4186 128.001 54.4831 128.001H58.4135C58.491 128.001 58.5168 127.962 58.491 127.885L56.4967 121.405C56.4838 121.354 56.4645 121.328 56.4386 121.328C56.4128 121.328 56.3935 121.354 56.3806 121.405L54.4057 127.885ZM74.5225 122.063C75.5164 122.063 76.2973 122.359 76.8652 122.953C77.4203 123.559 77.6978 124.397 77.6978 125.467V131.869C77.6978 131.933 77.6784 131.985 77.6397 132.024C77.5881 132.075 77.53 132.101 77.4654 132.101H75.7035C75.639 132.101 75.5874 132.075 75.5486 132.024C75.497 131.985 75.4712 131.933 75.4712 131.869V125.931C75.4712 125.338 75.3163 124.867 75.0065 124.519C74.6838 124.171 74.2579 123.997 73.7286 123.997C73.1994 123.997 72.767 124.171 72.4314 124.519C72.0958 124.867 71.928 125.332 71.928 125.912V131.869C71.928 131.933 71.9086 131.985 71.8699 132.024C71.8183 132.075 71.7602 132.101 71.6957 132.101H69.9337C69.8692 132.101 69.8176 132.075 69.7789 132.024C69.7272 131.985 69.7014 131.933 69.7014 131.869V125.931C69.7014 125.338 69.5401 124.867 69.2174 124.519C68.8947 124.171 68.4687 123.997 67.9395 123.997C67.449 123.997 67.0424 124.139 66.7197 124.422C66.4099 124.706 66.2292 125.093 66.1776 125.583V131.869C66.1776 131.933 66.1582 131.985 66.1195 132.024C66.0679 132.075 66.0098 132.101 65.9452 132.101H64.164C64.0994 132.101 64.0478 132.075 64.0091 132.024C63.9574 131.985 63.9316 131.933 63.9316 131.869V122.45C63.9316 122.385 63.9574 122.327 64.0091 122.276C64.0478 122.237 64.0994 122.218 64.164 122.218H65.9452C66.0098 122.218 66.0679 122.237 66.1195 122.276C66.1582 122.327 66.1776 122.385 66.1776 122.45V123.088C66.1776 123.127 66.1905 123.152 66.2163 123.165C66.2421 123.178 66.2679 123.165 66.2937 123.127C66.5777 122.766 66.9327 122.501 67.3586 122.334C67.7717 122.153 68.2364 122.063 68.7527 122.063C69.3852 122.063 69.9402 122.192 70.4178 122.45C70.8954 122.708 71.2632 123.081 71.5214 123.571C71.5601 123.623 71.6053 123.623 71.6569 123.571C71.9409 123.056 72.3346 122.675 72.838 122.43C73.3414 122.185 73.9029 122.063 74.5225 122.063ZM88.2499 126.047C88.3015 126.37 88.3274 126.731 88.3274 127.13L88.308 127.73C88.308 127.885 88.2306 127.962 88.0757 127.962H82.0154C81.9509 127.962 81.9186 127.994 81.9186 128.059C81.9574 128.484 82.0154 128.774 82.0929 128.929C82.4027 129.857 83.1578 130.328 84.3582 130.341C85.2359 130.341 85.933 129.98 86.4493 129.258C86.5009 129.18 86.5654 129.142 86.6429 129.142C86.6945 129.142 86.7397 129.161 86.7784 129.2L87.9789 130.186C88.095 130.277 88.1144 130.38 88.0369 130.496C87.6368 131.063 87.1076 131.501 86.4493 131.811C85.7781 132.12 85.0359 132.275 84.2227 132.275C83.2159 132.275 82.364 132.049 81.6669 131.598C80.957 131.147 80.4407 130.515 80.118 129.703C79.8211 129.006 79.6727 128.039 79.6727 126.801C79.6727 126.054 79.7501 125.448 79.905 124.983C80.1632 124.081 80.6537 123.365 81.3765 122.837C82.0864 122.321 82.9448 122.063 83.9516 122.063C86.4945 122.063 87.9272 123.391 88.2499 126.047ZM83.9516 123.997C83.474 123.997 83.0803 124.119 82.7706 124.364C82.4479 124.597 82.222 124.925 82.0929 125.351C82.0154 125.57 81.9638 125.854 81.938 126.202C81.9122 126.266 81.938 126.299 82.0154 126.299H85.9459C86.0104 126.299 86.0427 126.266 86.0427 126.202C86.0169 125.88 85.9781 125.635 85.9265 125.467C85.8103 125.003 85.5845 124.642 85.2489 124.384C84.9003 124.126 84.4679 123.997 83.9516 123.997ZM94.9878 122.102C95.4008 122.102 95.7623 122.185 96.072 122.353C96.1753 122.405 96.214 122.501 96.1882 122.643L95.8591 124.384C95.8462 124.539 95.7558 124.584 95.588 124.519C95.3944 124.455 95.1685 124.422 94.9103 124.422C94.7425 124.422 94.6135 124.429 94.5231 124.442C93.981 124.468 93.5292 124.655 93.1678 125.003C92.8064 125.364 92.6257 125.828 92.6257 126.395V131.869C92.6257 131.933 92.6063 131.985 92.5676 132.024C92.5159 132.075 92.4579 132.101 92.3933 132.101H90.612C90.5475 132.101 90.4959 132.075 90.4571 132.024C90.4055 131.985 90.3797 131.933 90.3797 131.869V122.45C90.3797 122.385 90.4055 122.327 90.4571 122.276C90.4959 122.237 90.5475 122.218 90.612 122.218H92.3933C92.4579 122.218 92.5159 122.237 92.5676 122.276C92.6063 122.327 92.6257 122.385 92.6257 122.45V123.32C92.6257 123.372 92.6386 123.397 92.6644 123.397C92.6773 123.41 92.6967 123.397 92.7225 123.359C93.2646 122.521 94.0197 122.102 94.9878 122.102ZM98.9376 120.864C98.5374 120.864 98.2083 120.735 97.9501 120.477C97.692 120.219 97.5629 119.89 97.5629 119.49C97.5629 119.091 97.692 118.762 97.9501 118.504C98.2083 118.246 98.5374 118.117 98.9376 118.117C99.3377 118.117 99.6669 118.246 99.925 118.504C100.183 118.762 100.312 119.091 100.312 119.49C100.312 119.89 100.183 120.219 99.925 120.477C99.6669 120.735 99.3377 120.864 98.9376 120.864ZM98.0082 132.101C97.9437 132.101 97.892 132.075 97.8533 132.024C97.8017 131.985 97.7759 131.933 97.7759 131.869V122.43C97.7759 122.366 97.8017 122.314 97.8533 122.276C97.892 122.224 97.9437 122.198 98.0082 122.198H99.7895C99.854 122.198 99.9121 122.224 99.9637 122.276C100.002 122.314 100.022 122.366 100.022 122.43V131.869C100.022 131.933 100.002 131.985 99.9637 132.024C99.9121 132.075 99.854 132.101 99.7895 132.101H98.0082ZM106.721 132.256C105.727 132.256 104.869 131.998 104.146 131.482C103.423 130.979 102.92 130.296 102.636 129.432C102.429 128.852 102.326 128.078 102.326 127.111C102.326 126.183 102.429 125.422 102.636 124.829C102.907 123.978 103.41 123.307 104.146 122.817C104.869 122.314 105.727 122.063 106.721 122.063C107.728 122.063 108.606 122.314 109.354 122.817C110.103 123.32 110.6 123.952 110.845 124.713C110.91 124.919 110.955 125.125 110.981 125.332V125.37C110.981 125.499 110.91 125.577 110.768 125.602L109.025 125.854H108.986C108.87 125.854 108.793 125.789 108.754 125.66C108.754 125.596 108.748 125.544 108.735 125.506C108.709 125.402 108.683 125.312 108.657 125.235C108.541 124.874 108.309 124.577 107.96 124.345C107.612 124.113 107.199 123.997 106.721 123.997C106.23 123.997 105.817 124.119 105.482 124.364C105.133 124.622 104.901 124.971 104.785 125.409C104.656 125.822 104.591 126.395 104.591 127.13C104.591 127.839 104.649 128.413 104.765 128.852C104.895 129.303 105.127 129.658 105.462 129.915C105.798 130.186 106.218 130.322 106.721 130.322C107.211 130.322 107.637 130.199 107.999 129.954C108.347 129.696 108.573 129.355 108.677 128.929C108.689 128.903 108.696 128.871 108.696 128.832C108.709 128.819 108.715 128.8 108.715 128.774C108.754 128.62 108.844 128.555 108.986 128.581L110.729 128.852C110.793 128.865 110.851 128.89 110.903 128.929C110.942 128.981 110.955 129.045 110.942 129.122C110.903 129.329 110.871 129.477 110.845 129.567C110.6 130.393 110.103 131.05 109.354 131.54C108.606 132.017 107.728 132.256 106.721 132.256ZM116.654 122.063C117.467 122.063 118.183 122.205 118.803 122.488C119.422 122.772 119.9 123.159 120.235 123.649C120.571 124.152 120.739 124.719 120.739 125.351V131.869C120.739 131.933 120.719 131.985 120.681 132.024C120.629 132.075 120.571 132.101 120.507 132.101H118.725C118.661 132.101 118.609 132.075 118.57 132.024C118.519 131.985 118.493 131.933 118.493 131.869V131.25C118.493 131.211 118.48 131.186 118.454 131.173C118.428 131.173 118.403 131.186 118.377 131.211C117.744 131.908 116.828 132.256 115.627 132.256C114.659 132.256 113.865 132.011 113.246 131.521C112.613 131.031 112.297 130.302 112.297 129.335C112.297 128.329 112.652 127.543 113.362 126.976C114.059 126.421 115.047 126.144 116.324 126.144H118.396C118.461 126.144 118.493 126.112 118.493 126.047V125.583C118.493 125.08 118.344 124.687 118.048 124.403C117.751 124.132 117.305 123.997 116.712 123.997C116.221 123.997 115.827 124.087 115.531 124.268C115.221 124.435 115.027 124.674 114.95 124.983C114.911 125.138 114.821 125.203 114.679 125.177L112.801 124.945C112.736 124.932 112.684 124.912 112.646 124.887C112.594 124.848 112.575 124.803 112.588 124.751C112.691 123.965 113.117 123.32 113.865 122.817C114.601 122.314 115.531 122.063 116.654 122.063ZM116.189 130.476C116.821 130.476 117.363 130.309 117.815 129.973C118.267 129.638 118.493 129.213 118.493 128.697V127.788C118.493 127.723 118.461 127.691 118.396 127.691H116.77C116.086 127.691 115.55 127.82 115.163 128.078C114.763 128.336 114.562 128.703 114.562 129.18C114.562 129.593 114.717 129.909 115.027 130.128C115.324 130.36 115.711 130.476 116.189 130.476ZM126.664 132.217C125.85 132.217 125.14 132.095 124.534 131.85C123.914 131.618 123.437 131.289 123.101 130.863C122.765 130.451 122.598 129.986 122.598 129.471V129.297C122.598 129.232 122.623 129.174 122.675 129.122C122.714 129.084 122.765 129.064 122.83 129.064H124.534C124.598 129.064 124.656 129.084 124.708 129.122C124.747 129.174 124.766 129.232 124.766 129.297V129.335C124.766 129.658 124.947 129.941 125.308 130.186C125.657 130.418 126.102 130.534 126.644 130.534C127.16 130.534 127.58 130.431 127.903 130.225C128.225 130.006 128.387 129.735 128.387 129.413C128.387 129.116 128.258 128.89 127.999 128.736C127.728 128.594 127.296 128.439 126.702 128.271L125.967 128.039C125.308 127.846 124.753 127.64 124.301 127.42C123.85 127.201 123.469 126.898 123.159 126.511C122.849 126.137 122.694 125.654 122.694 125.061C122.694 124.158 123.049 123.443 123.759 122.914C124.469 122.372 125.405 122.102 126.567 122.102C127.354 122.102 128.045 122.224 128.638 122.469C129.232 122.727 129.69 123.075 130.013 123.513C130.336 123.965 130.497 124.474 130.497 125.041C130.497 125.106 130.478 125.164 130.439 125.215C130.387 125.254 130.329 125.274 130.265 125.274H128.619C128.555 125.274 128.503 125.254 128.464 125.215C128.413 125.164 128.387 125.106 128.387 125.041C128.387 124.706 128.225 124.429 127.903 124.21C127.567 123.978 127.115 123.862 126.547 123.862C126.044 123.862 125.637 123.952 125.328 124.132C125.005 124.326 124.844 124.59 124.844 124.925C124.844 125.235 124.998 125.467 125.308 125.622C125.605 125.789 126.109 125.97 126.818 126.163L127.244 126.279C127.928 126.486 128.503 126.692 128.968 126.898C129.432 127.117 129.826 127.414 130.149 127.788C130.471 128.175 130.633 128.671 130.633 129.277C130.633 130.193 130.271 130.908 129.548 131.424C128.826 131.953 127.864 132.217 126.664 132.217Z" fill="white"/>
<path d="M78.3953 147.944C78.3953 148.009 78.3695 148.06 78.3179 148.099C78.2791 148.15 78.2275 148.176 78.163 148.176H71.8317C71.7672 148.176 71.7349 148.208 71.7349 148.273V151.271C71.7349 151.335 71.7672 151.368 71.8317 151.368H75.9945C76.059 151.368 76.1106 151.387 76.1494 151.426C76.201 151.477 76.2268 151.535 76.2268 151.6V153.476C76.2268 153.54 76.201 153.598 76.1494 153.65C76.1106 153.689 76.059 153.708 75.9945 153.708H71.8317C71.7672 153.708 71.7349 153.74 71.7349 153.805V159.143C71.7349 159.207 71.7155 159.259 71.6768 159.298C71.6252 159.349 71.5671 159.375 71.5025 159.375H69.2372C69.1727 159.375 69.1211 159.349 69.0823 159.298C69.0307 159.259 69.0049 159.207 69.0049 159.143V146.068C69.0049 146.004 69.0307 145.952 69.0823 145.913C69.1211 145.862 69.1727 145.836 69.2372 145.836H78.163C78.2275 145.836 78.2791 145.862 78.3179 145.913C78.3695 145.952 78.3953 146.004 78.3953 146.068V147.944ZM86.9532 159.375C86.8241 159.375 86.7402 159.31 86.7015 159.182L86.1206 157.286C86.0948 157.234 86.0625 157.209 86.0238 157.209H81.2608C81.2221 157.209 81.1898 157.234 81.164 157.286L80.6025 159.182C80.5638 159.31 80.4799 159.375 80.3508 159.375H77.8919C77.8145 159.375 77.7564 159.349 77.7176 159.298C77.6789 159.259 77.6725 159.194 77.6983 159.104L81.8804 146.029C81.9191 145.9 82.003 145.836 82.1321 145.836H85.1719C85.301 145.836 85.3849 145.9 85.4236 146.029L89.6057 159.104C89.6186 159.13 89.6251 159.162 89.6251 159.201C89.6251 159.317 89.5541 159.375 89.4121 159.375H86.9532ZM81.8611 154.984C81.8481 155.062 81.874 155.1 81.9385 155.1H85.3462C85.4236 155.1 85.4494 155.062 85.4236 154.984L83.6811 149.24C83.6681 149.188 83.6488 149.163 83.623 149.163C83.5972 149.176 83.5778 149.201 83.5649 149.24L81.8611 154.984ZM91.5613 159.375C91.4967 159.375 91.4451 159.349 91.4064 159.298C91.3547 159.259 91.3289 159.207 91.3289 159.143V146.068C91.3289 146.004 91.3547 145.952 91.4064 145.913C91.4451 145.862 91.4967 145.836 91.5613 145.836H93.8266C93.8911 145.836 93.9492 145.862 94.0008 145.913C94.0396 145.952 94.0589 146.004 94.0589 146.068V156.938C94.0589 157.002 94.0912 157.035 94.1557 157.035H100.487C100.552 157.035 100.61 157.054 100.661 157.093C100.7 157.144 100.719 157.202 100.719 157.267V159.143C100.719 159.207 100.7 159.259 100.661 159.298C100.61 159.349 100.552 159.375 100.487 159.375H91.5613ZM102.636 159.375C102.572 159.375 102.514 159.349 102.462 159.298C102.423 159.259 102.404 159.207 102.404 159.143V146.068C102.404 146.004 102.423 145.952 102.462 145.913C102.514 145.862 102.572 145.836 102.636 145.836H104.901C104.966 145.836 105.018 145.862 105.056 145.913C105.108 145.952 105.134 146.004 105.134 146.068V156.938C105.134 157.002 105.166 157.035 105.231 157.035H111.562C111.626 157.035 111.685 157.054 111.736 157.093C111.775 157.144 111.794 157.202 111.794 157.267V159.143C111.794 159.207 111.775 159.259 111.736 159.298C111.685 159.349 111.626 159.375 111.562 159.375H102.636Z" fill="#252530"/>
<path d="M73.6901 175.097C73.6643 175.123 73.6578 175.148 73.6707 175.174C73.6836 175.2 73.7095 175.213 73.7482 175.213H78.9952C79.0597 175.213 79.1178 175.232 79.1695 175.271C79.2082 175.322 79.2276 175.38 79.2276 175.445V177.321C79.2276 177.385 79.2082 177.437 79.1695 177.476C79.1178 177.527 79.0597 177.553 78.9952 177.553H70.2824C70.2179 177.553 70.1598 177.527 70.1082 177.476C70.0695 177.437 70.0501 177.385 70.0501 177.321V175.542C70.0501 175.426 70.0888 175.329 70.1663 175.251C70.7988 174.633 71.4441 173.962 72.1024 173.24C72.7607 172.505 73.1738 172.047 73.3416 171.867C73.703 171.441 74.0709 171.035 74.4452 170.648C75.6198 169.346 76.2071 168.379 76.2071 167.747C76.2071 167.296 76.0458 166.922 75.7231 166.625C75.4004 166.342 74.9809 166.2 74.4646 166.2C73.9483 166.2 73.5288 166.342 73.2061 166.625C72.8834 166.922 72.722 167.309 72.722 167.786V168.269C72.722 168.334 72.6962 168.392 72.6446 168.443C72.6058 168.482 72.5542 168.501 72.4897 168.501H70.205C70.1405 168.501 70.0888 168.482 70.0501 168.443C69.9985 168.392 69.9727 168.334 69.9727 168.269V167.36C70.0114 166.664 70.2308 166.045 70.631 165.503C71.0311 164.975 71.5603 164.569 72.2186 164.285C72.8898 164.001 73.6385 163.859 74.4646 163.859C75.381 163.859 76.1813 164.027 76.8654 164.362C77.5366 164.71 78.0594 165.175 78.4337 165.755C78.7951 166.335 78.9758 166.98 78.9758 167.689C78.9758 168.231 78.8403 168.785 78.5693 169.352C78.2982 169.92 77.8916 170.532 77.3495 171.19C76.9493 171.693 76.5169 172.189 76.0522 172.679C75.5875 173.169 74.897 173.878 73.9805 174.807L73.6901 175.097ZM85.5201 177.766C84.1002 177.766 82.9773 177.366 82.1512 176.567C81.3251 175.78 80.912 174.703 80.912 173.337V168.231C80.912 166.89 81.3251 165.826 82.1512 165.039C82.9773 164.253 84.1002 163.859 85.5201 163.859C86.94 163.859 88.0694 164.253 88.9084 165.039C89.7345 165.826 90.1476 166.89 90.1476 168.231V173.337C90.1476 174.703 89.7345 175.78 88.9084 176.567C88.0694 177.366 86.94 177.766 85.5201 177.766ZM85.5201 175.426C86.101 175.426 86.5656 175.245 86.9141 174.884C87.2497 174.536 87.4176 174.065 87.4176 173.472V168.153C87.4176 167.56 87.2497 167.089 86.9141 166.741C86.5656 166.38 86.101 166.2 85.5201 166.2C84.9522 166.2 84.5004 166.38 84.1648 166.741C83.8163 167.089 83.642 167.56 83.642 168.153V173.472C83.642 174.065 83.8163 174.536 84.1648 174.884C84.5004 175.245 84.9522 175.426 85.5201 175.426ZM95.5688 175.097C95.543 175.123 95.5366 175.148 95.5495 175.174C95.5624 175.2 95.5882 175.213 95.6269 175.213H100.874C100.938 175.213 100.997 175.232 101.048 175.271C101.087 175.322 101.106 175.38 101.106 175.445V177.321C101.106 177.385 101.087 177.437 101.048 177.476C100.997 177.527 100.938 177.553 100.874 177.553H92.1612C92.0966 177.553 92.045 177.527 92.0063 177.476C91.9546 177.437 91.9288 177.385 91.9288 177.321V175.542C91.9288 175.426 91.9676 175.329 92.045 175.251C92.6775 174.633 93.3229 173.962 93.9812 173.24C94.6395 172.505 95.0525 172.047 95.2203 171.867C95.5817 171.441 95.9496 171.035 96.3239 170.648C97.4985 169.346 98.0858 168.379 98.0858 167.747C98.0858 167.296 97.9245 166.922 97.6018 166.625C97.2791 166.342 96.8596 166.2 96.3433 166.2C95.827 166.2 95.4075 166.342 95.0848 166.625C94.7621 166.922 94.6007 167.309 94.6007 167.786V168.269C94.6007 168.334 94.5814 168.392 94.5427 168.443C94.491 168.482 94.4329 168.501 94.3684 168.501H92.0837C92.0192 168.501 91.9676 168.482 91.9288 168.443C91.8772 168.392 91.8514 168.334 91.8514 168.269V167.36C91.8901 166.664 92.1095 166.045 92.5097 165.503C92.9098 164.975 93.4455 164.569 94.1167 164.285C94.775 164.001 95.5172 163.859 96.3433 163.859C97.2597 163.859 98.06 164.027 98.7441 164.362C99.4154 164.71 99.9381 165.175 100.312 165.755C100.674 166.335 100.855 166.98 100.855 167.689C100.855 168.231 100.719 168.785 100.448 169.352C100.177 169.92 99.7703 170.532 99.2282 171.19C98.828 171.693 98.3956 172.189 97.931 172.679C97.4663 173.169 96.7757 173.878 95.8593 174.807L95.5688 175.097ZM110.865 171.093C111.123 171.686 111.252 172.37 111.252 173.143C111.252 173.84 111.136 174.484 110.903 175.077C110.594 175.903 110.077 176.547 109.354 177.012C108.619 177.476 107.754 177.708 106.76 177.708C105.779 177.708 104.921 177.463 104.185 176.973C103.436 176.483 102.9 175.819 102.578 174.981C102.397 174.478 102.294 173.936 102.268 173.356C102.268 173.201 102.345 173.124 102.5 173.124H104.785C104.94 173.124 105.017 173.201 105.017 173.356C105.069 173.782 105.14 174.097 105.23 174.304C105.346 174.639 105.54 174.897 105.811 175.077C106.069 175.271 106.379 175.368 106.741 175.368C107.463 175.368 107.96 175.052 108.231 174.42C108.412 174.033 108.502 173.582 108.502 173.066C108.502 172.46 108.406 171.963 108.212 171.577C107.915 170.971 107.418 170.668 106.721 170.668C106.579 170.668 106.431 170.706 106.276 170.784C106.121 170.874 105.934 170.996 105.714 171.151C105.663 171.19 105.611 171.209 105.559 171.209C105.482 171.209 105.424 171.17 105.385 171.093L104.243 169.488C104.217 169.449 104.204 169.404 104.204 169.352C104.204 169.275 104.23 169.211 104.282 169.159L107.36 166.47C107.386 166.445 107.399 166.419 107.399 166.393C107.386 166.367 107.36 166.354 107.321 166.354H102.771C102.707 166.354 102.655 166.329 102.616 166.277C102.565 166.238 102.539 166.187 102.539 166.122V164.246C102.539 164.182 102.565 164.13 102.616 164.091C102.655 164.04 102.707 164.014 102.771 164.014H110.845C110.91 164.014 110.968 164.04 111.019 164.091C111.058 164.13 111.078 164.182 111.078 164.246V166.374C111.078 166.477 111.032 166.574 110.942 166.664L108.406 168.985C108.38 169.011 108.373 169.036 108.386 169.062C108.386 169.088 108.412 169.101 108.464 169.101C109.587 169.32 110.387 169.984 110.865 171.093Z" fill="#252530"/>
</g>
<defs>
<clipPath id="clip0_674_1154">
<rect width="182" height="205" fill="white"/>
</clipPath>
</defs>
</svg>
