<svg width="168" height="220" viewBox="0 0 168 220" fill="none" xmlns="http://www.w3.org/2000/svg">
<path d="M14.4766 162.117L85.0723 198.363L152.987 162.117V20.3789H14.4766V162.117Z" fill="white"/>
<path d="M154.417 20.9187L13.0469 164.64L86.3235 201.247L154.417 166.083V20.9187Z" fill="#F2F3F2"/>
<path d="M9.83008 67.6239V165.181L12.3322 166.444L82.928 202.689L85.0726 203.771L87.2173 202.689L155.311 166.444L157.813 165.181V15.6895H9.83008V67.6239ZM14.4769 162.476V20.378H153.166V162.476L85.0726 198.722L14.4769 162.476Z" fill="#DCDEDC"/>
<path d="M83.8212 22.7222C84.5361 22.7222 85.251 22.7222 85.9659 22.9026L83.8212 27.0501C80.6042 26.8698 77.7446 29.3944 77.5659 32.6403C77.3872 35.8862 79.8893 38.7714 83.1063 38.9517H83.8212C85.251 38.9517 86.6808 38.4108 87.7531 37.5091L90.0765 41.4763C88.2893 42.7386 86.1446 43.4599 83.8212 43.4599C78.1021 43.6403 73.2766 39.3124 73.0978 33.5419C72.9191 27.7714 77.2085 22.9026 82.9276 22.7222H83.8212ZM91.1489 31.5583L93.8297 36.0665L91.1489 40.3944L88.6468 36.0665H83.4638L86.1446 31.5583H91.1489ZM86.8595 29.9354C86.8595 29.214 87.0382 28.4927 87.3957 27.9517C87.7531 27.4108 88.468 26.8698 89.0042 26.5091L89.3616 26.3288C90.0765 25.9681 90.2553 25.7878 90.2553 25.4272C90.2553 25.0665 89.7191 24.7058 89.3616 24.7058C88.6468 24.7058 88.1106 25.0665 87.7531 25.7878L86.8595 24.8862C87.0382 24.5255 87.3957 24.1649 87.7531 23.8042C88.2893 23.4436 88.8255 23.4436 89.3616 23.4436C89.8978 23.4436 90.6127 23.6239 90.9702 23.9845C91.3276 24.3452 91.6851 24.8862 91.6851 25.4272C91.6851 26.3288 91.1489 27.0501 90.0765 27.4108L89.5404 27.7714C89.0042 28.1321 88.6468 28.3124 88.468 28.8534H91.6851V30.1157L86.8595 29.9354ZM83.8212 52.4763L100.8 42.7386V15.6895H66.6638V42.5583L83.8212 52.4763ZM161.208 116.312H6.43399L0.714844 128.935L6.43399 141.558H161.208L166.749 128.935L161.208 116.312Z" fill="#FF492C"/>
<path d="M45.2165 108.198C45.1331 108.198 45.0616 108.168 45.0021 108.108C44.9425 108.048 44.9127 107.976 44.9127 107.892V90.8327C44.9127 90.7486 44.9425 90.6764 45.0021 90.6163C45.0616 90.5562 45.1331 90.5262 45.2165 90.5262H48.1476C48.231 90.5262 48.3025 90.5562 48.3621 90.6163C48.4216 90.6764 48.4514 90.7486 48.4514 90.8327V105.025C48.4514 105.109 48.4931 105.151 48.5765 105.151H56.7621C56.8455 105.151 56.911 105.175 56.9586 105.223C57.0182 105.283 57.048 105.355 57.048 105.439V107.892C57.048 107.976 57.0182 108.048 56.9586 108.108C56.911 108.168 56.8455 108.198 56.7621 108.198H45.2165ZM70.3986 100.372C70.494 101.009 70.5237 101.725 70.488 102.518C70.4761 102.722 70.3689 102.825 70.1663 102.825H62.4276C62.3323 102.825 62.3025 102.867 62.3382 102.951C62.3859 103.287 62.4752 103.624 62.6063 103.961C63.0472 104.898 63.9348 105.367 65.2693 105.367C66.3297 105.355 67.1697 104.916 67.7893 104.051C67.8608 103.955 67.9382 103.906 68.0216 103.906C68.0693 103.906 68.1229 103.943 68.1825 104.015L69.9876 105.8C70.071 105.884 70.1127 105.962 70.1127 106.034C70.1127 106.058 70.0829 106.125 70.0233 106.233C69.4633 106.918 68.7544 107.453 67.8965 107.838C67.0267 108.21 66.0735 108.397 65.0369 108.397C63.6072 108.397 62.3918 108.072 61.391 107.423C60.402 106.762 59.6931 105.842 59.2642 104.664C58.9067 103.822 58.728 102.722 58.728 101.364C58.728 100.438 58.8531 99.6207 59.1033 98.9114C59.4846 97.7092 60.1578 96.7595 61.1229 96.0622C62.0761 95.353 63.214 94.9983 64.5365 94.9983C66.2046 94.9983 67.545 95.4852 68.5578 96.459C69.5586 97.4327 70.1723 98.7371 70.3986 100.372ZM64.5544 98.0819C63.5059 98.0819 62.8148 98.5748 62.4812 99.5606C62.4216 99.777 62.362 100.047 62.3025 100.372C62.3025 100.456 62.3442 100.498 62.4276 100.498H66.7706C66.8659 100.498 66.8957 100.456 66.8599 100.372C66.7765 99.8792 66.7348 99.6448 66.7348 99.6688C66.5918 99.1639 66.3297 98.7732 65.9484 98.4967C65.5791 98.2202 65.1144 98.0819 64.5544 98.0819ZM77.6727 95.0163C78.7569 95.0163 79.722 95.2087 80.568 95.5934C81.4259 95.9661 82.0931 96.483 82.5697 97.1442C83.0463 97.7934 83.2846 98.5267 83.2846 99.3442V107.892C83.2846 107.976 83.2548 108.048 83.1952 108.108C83.1357 108.168 83.0642 108.198 82.9808 108.198H80.0497C79.9663 108.198 79.8948 108.168 79.8352 108.108C79.7757 108.048 79.7459 107.976 79.7459 107.892V107.062C79.7459 107.014 79.728 106.978 79.6923 106.954C79.6684 106.942 79.6386 106.96 79.6029 107.008C78.8999 107.934 77.774 108.397 76.225 108.397C74.9263 108.397 73.8718 108.078 73.0616 107.441C72.2633 106.804 71.8642 105.86 71.8642 104.61C71.8642 103.311 72.3169 102.308 73.2225 101.598C74.1161 100.877 75.3969 100.516 77.065 100.516H79.6208C79.7042 100.516 79.7459 100.474 79.7459 100.39V99.8491C79.7459 99.2841 79.5791 98.8453 79.2455 98.5327C78.9118 98.2322 78.4114 98.0819 77.7442 98.0819C77.2318 98.0819 76.8029 98.1721 76.4574 98.3524C76.1118 98.5327 75.8914 98.7912 75.7961 99.1278C75.7484 99.3202 75.6412 99.4043 75.4744 99.3803L72.4361 98.9836C72.2454 98.9475 72.1561 98.8693 72.168 98.7491C72.2395 98.0519 72.5195 97.4147 73.008 96.8377C73.4965 96.2606 74.1459 95.8158 74.9561 95.5032C75.7663 95.1786 76.6718 95.0163 77.6727 95.0163ZM77.1723 105.746C77.8872 105.746 78.4948 105.553 78.9952 105.169C79.4957 104.784 79.7459 104.285 79.7459 103.672V102.77C79.7459 102.686 79.7042 102.644 79.6208 102.644H77.8157C77.065 102.644 76.4812 102.788 76.0642 103.077C75.6352 103.366 75.4208 103.768 75.4208 104.285C75.4208 104.742 75.5816 105.103 75.9033 105.367C76.2131 105.62 76.6361 105.746 77.1723 105.746ZM93.7399 90.8327C93.7399 90.7486 93.7697 90.6764 93.8293 90.6163C93.8889 90.5562 93.9603 90.5262 94.0437 90.5262H96.9569C97.0403 90.5262 97.1118 90.5562 97.1714 90.6163C97.231 90.6764 97.2608 90.7486 97.2608 90.8327V107.892C97.2608 107.976 97.231 108.048 97.1714 108.108C97.1118 108.168 97.0403 108.198 96.9569 108.198H94.0437C93.9603 108.198 93.8889 108.168 93.8293 108.108C93.7697 108.048 93.7399 107.976 93.7399 107.892V107.062C93.7399 107.014 93.722 106.984 93.6863 106.972C93.6506 106.96 93.6148 106.972 93.5791 107.008C92.888 107.934 91.9289 108.397 90.7016 108.397C89.534 108.397 88.5331 108.072 87.6991 107.423C86.8531 106.762 86.2454 105.86 85.8761 104.718C85.5901 103.84 85.4472 102.819 85.4472 101.652C85.4472 100.462 85.602 99.4223 85.9118 98.5327C86.2931 97.4508 86.8948 96.5972 87.7169 95.9721C88.5391 95.3349 89.5638 95.0163 90.791 95.0163C91.9825 95.0163 92.9118 95.4371 93.5791 96.2786C93.6148 96.3267 93.6506 96.3447 93.6863 96.3327C93.722 96.3207 93.7399 96.2846 93.7399 96.2245V90.8327ZM93.2038 104.267C93.5374 103.642 93.7042 102.788 93.7042 101.707C93.7042 100.576 93.5255 99.6928 93.168 99.0557C92.7748 98.4065 92.2148 98.0819 91.488 98.0819C90.7016 98.0819 90.1059 98.4065 89.7008 99.0557C89.2837 99.7169 89.0752 100.613 89.0752 101.743C89.0752 102.752 89.254 103.594 89.6114 104.267C90.0284 104.988 90.642 105.349 91.4523 105.349C92.2029 105.349 92.7867 104.988 93.2038 104.267ZM111.308 100.372C111.404 101.009 111.434 101.725 111.398 102.518C111.386 102.722 111.279 102.825 111.076 102.825H103.337C103.242 102.825 103.212 102.867 103.248 102.951C103.296 103.287 103.385 103.624 103.516 103.961C103.957 104.898 104.845 105.367 106.179 105.367C107.239 105.355 108.079 104.916 108.699 104.051C108.771 103.955 108.848 103.906 108.931 103.906C108.979 103.906 109.033 103.943 109.092 104.015L110.897 105.8C110.981 105.884 111.022 105.962 111.022 106.034C111.022 106.058 110.993 106.125 110.933 106.233C110.373 106.918 109.664 107.453 108.806 107.838C107.937 108.21 106.983 108.397 105.947 108.397C104.517 108.397 103.302 108.072 102.301 107.423C101.312 106.762 100.603 105.842 100.174 104.664C99.8165 103.822 99.6378 102.722 99.6378 101.364C99.6378 100.438 99.7629 99.6207 100.013 98.9114C100.394 97.7092 101.068 96.7595 102.033 96.0622C102.986 95.353 104.124 94.9983 105.446 94.9983C107.114 94.9983 108.455 95.4852 109.468 96.459C110.468 97.4327 111.082 98.7371 111.308 100.372ZM105.464 98.0819C104.416 98.0819 103.725 98.5748 103.391 99.5606C103.331 99.777 103.272 100.047 103.212 100.372C103.212 100.456 103.254 100.498 103.337 100.498H107.68C107.776 100.498 107.805 100.456 107.77 100.372C107.686 99.8792 107.645 99.6448 107.645 99.6688C107.502 99.1639 107.239 98.7732 106.858 98.4967C106.489 98.2202 106.024 98.0819 105.464 98.0819ZM119.977 95.0524C120.584 95.0524 121.061 95.1666 121.406 95.395C121.537 95.4672 121.591 95.5934 121.567 95.7737L121.031 98.659C121.019 98.8633 120.906 98.9234 120.691 98.8393C120.441 98.7551 120.149 98.7131 119.816 98.7131C119.673 98.7131 119.488 98.7251 119.262 98.7491C118.654 98.8092 118.142 99.0316 117.725 99.4163C117.308 99.8131 117.099 100.342 117.099 101.003V107.892C117.099 107.976 117.075 108.048 117.028 108.108C116.968 108.168 116.897 108.198 116.813 108.198H113.882C113.799 108.198 113.727 108.168 113.668 108.108C113.608 108.048 113.578 107.976 113.578 107.892V95.5213C113.578 95.4371 113.608 95.365 113.668 95.3049C113.727 95.2448 113.799 95.2147 113.882 95.2147H116.813C116.897 95.2147 116.968 95.2448 117.028 95.3049C117.075 95.365 117.099 95.4371 117.099 95.5213V96.477C117.099 96.5371 117.117 96.5732 117.153 96.5852C117.188 96.5972 117.212 96.5912 117.224 96.5672C117.915 95.5573 118.833 95.0524 119.977 95.0524ZM33.8318 65.4786C33.9152 65.3464 34.0344 65.2803 34.1893 65.2803H37.1204C37.2038 65.2803 37.2752 65.3103 37.3348 65.3704C37.3944 65.4305 37.4242 65.5027 37.4242 65.5868V82.6458C37.4242 82.73 37.3944 82.8021 37.3348 82.8622C37.2752 82.9223 37.2038 82.9524 37.1204 82.9524H34.1893C34.1059 82.9524 34.0344 82.9223 33.9748 82.8622C33.9152 82.8021 33.8855 82.73 33.8855 82.6458V71.5196C33.8855 71.4475 33.8676 71.4114 33.8318 71.4114C33.808 71.4114 33.7782 71.4355 33.7425 71.4835L31.0795 75.6852C30.9961 75.8174 30.8829 75.8836 30.7399 75.8836H29.2565C29.1135 75.8836 29.0004 75.8174 28.9169 75.6852L26.254 71.4835C26.2182 71.4355 26.1884 71.4174 26.1646 71.4295C26.1289 71.4415 26.111 71.4775 26.111 71.5376V82.6458C26.111 82.73 26.0812 82.8021 26.0216 82.8622C25.9621 82.9223 25.8906 82.9524 25.8072 82.9524H22.8761C22.7927 82.9524 22.7212 82.9223 22.6616 82.8622C22.6021 82.8021 22.5723 82.73 22.5723 82.6458V65.5868C22.5723 65.5027 22.6021 65.4305 22.6616 65.3704C22.7212 65.3103 22.7927 65.2803 22.8761 65.2803H25.8072C25.9621 65.2803 26.0812 65.3464 26.1646 65.4786L29.9178 71.3573C29.9655 71.4655 30.0131 71.4655 30.0608 71.3573L33.8318 65.4786ZM45.9314 83.1508C44.5255 83.1508 43.3221 82.7841 42.3212 82.0508C41.3204 81.3054 40.6352 80.2956 40.2659 79.0213C40.0395 78.2278 39.9263 77.3682 39.9263 76.4426C39.9263 75.4448 40.0395 74.5491 40.2659 73.7557C40.6472 72.5174 41.3382 71.5437 42.3391 70.8344C43.3399 70.1251 44.5433 69.7704 45.9493 69.7704C47.3195 69.7704 48.4872 70.1191 49.4523 70.8163C50.4174 71.5136 51.1025 72.4874 51.5076 73.7376C51.7697 74.5792 51.9008 75.4628 51.9008 76.3885C51.9008 77.3021 51.7876 78.1497 51.5612 78.9311C51.1918 80.2535 50.5127 81.2874 49.5238 82.0327C48.5229 82.7781 47.3255 83.1508 45.9314 83.1508ZM45.9314 80.1032C46.4795 80.1032 46.9442 79.9349 47.3255 79.5983C47.7067 79.2617 47.9808 78.7988 48.1476 78.2098C48.2786 77.6688 48.3442 77.0797 48.3442 76.4426C48.3442 75.7333 48.2786 75.1322 48.1476 74.6393C47.9689 74.0743 47.6889 73.6295 47.3076 73.3049C46.9144 72.9923 46.4438 72.836 45.8957 72.836C45.3357 72.836 44.865 72.9923 44.4838 73.3049C44.1144 73.6295 43.8463 74.0743 43.6795 74.6393C43.5365 75.048 43.465 75.6491 43.465 76.4426C43.465 77.1999 43.5246 77.789 43.6438 78.2098C43.8106 78.7988 44.0906 79.2617 44.4838 79.5983C44.8769 79.9349 45.3595 80.1032 45.9314 80.1032ZM68.4506 69.7704C69.7493 69.7704 70.762 70.1672 71.4889 70.9606C72.2276 71.754 72.5969 72.8661 72.5969 74.2967V82.6458C72.5969 82.73 72.5672 82.8021 72.5076 82.8622C72.448 82.9223 72.3765 82.9524 72.2931 82.9524H69.362C69.2786 82.9524 69.2072 82.9223 69.1476 82.8622C69.0999 82.8021 69.0761 82.73 69.0761 82.6458V75.0721C69.0761 74.3868 68.8974 73.8398 68.5399 73.4311C68.1944 73.0344 67.7297 72.836 67.1459 72.836C66.562 72.836 66.0855 73.0344 65.7161 73.4311C65.3467 73.8398 65.162 74.3808 65.162 75.054V82.6458C65.162 82.73 65.1323 82.8021 65.0727 82.8622C65.0131 82.9223 64.9416 82.9524 64.8582 82.9524H61.9629C61.8795 82.9524 61.808 82.9223 61.7484 82.8622C61.6889 82.8021 61.6591 82.73 61.6591 82.6458V75.0721C61.6591 74.3989 61.4744 73.8579 61.105 73.4491C60.7476 73.0404 60.2769 72.836 59.6931 72.836C59.1569 72.836 58.7101 72.9923 58.3527 73.3049C57.9952 73.6295 57.7808 74.0743 57.7093 74.6393V82.6458C57.7093 82.73 57.6795 82.8021 57.6199 82.8622C57.5603 82.9223 57.4889 82.9524 57.4055 82.9524H54.4744C54.391 82.9524 54.3255 82.9223 54.2778 82.8622C54.2182 82.8021 54.1884 82.73 54.1884 82.6458V70.2754C54.1884 70.1912 54.2182 70.1191 54.2778 70.059C54.3255 69.9988 54.391 69.9688 54.4744 69.9688H57.4055C57.4889 69.9688 57.5603 69.9988 57.6199 70.059C57.6795 70.1191 57.7093 70.1912 57.7093 70.2754V71.2672C57.7093 71.3152 57.7272 71.3453 57.7629 71.3573C57.7986 71.3814 57.8284 71.3693 57.8523 71.3213C58.5433 70.2874 59.6038 69.7704 61.0335 69.7704C61.8676 69.7704 62.6003 69.9508 63.2318 70.3114C63.8514 70.6601 64.328 71.165 64.6616 71.8262C64.7093 71.9224 64.7689 71.9224 64.8403 71.8262C65.2097 71.1289 65.7042 70.612 66.3238 70.2754C66.9552 69.9387 67.6642 69.7704 68.4506 69.7704ZM86.3765 75.1262C86.4838 75.7633 86.5195 76.4786 86.4837 77.2721C86.4718 77.4764 86.3646 77.5786 86.162 77.5786H78.4233C78.328 77.5786 78.2982 77.6207 78.334 77.7049C78.3816 78.0415 78.471 78.3781 78.602 78.7147C79.031 79.6524 79.9127 80.1213 81.2472 80.1213C82.3195 80.1092 83.1655 79.6704 83.785 78.8049C83.8446 78.7087 83.9161 78.6606 83.9995 78.6606C84.0591 78.6606 84.1186 78.6967 84.1782 78.7688L85.9833 80.554C86.0667 80.6382 86.1084 80.7163 86.1084 80.7885C86.1084 80.8125 86.0727 80.8786 86.0012 80.9868C85.4531 81.6721 84.7442 82.207 83.8744 82.5917C83.0165 82.9644 82.0693 83.1508 81.0327 83.1508C79.591 83.1508 78.3757 82.8262 77.3867 82.177C76.3978 81.5158 75.6829 80.5961 75.242 79.418C74.8965 78.5764 74.7238 77.4764 74.7238 76.118C74.7238 75.1923 74.8489 74.3748 75.0991 73.6655C75.4803 72.4633 76.1535 71.5136 77.1186 70.8163C78.0718 70.107 79.2097 69.7524 80.5323 69.7524C82.2003 69.7524 83.5348 70.2393 84.5357 71.2131C85.5484 72.1868 86.1621 73.4912 86.3765 75.1262ZM80.5501 72.836C79.5016 72.836 78.8106 73.3289 78.4769 74.3147C78.4055 74.5311 78.3459 74.8016 78.2982 75.1262C78.2982 75.2103 78.3399 75.2524 78.4233 75.2524H82.7484C82.8557 75.2524 82.8914 75.2103 82.8557 75.1262C82.7723 74.6333 82.7306 74.3989 82.7306 74.4229C82.5757 73.918 82.3135 73.5273 81.9442 73.2508C81.5629 72.9743 81.0982 72.836 80.5501 72.836ZM95.3663 69.7704C96.7008 69.7704 97.7791 70.1852 98.6012 71.0147C99.4114 71.8322 99.8165 72.9502 99.8165 74.3688V82.6458C99.8165 82.73 99.7867 82.8021 99.7271 82.8622C99.6676 82.9223 99.5961 82.9524 99.5127 82.9524H96.5995C96.5161 82.9524 96.4446 82.9223 96.385 82.8622C96.3255 82.8021 96.2957 82.73 96.2957 82.6458V75.1081C96.2957 74.4349 96.105 73.8879 95.7238 73.4672C95.3544 73.0464 94.8599 72.836 94.2403 72.836C93.6208 72.836 93.1263 73.0464 92.7569 73.4672C92.3757 73.8879 92.185 74.4349 92.185 75.1081V82.6458C92.185 82.73 92.1552 82.8021 92.0957 82.8622C92.0361 82.9223 91.9646 82.9524 91.8812 82.9524H88.968C88.8846 82.9524 88.8131 82.9223 88.7535 82.8622C88.694 82.8021 88.6642 82.73 88.6642 82.6458V70.2754C88.6642 70.1912 88.694 70.1191 88.7535 70.059C88.8131 69.9988 88.8846 69.9688 88.968 69.9688H91.8812C91.9646 69.9688 92.0361 69.9988 92.0957 70.059C92.1552 70.1191 92.185 70.1912 92.185 70.2754V71.159C92.185 71.207 92.2029 71.2431 92.2386 71.2672C92.2744 71.2792 92.2982 71.2672 92.3101 71.2311C93.0012 70.2573 94.0199 69.7704 95.3663 69.7704ZM109.736 72.5295C109.736 72.6136 109.706 72.6857 109.646 72.7458C109.587 72.806 109.515 72.836 109.432 72.836H107.019C106.936 72.836 106.894 72.8781 106.894 72.9622V78.2999C106.894 78.865 107.007 79.2797 107.234 79.5442C107.46 79.8087 107.823 79.9409 108.324 79.9409H109.146C109.229 79.9409 109.301 79.971 109.36 80.0311C109.42 80.0912 109.45 80.1633 109.45 80.2475V82.6458C109.45 82.8382 109.348 82.9464 109.146 82.9704C108.455 83.0065 107.954 83.0245 107.645 83.0245C106.262 83.0245 105.232 82.7961 104.553 82.3393C103.862 81.8704 103.51 80.9988 103.498 79.7245V72.9622C103.498 72.8781 103.457 72.836 103.373 72.836H101.943C101.86 72.836 101.788 72.806 101.729 72.7458C101.669 72.6857 101.639 72.6136 101.639 72.5295V70.2754C101.639 70.1912 101.669 70.1191 101.729 70.059C101.788 69.9988 101.86 69.9688 101.943 69.9688H103.373C103.457 69.9688 103.498 69.9267 103.498 69.8426V66.8491C103.498 66.765 103.528 66.6928 103.588 66.6327C103.647 66.5726 103.719 66.5426 103.802 66.5426H106.608C106.691 66.5426 106.757 66.5726 106.805 66.6327C106.864 66.6928 106.894 66.765 106.894 66.8491V69.8426C106.894 69.9267 106.936 69.9688 107.019 69.9688H109.432C109.515 69.9688 109.587 69.9988 109.646 70.059C109.706 70.1191 109.736 70.1912 109.736 70.2754V72.5295ZM119.369 70.2754C119.369 70.1912 119.393 70.1191 119.44 70.059C119.5 69.9988 119.571 69.9688 119.655 69.9688H122.586C122.669 69.9688 122.741 69.9988 122.8 70.059C122.86 70.1191 122.89 70.1912 122.89 70.2754V82.6458C122.89 82.73 122.86 82.8021 122.8 82.8622C122.741 82.9223 122.669 82.9524 122.586 82.9524H119.655C119.571 82.9524 119.5 82.9223 119.44 82.8622C119.393 82.8021 119.369 82.73 119.369 82.6458V81.7983C119.369 81.7382 119.351 81.7081 119.315 81.7081C119.279 81.6961 119.244 81.7142 119.208 81.7622C118.541 82.6759 117.51 83.1327 116.116 83.1327C114.841 83.1327 113.799 82.742 112.988 81.9606C112.166 81.1912 111.755 80.1092 111.755 78.7147V70.2754C111.755 70.1912 111.785 70.1191 111.845 70.059C111.904 69.9988 111.976 69.9688 112.059 69.9688H114.954C115.038 69.9688 115.109 69.9988 115.169 70.059C115.228 70.1191 115.258 70.1912 115.258 70.2754V77.8311C115.258 78.5043 115.437 79.0513 115.794 79.4721C116.152 79.8928 116.646 80.1032 117.278 80.1032C117.85 80.1032 118.32 79.9289 118.69 79.5803C119.059 79.2316 119.285 78.7808 119.369 78.2278V70.2754ZM139.761 69.7704C141.06 69.7704 142.073 70.1672 142.799 70.9606C143.538 71.754 143.908 72.8661 143.908 74.2967V82.6458C143.908 82.73 143.878 82.8021 143.818 82.8622C143.759 82.9223 143.687 82.9524 143.604 82.9524H140.673C140.589 82.9524 140.518 82.9223 140.458 82.8622C140.411 82.8021 140.387 82.73 140.387 82.6458V75.0721C140.387 74.3868 140.208 73.8398 139.851 73.4311C139.505 73.0344 139.04 72.836 138.457 72.836C137.873 72.836 137.396 73.0344 137.027 73.4311C136.657 73.8398 136.473 74.3808 136.473 75.054V82.6458C136.473 82.73 136.443 82.8021 136.383 82.8622C136.324 82.9223 136.252 82.9524 136.169 82.9524H133.274C133.19 82.9524 133.119 82.9223 133.059 82.8622C132.999 82.8021 132.97 82.73 132.97 82.6458V75.0721C132.97 74.3989 132.785 73.8579 132.416 73.4491C132.058 73.0404 131.588 72.836 131.004 72.836C130.468 72.836 130.021 72.9923 129.663 73.3049C129.306 73.6295 129.091 74.0743 129.02 74.6393V82.6458C129.02 82.73 128.99 82.8021 128.931 82.8622C128.871 82.9223 128.799 82.9524 128.716 82.9524H125.785C125.702 82.9524 125.63 82.9223 125.571 82.8622C125.523 82.8021 125.499 82.73 125.499 82.6458V70.2754C125.499 70.1912 125.523 70.1191 125.571 70.059C125.63 69.9988 125.702 69.9688 125.785 69.9688H128.716C128.799 69.9688 128.871 69.9988 128.931 70.059C128.99 70.1191 129.02 70.1912 129.02 70.2754V71.2672C129.02 71.3152 129.038 71.3453 129.074 71.3573C129.109 71.3814 129.139 71.3693 129.163 71.3213C129.854 70.2874 130.914 69.7704 132.344 69.7704C133.178 69.7704 133.911 69.9508 134.542 70.3114C135.162 70.6601 135.639 71.165 135.972 71.8262C136.02 71.9224 136.079 71.9224 136.151 71.8262C136.52 71.1289 137.015 70.612 137.634 70.2754C138.266 69.9387 138.975 69.7704 139.761 69.7704Z" fill="#252530"/>
<path d="M72.311 124.931C72.311 124.991 72.2872 125.039 72.2395 125.075C72.2038 125.123 72.1561 125.147 72.0966 125.147H66.02C65.9604 125.147 65.9306 125.177 65.9306 125.237V128.609C65.9306 128.669 65.9604 128.699 66.02 128.699H70.1127C70.1723 128.699 70.2259 128.718 70.2736 128.754C70.3093 128.802 70.3272 128.856 70.3272 128.916V130.286C70.3272 130.346 70.3093 130.401 70.2736 130.449C70.2259 130.485 70.1723 130.503 70.1127 130.503H66.02C65.9604 130.503 65.9306 130.533 65.9306 130.593V135.75C65.9306 135.81 65.9068 135.859 65.8591 135.895C65.8234 135.943 65.7757 135.967 65.7161 135.967H64.0719C64.0123 135.967 63.9647 135.943 63.9289 135.895C63.8813 135.859 63.8574 135.81 63.8574 135.75V123.56C63.8574 123.5 63.8813 123.452 63.9289 123.416C63.9647 123.368 64.0123 123.344 64.0719 123.344H72.0966C72.1561 123.344 72.2038 123.368 72.2395 123.416C72.2872 123.452 72.311 123.5 72.311 123.56V124.931ZM80.4608 135.967C80.3417 135.967 80.2642 135.907 80.2285 135.786L79.6387 133.857C79.6149 133.809 79.5851 133.785 79.5493 133.785H74.831C74.7953 133.785 74.7655 133.809 74.7417 133.857L74.1519 135.786C74.1161 135.907 74.0387 135.967 73.9196 135.967H72.1323C72.0608 135.967 72.0072 135.943 71.9715 135.895C71.9357 135.859 71.9298 135.798 71.9536 135.714L75.8319 123.524C75.8676 123.404 75.9451 123.344 76.0642 123.344H78.2983C78.4174 123.344 78.4949 123.404 78.5306 123.524L82.4268 135.714C82.4387 135.738 82.4447 135.768 82.4447 135.804C82.4447 135.913 82.3791 135.967 82.2481 135.967H80.4608ZM75.2957 132.036C75.2838 132.108 75.3076 132.144 75.3672 132.144H78.9953C79.0668 132.144 79.0906 132.108 79.0668 132.036L77.2259 125.995C77.214 125.946 77.1961 125.922 77.1723 125.922C77.1485 125.922 77.1306 125.946 77.1187 125.995L75.2957 132.036ZM84.5 135.967C84.4404 135.967 84.3927 135.943 84.357 135.895C84.3093 135.859 84.2855 135.81 84.2855 135.75V123.56C84.2855 123.5 84.3093 123.452 84.357 123.416C84.3927 123.368 84.4404 123.344 84.5 123.344H86.1442C86.2038 123.344 86.2574 123.368 86.3051 123.416C86.3408 123.452 86.3587 123.5 86.3587 123.56V134.073C86.3587 134.133 86.3885 134.163 86.4481 134.163H92.4353C92.4949 134.163 92.5425 134.187 92.5783 134.236C92.6259 134.272 92.6498 134.32 92.6498 134.38V135.75C92.6498 135.81 92.6259 135.859 92.5783 135.895C92.5425 135.943 92.4949 135.967 92.4353 135.967H84.5ZM94.7051 135.967C94.6455 135.967 94.5978 135.943 94.5621 135.895C94.5144 135.859 94.4906 135.81 94.4906 135.75V123.56C94.4906 123.5 94.5144 123.452 94.5621 123.416C94.5978 123.368 94.6455 123.344 94.7051 123.344H96.3493C96.4089 123.344 96.4625 123.368 96.5102 123.416C96.5459 123.452 96.5638 123.5 96.5638 123.56V134.073C96.5638 134.133 96.5936 134.163 96.6532 134.163H102.64C102.7 134.163 102.754 134.187 102.801 134.236C102.837 134.272 102.855 134.32 102.855 134.38V135.75C102.855 135.81 102.837 135.859 102.801 135.895C102.754 135.943 102.7 135.967 102.64 135.967H94.7051Z" fill="white"/>
<path d="M60.8194 168.533C60.7836 168.569 60.7717 168.605 60.7836 168.641C60.8075 168.677 60.8432 168.695 60.8909 168.695H67.9147C67.9981 168.695 68.0696 168.725 68.1292 168.785C68.2007 168.845 68.2364 168.917 68.2364 169.002V171.544C68.2364 171.628 68.2007 171.7 68.1292 171.761C68.0696 171.821 67.9981 171.851 67.9147 171.851H56.2619C56.1666 171.851 56.0892 171.821 56.0296 171.761C55.97 171.7 55.9402 171.628 55.9402 171.544V169.128C55.9402 168.971 55.9939 168.839 56.1011 168.731C56.947 167.902 57.8109 166.994 58.6926 166.008C59.5743 165.022 60.1283 164.409 60.3547 164.169C60.8313 163.592 61.3198 163.039 61.8202 162.51C63.393 160.755 64.1794 159.45 64.1794 158.597C64.1794 157.984 63.9649 157.479 63.536 157.082C63.107 156.697 62.5471 156.505 61.856 156.505C61.1649 156.505 60.6049 156.697 60.176 157.082C59.7351 157.479 59.5147 158.002 59.5147 158.651V159.3C59.5147 159.384 59.4849 159.456 59.4253 159.516C59.3658 159.576 59.2943 159.606 59.2109 159.606H56.1547C56.0713 159.606 55.9998 159.576 55.9402 159.516C55.8688 159.456 55.833 159.384 55.833 159.3V158.074C55.8926 157.136 56.1905 156.3 56.7266 155.567C57.2628 154.846 57.9717 154.293 58.8534 153.908C59.7471 153.523 60.7479 153.331 61.856 153.331C63.0832 153.331 64.1496 153.565 65.0551 154.034C65.9607 154.491 66.6577 155.11 67.1462 155.892C67.6466 156.685 67.8968 157.557 67.8968 158.506C67.8968 159.24 67.7122 159.991 67.3428 160.761C66.9853 161.53 66.4432 162.359 65.7164 163.249C65.1802 163.922 64.6024 164.596 63.9828 165.269C63.3632 165.93 62.4398 166.886 61.2126 168.136L60.8194 168.533ZM76.6543 172.139C74.7479 172.139 73.2466 171.604 72.1505 170.534C71.0424 169.464 70.4883 168.004 70.4883 166.152V159.246C70.4883 157.431 71.0424 155.994 72.1505 154.936C73.2466 153.866 74.7479 153.331 76.6543 153.331C78.5488 153.331 80.056 153.866 81.176 154.936C82.2841 155.994 82.8381 157.431 82.8381 159.246V166.152C82.8381 168.004 82.2841 169.464 81.176 170.534C80.056 171.604 78.5488 172.139 76.6543 172.139ZM76.6543 168.984C77.4288 168.984 78.0424 168.743 78.4951 168.262C78.9598 167.781 79.1922 167.138 79.1922 166.333V159.138C79.1922 158.344 78.9598 157.707 78.4951 157.226C78.0424 156.745 77.4288 156.505 76.6543 156.505C75.8917 156.505 75.2841 156.745 74.8313 157.226C74.3666 157.707 74.1343 158.344 74.1343 159.138V166.333C74.1343 167.138 74.3666 167.781 74.8313 168.262C75.2841 168.743 75.8917 168.984 76.6543 168.984ZM90.0943 168.533C90.0585 168.569 90.0526 168.605 90.0764 168.641C90.0883 168.677 90.1241 168.695 90.1836 168.695H97.2075C97.2909 168.695 97.3624 168.725 97.4219 168.785C97.4815 168.845 97.5113 168.917 97.5113 169.002V171.544C97.5113 171.628 97.4815 171.7 97.4219 171.761C97.3624 171.821 97.2909 171.851 97.2075 171.851H85.5368C85.4534 171.851 85.3819 171.821 85.3224 171.761C85.2628 171.7 85.233 171.628 85.233 171.544V169.128C85.233 168.971 85.2807 168.839 85.376 168.731C86.2339 167.902 87.0977 166.994 87.9675 166.008C88.8492 165.022 89.4032 164.409 89.6296 164.169C90.1181 163.592 90.6126 163.039 91.113 162.51C92.6858 160.755 93.4722 159.45 93.4722 158.597C93.4722 157.984 93.2577 157.479 92.8288 157.082C92.3879 156.697 91.8219 156.505 91.1309 156.505C90.4398 156.505 89.8798 156.697 89.4509 157.082C89.0219 157.479 88.8075 158.002 88.8075 158.651V159.3C88.8075 159.384 88.7777 159.456 88.7181 159.516C88.6585 159.576 88.5811 159.606 88.4858 159.606H85.4296C85.3462 159.606 85.2747 159.576 85.2151 159.516C85.1556 159.456 85.1258 159.384 85.1258 159.3V158.074C85.1734 157.136 85.4653 156.3 86.0015 155.567C86.5377 154.846 87.2526 154.293 88.1462 153.908C89.0398 153.523 90.0347 153.331 91.1309 153.331C92.3581 153.331 93.4245 153.565 94.33 154.034C95.2475 154.491 95.9505 155.11 96.439 155.892C96.9275 156.685 97.1717 157.557 97.1717 158.506C97.1717 159.24 96.993 159.991 96.6356 160.761C96.2662 161.53 95.7181 162.359 94.9913 163.249C94.4551 163.922 93.8773 164.596 93.2577 165.269C92.6381 165.93 91.7147 166.886 90.4875 168.136L90.0943 168.533ZM110.576 163.123C110.922 163.916 111.094 164.836 111.094 165.882C111.094 166.832 110.939 167.703 110.63 168.497C110.213 169.615 109.516 170.486 108.539 171.111C107.562 171.749 106.406 172.067 105.071 172.067C103.761 172.067 102.611 171.737 101.622 171.075C100.633 170.402 99.9181 169.5 99.4773 168.37C99.239 167.697 99.1019 166.964 99.0662 166.17C99.0662 165.966 99.1675 165.864 99.37 165.864H102.444C102.647 165.864 102.748 165.966 102.748 166.17C102.819 166.747 102.915 167.174 103.034 167.451C103.189 167.908 103.445 168.262 103.802 168.515C104.148 168.767 104.565 168.893 105.053 168.893C106.019 168.893 106.686 168.467 107.055 167.613C107.293 167.096 107.413 166.489 107.413 165.792C107.413 164.962 107.282 164.289 107.019 163.772C106.626 162.955 105.965 162.546 105.036 162.546C104.845 162.546 104.642 162.6 104.428 162.708C104.225 162.828 103.975 162.991 103.677 163.195C103.606 163.243 103.54 163.267 103.481 163.267C103.373 163.267 103.296 163.219 103.248 163.123L101.711 160.941C101.676 160.893 101.658 160.833 101.658 160.761C101.658 160.652 101.693 160.568 101.765 160.508L105.876 156.865C105.911 156.829 105.929 156.793 105.929 156.757C105.917 156.721 105.887 156.703 105.84 156.703H99.7453C99.6619 156.703 99.5845 156.673 99.513 156.613C99.4534 156.553 99.4236 156.481 99.4236 156.397V153.854C99.4236 153.77 99.4534 153.698 99.513 153.638C99.5845 153.577 99.6619 153.547 99.7453 153.547H110.54C110.636 153.547 110.713 153.577 110.773 153.638C110.832 153.698 110.862 153.77 110.862 153.854V156.739C110.862 156.871 110.802 157.004 110.683 157.136L107.287 160.274C107.252 160.31 107.24 160.34 107.252 160.364C107.252 160.4 107.287 160.418 107.359 160.418C108.86 160.718 109.933 161.62 110.576 163.123Z" fill="#252530"/>
</svg>
