<?xml version="1.0" encoding="UTF-8"?>
<svg id="svg2" xmlns="http://www.w3.org/2000/svg" xmlns:svg="http://www.w3.org/2000/svg" xmlns:rdf="http://www.w3.org/1999/02/22-rdf-syntax-ns#" xmlns:dc="http://purl.org/dc/elements/1.1/" xmlns:cc="http://creativecommons.org/ns#" version="1.1" viewBox="0 0 120 120">
  <defs>
    <style>
      .cls-1 {
        fill: #36ccbe;
        stroke-width: 0px;
      }
    </style>
  </defs>
  <polygon class="cls-1" points="90.6 46.7 89.1 51.3 92.2 51.3 90.7 46.7 90.6 46.7"/>
  <path class="cls-1" d="M100.4,10.6h-42.1c-5.8,0-10.5,4.7-10.5,10.5v26c-2.4-1.7-5.3-2.7-8.5-2.7-8.3,0-15,6.7-15,15v5.8h-8.1c-3.2,0-5.8,2.6-5.8,5.8v32.3c0,3.2,2.6,5.8,5.8,5.8h46.1c.4,0,.9,0,1.3-.2h36.9c5.8,0,10.5-4.7,10.5-10.5V21.2c0-5.8-4.7-10.5-10.5-10.5ZM31.1,59.5c0-4.5,3.6-8.1,8.1-8.1s8.1,3.6,8.1,8.1v5.8h-16.1v-5.8ZM61.1,102.2H17.3v-30h43.8v30ZM65.7,70.4c-.6-.5-.8-1.4-.3-2l1.1-1.5-1.8-.6s0,0,0,0c-.7-.3-1.1-1.1-.9-1.8.3-.7,1.1-1.1,1.8-.9l1.8.6v-1.8c0-.8.6-1.4,1.4-1.4s1.4.6,1.4,1.4v1.8l1.8-.6s0,0,0,0c.8-.2,1.6.2,1.8,1s-.2,1.6-1,1.8l-1.8.6,1.1,1.5c.5.6.3,1.5-.3,2-.6.5-1.5.3-2-.3l-1.1-1.5-1.1,1.5c-.5.6-1.4.8-2,.3ZM73.9,53.9v2.1h-8.6v-1.8l4.3-4c.4-.4.7-.7.9-1,.3-.3.4-.6.6-.8.1-.3.2-.6.2-.9s0-.7-.2-.9c-.2-.3-.4-.5-.7-.6-.3-.1-.6-.2-1-.2s-.7,0-1,.2c-.3.1-.5.4-.6.6-.1.3-.2.6-.2,1h-2.4c0-.8.2-1.5.5-2.1s.9-1,1.5-1.4,1.4-.5,2.2-.5,1.6.2,2.3.5c.6.3,1.1.7,1.5,1.3.4.5.5,1.2.5,1.9s0,.9-.3,1.4c-.2.4-.5.9-1,1.5-.5.5-1.1,1.2-1.9,1.9l-1.8,1.7h0c0,0,5.1,0,5.1,0ZM103.9,98.4c0,1.9-1.6,3.5-3.5,3.5h-32.4v-7h35.9v3.5ZM83.2,48.9v2.1h-4.9v5h-2.6v-12.1h8v2.1h-5.4v2.9h4.9ZM77.5,63.7l1.8.6v-1.8c0-.8.6-1.4,1.4-1.4s1.4.6,1.4,1.4v1.8l1.8-.6c.8-.2,1.6.2,1.8.9,0,0,0,0,0,0,.2.8-.2,1.6-.9,1.8l-1.8.6,1.1,1.5c.5.6.3,1.5-.3,2-.6.5-1.5.3-2-.3l-1.1-1.5-1.1,1.5c-.5.6-1.4.8-2,.3-.6-.5-.8-1.4-.3-2l1.1-1.5-1.8-.6s0,0,0,0c-.7-.3-1.1-1.1-.9-1.8s1.1-1.1,1.8-.9ZM96.2,68.5c.5.6.3,1.5-.3,2-.6.5-1.5.3-2-.3l-1.1-1.5-1.1,1.5c-.5.6-1.4.8-2,.3-.6-.5-.8-1.4-.3-2l1.1-1.5-1.8-.6s0,0,0,0c-.7-.3-1.1-1.1-.9-1.8s1.1-1.1,1.8-.9l1.8.6v-1.8c0-.8.6-1.4,1.4-1.4s1.4.6,1.4,1.4v1.8l1.8-.6s0,0,0,0c.8-.2,1.6.2,1.8,1s-.2,1.6-1,1.8l-1.8.6,1.1,1.5ZM93.7,56l-.9-2.8h-4.4l-.9,2.8h-2.7l4.2-12.1h3.3l4.2,12.1h-2.7ZM103.9,24.7h-49.2v-3.5c0-1.9,1.6-3.5,3.5-3.5h42.1c1.9,0,3.5,1.6,3.5,3.5v3.5Z"/>
  <circle class="cls-1" cx="38.9" cy="87.5" r="2.8"/>
</svg>