<?xml version="1.0" encoding="UTF-8" standalone="no"?>
<svg
   xmlns:dc="http://purl.org/dc/elements/1.1/"
   xmlns:cc="http://creativecommons.org/ns#"
   xmlns:rdf="http://www.w3.org/1999/02/22-rdf-syntax-ns#"
   xmlns:svg="http://www.w3.org/2000/svg"
   xmlns="http://www.w3.org/2000/svg"
   viewBox="0 0 120 120"
   height="120"
   width="120"
   xml:space="preserve"
   id="svg2"
   version="1.1"><metadata
     id="metadata8"><rdf:RDF><cc:Work
         rdf:about=""><dc:format>image/svg+xml</dc:format><dc:type
           rdf:resource="http://purl.org/dc/dcmitype/StillImage" /></cc:Work></rdf:RDF></metadata><defs
     id="defs6"><clipPath
       id="clipPath18"
       clipPathUnits="userSpaceOnUse"><path
         id="path16"
         d="M 0,90 H 90 V 0 H 0 Z" /></clipPath></defs><g
     transform="matrix(1.3333333,0,0,-1.3333333,0,120)"
     id="g10"><g
       id="g12"><g
         clip-path="url(#clipPath18)"
         id="g14"><g
           transform="translate(53.6235,50.2621)"
           id="g20"><path
             id="path22"
             style="fill:#36CCBE;fill-opacity:1;fill-rule:nonzero;stroke:none"
             d="m 0,0 c -5.823,0 -10.544,4.721 -10.544,10.544 0,5.823 4.721,10.544 10.544,10.544 5.823,0 10.544,-4.721 10.544,-10.544 C 10.544,4.721 5.823,0 0,0 m 0.118,31.612 c -18.827,0 -34.094,-15.191 -34.244,-33.983 7.52,-0.373 14.037,-4.876 17.327,-11.273 3.845,5.084 9.925,8.372 16.799,8.372 h 0.118 0.119 c 8.629,0 16.053,-5.193 19.311,-12.637 0.592,-1.422 1.106,-3.12 1.046,-4.857 -5.212,-5.312 -12.459,-8.609 -20.476,-8.609 -5.521,0 -10.659,1.592 -15.037,4.302 -0.373,-1.864 -1.018,-3.655 -1.878,-5.34 4.994,-2.844 10.758,-4.491 16.915,-4.491 18.921,0 34.258,15.338 34.258,34.258 0,18.92 -15.337,34.258 -34.258,34.258" /></g><g
           transform="translate(24.3808,21.2959)"
           id="g24"><path
             id="path26"
             style="fill:#36CCBE;fill-opacity:1;fill-rule:nonzero;stroke:none"
             d="m 0,0 c -1.817,0.02 -3.297,1.481 -3.297,3.297 0,1.817 1.48,3.298 3.297,3.298 0.655,0 1.263,-0.198 1.777,-0.529 C 2.408,5.659 2.881,5.042 3.119,4.316 3.225,3.993 3.297,3.655 3.297,3.297 3.297,1.481 1.817,0 0,0 m -11.867,0 c -1.816,0.02 -3.297,1.481 -3.297,3.297 0,1.817 1.481,3.298 3.297,3.298 1.817,0 3.297,-1.481 3.297,-3.298 C -8.57,1.481 -10.05,0 -11.867,0 M 9.81,10.738 C 7.863,17.083 2.161,21.81 -4.646,22.336 c -0.216,0.016 -0.428,0.047 -0.646,0.055 l 0.02,0.04 c -5.687,0.217 -11.097,-2.528 -14.296,-7.247 -5.074,-7.543 -3.1,-17.771 4.443,-22.865 v -2.824 c 0,-1.441 1.165,-2.626 2.626,-2.626 h 1.323 c 0.356,0 0.652,0.297 0.652,0.652 v 3.949 0.079 c 0.059,0.711 0.671,1.264 1.402,1.224 0.711,-0.059 1.244,-0.651 1.244,-1.362 v -3.91 c 0,-0.355 0.296,-0.651 0.651,-0.651 h 2.626 c 0.356,0 0.652,0.296 0.652,0.651 v 3.949 0.079 c 0.059,0.711 0.671,1.264 1.402,1.224 0.711,-0.059 1.244,-0.651 1.244,-1.362 v -3.91 c 0,-0.355 0.296,-0.651 0.651,-0.651 h 1.323 c 1.442,0 2.626,1.165 2.626,2.626 v 2.824 c 2.49,1.666 4.41,3.956 5.653,6.573 0.866,1.824 1.403,3.803 1.547,5.856 0.046,0.656 0.062,1.318 0.027,1.985 -0.062,1.402 -0.318,2.753 -0.714,4.044" /></g></g></g></g></svg>