<svg xmlns="http://www.w3.org/2000/svg" width="100" height="100" data-name="Layer 2"><g data-name="Layer 1"><path d="M0 0h100v100H0z" style="fill:transparent;stroke-width:0"/><path d="M53.8 75.3V40.1h25v-8.9h-70v51.1c0 2.5 2 4.5 4.5 4.5h65.5v-9.3H56c-1.2.1-2.2-1-2.2-2.2Z" style="fill:#071871;stroke-width:0"/><path d="m78.7 31.2.1-7.3c0-1.9-1.1-3.5-2.8-4.1-.5-.2-1.1-.4-1.8-.4H8.8v11.8h69.9ZM88.8 40.1h-10v37.5h12.5V42.5c-.1-1.4-1.1-2.4-2.5-2.4Z" style="fill:#36ccbe;stroke-width:0"/><path d="M78.8 74.8V40.1h-25v35.2c0 1.2 1 2.2 2.2 2.2h22.8v-2.7Z" style="fill:#316cff;stroke-width:0"/><path d="M59.8 46.1h25.5v25.5H59.8z" style="fill:none;stroke-width:0"/><path d="M72.5 48.5c-5.7 0-10.4 4.6-10.4 10.4s4.6 10.4 10.4 10.4 10.4-4.6 10.4-10.4-4.7-10.4-10.4-10.4Zm5.6 11.1h-5.6c-.4 0-.8-.4-.8-.8v-5.6c0-.4.4-.8.8-.8s.8.4.8.8V58h4.8c.4 0 .8.4.8.8s-.4.8-.8.8Z" style="fill:#fff;stroke-width:0"/><path d="M65.3 16.2c0-1.6-1.3-3-3-3s-3 1.4-3 3v8c0 1.6 1.3 3 3 3s3-1.4 3-3v-8ZM28.2 16.2c0-1.6-1.4-3-3-3s-3 1.4-3 3v8c0 1.6 1.4 3 3 3s3-1.4 3-3v-8Z" style="fill:#071871;stroke-width:0"/><path d="M16.2 43.3h12v12h-12zM34.3 43.3h12v12h-12zM16.2 61.4h12v12h-12zM34.3 61.4h12v12h-12z" style="fill:#316cff;stroke-width:0"/></g></svg>
