<svg width="36" height="28" viewBox="0 0 36 28" fill="none" xmlns="http://www.w3.org/2000/svg">
<path d="M33.4286 0H2.57143C1.14857 0 0 1.2515 0 2.80187V8.55504V25.1981C0 26.7485 1.14857 28 2.57143 28H33.4286C34.8514 28 36 26.7485 36 25.1981V2.80187C36 1.2515 34.8514 0 33.4286 0Z" fill="#2E69FF"/>
<path d="M19.2859 22.4149H16.7144C16.0116 22.4149 15.4287 21.7798 15.4287 21.014C15.4287 20.2481 16.0116 19.613 16.7144 19.613H19.2859C19.9887 19.613 20.5716 20.2481 20.5716 21.014C20.5716 21.7798 19.9887 22.4149 19.2859 22.4149Z" fill="white"/>
<path d="M29.5716 22.4149H24.4288C23.7259 22.4149 23.1431 21.7798 23.1431 21.014C23.1431 20.2481 23.7259 19.613 24.4288 19.613H29.5716C30.2745 19.613 30.8574 20.2481 30.8574 21.014C30.8574 21.7798 30.2745 22.4149 29.5716 22.4149Z" fill="white"/>
<path d="M33.4284 2.80176H2.57129V7.15399H33.4284V2.80176Z" fill="white"/>
</svg>
