<svg xmlns="http://www.w3.org/2000/svg" xml:space="preserve" style="enable-background:new 0 0 100 100" viewBox="0 0 100 100"><path d="M46.25 81.5V46.25h25v-21a4.5 4.5 0 0 0-4.5-4.5H56.208v5.474H31.293V20.75H16.25v58.5a4.5 4.5 0 0 0 4.5 4.5H48.5a2.25 2.25 0 0 1-2.25-2.25zm-22.5-47.344h40v6h-40v-6z" style="fill:#071871"/><path d="M56.208 26.224V18.75a2.5 2.5 0 0 0-2.5-2.5H33.793a2.5 2.5 0 0 0-2.5 2.5v7.474h24.915z" style="fill:#00c8b7"/><path d="M23.75 34.156h40v6h-40z" style="fill:#316cff"/><path d="M81.35 46.25h-10.1v9.923h3.558a.98.98 0 0 1 .98.981v4.904a.98.98 0 0 1-.601.907 1.016 1.016 0 0 1-1.079-.208l-1.753-1.765-1.106 1.108v11.728h5.52a.98.98 0 1 1 0 1.962h-5.52v7.961h12.5v-35.1a2.398 2.398 0 0 0-2.399-2.401z" style="fill:#00c8b7"/><path d="m64.301 67.66-3.224-3.237-6.865 6.865v2.538H71.25V62.099l-5.551 5.562a.993.993 0 0 1-1.398-.001z" style="fill:#316cff"/><path d="M53.231 75.789a.98.98 0 0 1-.981-.981V55.192a.98.98 0 1 1 1.962 0v13.326l6.167-6.179a.991.991 0 0 1 1.397 0L65 65.576l5.971-5.97-1.766-1.753a1.03 1.03 0 0 1-.208-1.079.994.994 0 0 1 .907-.601h1.346V46.25h-25V81.5a2.25 2.25 0 0 0 2.25 2.25h22.75v-7.961H53.231z" style="fill:#316cff"/><path d="M68.997 56.774c-.144.37-.063.789.208 1.079l1.766 1.753L65 65.576l-3.224-3.236a.991.991 0 0 0-1.397 0l-6.167 6.179V55.192a.98.98 0 1 0-1.962 0v19.615a.98.98 0 0 0 .981.981H76.77a.98.98 0 1 0 0-1.962H54.212v-2.538l6.865-6.865 3.224 3.237a.993.993 0 0 0 1.397 0l5.551-5.562 1.106-1.108 1.753 1.765a1.016 1.016 0 0 0 1.079.208.98.98 0 0 0 .601-.907v-4.904a.98.98 0 0 0-.98-.981h-4.904a.998.998 0 0 0-.907.603z" style="fill:#fff"/></svg>
