<svg xmlns="http://www.w3.org/2000/svg" viewBox="0 0 192 192" style="enable-background:new 0 0 192 192" xml:space="preserve"><path style="fill:none" d="M0 0h192v192H0z"/><path style="fill:#1d269a" d="M102 60v32.55l28.2 16.275a6 6 0 0 1-3 11.175 5.32 5.32 0 0 1-3-.825l-31.2-18h-.15l-.3-.15-.225-.225-.225-.15-.225-.225-.15-.15c-.15-.075-.225-.225-.3-.3l-.15-.15-.15-.3-.15-.225-.15-.225a.377.377 0 0 1-.15-.3l-.15-.225c0-.075-.075-.15-.075-.3a.3.3 0 0 1-.075-.225l-.15-.3a.3.3 0 0 0-.075-.225c0-.15 0-.225-.075-.3v-.3c0-.15-.075-.225-.075-.3V60a6 6 0 1 1 12 0zm44.925-14.925c-28.155-28.053-73.695-28.053-101.85 0L38.85 51.3 28.125 40.575a6 6 0 0 0-6.525-1.35 6.15 6.15 0 0 0-3.75 5.55v30a6 6 0 0 0 6 6h30a5.999 5.999 0 0 0 4.275-10.2l-10.8-10.8 6.225-6.225c23.444-23.418 61.434-23.397 84.853.047s23.397 61.434-.047 84.853c-23.426 23.4-61.38 23.4-84.806 0a5.926 5.926 0 0 0-8.379-.096l-.096.096a6 6 0 0 0 0 8.475c28.125 28.125 73.725 28.125 101.85 0s28.125-73.725 0-101.85z"/></svg>
