<svg width="24" height="24" viewBox="0 0 24 24" fill="none" xmlns="http://www.w3.org/2000/svg">
<g clip-path="url(#clip0_4_1573)">
<path d="M16.1281 9.11273L13.2397 12L16.1281 14.8873C16.2096 14.9687 16.2742 15.0655 16.3183 15.1719C16.3624 15.2784 16.3851 15.3925 16.3851 15.5077C16.3851 15.6229 16.3624 15.737 16.3183 15.8435C16.2742 15.9499 16.2096 16.0466 16.1281 16.1281C16.0466 16.2096 15.9499 16.2742 15.8434 16.3183C15.737 16.3624 15.6229 16.3851 15.5077 16.3851C15.3924 16.3851 15.2784 16.3624 15.1719 16.3183C15.0654 16.2742 14.9687 16.2096 14.8872 16.1281L12 13.2398L9.11271 16.1281C9.03123 16.2096 8.93451 16.2742 8.82806 16.3183C8.7216 16.3624 8.60751 16.3851 8.49229 16.3851C8.37706 16.3851 8.26297 16.3624 8.15652 16.3183C8.05006 16.2742 7.95334 16.2096 7.87186 16.1281C7.79039 16.0466 7.72576 15.9499 7.68166 15.8435C7.63757 15.737 7.61488 15.6229 7.61488 15.5077C7.61488 15.3925 7.63757 15.2784 7.68166 15.1719C7.72576 15.0655 7.79039 14.9687 7.87186 14.8873L10.7602 12L7.87186 9.11273C7.70732 8.94819 7.61488 8.72502 7.61488 8.49231C7.61488 8.25961 7.70732 8.03643 7.87186 7.87189C8.03641 7.70734 8.25958 7.6149 8.49229 7.6149C8.72499 7.6149 8.94816 7.70734 9.11271 7.87189L12 10.7603L14.8872 7.87189C14.9687 7.79041 15.0654 7.72578 15.1719 7.68169C15.2784 7.6376 15.3924 7.6149 15.5077 7.6149C15.6229 7.6149 15.737 7.6376 15.8434 7.68169C15.9499 7.72578 16.0466 7.79041 16.1281 7.87189C16.2096 7.95336 16.2742 8.05009 16.3183 8.15654C16.3624 8.26299 16.3851 8.37709 16.3851 8.49231C16.3851 8.60754 16.3624 8.72163 16.3183 8.82808C16.2742 8.93454 16.2096 9.03126 16.1281 9.11273ZM23.4 12C23.4 14.2547 22.7314 16.4588 21.4787 18.3335C20.2261 20.2082 18.4456 21.6694 16.3626 22.5322C14.2795 23.3951 11.9873 23.6208 9.77595 23.181C7.56457 22.7411 5.53328 21.6553 3.93896 20.061C2.34464 18.4667 1.2589 16.4354 0.819028 14.224C0.379157 12.0126 0.604915 9.72049 1.46775 7.63741C2.33059 5.55434 3.79176 3.7739 5.66648 2.52125C7.5412 1.2686 9.74527 0.600006 12 0.600006C15.0225 0.603198 17.9202 1.80529 20.0575 3.94251C22.1947 6.07974 23.3968 8.97752 23.4 12ZM21.6461 12C21.6461 10.0922 21.0804 8.22719 20.0205 6.64089C18.9605 5.05459 17.454 3.81822 15.6914 3.08812C13.9288 2.35803 11.9893 2.167 10.1181 2.5392C8.24694 2.9114 6.52816 3.83011 5.17912 5.17914C3.83008 6.52818 2.91137 8.24696 2.53917 10.1181C2.16698 11.9893 2.358 13.9288 3.0881 15.6914C3.81819 17.454 5.05456 18.9606 6.64086 20.0205C8.22716 21.0804 10.0921 21.6462 12 21.6462C14.5574 21.6433 17.0093 20.626 18.8176 18.8177C20.626 17.0093 21.6432 14.5574 21.6461 12Z" fill="black"/>
</g>
<defs>
<clipPath id="clip0_4_1573">
<rect width="24" height="24" fill="white"/>
</clipPath>
</defs>
</svg>
