<svg version="1.2" xmlns="http://www.w3.org/2000/svg" viewBox="0 0 248 228" width="248" height="228"><defs><clipPath clipPathUnits="userSpaceOnUse" id="cp1"><path d="m-31-40.41l309.07-0.01v309.07h-309.07z"/></clipPath><clipPath clipPathUnits="userSpaceOnUse" id="cp2"><path d="m-31-40.41l309.07-0.01v309.07h-309.07z"/></clipPath><clipPath clipPathUnits="userSpaceOnUse" id="cp3"><path d="m-31-40.41l309.07-0.01v309.07h-309.07z"/></clipPath><clipPath clipPathUnits="userSpaceOnUse" id="cp4"><path d="m-31-40.41l309.07-0.01v309.07h-309.07z"/></clipPath><clipPath clipPathUnits="userSpaceOnUse" id="cp5"><path d="m-31-40.41l309.07-0.01v309.07h-309.07z"/></clipPath><clipPath clipPathUnits="userSpaceOnUse" id="cp6"><path d="m-31-40.41l309.07-0.01v309.07h-309.07z"/></clipPath></defs><style>.a{fill:#00c8b7}.b{fill:#316cff}.c{fill:#071771}.d{fill:#ebebeb}</style><g clip-path="url(#cp1)"><g clip-path="url(#cp2)"><g clip-path="url(#cp3)"><path className="a" d="m177.9 1.8c-22.3 0-41.9 11.3-54.2 28.4-12.4-17.1-32.1-28.3-54.4-28.2-37.5 0-67.8 31.4-67.7 70.1 0 19.3 7.7 36.8 20 49.4l102.4 104.3 102.1-104.7c12.3-12.7 19.8-30.2 19.8-49.5-0.1-38.6-30.5-69.9-68-69.8z"/></g><g clip-path="url(#cp4)"><path className="b" d="m168.9 122.2c0.1 25.2-20.1 45.7-45 45.8-24.8 0-45.1-20.4-45.1-45.6q-0.1-1.3 0-2.6c0.7-26.2 16.1-33.7 16.1-33.7 0 0 0.9 24.6 16.5 24.5-0.1-7.9 0.6-22.8 4-32.8 4.3-12.8 11.8-23.2 23.3-31.6 0.1 30.4 27.2 35.5 30 71.1 0.1 1.7 0.2 3.2 0.2 4.9z"/></g><g clip-path="url(#cp5)"><path className="c" d="m118.7 167.7c-15.2-17-9.3-36.7 5.3-51.5 2.1-2 4.9 0.8 6.3 2.3 3.3 3.5 6.3 7.5 8.7 11.7 2.3 4.2 4.5 8.9 4.9 13.9 0.3 4.8-1.3 9.7-3.8 13.8q-0.2 0.4-0.5 0.8-0.2 0.4-0.5 0.8-0.3 0.4-0.6 0.8-0.2 0.3-0.5 0.7-0.6 0.8-1.3 1.5-0.6 0.7-1.3 1.4-0.7 0.6-1.4 1.3-0.8 0.6-1.5 1.2"/></g><g clip-path="url(#cp6)"><path className="d" d="m121.1 167.7c-7-9.1-3.7-19.3 4-27.1 1.1-1.1 2.7 0.4 3.5 1.2 1.8 2 3.4 4.2 4.7 6.5 1.3 2.3 2.5 4.9 2.7 7.6 0.2 2.7-0.7 5.4-2 7.7q-0.4 0.5-0.7 1-0.4 0.5-0.8 1-0.4 0.5-0.9 1-0.4 0.4-0.9 0.9"/></g></g></g></svg>