<svg width="189" height="253" viewBox="0 0 189 253" fill="none" xmlns="http://www.w3.org/2000/svg">
<path d="M16.2861 187.079L95.7064 228.762L172.111 187.079V24.0811H16.2861V187.079Z" fill="white"/>
<path d="M173.72 24.7029L14.6787 189.982L97.1149 232.08L173.72 191.641V24.7029Z" fill="#F2F3F2"/>
<path d="M11.0596 78.4136V190.605L13.8745 192.056L93.2947 233.739L95.7075 234.983L98.1202 233.739L174.726 192.056L177.54 190.605V18.689H11.0596V78.4136ZM16.2872 187.494V24.0808H172.313V187.494L95.7075 229.177L16.2872 187.494Z" fill="#DCDEDC"/>
<path d="M94.2974 26.7764C95.1017 26.7764 95.9059 26.7764 96.7102 26.9838L94.2974 31.7535C90.6783 31.5461 87.4612 34.4494 87.2602 38.1822C87.0591 41.9149 89.874 45.233 93.4932 45.4404H94.2974C95.9059 45.4404 97.5144 44.8182 98.7208 43.7813L101.335 48.3436C99.324 49.7953 96.9112 50.6248 94.2974 50.6248C87.8634 50.8322 82.4346 45.8551 82.2336 39.219C82.0325 32.583 86.858 26.9838 93.2921 26.7764H94.2974ZM102.541 36.9379L105.557 42.1223L102.541 47.0994L99.7261 42.1223H93.8953L96.9112 36.9379H102.541ZM97.7155 35.0715C97.7155 34.242 97.9166 33.4125 98.3187 32.7904C98.7208 32.1682 99.5251 31.5461 100.128 31.1313L100.53 30.924C101.335 30.5092 101.536 30.3018 101.536 29.8871C101.536 29.4723 100.933 29.0576 100.53 29.0576C99.7261 29.0576 99.1229 29.4723 98.7208 30.3018L97.7155 29.2649C97.9166 28.8502 98.3187 28.4354 98.7208 28.0207C99.324 27.6059 99.9272 27.6059 100.53 27.6059C101.134 27.6059 101.938 27.8133 102.34 28.2281C102.742 28.6428 103.144 29.265 103.144 29.8871C103.144 30.924 102.541 31.7535 101.335 32.1682L100.731 32.583C100.128 32.9977 99.7261 33.2051 99.5251 33.8272H103.144V35.2789L97.7155 35.0715ZM94.2974 60.9936L113.398 49.7953V18.6887H74.9953V49.5879L94.2974 60.9936ZM181.358 134.405H7.23678L0.802734 148.921L7.23678 163.438H181.358L187.591 148.921L181.358 134.405Z" fill="#FF492C"/>
<path d="M50.8683 125.073C50.7745 125.073 50.6941 125.039 50.6271 124.97C50.56 124.9 50.5265 124.818 50.5265 124.721V105.103C50.5265 105.006 50.56 104.923 50.6271 104.854C50.6941 104.785 50.7745 104.75 50.8683 104.75H54.1658C54.2596 104.75 54.34 104.785 54.4071 104.854C54.4741 104.923 54.5076 105.006 54.5076 105.103V121.423C54.5076 121.52 54.5545 121.569 54.6483 121.569H63.8571C63.9509 121.569 64.0246 121.596 64.0782 121.652C64.1453 121.721 64.1788 121.804 64.1788 121.9V124.721C64.1788 124.818 64.1453 124.9 64.0782 124.97C64.0246 125.039 63.9509 125.073 63.8571 125.073H50.8683ZM79.1982 116.073C79.3055 116.806 79.339 117.628 79.2988 118.541C79.2854 118.776 79.1647 118.893 78.9368 118.893H70.2308C70.1236 118.893 70.09 118.942 70.1303 119.039C70.1839 119.426 70.2844 119.813 70.4318 120.2C70.9278 121.278 71.9264 121.817 73.4277 121.817C74.6207 121.804 75.5657 121.299 76.2627 120.304C76.3431 120.193 76.4303 120.138 76.5241 120.138C76.5777 120.138 76.638 120.179 76.705 120.262L78.7358 122.315C78.8296 122.412 78.8765 122.502 78.8765 122.585C78.8765 122.612 78.843 122.688 78.776 122.813C78.146 123.601 77.3484 124.216 76.3833 124.659C75.4048 125.087 74.3325 125.301 73.1663 125.301C71.5578 125.301 70.1906 124.928 69.0646 124.182C67.9521 123.421 67.1545 122.364 66.672 121.009C66.2698 120.041 66.0688 118.776 66.0688 117.214C66.0688 116.149 66.2095 115.209 66.491 114.393C66.9199 113.011 67.6773 111.919 68.763 111.117C69.8354 110.301 71.1155 109.893 72.6033 109.893C74.4799 109.893 75.9879 110.453 77.1273 111.573C78.2532 112.693 78.9436 114.193 79.1982 116.073ZM72.6234 113.439C71.4439 113.439 70.6664 114.006 70.2911 115.14C70.2241 115.389 70.1571 115.7 70.09 116.073C70.09 116.17 70.137 116.218 70.2308 116.218H75.1166C75.2239 116.218 75.2574 116.17 75.2172 116.073C75.1233 115.506 75.0764 115.237 75.0764 115.264C74.9156 114.684 74.6207 114.234 74.1917 113.916C73.7762 113.598 73.2534 113.439 72.6234 113.439ZM87.3815 109.914C88.6013 109.914 89.6871 110.135 90.6388 110.578C91.6039 111.006 92.3545 111.601 92.8907 112.361C93.4268 113.108 93.6949 113.951 93.6949 114.891V124.721C93.6949 124.818 93.6614 124.9 93.5944 124.97C93.5274 125.039 93.447 125.073 93.3531 125.073H90.0557C89.9619 125.073 89.8814 125.039 89.8144 124.97C89.7474 124.9 89.7139 124.818 89.7139 124.721V123.767C89.7139 123.711 89.6938 123.67 89.6535 123.642C89.6267 123.629 89.5932 123.649 89.553 123.705C88.7622 124.769 87.4955 125.301 85.7529 125.301C84.2919 125.301 83.1056 124.935 82.1941 124.202C81.296 123.47 80.847 122.384 80.847 120.946C80.847 119.453 81.3563 118.299 82.375 117.483C83.3804 116.654 84.8213 116.239 86.6979 116.239H89.5731C89.667 116.239 89.7139 116.191 89.7139 116.094V115.472C89.7139 114.822 89.5262 114.317 89.1509 113.958C88.7756 113.612 88.2126 113.439 87.462 113.439C86.8856 113.439 86.403 113.543 86.0143 113.75C85.6256 113.958 85.3776 114.255 85.2704 114.642C85.2167 114.863 85.0961 114.96 84.9084 114.933L81.4904 114.476C81.2759 114.435 81.1754 114.345 81.1888 114.207C81.2692 113.405 81.5842 112.672 82.1338 112.009C82.6833 111.345 83.4139 110.833 84.3254 110.474C85.2368 110.101 86.2556 109.914 87.3815 109.914ZM86.8186 122.253C87.6228 122.253 88.3064 122.032 88.8694 121.589C89.4324 121.147 89.7139 120.573 89.7139 119.868V118.831C89.7139 118.734 89.667 118.686 89.5731 118.686H87.5424C86.6979 118.686 86.0411 118.852 85.572 119.184C85.0894 119.516 84.8481 119.979 84.8481 120.573C84.8481 121.099 85.0291 121.513 85.391 121.817C85.7395 122.108 86.2154 122.253 86.8186 122.253ZM105.457 105.103C105.457 105.006 105.491 104.923 105.558 104.854C105.625 104.785 105.705 104.75 105.799 104.75H109.076C109.17 104.75 109.251 104.785 109.318 104.854C109.385 104.923 109.418 105.006 109.418 105.103V124.721C109.418 124.818 109.385 124.9 109.318 124.97C109.251 125.039 109.17 125.073 109.076 125.073H105.799C105.705 125.073 105.625 125.039 105.558 124.97C105.491 124.9 105.457 124.818 105.457 124.721V123.767C105.457 123.711 105.437 123.677 105.397 123.663C105.357 123.649 105.316 123.663 105.276 123.705C104.499 124.769 103.42 125.301 102.039 125.301C100.725 125.301 99.5995 124.928 98.6612 124.182C97.7095 123.421 97.0259 122.384 96.6104 121.071C96.2887 120.062 96.1278 118.887 96.1278 117.545C96.1278 116.177 96.3021 114.981 96.6506 113.958C97.0795 112.714 97.7564 111.732 98.6813 111.013C99.6062 110.28 100.759 109.914 102.14 109.914C103.48 109.914 104.526 110.398 105.276 111.366C105.316 111.421 105.357 111.442 105.397 111.428C105.437 111.414 105.457 111.373 105.457 111.303V105.103ZM104.854 120.552C105.229 119.834 105.417 118.852 105.417 117.608C105.417 116.308 105.216 115.292 104.814 114.559C104.371 113.813 103.741 113.439 102.924 113.439C102.039 113.439 101.369 113.813 100.913 114.559C100.444 115.32 100.209 116.35 100.209 117.649C100.209 118.81 100.41 119.778 100.813 120.552C101.282 121.382 101.972 121.797 102.884 121.797C103.728 121.797 104.385 121.382 104.854 120.552ZM125.222 116.073C125.329 116.806 125.362 117.628 125.322 118.541C125.309 118.776 125.188 118.893 124.96 118.893H116.254C116.147 118.893 116.114 118.942 116.154 119.039C116.207 119.426 116.308 119.813 116.455 120.2C116.951 121.278 117.95 121.817 119.451 121.817C120.644 121.804 121.589 121.299 122.286 120.304C122.367 120.193 122.454 120.138 122.548 120.138C122.601 120.138 122.662 120.179 122.729 120.262L124.759 122.315C124.853 122.412 124.9 122.502 124.9 122.585C124.9 122.612 124.867 122.688 124.8 122.813C124.17 123.601 123.372 124.216 122.407 124.659C121.428 125.087 120.356 125.301 119.19 125.301C117.581 125.301 116.214 124.928 115.088 124.182C113.976 123.421 113.178 122.364 112.695 121.009C112.293 120.041 112.092 118.776 112.092 117.214C112.092 116.149 112.233 115.209 112.515 114.393C112.943 113.011 113.701 111.919 114.787 111.117C115.859 110.301 117.139 109.893 118.627 109.893C120.503 109.893 122.011 110.453 123.151 111.573C124.277 112.693 124.967 114.193 125.222 116.073ZM118.647 113.439C117.467 113.439 116.69 114.006 116.315 115.14C116.248 115.389 116.181 115.7 116.114 116.073C116.114 116.17 116.16 116.218 116.254 116.218H121.14C121.247 116.218 121.281 116.17 121.241 116.073C121.147 115.506 121.1 115.237 121.1 115.264C120.939 114.684 120.644 114.234 120.215 113.916C119.8 113.598 119.277 113.439 118.647 113.439ZM134.973 109.955C135.657 109.955 136.193 110.087 136.582 110.349C136.729 110.432 136.79 110.578 136.763 110.785L136.16 114.103C136.146 114.338 136.019 114.407 135.778 114.31C135.496 114.214 135.168 114.165 134.792 114.165C134.632 114.165 134.424 114.179 134.169 114.207C133.485 114.276 132.909 114.532 132.44 114.974C131.971 115.43 131.736 116.039 131.736 116.799V124.721C131.736 124.818 131.709 124.9 131.656 124.97C131.589 125.039 131.508 125.073 131.415 125.073H128.117C128.023 125.073 127.943 125.039 127.876 124.97C127.809 124.9 127.775 124.818 127.775 124.721V110.495C127.775 110.398 127.809 110.315 127.876 110.246C127.943 110.177 128.023 110.142 128.117 110.142H131.415C131.508 110.142 131.589 110.177 131.656 110.246C131.709 110.315 131.736 110.398 131.736 110.495V111.594C131.736 111.663 131.756 111.704 131.797 111.718C131.837 111.732 131.864 111.725 131.877 111.697C132.654 110.536 133.687 109.955 134.973 109.955ZM38.0606 75.9456C38.1544 75.7936 38.2884 75.7175 38.4627 75.7175H41.7602C41.854 75.7175 41.9344 75.7521 42.0014 75.8212C42.0684 75.8903 42.102 75.9733 42.102 76.0701V95.6879C42.102 95.7847 42.0684 95.8677 42.0014 95.9368C41.9344 96.0059 41.854 96.0405 41.7602 96.0405H38.4627C38.3689 96.0405 38.2884 96.0059 38.2214 95.9368C38.1544 95.8677 38.1209 95.7847 38.1209 95.6879V82.8928C38.1209 82.8098 38.1008 82.7683 38.0606 82.7683C38.0338 82.7683 38.0003 82.796 37.96 82.8513L34.9642 87.6832C34.8704 87.8353 34.743 87.9113 34.5822 87.9113H32.9133C32.7525 87.9113 32.6252 87.8353 32.5313 87.6832L29.5355 82.8513C29.4953 82.796 29.4617 82.7753 29.4349 82.7891C29.3947 82.8029 29.3746 82.8444 29.3746 82.9135V95.6879C29.3746 95.7847 29.3411 95.8677 29.2741 95.9368C29.2071 96.0059 29.1266 96.0405 29.0328 96.0405H25.7354C25.6415 96.0405 25.5611 96.0059 25.4941 95.9368C25.4271 95.8677 25.3936 95.7847 25.3936 95.6879V76.0701C25.3936 75.9733 25.4271 75.8903 25.4941 75.8212C25.5611 75.7521 25.6415 75.7175 25.7354 75.7175H29.0328C29.2071 75.7175 29.3411 75.7936 29.4349 75.9456L33.6573 82.7061C33.7109 82.8306 33.7645 82.8306 33.8181 82.7061L38.0606 75.9456ZM51.6726 96.2686C50.0909 96.2686 48.7371 95.8469 47.6111 95.0036C46.4851 94.1464 45.7144 92.9851 45.2989 91.5197C45.0442 90.6072 44.9169 89.6187 44.9169 88.5542C44.9169 87.4067 45.0442 86.3767 45.2989 85.4643C45.7278 84.0403 46.5053 82.9204 47.6312 82.1047C48.7572 81.2891 50.111 80.8812 51.6927 80.8812C53.2342 80.8812 54.5478 81.2821 55.6336 82.084C56.7193 82.8859 57.49 84.0057 57.9458 85.4435C58.2407 86.4113 58.3881 87.4274 58.3881 88.492C58.3881 89.5427 58.2608 90.5173 58.0061 91.416C57.5906 92.9367 56.8265 94.1257 55.714 94.9829C54.588 95.84 53.2409 96.2686 51.6726 96.2686ZM51.6726 92.7639C52.2892 92.7639 52.812 92.5704 53.2409 92.1833C53.6698 91.7962 53.9781 91.2639 54.1658 90.5865C54.3132 89.9643 54.387 89.2869 54.387 88.5542C54.387 87.7385 54.3132 87.0472 54.1658 86.4804C53.9647 85.8306 53.6497 85.3191 53.2208 84.9458C52.7784 84.5864 52.249 84.4066 51.6324 84.4066C51.0024 84.4066 50.4729 84.5864 50.044 84.9458C49.6284 85.3191 49.3269 85.8306 49.1392 86.4804C48.9783 86.9504 48.8979 87.6417 48.8979 88.5542C48.8979 89.4251 48.9649 90.1026 49.099 90.5865C49.2866 91.2639 49.6016 91.7962 50.044 92.1833C50.4863 92.5704 51.0292 92.7639 51.6726 92.7639ZM77.0066 80.8812C78.4677 80.8812 79.6071 81.3374 80.4247 82.2499C81.2558 83.1624 81.6713 84.4412 81.6713 86.0864V95.6879C81.6713 95.7847 81.6378 95.8677 81.5708 95.9368C81.5038 96.0059 81.4233 96.0405 81.3295 96.0405H78.0321C77.9382 96.0405 77.8578 96.0059 77.7908 95.9368C77.7372 95.8677 77.7104 95.7847 77.7104 95.6879V86.9781C77.7104 86.1901 77.5093 85.561 77.1072 85.091C76.7184 84.6347 76.1957 84.4066 75.5389 84.4066C74.8821 84.4066 74.3459 84.6347 73.9304 85.091C73.5148 85.561 73.3071 86.1832 73.3071 86.9574V95.6879C73.3071 95.7847 73.2736 95.8677 73.2065 95.9368C73.1395 96.0059 73.0591 96.0405 72.9653 96.0405H69.708C69.6142 96.0405 69.5338 96.0059 69.4667 95.9368C69.3997 95.8677 69.3662 95.7847 69.3662 95.6879V86.9781C69.3662 86.2039 69.1584 85.5818 68.7429 85.1117C68.3408 84.6417 67.8113 84.4066 67.1545 84.4066C66.5513 84.4066 66.0487 84.5864 65.6465 84.9458C65.2444 85.3191 65.0031 85.8306 64.9227 86.4804V95.6879C64.9227 95.7847 64.8892 95.8677 64.8222 95.9368C64.7551 96.0059 64.6747 96.0405 64.5809 96.0405H61.2834C61.1896 96.0405 61.1159 96.0059 61.0623 95.9368C60.9953 95.8677 60.9617 95.7847 60.9617 95.6879V81.4619C60.9617 81.3651 60.9953 81.2821 61.0623 81.213C61.1159 81.1439 61.1896 81.1093 61.2834 81.1093H64.5809C64.6747 81.1093 64.7551 81.1439 64.8222 81.213C64.8892 81.2821 64.9227 81.3651 64.9227 81.4619V82.6024C64.9227 82.6577 64.9428 82.6923 64.983 82.7061C65.0232 82.7338 65.0567 82.72 65.0835 82.6647C65.861 81.4757 67.054 80.8812 68.6625 80.8812C69.6008 80.8812 70.4251 81.0886 71.1356 81.5034C71.8326 81.9043 72.3688 82.4849 72.7441 83.2453C72.7977 83.3559 72.8647 83.3559 72.9451 83.2453C73.3607 82.4435 73.917 81.849 74.614 81.4619C75.3244 81.0748 76.122 80.8812 77.0066 80.8812ZM97.1733 87.0403C97.294 87.773 97.3342 88.5956 97.294 89.5081C97.2806 89.7431 97.1599 89.8606 96.9321 89.8606H88.226C88.1188 89.8606 88.0853 89.909 88.1255 90.0058C88.1791 90.3929 88.2796 90.78 88.4271 91.1671C88.9096 92.2455 89.9015 92.7847 91.4028 92.7847C92.6092 92.7708 93.5609 92.2662 94.2579 91.2708C94.3249 91.1602 94.4054 91.1049 94.4992 91.1049C94.5662 91.1049 94.6332 91.1464 94.7002 91.2293L96.731 93.2824C96.8248 93.3791 96.8717 93.469 96.8717 93.552C96.8717 93.5796 96.8315 93.6556 96.7511 93.7801C96.1345 94.5681 95.337 95.1833 94.3584 95.6257C93.3933 96.0543 92.3277 96.2686 91.1615 96.2686C89.5396 96.2686 88.1724 95.8953 87.0598 95.1488C85.9473 94.3884 85.143 93.3308 84.6471 91.9759C84.2583 91.0081 84.064 89.7431 84.064 88.1809C84.064 87.1164 84.2047 86.1762 84.4862 85.3606C84.9151 83.978 85.6725 82.8859 86.7582 82.084C87.8306 81.2683 89.1107 80.8605 90.5986 80.8605C92.4752 80.8605 93.9764 81.4204 95.1024 82.5402C96.2417 83.6601 96.9321 85.1601 97.1733 87.0403ZM90.6187 84.4066C89.4391 84.4066 88.6616 84.9735 88.2863 86.1071C88.2059 86.356 88.1389 86.667 88.0853 87.0403C88.0853 87.1371 88.1322 87.1855 88.226 87.1855H93.0917C93.2124 87.1855 93.2526 87.1371 93.2124 87.0403C93.1186 86.4735 93.0716 86.2039 93.0716 86.2315C92.8974 85.6509 92.6025 85.2016 92.187 84.8836C91.758 84.5656 91.2353 84.4066 90.6187 84.4066ZM107.287 80.8812C108.788 80.8812 110.001 81.3582 110.926 82.3121C111.838 83.2522 112.293 84.538 112.293 86.1693V95.6879C112.293 95.7847 112.26 95.8677 112.193 95.9368C112.126 96.0059 112.045 96.0405 111.952 96.0405H108.674C108.58 96.0405 108.5 96.0059 108.433 95.9368C108.366 95.8677 108.332 95.7847 108.332 95.6879V87.0196C108.332 86.2454 108.118 85.6163 107.689 85.1324C107.273 84.6486 106.717 84.4066 106.02 84.4066C105.323 84.4066 104.767 84.6486 104.351 85.1324C103.922 85.6163 103.708 86.2454 103.708 87.0196V95.6879C103.708 95.7847 103.674 95.8677 103.607 95.9368C103.54 96.0059 103.46 96.0405 103.366 96.0405H100.089C99.9949 96.0405 99.9145 96.0059 99.8475 95.9368C99.7805 95.8677 99.747 95.7847 99.747 95.6879V81.4619C99.747 81.3651 99.7805 81.2821 99.8475 81.213C99.9145 81.1439 99.9949 81.1093 100.089 81.1093H103.366C103.46 81.1093 103.54 81.1439 103.607 81.213C103.674 81.2821 103.708 81.3651 103.708 81.4619V82.478C103.708 82.5333 103.728 82.5748 103.768 82.6024C103.808 82.6163 103.835 82.6024 103.849 82.561C104.626 81.4411 105.772 80.8812 107.287 80.8812ZM123.452 84.0541C123.452 84.1509 123.419 84.2338 123.352 84.3029C123.285 84.3721 123.204 84.4066 123.111 84.4066H120.396C120.302 84.4066 120.255 84.455 120.255 84.5518V90.6901C120.255 91.3399 120.383 91.8169 120.637 92.1211C120.892 92.4252 121.301 92.5773 121.864 92.5773H122.789C122.883 92.5773 122.963 92.6118 123.03 92.681C123.097 92.7501 123.131 92.833 123.131 92.9298V95.6879C123.131 95.9091 123.017 96.0336 122.789 96.0612C122.011 96.1027 121.448 96.1234 121.1 96.1234C119.545 96.1234 118.386 95.8608 117.622 95.3354C116.844 94.7962 116.449 93.7939 116.435 92.3284V84.5518C116.435 84.455 116.388 84.4066 116.295 84.4066H114.686C114.592 84.4066 114.512 84.3721 114.445 84.3029C114.378 84.2338 114.344 84.1509 114.344 84.0541V81.4619C114.344 81.3651 114.378 81.2821 114.445 81.213C114.512 81.1439 114.592 81.1093 114.686 81.1093H116.295C116.388 81.1093 116.435 81.0609 116.435 80.9642V77.5217C116.435 77.4249 116.469 77.342 116.536 77.2729C116.603 77.2037 116.683 77.1692 116.777 77.1692H119.934C120.028 77.1692 120.101 77.2037 120.155 77.2729C120.222 77.342 120.255 77.4249 120.255 77.5217V80.9642C120.255 81.0609 120.302 81.1093 120.396 81.1093H123.111C123.204 81.1093 123.285 81.1439 123.352 81.213C123.419 81.2821 123.452 81.3651 123.452 81.4619V84.0541ZM134.29 81.4619C134.29 81.3651 134.317 81.2821 134.37 81.213C134.437 81.1439 134.518 81.1093 134.611 81.1093H137.909C138.003 81.1093 138.083 81.1439 138.15 81.213C138.217 81.2821 138.251 81.3651 138.251 81.4619V95.6879C138.251 95.7847 138.217 95.8677 138.15 95.9368C138.083 96.0059 138.003 96.0405 137.909 96.0405H134.611C134.518 96.0405 134.437 96.0059 134.37 95.9368C134.317 95.8677 134.29 95.7847 134.29 95.6879V94.7133C134.29 94.6441 134.27 94.6096 134.229 94.6096C134.189 94.5958 134.149 94.6165 134.109 94.6718C133.358 95.7225 132.199 96.2479 130.63 96.2479C129.196 96.2479 128.023 95.7985 127.112 94.8999C126.187 94.0151 125.724 92.7708 125.724 91.1671V81.4619C125.724 81.3651 125.758 81.2821 125.825 81.213C125.892 81.1439 125.972 81.1093 126.066 81.1093H129.323C129.417 81.1093 129.498 81.1439 129.565 81.213C129.632 81.2821 129.665 81.3651 129.665 81.4619V90.151C129.665 90.9252 129.866 91.5542 130.268 92.0381C130.671 92.522 131.227 92.7639 131.937 92.7639C132.581 92.7639 133.11 92.5635 133.526 92.1625C133.941 91.7616 134.196 91.2432 134.29 90.6072V81.4619ZM157.231 80.8812C158.692 80.8812 159.832 81.3374 160.649 82.2499C161.48 83.1624 161.896 84.4412 161.896 86.0864V95.6879C161.896 95.7847 161.862 95.8677 161.795 95.9368C161.728 96.0059 161.648 96.0405 161.554 96.0405H158.257C158.163 96.0405 158.082 96.0059 158.015 95.9368C157.962 95.8677 157.935 95.7847 157.935 95.6879V86.9781C157.935 86.1901 157.734 85.561 157.332 85.091C156.943 84.6347 156.42 84.4066 155.763 84.4066C155.107 84.4066 154.57 84.6347 154.155 85.091C153.739 85.561 153.532 86.1832 153.532 86.9574V95.6879C153.532 95.7847 153.498 95.8677 153.431 95.9368C153.364 96.0059 153.284 96.0405 153.19 96.0405H149.932C149.839 96.0405 149.758 96.0059 149.691 95.9368C149.624 95.8677 149.591 95.7847 149.591 95.6879V86.9781C149.591 86.2039 149.383 85.5818 148.967 85.1117C148.565 84.6417 148.036 84.4066 147.379 84.4066C146.776 84.4066 146.273 84.5864 145.871 84.9458C145.469 85.3191 145.228 85.8306 145.147 86.4804V95.6879C145.147 95.7847 145.114 95.8677 145.047 95.9368C144.98 96.0059 144.899 96.0405 144.805 96.0405H141.508C141.414 96.0405 141.334 96.0059 141.267 95.9368C141.213 95.8677 141.186 95.7847 141.186 95.6879V81.4619C141.186 81.3651 141.213 81.2821 141.267 81.213C141.334 81.1439 141.414 81.1093 141.508 81.1093H144.805C144.899 81.1093 144.98 81.1439 145.047 81.213C145.114 81.2821 145.147 81.3651 145.147 81.4619V82.6024C145.147 82.6577 145.167 82.6923 145.207 82.7061C145.248 82.7338 145.281 82.72 145.308 82.6647C146.085 81.4757 147.278 80.8812 148.887 80.8812C149.825 80.8812 150.65 81.0886 151.36 81.5034C152.057 81.9043 152.593 82.4849 152.969 83.2453C153.022 83.3559 153.089 83.3559 153.17 83.2453C153.585 82.4435 154.141 81.849 154.838 81.4619C155.549 81.0748 156.346 80.8812 157.231 80.8812Z" fill="black"/>
<path d="M81.3502 144.318C81.3502 144.387 81.3234 144.443 81.2697 144.484C81.2295 144.539 81.1759 144.567 81.1089 144.567H74.2727C74.2057 144.567 74.1722 144.601 74.1722 144.671V148.549C74.1722 148.618 74.2057 148.652 74.2727 148.652H78.8771C78.9441 148.652 79.0044 148.673 79.058 148.714C79.0982 148.77 79.1184 148.832 79.1184 148.901V150.477C79.1184 150.546 79.0982 150.609 79.058 150.664C79.0044 150.705 78.9441 150.726 78.8771 150.726H74.2727C74.2057 150.726 74.1722 150.761 74.1722 150.83V156.761C74.1722 156.83 74.1454 156.885 74.0918 156.927C74.0515 156.982 73.9979 157.01 73.9309 157.01H72.0811C72.0141 157.01 71.9605 156.982 71.9203 156.927C71.8667 156.885 71.8398 156.83 71.8398 156.761V142.742C71.8398 142.673 71.8667 142.618 71.9203 142.576C71.9605 142.521 72.0141 142.493 72.0811 142.493H81.1089C81.1759 142.493 81.2295 142.521 81.2697 142.576C81.3234 142.618 81.3502 142.673 81.3502 142.742V144.318ZM90.5187 157.01C90.3846 157.01 90.2975 156.94 90.2573 156.802L89.5938 154.583C89.567 154.528 89.5335 154.5 89.4932 154.5H84.1852C84.1449 154.5 84.1114 154.528 84.0846 154.583L83.4211 156.802C83.3809 156.94 83.2938 157.01 83.1597 157.01H81.1491C81.0687 157.01 81.0084 156.982 80.9681 156.927C80.9279 156.885 80.9212 156.816 80.948 156.719L85.3111 142.701C85.3513 142.562 85.4385 142.493 85.5725 142.493H88.0858C88.2198 142.493 88.307 142.562 88.3472 142.701L92.7304 156.719C92.7438 156.747 92.7505 156.781 92.7505 156.823C92.7505 156.947 92.6768 157.01 92.5293 157.01H90.5187ZM84.7079 152.489C84.6945 152.572 84.7213 152.613 84.7884 152.613H88.87C88.9504 152.613 88.9772 152.572 88.9504 152.489L86.8794 145.542C86.866 145.486 86.8459 145.459 86.8191 145.459C86.7923 145.459 86.7722 145.486 86.7588 145.542L84.7079 152.489ZM95.0627 157.01C94.9957 157.01 94.9421 156.982 94.9019 156.927C94.8482 156.885 94.8214 156.83 94.8214 156.761V142.742C94.8214 142.673 94.8482 142.618 94.9019 142.576C94.9421 142.521 94.9957 142.493 95.0627 142.493H96.9125C96.9795 142.493 97.0398 142.521 97.0935 142.576C97.1337 142.618 97.1538 142.673 97.1538 142.742V154.832C97.1538 154.901 97.1873 154.936 97.2543 154.936H103.99C104.057 154.936 104.111 154.963 104.151 155.019C104.204 155.06 104.231 155.116 104.231 155.185V156.761C104.231 156.83 104.204 156.885 104.151 156.927C104.111 156.982 104.057 157.01 103.99 157.01H95.0627ZM106.543 157.01C106.476 157.01 106.423 156.982 106.383 156.927C106.329 156.885 106.302 156.83 106.302 156.761V142.742C106.302 142.673 106.329 142.618 106.383 142.576C106.423 142.521 106.476 142.493 106.543 142.493H108.393C108.46 142.493 108.521 142.521 108.574 142.576C108.614 142.618 108.635 142.673 108.635 142.742V154.832C108.635 154.901 108.668 154.936 108.735 154.936H115.471C115.538 154.936 115.598 154.963 115.652 155.019C115.692 155.06 115.712 155.116 115.712 155.185V156.761C115.712 156.83 115.692 156.885 115.652 156.927C115.598 156.982 115.538 157.01 115.471 157.01H106.543Z" fill="white"/>
<path d="M68.4222 194.462C68.382 194.503 68.3686 194.545 68.382 194.586C68.4088 194.628 68.449 194.648 68.5026 194.648H76.4044C76.4982 194.648 76.5787 194.683 76.6457 194.752C76.7261 194.821 76.7663 194.904 76.7663 195.001V197.925C76.7663 198.022 76.7261 198.105 76.6457 198.174C76.5787 198.243 76.4982 198.277 76.4044 198.277H63.2951C63.1878 198.277 63.1007 198.243 63.0337 198.174C62.9667 198.105 62.9331 198.022 62.9331 197.925V195.146C62.9331 194.966 62.9935 194.814 63.1141 194.69C64.0658 193.736 65.0376 192.692 66.0295 191.558C67.0214 190.425 67.6447 189.72 67.8994 189.443C68.4356 188.779 68.9852 188.144 69.5481 187.535C71.3175 185.517 72.2022 184.017 72.2022 183.035C72.2022 182.33 71.9609 181.749 71.4783 181.293C70.9958 180.851 70.3658 180.63 69.5884 180.63C68.8109 180.63 68.1809 180.851 67.6983 181.293C67.2024 181.749 66.9544 182.351 66.9544 183.097V183.844C66.9544 183.941 66.9209 184.024 66.8539 184.093C66.7869 184.162 66.7064 184.196 66.6126 184.196H63.1744C63.0806 184.196 63.0002 184.162 62.9331 184.093C62.8527 184.024 62.8125 183.941 62.8125 183.844V182.434C62.8795 181.355 63.2146 180.395 63.8178 179.551C64.421 178.722 65.2186 178.086 66.2105 177.643C67.2158 177.201 68.3418 176.98 69.5884 176.98C70.969 176.98 72.1687 177.249 73.1874 177.789C74.2061 178.314 74.9903 179.026 75.5398 179.924C76.1028 180.837 76.3843 181.839 76.3843 182.931C76.3843 183.775 76.1765 184.639 75.761 185.524C75.3589 186.408 74.749 187.362 73.9313 188.385C73.3281 189.16 72.678 189.934 71.981 190.708C71.284 191.468 70.2452 192.568 68.8645 194.005L68.4222 194.462ZM86.2364 198.609C84.0918 198.609 82.4028 197.994 81.1696 196.764C79.923 195.533 79.2997 193.853 79.2997 191.724V183.782C79.2997 181.694 79.923 180.042 81.1696 178.825C82.4028 177.595 84.0918 176.98 86.2364 176.98C88.3677 176.98 90.0633 177.595 91.3233 178.825C92.5699 180.042 93.1932 181.694 93.1932 183.782V191.724C93.1932 193.853 92.5699 195.533 91.3233 196.764C90.0633 197.994 88.3677 198.609 86.2364 198.609ZM86.2364 194.98C87.1077 194.98 87.798 194.704 88.3074 194.151C88.8302 193.598 89.0915 192.858 89.0915 191.932V183.657C89.0915 182.745 88.8302 182.012 88.3074 181.459C87.798 180.906 87.1077 180.63 86.2364 180.63C85.3786 180.63 84.6949 180.906 84.1856 181.459C83.6628 182.012 83.4014 182.745 83.4014 183.657V191.932C83.4014 192.858 83.6628 193.598 84.1856 194.151C84.6949 194.704 85.3786 194.98 86.2364 194.98ZM101.356 194.462C101.316 194.503 101.31 194.545 101.336 194.586C101.35 194.628 101.39 194.648 101.457 194.648H109.359C109.453 194.648 109.533 194.683 109.6 194.752C109.667 194.821 109.701 194.904 109.701 195.001V197.925C109.701 198.022 109.667 198.105 109.6 198.174C109.533 198.243 109.453 198.277 109.359 198.277H96.2293C96.1355 198.277 96.0551 198.243 95.988 198.174C95.921 198.105 95.8875 198.022 95.8875 197.925V195.146C95.8875 194.966 95.9411 194.814 96.0483 194.69C97.0135 193.736 97.9853 192.692 98.9638 191.558C99.9557 190.425 100.579 189.72 100.834 189.443C101.383 188.779 101.94 188.144 102.502 187.535C104.272 185.517 105.157 184.017 105.157 183.035C105.157 182.33 104.915 181.749 104.433 181.293C103.937 180.851 103.3 180.63 102.523 180.63C101.745 180.63 101.115 180.851 100.633 181.293C100.15 181.749 99.9088 182.351 99.9088 183.097V183.844C99.9088 183.941 99.8753 184.024 99.8082 184.093C99.7412 184.162 99.6541 184.196 99.5469 184.196H96.1087C96.0148 184.196 95.9344 184.162 95.8674 184.093C95.8004 184.024 95.7669 183.941 95.7669 183.844V182.434C95.8205 181.355 96.1489 180.395 96.7521 179.551C97.3553 178.722 98.1595 178.086 99.1648 177.643C100.17 177.201 101.289 176.98 102.523 176.98C103.903 176.98 105.103 177.249 106.122 177.789C107.154 178.314 107.945 179.026 108.494 179.924C109.044 180.837 109.319 181.839 109.319 182.931C109.319 183.775 109.117 184.639 108.715 185.524C108.3 186.408 107.683 187.362 106.866 188.385C106.262 189.16 105.612 189.934 104.915 190.708C104.218 191.468 103.179 192.568 101.799 194.005L101.356 194.462ZM124.398 188.24C124.787 189.153 124.981 190.21 124.981 191.413C124.981 192.505 124.807 193.508 124.459 194.42C123.99 195.706 123.205 196.708 122.106 197.427C121.007 198.16 119.707 198.526 118.206 198.526C116.731 198.526 115.438 198.146 114.325 197.386C113.212 196.611 112.408 195.575 111.912 194.275C111.644 193.501 111.49 192.657 111.45 191.745C111.45 191.51 111.564 191.392 111.792 191.392H115.25C115.478 191.392 115.592 191.51 115.592 191.745C115.672 192.409 115.779 192.899 115.913 193.217C116.088 193.743 116.376 194.151 116.778 194.441C117.167 194.731 117.636 194.876 118.185 194.876C119.271 194.876 120.022 194.386 120.437 193.404C120.705 192.81 120.84 192.111 120.84 191.309C120.84 190.356 120.692 189.581 120.397 188.987C119.955 188.047 119.211 187.577 118.165 187.577C117.951 187.577 117.723 187.639 117.482 187.763C117.254 187.902 116.972 188.088 116.637 188.323C116.557 188.379 116.483 188.406 116.416 188.406C116.295 188.406 116.208 188.351 116.155 188.24L114.426 185.731C114.385 185.676 114.365 185.607 114.365 185.524C114.365 185.399 114.405 185.302 114.486 185.233L119.11 181.044C119.151 181.003 119.171 180.961 119.171 180.92C119.157 180.878 119.124 180.858 119.07 180.858H112.214C112.12 180.858 112.033 180.823 111.952 180.754C111.885 180.685 111.852 180.602 111.852 180.505V177.581C111.852 177.484 111.885 177.401 111.952 177.332C112.033 177.263 112.12 177.229 112.214 177.229H124.358C124.465 177.229 124.552 177.263 124.62 177.332C124.687 177.401 124.72 177.484 124.72 177.581V180.899C124.72 181.051 124.653 181.203 124.519 181.355L120.699 184.964C120.659 185.005 120.645 185.04 120.659 185.067C120.659 185.109 120.699 185.13 120.779 185.13C122.468 185.475 123.675 186.512 124.398 188.24Z" fill="black"/>
</svg>
