<svg version="1.2" xmlns="http://www.w3.org/2000/svg" viewBox="0 0 53 75" width="53" height="75"><style>.a{fill:#071871}.b{fill:#00c8b7}.c{fill:#316cff}.d{fill:#ebebeb}</style><path class="a" d="m42.4 30.4c-3 3.1-6.4 5.8-9.8 8.2l-0.1-0.1-3.6 2.7v7.3c5.2 1.9 11.4-1.9 15-5.4l0.3-0.4c3.3-3.3 5.3-7.4 6.3-11.8 1.1-4.6 1.2-9.5 0.6-14.1q0 0.3-0.1 0.7 0 0.3-0.1 0.6-0.1 0.3-0.2 0.6-0.1 0.3-0.3 0.6c-1.9 4.1-4.7 7.8-8 11.1z"/><path class="b" d="m32.5 38.5l0.1 0.1c3.4-2.4 6.8-5.1 9.8-8.2 3.3-3.3 6.1-7 8-11.1q0.2-0.3 0.3-0.6 0.1-0.3 0.2-0.6 0.1-0.3 0.1-0.6 0.1-0.4 0.1-0.7 0 0 0 0c0 0.3-2.8 2.4-3.1 2.7-2.1 1.8-4 3.4-6.5 4.5q-0.6 0.3-1.3 0.6c-2.9 1.1-6.1 1.8-8.8 3.5q-0.1 0-0.2 0.1-0.3 0.2-0.6 0.4-0.3 0.2-0.6 0.5-0.3 0.2-0.5 0.4-0.3 0.3-0.6 0.5v11.2z"/><path class="b" d="m26.9 47.4q-0.3-0.2-0.6-0.5-0.2-0.2-0.5-0.5-0.2-0.3-0.5-0.6-0.2-0.3-0.4-0.6-0.2-0.4-0.4-0.7-0.1-0.2-0.1-0.4-0.1-0.2-0.2-0.3-0.1-0.2-0.1-0.4-0.1-0.2-0.1-0.4-0.1-0.2-0.1-0.5-0.1-0.3-0.1-0.5 0-0.3-0.1-0.6 0-0.2 0-0.5c0-3.9 2.4-8 5.2-10.9v-17.3q0-0.6-0.2-1.2-0.2-0.6-0.7-1-0.4-0.5-1-0.7-0.6-0.3-1.2-0.3-0.7 0-1.2 0.3-0.6 0.2-1.1 0.7-0.4 0.4-0.7 1-0.2 0.6-0.2 1.2v1.8c2.1 2.7 3.5 6.2 2.7 9.2q0 0.2-0.1 0.3 0 0.2-0.1 0.3 0 0.2-0.1 0.3 0 0.2-0.1 0.3 0 0.1-0.1 0.2 0 0-0.1 0.1 0 0.1 0 0.2-0.1 0-0.1 0.1-0.6 1-1.7 1.8-0.2 0.1-0.3 0.2v40.2h6.3v-19.2q-0.2-0.1-0.5-0.2-0.3-0.1-0.5-0.3-0.3-0.1-0.5-0.3-0.2-0.1-0.5-0.3z"/><path class="c" d="m24 43q0.2 0.8 0.5 1.5 0.2 0.3 0.4 0.7 0.2 0.3 0.4 0.6 0.3 0.3 0.5 0.6 0.3 0.3 0.5 0.5 0.3 0.3 0.6 0.5 0.2 0.2 0.5 0.3 0.2 0.2 0.5 0.3 0.2 0.2 0.5 0.3 0.3 0.1 0.5 0.2v-18.5c-2.8 2.9-5.2 7-5.2 10.9q0 1.1 0.3 2.1zm0.6-17.5q0.1-0.3 0.3-0.6 0.3-0.6 0.4-1.2c0.8-3-0.6-6.5-2.7-9.2v13q0.1-0.1 0.3-0.2 0.2-0.2 0.5-0.4 0.2-0.2 0.4-0.4 0.2-0.2 0.4-0.5 0.2-0.2 0.4-0.5z"/><path class="b" d="m18.3 20h-0.1c-2.9-1.9-5.7-4.2-8.2-6.8-2.6-2.7-5-5.8-6.6-9.2q-0.1-0.2-0.2-0.4-0.1-0.3-0.2-0.6-0.1-0.2-0.1-0.5 0-0.2 0-0.5c-0.5 3.8-0.5 7.8 0.4 11.6 0.9 3.7 2.5 7.1 5.3 9.9q0.1 0.1 0.2 0.3c3.3 3.2 9.4 6.8 13.8 3.7v-4.3z"/><path class="a" d="m10 13.2c2.5 2.6 5.3 4.9 8.2 6.8h0.1l4.3 3.2v-8.7c-1-1.3-2.1-2.3-3.3-3.1q0 0-0.1-0.1c-2.3-1.4-4.9-2-7.3-2.9q-0.2 0-0.3-0.1-0.1 0-0.3-0.1-0.1 0-0.2-0.1-0.2-0.1-0.3-0.1c-2-1-3.6-2.3-5.4-3.8-0.2-0.2-2.5-2-2.5-2.2q0 0 0 0 0 0.2 0 0.5 0 0.3 0.1 0.5 0.1 0.3 0.2 0.6 0.1 0.2 0.2 0.4c1.6 3.4 3.9 6.5 6.6 9.2z"/><path class="c" d="m12.4 67.7q-1.3 0-2.5 0.4-1.1 0.5-2 1.4-0.9 0.9-1.4 2.1-0.5 1.2-0.5 2.4h42q0-1.2-0.5-2.4-0.5-1.2-1.4-2.1-0.9-0.9-2-1.4-1.2-0.4-2.5-0.4z"/><path class="d" d="m44.9 8.4c-1.7-0.6-2.7-1.6-3.3-3.3-0.3-0.9-0.7-1.7-1.2-2.7-0.7 1.5-1.3 2.8-1.9 4.2-0.2 0.5-0.6 0.9-1.1 1.1-1.4 0.6-2.7 1.2-4.2 1.9 1.5 0.7 2.9 1.3 4.3 2 0.4 0.2 0.7 0.5 0.9 0.9 0.7 1.4 1.3 2.8 2 4.3 0.6-1.2 1.1-2.3 1.5-3.4 0.5-1.1 1.2-1.8 2.3-2.3 1.1-0.4 2.2-0.9 3.4-1.5-1-0.5-1.8-0.9-2.7-1.2zm-30.2 29.2c-1-0.3-1.6-0.9-2-1.9-0.1-0.5-0.4-1-0.7-1.6-0.4 0.9-0.8 1.7-1.1 2.5-0.2 0.3-0.4 0.5-0.7 0.6-0.8 0.4-1.6 0.8-2.5 1.2 0.9 0.4 1.8 0.8 2.6 1.2 0.2 0.1 0.4 0.3 0.5 0.5 0.4 0.8 0.8 1.7 1.2 2.6 0.3-0.7 0.7-1.4 0.9-2 0.3-0.7 0.7-1.2 1.4-1.4 0.7-0.2 1.3-0.6 2-0.9-0.6-0.3-1.1-0.6-1.6-0.8z"/></svg>