<svg width="13" height="14" viewBox="0 0 13 14" fill="none" xmlns="http://www.w3.org/2000/svg">
<path d="M11.6977 6.95993H10.7796C10.5894 6.95993 10.4353 7.11409 10.4353 7.30424V11.4904C10.4353 11.7126 10.2545 11.8933 10.0323 11.8933H2.0096C1.78746 11.8933 1.60676 11.7126 1.60676 11.4904V3.46784C1.60676 3.2456 1.78746 3.06477 2.0096 3.06477H6.41007C6.60022 3.06477 6.75437 2.91061 6.75437 2.72046V1.80231C6.75437 1.61217 6.60022 1.45801 6.41007 1.45801H2.0096C0.901486 1.45801 0 2.35963 0 3.46784V11.4904C0 12.5986 0.901532 13.5001 2.0096 13.5001H10.0322C11.1404 13.5001 12.042 12.5986 12.042 11.4904V7.30429C12.042 7.11409 11.8879 6.95993 11.6977 6.95993Z" fill="#FF3B84"/>
<path d="M12.6556 0.5H9.00349C8.81334 0.5 8.65918 0.654157 8.65918 0.844306V1.76246C8.65918 1.95261 8.81334 2.10676 9.00349 2.10676H10.2569L5.54018 6.82344C5.40572 6.9579 5.40572 7.17587 5.54018 7.31038L6.1894 7.95965C6.25399 8.02424 6.34154 8.06051 6.4329 8.06051C6.52421 8.06051 6.6118 8.02424 6.67634 7.95965L11.3931 3.24288V4.4963C11.3931 4.68644 11.5473 4.8406 11.7374 4.8406H12.6556C12.8457 4.8406 12.9999 4.68644 12.9999 4.4963V0.844306C12.9999 0.654157 12.8457 0.5 12.6556 0.5Z" fill="#FF3B84"/>
</svg>