<svg width="98" height="48" viewBox="0 0 98 48" fill="none" xmlns="http://www.w3.org/2000/svg">
<g clip-path="url(#clip0_2510_3763)">
<path d="M3.65332 8.2037H27.3067L28.6649 0.339844H5.01153L3.65332 8.2037Z" fill="black"/>
<path d="M18.5161 10.6621H3.34942L1.99121 18.5251H17.1579L18.5161 10.6621Z" fill="black"/>
<path d="M10.3301 20.7637H1.75567L0.397461 28.6275H8.97193L10.3301 20.7637Z" fill="black"/>
<path d="M41.2151 0.364258H33.4359L28.6787 28.5407H36.4579L41.2151 0.364258Z" fill="black"/>
<path d="M59.7012 0.364258H47.2767L42.5195 28.5407H56.0078C62.2188 28.5407 66.6403 25.1839 67.4244 20.5618C68.0958 16.5998 65.5782 13.9582 61.8831 13.8482L61.939 13.5731C65.3535 12.9121 67.9839 10.4914 68.5433 7.40965C69.2706 3.11758 66.2487 0.36595 59.7003 0.36595L59.7012 0.364258ZM59.3655 19.5707C59.0858 21.442 57.5743 22.4323 54.9999 22.4323H51.3625L52.3136 16.4889H56.0638C58.4703 16.4889 59.7012 17.5892 59.3655 19.5707ZM60.2606 9.05927C59.9809 10.7656 58.3567 11.7559 56.3435 11.7559H53.1528L54.048 6.36266H57.3497C59.2519 6.36266 60.5404 7.29792 60.2598 9.05927H60.2606Z" fill="black"/>
<path d="M83.2456 19.2406L86.7005 28.5407H95.1502L91.1065 18.0294C94.3945 16.5854 96.6891 13.8473 97.3321 9.93952C98.34 3.94112 94.7026 0.364258 88.3221 0.364258H75.9544L71.1973 28.5407H78.9764L80.5576 19.2406H83.2439H83.2456ZM82.7283 6.47354H85.4705C88.1568 6.47354 89.6123 7.51883 89.219 9.94037C88.8273 12.3619 87.0371 13.2972 84.2948 13.2972H81.5663L82.7283 6.47354Z" fill="black"/>
<path d="M83.054 41.6932H83.0471L81.9222 41.4443C81.5486 41.3555 81.2784 41.2437 81.1105 41.1092C80.9435 40.9746 80.86 40.7969 80.86 40.5776C80.86 40.3229 80.9857 40.1138 81.2353 39.9505C81.4849 39.7871 81.7956 39.7058 82.1658 39.7058C82.4395 39.7058 82.6693 39.749 82.8526 39.837C83.0368 39.9251 83.1823 40.0368 83.2907 40.1747C83.3716 40.278 83.4362 40.3838 83.4826 40.4938C83.499 40.5311 83.5128 40.5692 83.5248 40.6081H84.8787C84.8675 40.5438 84.8555 40.4769 84.8374 40.4058C84.8039 40.2662 84.7591 40.135 84.7057 40.0097C84.5465 39.6364 84.3046 39.3368 83.9715 39.0905C83.5283 38.763 82.9206 38.5996 82.1494 38.5996C81.6149 38.5996 81.1424 38.6851 80.7301 38.8569C80.3187 39.0287 79.9967 39.2683 79.7635 39.5755C79.532 39.8827 79.4149 40.2416 79.4149 40.6513C79.4149 41.1439 79.5715 41.551 79.884 41.8726C80.1964 42.1934 80.6827 42.4262 81.342 42.5692L82.5264 42.8248C82.8569 42.8968 83.1039 43.0034 83.2649 43.1448C83.4258 43.2869 83.5059 43.4638 83.5059 43.6754C83.5059 43.9319 83.3759 44.1494 83.1168 44.3272C82.8569 44.5049 82.5109 44.5938 82.0762 44.5938C81.6751 44.5938 81.3498 44.51 81.0993 44.3407C80.848 44.1714 80.6819 43.9217 80.6001 43.59H79.1816C79.1816 43.6526 79.1851 43.7169 79.1963 43.7795C79.2514 44.0885 79.3555 44.3627 79.5096 44.6014C79.6628 44.8401 79.8668 45.0441 80.119 45.2133C80.6242 45.5511 81.2792 45.7195 82.084 45.7195C82.6572 45.7195 83.1616 45.6272 83.5963 45.4427C84.0309 45.2574 84.3718 45.0034 84.6188 44.6801C84.8667 44.3559 84.9898 43.9844 84.9898 43.5637C84.9898 43.0753 84.8297 42.6767 84.5112 42.3695C84.1927 42.0622 83.7064 41.8362 83.054 41.6923V41.6932Z" fill="black"/>
<path d="M86.4248 45.6693V45.6701H87.8949V38.7119H86.4248V45.6693Z" fill="black"/>
<path d="M97.7718 44.4044C97.7254 44.4162 97.6599 44.4298 97.5756 44.4433C97.4904 44.4569 97.3923 44.4636 97.2804 44.4636C97.1306 44.4636 96.992 44.4408 96.8664 44.3959C96.7398 44.3511 96.6374 44.2647 96.56 44.1369C96.4816 44.0091 96.4429 43.8204 96.4429 43.5715V39.7958H97.913V38.621H96.4429V37.0848H94.9728V38.621H92.1238V37.7077C92.1238 37.4089 92.1944 37.2422 92.3364 37.0839C92.4776 36.9256 92.7151 36.8461 93.0482 36.8461C93.192 36.8461 93.3142 36.8579 93.4183 36.8825C93.5225 36.907 93.6077 36.929 93.6722 36.9502L94.0036 35.8093C93.9038 35.7729 93.7514 35.7331 93.5466 35.6891C93.3409 35.6459 93.0956 35.623 92.8089 35.623C92.4199 35.623 92.0618 35.6958 91.7356 35.8423C91.4086 35.9887 91.1469 36.2088 90.9498 36.5041C90.7527 36.7987 90.6537 37.1482 90.6537 37.5884V38.621H89.1836V39.7958H90.6537V45.5792H92.1238V39.7958H94.9728V43.8449C94.9762 44.2681 95.0606 44.6202 95.2594 44.8995C95.4574 45.1788 95.719 45.3854 96.0427 45.5191C96.3663 45.6528 96.72 45.7172 97.1039 45.7104C97.332 45.7045 97.5231 45.6833 97.678 45.652C97.833 45.6207 97.9724 45.5851 98.0671 45.5572L97.7736 44.4035L97.7718 44.4044Z" fill="black"/>
<path d="M87.1894 36.2471C86.7083 36.2471 86.3184 36.6305 86.3184 37.1036C86.3184 37.5768 86.7083 37.9602 87.1894 37.9602C87.6705 37.9602 88.0605 37.5768 88.0605 37.1036C88.0605 36.6305 87.6705 36.2471 87.1894 36.2471Z" fill="black"/>
<path d="M67.269 44.3661C66.9858 44.6445 66.9858 45.0974 67.269 45.3758C67.5522 45.6543 68.0127 45.6543 68.2959 45.3758C68.579 45.0974 68.579 44.6445 68.2959 44.3661C68.0127 44.0876 67.5522 44.0876 67.269 44.3661Z" fill="black"/>
<path d="M71.8671 38.3504C72.1503 38.072 72.1503 37.6191 71.8671 37.3407C71.584 37.0622 71.1235 37.0622 70.8403 37.3407C70.5571 37.6191 70.5571 38.072 70.8403 38.3504C71.1235 38.6289 71.584 38.6289 71.8671 38.3504Z" fill="black"/>
<path d="M66.142 38.9012C65.9362 39.3236 65.7813 39.7739 65.6875 40.2462C65.9569 40.3697 66.2866 40.324 66.5086 40.1048C66.7918 39.8264 66.7918 39.3735 66.5086 39.0951C66.4045 38.9926 66.2762 38.9275 66.142 38.9004V38.9012Z" fill="black"/>
<path d="M65.6865 42.4685C65.7812 42.9399 65.9353 43.391 66.141 43.8134C66.2753 43.7863 66.4035 43.722 66.5076 43.6187C66.7908 43.3403 66.7908 42.8874 66.5076 42.609C66.2856 42.3906 65.9551 42.3441 65.6865 42.4676V42.4685Z" fill="black"/>
<path d="M70.0814 36.5936C70.3034 36.3752 70.3508 36.0502 70.2251 35.7861C69.7457 35.8792 69.2869 36.0307 68.8574 36.233C68.885 36.3651 68.9504 36.4903 69.0554 36.5936C69.3386 36.8721 69.799 36.8721 70.0822 36.5936H70.0814Z" fill="black"/>
<path d="M70.8403 44.3651C70.5571 44.6436 70.5571 45.0964 70.8403 45.3748C71.1235 45.6533 71.584 45.6533 71.8671 45.3748C72.1503 45.0964 72.1503 44.6436 71.8671 44.3651C71.584 44.0866 71.1235 44.0866 70.8403 44.3651Z" fill="black"/>
<path d="M74.4136 41.8631C74.6967 42.1416 75.1572 42.1416 75.4404 41.8631C75.7236 41.5847 75.7236 41.1318 75.4404 40.8534C75.1572 40.5749 74.6967 40.5749 74.4136 40.8534C74.1304 41.1318 74.1304 41.5847 74.4136 41.8631Z" fill="black"/>
<path d="M75.4394 38.3504C75.7226 38.072 75.7226 37.6191 75.4394 37.3407C75.1562 37.0622 74.6958 37.0622 74.4126 37.3407C74.1294 37.6191 74.1294 38.072 74.4126 38.3504C74.6958 38.6289 75.1562 38.6289 75.4394 38.3504Z" fill="black"/>
<path d="M72.6262 46.1221C72.4041 46.3404 72.3568 46.6654 72.4824 46.9304C72.9619 46.8373 73.4206 46.6858 73.8501 46.4835C73.8226 46.3514 73.7572 46.2262 73.6522 46.1229C73.369 45.8444 72.9085 45.8444 72.6253 46.1229L72.6262 46.1221Z" fill="black"/>
<path d="M70.8423 40.8553C70.5591 41.1338 70.5591 41.5866 70.8423 41.8651C71.1254 42.1435 71.5859 42.1435 71.8691 41.8651C72.1523 41.5866 72.1523 41.1338 71.8691 40.8553C71.5859 40.5769 71.1254 40.5769 70.8423 40.8553Z" fill="black"/>
<path d="M72.6274 39.0985C72.3442 39.377 72.3442 39.8298 72.6274 40.1082C72.9106 40.3867 73.3711 40.3867 73.6543 40.1082C73.9374 39.8298 73.9374 39.377 73.6543 39.0985C73.3711 38.82 72.9106 38.82 72.6274 39.0985Z" fill="black"/>
<path d="M73.6533 36.5926C73.7575 36.4902 73.8238 36.3641 73.8513 36.2321C73.4218 36.0298 72.9639 35.8774 72.4836 35.7852C72.358 36.0501 72.4044 36.3742 72.6274 36.5926C72.9105 36.8711 73.371 36.8711 73.6542 36.5926H73.6533Z" fill="black"/>
<path d="M67.269 40.8524C66.9858 41.1309 66.9858 41.5837 67.269 41.8622C67.5522 42.1406 68.0127 42.1406 68.2959 41.8622C68.579 41.5837 68.579 41.1309 68.2959 40.8524C68.0127 40.5739 67.5522 40.5739 67.269 40.8524Z" fill="black"/>
<path d="M72.6274 42.6112C72.3442 42.8897 72.3442 43.3425 72.6274 43.6209C72.9106 43.8994 73.3711 43.8994 73.6543 43.6209C73.9374 43.3425 73.9374 42.8897 73.6543 42.6112C73.3711 42.3327 72.9106 42.3327 72.6274 42.6112Z" fill="black"/>
<path d="M69.0544 46.1229C68.9503 46.2253 68.884 46.3514 68.8564 46.4835C69.2859 46.6858 69.7438 46.8381 70.2241 46.9304C70.3498 46.6654 70.3033 46.3413 70.0804 46.1229C69.7972 45.8444 69.3367 45.8444 69.0535 46.1229H69.0544Z" fill="black"/>
<path d="M67.27 37.3417C66.9868 37.6201 66.9868 38.0729 67.27 38.3514C67.5532 38.6299 68.0137 38.6299 68.2968 38.3514C68.58 38.0729 68.58 37.6201 68.2968 37.3417C68.0137 37.0632 67.5532 37.0632 67.27 37.3417Z" fill="black"/>
<path d="M76.1997 39.0971C75.9165 39.3756 75.9165 39.8284 76.1997 40.1069C76.4218 40.3253 76.7523 40.3718 77.0208 40.2482C76.9261 39.7768 76.7721 39.3257 76.5664 38.9033C76.4321 38.9304 76.3047 38.9947 76.1997 39.098V39.0971Z" fill="black"/>
<path d="M76.1997 42.6103C75.9165 42.8888 75.9165 43.3416 76.1997 43.62C76.3038 43.7225 76.4321 43.7876 76.5664 43.8147C76.7721 43.3924 76.927 42.9421 77.0208 42.4698C76.7514 42.3462 76.4218 42.3919 76.1997 42.6111V42.6103Z" fill="black"/>
<path d="M74.4145 44.3671C74.1314 44.6455 74.1314 45.0983 74.4145 45.3768C74.6977 45.6553 75.1582 45.6553 75.4414 45.3768C75.7245 45.0983 75.7245 44.6455 75.4414 44.3671C75.1582 44.0886 74.6977 44.0886 74.4145 44.3671Z" fill="black"/>
<path d="M69.0561 39.0985C68.773 39.377 68.773 39.8298 69.0561 40.1082C69.3393 40.3867 69.7998 40.3867 70.083 40.1082C70.3661 39.8298 70.3661 39.377 70.083 39.0985C69.7998 38.82 69.3393 38.82 69.0561 39.0985Z" fill="black"/>
<path d="M69.0552 42.6092C68.772 42.8877 68.772 43.3405 69.0552 43.619C69.3383 43.8975 69.7988 43.8975 70.082 43.619C70.3652 43.3405 70.3652 42.8877 70.082 42.6092C69.7988 42.3308 69.3383 42.3308 69.0552 42.6092Z" fill="black"/>
<path d="M2.79634 39.7412C1.71958 39.7412 1.3314 40.3879 1.12999 40.7408H1.03531V39.8157H-0.0664062V47.6601H1.06286V44.6334H1.12999C1.33398 44.9973 1.75057 45.633 2.80753 45.633C4.21308 45.633 5.23217 44.5259 5.23217 42.6799C5.23217 40.8339 4.19759 39.7421 2.79634 39.7421V39.7412ZM2.55448 44.685C1.58359 44.685 1.04048 43.8674 1.04048 42.668C1.04048 41.4687 1.56896 40.6849 2.55448 40.6849C3.54 40.6849 4.09086 41.5356 4.09086 42.668C4.09086 43.8005 3.56238 44.685 2.55448 44.685Z" fill="black"/>
<path d="M9.1691 39.7412C7.53288 39.7412 6.46387 40.9185 6.46387 42.6934C6.46387 44.4683 7.53288 45.6355 9.1691 45.6355C10.8053 45.6355 11.8743 44.4582 11.8743 42.6934C11.8743 40.9287 10.8053 39.7412 9.1691 39.7412ZM9.17255 44.7028C8.10353 44.7028 7.60518 43.7853 7.60518 42.6892C7.60518 41.5931 8.10353 40.6689 9.17255 40.6689C10.2416 40.6689 10.7322 41.5974 10.7322 42.6892C10.7322 43.7811 10.2338 44.7028 9.17255 44.7028Z" fill="black"/>
<path d="M18.5886 43.9865H18.5327L17.3991 39.8154H16.2328L15.0907 44.0051H15.0339L13.8977 39.8154H12.7314L14.4382 45.5201H15.5856L16.7648 41.4016H16.8508L18.0292 45.5201H19.1817L20.885 39.8154H19.7188L18.5886 43.9865Z" fill="black"/>
<path d="M24.4292 39.7412C22.8128 39.7412 21.748 40.9516 21.748 42.7053C21.748 44.459 22.7981 45.6355 24.5092 45.6355C25.7753 45.6355 26.6696 45.0227 26.9261 44.0942L25.8571 43.9046C25.6531 44.4429 25.1617 44.718 24.5204 44.718C23.5538 44.718 22.904 44.101 22.8747 43.0024H26.9993V42.6088C26.9993 40.547 25.7444 39.7412 24.43 39.7412H24.4292ZM22.8764 42.1704C22.9229 41.3604 23.5194 40.6587 24.4361 40.6587C25.3527 40.6587 25.8864 41.2977 25.8915 42.1704H22.8764Z" fill="black"/>
<path d="M29.6359 40.7226H29.5748V39.8161H28.4834V45.5208H29.6127V42.037C29.6127 41.2905 30.1979 40.7522 30.9993 40.7522C31.2334 40.7522 31.4976 40.7928 31.5871 40.8191V39.7568C31.4753 39.7424 31.2506 39.7314 31.1086 39.7314C30.4286 39.7314 29.8468 40.1098 29.6359 40.7226Z" fill="black"/>
<path d="M35.0005 39.7412C33.3832 39.7412 32.3193 40.9516 32.3193 42.7053C32.3193 44.459 33.3685 45.6355 35.0805 45.6355C36.3449 45.6355 37.2409 45.0227 37.4974 44.0942L36.4284 43.9046C36.2244 44.4429 35.7329 44.718 35.09 44.718C34.1234 44.718 33.4736 44.101 33.4443 43.0024H37.5689V42.6088C37.5689 40.547 36.3139 39.7412 35.0005 39.7412ZM33.4477 42.1704C33.4925 41.3604 34.0907 40.6587 35.0074 40.6587C35.924 40.6587 36.4577 41.2977 36.4611 42.1704H33.4469H33.4477Z" fill="black"/>
<path d="M42.97 40.741H42.9011C42.698 40.3881 42.3115 39.7414 41.2331 39.7414C39.8301 39.7414 38.7998 40.8299 38.7998 42.6793C38.7998 44.5286 39.8154 45.6323 41.2244 45.6323C42.2823 45.6323 42.6989 44.9967 42.902 44.6327H42.9967V45.5206H44.0992V37.9141H42.97V40.741ZM41.4749 44.6852C40.4653 44.6852 39.9394 43.8126 39.9394 42.6683C39.9394 41.5239 40.4541 40.6852 41.4749 40.6852C42.4957 40.6852 42.9889 41.4757 42.9889 42.6683C42.9889 43.8608 42.4492 44.6852 41.4749 44.6852Z" fill="black"/>
<path d="M51.926 39.7414C50.8492 39.7414 50.4611 40.3881 50.2596 40.741H50.1908V37.9141H49.0615V45.5206H50.1641V44.6327H50.2588C50.4619 44.9967 50.8776 45.6323 51.9363 45.6323C53.341 45.6323 54.361 44.5253 54.361 42.6793C54.361 40.8333 53.3255 39.7414 51.9251 39.7414H51.926ZM51.6841 44.6852C50.7124 44.6852 50.1693 43.8676 50.1693 42.6683C50.1693 41.4689 50.6978 40.6852 51.6841 40.6852C52.6705 40.6852 53.2214 41.5358 53.2214 42.6683C53.2214 43.8007 52.692 44.6852 51.6841 44.6852Z" fill="black"/>
<path d="M57.9322 44.2429H57.8711L56.4018 39.8154H55.1934L57.3167 45.5946L57.1773 45.9738C56.8898 46.7313 56.4844 46.794 55.8664 46.6272L55.5945 47.5371C55.7287 47.5963 56.024 47.6598 56.3648 47.6598C57.297 47.6598 57.8874 47.1808 58.2222 46.2819L60.6133 39.8154H59.4005L57.9313 44.2429H57.9322Z" fill="black"/>
</g>
<defs>
<clipPath id="clip0_2510_3763">
<rect width="98" height="48" fill="white"/>
</clipPath>
</defs>
</svg>
