<svg version="1.2" xmlns="http://www.w3.org/2000/svg" viewBox="0 0 191 262" width="191" height="262"><defs><clipPath clipPathUnits="userSpaceOnUse" id="cp1"><path d="m-59-24h309.07v309.07h-309.07z"/></clipPath><clipPath clipPathUnits="userSpaceOnUse" id="cp2"><path d="m-59-24h309.07v309.07h-309.07z"/></clipPath><clipPath clipPathUnits="userSpaceOnUse" id="cp3"><path d="m-59-24h309.07v309.07h-309.07z"/></clipPath><clipPath clipPathUnits="userSpaceOnUse" id="cp4"><path d="m-59-24h309.07v309.07h-309.07z"/></clipPath><clipPath clipPathUnits="userSpaceOnUse" id="cp5"><path d="m-59-24h309.07v309.07h-309.07z"/></clipPath><clipPath clipPathUnits="userSpaceOnUse" id="cp6"><path d="m-59-24h309.07v309.07h-309.07z"/></clipPath><clipPath clipPathUnits="userSpaceOnUse" id="cp7"><path d="m-59-24h309.07v309.07h-309.07z"/></clipPath><clipPath clipPathUnits="userSpaceOnUse" id="cp8"><path d="m-59-24h309.07v309.07h-309.07z"/></clipPath></defs><style>.a{fill:#00c8b7}.b{fill:#316cff}.c{fill:#071871}.d{fill:#ebebeb}</style><g clip-path="url(#cp1)"><g clip-path="url(#cp2)"><g clip-path="url(#cp3)"><path className="a" d="m172.1 81.2q-0.8-1.4-1.7-2.8-0.8-1.4-1.7-2.7-1-1.3-1.9-2.6-1-1.3-2-2.6-2.1-2.7-4.5-5.3-2.3-2.6-4.8-4.9-2.6-2.4-5.3-4.5-2.7-2.2-5.6-4.1l-27.3 57.3 36.8-8.4-82.9 108.9q3 0.9 6 1.5 3 0.7 6.1 1.1 3 0.4 6.1 0.6 3.1 0.3 6.1 0.3 5.4 0 10.7-0.7 5.3-0.6 10.5-1.9 5.2-1.3 10.2-3.2 5-1.9 9.8-4.4 2.6-1.4 5.2-3 2.5-1.6 5-3.4 2.4-1.7 4.7-3.6 2.4-2 4.5-4c17-16.1 27.6-38.8 27.6-64q0-5.7-0.8-11.3-0.7-5.7-2.2-11.2-1.5-5.6-3.6-10.8-2.2-5.3-5-10.3z"/></g><g clip-path="url(#cp4)"><path className="b" d="m144.6 51.7l22.9-47.8-70 11.1-8.3 22c2.1-0.1 4.2-0.3 6.3-0.3 18.2 0 35.1 5.6 49.1 15z"/></g><g clip-path="url(#cp5)"><path className="c" d="m117.3 109l27.3-57.3c-14-9.4-30.9-15-49.1-15-2.1 0-4.2 0.2-6.3 0.3l-42.4 112.4 26.8-6.3-20 59.2c5.5 3.1 11.4 5.5 17.6 7.2l82.9-108.9z"/></g><g clip-path="url(#cp6)"><path className="a" d="m46.8 149.4l42.4-112.4c-32.9 2.4-60.9 22.8-73.9 51.4q-0.2 0.5-0.4 1-0.2 0.5-0.4 1-0.2 0.5-0.4 1-0.2 0.5-0.4 1-1.6 3.8-2.8 7.8-1.1 4-1.9 8.1-0.8 4.1-1.2 8.2-0.4 4.2-0.4 8.3c0 33.5 18.7 62.6 46.2 77.5l20-59.2z"/></g><g clip-path="url(#cp7)"><path className="b" d="m35 257.2l36.2-47.7c-6.2-1.7-12.1-4.1-17.6-7.2z"/></g><g clip-path="url(#cp8)"><path className="d" d="m146.5 82.4c0.9 1.9 1.8 3.9 2.7 6 0.8-1.7 1.6-3.2 2.2-4.8 0.6-1.6 1.5-2.5 3.2-3.1 1.5-0.6 3-1.4 4.7-2.2-1.4-0.6-2.6-1.3-3.8-1.7-2.3-0.7-3.8-2.2-4.5-4.5-0.4-1.3-1.1-2.4-1.8-3.8-0.9 2.1-1.8 4-2.6 5.9-0.3 0.7-0.8 1.2-1.5 1.5-1.9 0.8-3.8 1.7-5.9 2.6 2.2 1 4.1 1.9 6 2.8 0.5 0.3 1 0.8 1.3 1.3zm10.2 80.3c-5.2-1.7-8.5-4.9-10.1-10.1-0.9-2.8-2.4-5.3-3.8-8.4-2.1 4.7-4.1 8.8-5.9 13-0.7 1.7-1.7 2.6-3.3 3.3-4.2 1.8-8.4 3.8-13 5.9 4.8 2.2 9.1 4.1 13.2 6.2 1.2 0.6 2.3 1.7 2.9 2.8 2.1 4.2 4 8.6 6.1 13.3 1.7-3.8 3.5-7.1 4.8-10.5 1.2-3.5 3.4-5.7 7-7 3.4-1.2 6.6-3 10.4-4.8-3.1-1.4-5.6-2.9-8.3-3.7zm-119.2-64.7c-0.6-1.8-1.6-3.5-2.5-5.5-1.4 3.1-2.8 5.8-4 8.6-0.4 1.1-1.1 1.8-2.2 2.2-2.8 1.2-5.5 2.6-8.6 4 3.2 1.4 6 2.7 8.8 4.1 0.8 0.3 1.5 1.1 1.9 1.8 1.4 2.8 2.6 5.7 4.1 8.9 1.1-2.5 2.3-4.7 3.1-7 0.9-2.4 2.3-3.8 4.7-4.7 2.3-0.8 4.4-2 6.9-3.1-2-1-3.7-2-5.5-2.5-3.5-1.1-5.6-3.3-6.7-6.8z"/></g></g></g></svg>