<svg width="40" height="40" viewBox="0 0 40 40" fill="none" xmlns="http://www.w3.org/2000/svg">
<g clip-path="url(#clip0_674_7010)">
<path d="M16.25 10.625C16.25 7.51844 13.7316 5 10.625 5C7.51846 5 5.00002 7.51844 5.00002 10.625C5.00002 13.25 6.81564 15.5259 9.37502 16.1094V23.8906C6.34611 24.5809 4.45033 27.5961 5.14064 30.625C5.83096 33.6539 8.84611 35.5497 11.875 34.8594C14.9039 34.1691 16.7997 31.1539 16.1094 28.125C15.6289 26.017 13.983 24.3711 11.875 23.8906V16.1094C14.4311 15.5208 16.2442 13.248 16.25 10.625ZM13.75 29.375C13.75 31.1009 12.351 32.5 10.625 32.5C8.89908 32.5 7.50002 31.1009 7.50002 29.375C7.50002 27.6491 8.89908 26.25 10.625 26.25C12.3474 26.2586 13.7414 27.6527 13.75 29.375ZM35 29.375C35 32.4816 32.4816 35 29.375 35C26.2685 35 23.75 32.4816 23.75 29.375C23.75 26.75 25.5656 24.4741 28.125 23.8906V18.7344C28.1263 17.0763 27.4688 15.4856 26.2969 14.3125L22.5 10.5156V13.75C22.5 14.4403 21.9403 15 21.25 15C20.5597 15 20 14.4403 20 13.75V7.5C20 6.80969 20.5597 6.25 21.25 6.25H27.5C28.1903 6.25 28.75 6.80969 28.75 7.5C28.75 8.19031 28.1903 8.75 27.5 8.75H24.2656L28.0625 12.5469C29.7108 14.183 30.6339 16.4119 30.625 18.7344V23.8906C33.1811 24.4792 34.9942 26.752 35 29.375Z" fill="#2E69FF"/>
<circle cx="10.75" cy="29.3501" r="4.25" stroke="#2E69FF" stroke-width="3"/>
</g>
<defs>
<clipPath id="clip0_674_7010">
<rect width="40" height="40" fill="white"/>
</clipPath>
</defs>
</svg>
