<svg width="64" height="64" viewBox="0 0 64 64" fill="none" xmlns="http://www.w3.org/2000/svg">
<g id="Join our mission _ Join our mission-52 1" clip-path="url(#clip0_2318_5210)">
<path id="Vector" d="M49.0968 19.5887C46.7359 19.5887 44.8301 17.683 44.8301 15.3221V0H9.83398V17.3606H31.3095C32.4094 17.3606 33.3006 18.2519 33.3006 19.3517V50.5458H9.83398V59.7333C9.83398 60.8649 10.2835 61.9502 11.0837 62.7503C11.8838 63.5505 12.9691 64 14.1007 64H63.8784V19.5887H49.0968Z" fill="#00124D"/>
<path id="Vector_2" d="M44.8282 15.3221C44.8282 17.683 46.734 19.5887 49.0949 19.5887H63.8765L44.8282 0V15.3221ZM6.17223 43.2261C5.94069 43.4747 5.61998 43.6213 5.28048 43.6337C4.94097 43.6462 4.61039 43.5234 4.36127 43.2924C3.84927 42.8089 3.82083 42.003 4.30438 41.4815L9.84157 35.5745V17.3701H0.123047V48.5641C0.123047 49.664 1.01431 50.5553 2.11416 50.5553H9.84157V39.3197L6.17223 43.2355V43.2261Z" fill="#79F7C6"/>
<path id="Vector_3" d="M33.3006 19.3515C33.3006 18.8234 33.0909 18.3169 32.7175 17.9435C32.3441 17.5701 31.8376 17.3604 31.3095 17.3604H9.83398V35.5648L12.8112 32.3885C13.0482 32.1325 13.3801 31.9903 13.7214 31.9808C14.0722 31.9808 14.4041 32.1135 14.6506 32.3506L17.6847 35.3846L24.4355 28.6338H22.6055C21.8944 28.6338 21.3255 28.0649 21.3255 27.3538C21.3255 26.6427 21.8944 26.0738 22.6055 26.0738H27.5264C27.5264 26.0738 27.5644 26.0833 27.5928 26.0833C27.735 26.0833 27.8867 26.1118 28.0195 26.1686C28.1332 26.2161 28.2375 26.2919 28.3324 26.3772C28.3608 26.4057 28.4082 26.4152 28.4367 26.4436C28.4746 26.4815 28.4841 26.5195 28.5125 26.5574C28.5884 26.6522 28.6642 26.747 28.7116 26.8513C28.778 27.003 28.8064 27.1642 28.8064 27.3443V32.2652C28.8064 32.9763 28.2375 33.5452 27.5264 33.5452C26.8153 33.5452 26.2464 32.9763 26.2464 32.2652V30.4353L18.5949 38.0869C18.0924 38.5894 17.2864 38.5894 16.7839 38.0869L13.7878 35.0812L9.85295 39.291V50.5266H33.3196V19.3515H33.3006Z" fill="#2E69FF"/>
<path id="Vector_4" d="M4.36088 43.2927C4.61 43.5237 4.94058 43.6464 5.28009 43.634C5.61959 43.6215 5.9403 43.4749 6.17184 43.2263L9.84117 39.3104L13.776 35.1007L16.7721 38.1063C17.2747 38.6088 18.0806 38.6088 18.5831 38.1063L26.2347 30.4547V32.2847C26.2347 32.9958 26.8035 33.5647 27.5147 33.5647C28.2258 33.5647 28.7947 32.9958 28.7947 32.2847V27.3638C28.7947 27.1836 28.7567 27.0224 28.6998 26.8707C28.6503 26.7624 28.583 26.663 28.5007 26.5768C28.4723 26.5389 28.4533 26.4915 28.4249 26.463C28.3964 26.4346 28.349 26.4251 28.3206 26.3967C28.2258 26.3208 28.1215 26.2355 28.0077 26.1881C27.875 26.1312 27.7232 26.1122 27.581 26.1027C27.5621 26.1027 27.5431 26.0933 27.5147 26.0933H22.5938C21.8827 26.0933 21.3138 26.6621 21.3138 27.3733C21.3138 28.0844 21.8827 28.6533 22.5938 28.6533H24.4237L17.6729 35.4041L14.6388 32.37C14.3923 32.1235 14.0604 32.0002 13.7096 32.0002C13.3588 32.0002 13.0364 32.1519 12.7994 32.4079L9.82221 35.5842L4.28503 41.4912C3.80147 42.0032 3.82992 42.8186 4.34192 43.3022L4.36088 43.2927Z" fill="white"/>
</g>
<defs>
<clipPath id="clip0_2318_5210">
<rect width="64" height="64" fill="white"/>
</clipPath>
</defs>
</svg>
