<svg width="187" height="253" viewBox="0 0 187 253" fill="none" xmlns="http://www.w3.org/2000/svg">
<path d="M16.1143 187.079L94.694 228.762L170.29 187.079V24.0811H16.1143V187.079Z" fill="white"/>
<path d="M171.882 24.7029L14.5234 189.982L96.0873 232.08L171.882 191.641V24.7029Z" fill="#F2F3F2"/>
<path d="M10.9424 78.4136V190.605L13.7275 192.056L92.3073 233.739L94.6945 234.983L97.0817 233.739L172.876 192.056L175.662 190.605V18.689H10.9424V78.4136ZM16.1147 187.494V24.0808H170.489V187.494L94.6945 229.177L16.1147 187.494Z" fill="#DCDEDC"/>
<path d="M93.3002 26.7767C94.096 26.7767 94.8917 26.7767 95.6875 26.984L93.3002 31.7537C89.7194 31.5463 86.5364 34.4496 86.3375 38.1824C86.1385 41.9152 88.9236 45.2332 92.5045 45.4406H93.3002C94.8917 45.4406 96.4832 44.8185 97.6768 43.7816L100.263 48.3439C98.2737 49.7955 95.8864 50.625 93.3002 50.625C86.9343 50.8324 81.563 45.8554 81.3641 39.2193C81.1651 32.5832 85.9396 26.984 92.3056 26.7767H93.3002ZM101.457 36.9381L104.441 42.1226L101.457 47.0996L98.6715 42.1226H92.9024L95.8864 36.9381H101.457ZM96.6822 35.0718C96.6822 34.2422 96.8811 33.4127 97.279 32.7906C97.6768 32.1685 98.4726 31.5463 99.0694 31.1316L99.4673 30.9242C100.263 30.5095 100.462 30.3021 100.462 29.8873C100.462 29.4726 99.8651 29.0578 99.4673 29.0578C98.6715 29.0578 98.0747 29.4726 97.6768 30.3021L96.6822 29.2652C96.8811 28.8504 97.279 28.4357 97.6768 28.0209C98.2736 27.6062 98.8705 27.6062 99.4673 27.6062C100.064 27.6062 100.86 27.8136 101.258 28.2283C101.656 28.6431 102.053 29.2652 102.053 29.8873C102.053 30.9242 101.457 31.7537 100.263 32.1685L99.6662 32.5832C99.0694 32.998 98.6715 33.2054 98.4726 33.8275H102.053V35.2791L96.6822 35.0718ZM93.3002 60.9939L112.199 49.7955V18.689H74.2024V49.5881L93.3002 60.9939ZM179.44 134.405H7.16088L0.794922 148.922L7.16088 163.438H179.44L185.607 148.922L179.44 134.405Z" fill="#FF492C"/>
<path d="M37.9764 125.074C37.857 125.074 37.7575 125.032 37.678 124.949C37.5984 124.853 37.5586 124.742 37.5586 124.618V99.4006C37.5586 99.2761 37.5984 99.1655 37.678 99.0688C37.7575 98.9858 37.857 98.9443 37.9764 98.9443H42.1739C42.2933 98.9443 42.3927 98.9858 42.4723 99.0688C42.5652 99.1655 42.6116 99.2761 42.6116 99.4006V120.366C42.6116 120.491 42.6713 120.553 42.7906 120.553H54.4881C54.6074 120.553 54.7135 120.595 54.8064 120.677C54.8859 120.774 54.9257 120.885 54.9257 121.009V124.618C54.9257 124.742 54.8859 124.853 54.8064 124.949C54.7135 125.032 54.6074 125.074 54.4881 125.074H37.9764ZM74.0037 113.502C74.1496 114.442 74.196 115.5 74.143 116.675C74.1297 116.979 73.9772 117.131 73.6854 117.131H62.6246C62.4787 117.131 62.4322 117.194 62.4853 117.318C62.5516 117.816 62.6776 118.313 62.8633 118.811C63.4866 120.194 64.7532 120.885 66.663 120.885C68.1881 120.871 69.395 120.228 70.2836 118.956C70.3764 118.804 70.4825 118.728 70.6019 118.728C70.6815 118.728 70.7677 118.776 70.8605 118.873L73.4268 121.528C73.5462 121.652 73.6058 121.763 73.6058 121.86C73.6058 121.915 73.5594 122.018 73.4666 122.171C72.6841 123.18 71.6695 123.968 70.4229 124.535C69.1895 125.088 67.83 125.364 66.3447 125.364C64.289 125.364 62.5516 124.88 61.1325 123.913C59.7135 122.945 58.6922 121.59 58.0689 119.848C57.5649 118.604 57.313 116.972 57.313 114.954C57.313 113.585 57.492 112.382 57.8501 111.345C58.4071 109.576 59.3686 108.166 60.7347 107.115C62.114 106.078 63.7452 105.56 65.6285 105.56C68.0157 105.56 69.9321 106.279 71.3777 107.716C72.8233 109.154 73.6987 111.083 74.0037 113.502ZM65.6683 110.101C64.1564 110.101 63.1617 110.834 62.6842 112.299C62.5914 112.631 62.5118 113.032 62.4455 113.502C62.4455 113.627 62.5052 113.689 62.6246 113.689H68.8115C68.9574 113.689 69.0038 113.627 68.9507 113.502C68.8314 112.783 68.7717 112.438 68.7717 112.465C68.5595 111.719 68.1881 111.138 67.6576 110.723C67.1139 110.309 66.4508 110.101 65.6683 110.101ZM84.428 105.58C85.9797 105.58 87.3656 105.864 88.5857 106.431C89.8059 106.984 90.7541 107.751 91.4305 108.733C92.1069 109.7 92.4451 110.779 92.4451 111.968V124.618C92.4451 124.742 92.4053 124.853 92.3257 124.949C92.2462 125.032 92.1467 125.074 92.0273 125.074H87.8298C87.7104 125.074 87.6109 125.032 87.5314 124.949C87.4385 124.853 87.3921 124.742 87.3921 124.618V123.394C87.3921 123.325 87.3722 123.277 87.3324 123.249C87.2794 123.221 87.233 123.242 87.1932 123.311C86.1852 124.68 84.5738 125.364 82.359 125.364C80.489 125.364 78.9837 124.894 77.8432 123.954C76.6893 123.014 76.1124 121.618 76.1124 119.765C76.1124 117.857 76.7623 116.371 78.062 115.306C79.3485 114.256 81.1853 113.73 83.5725 113.73H87.2131C87.3324 113.73 87.3921 113.668 87.3921 113.544V112.714C87.3921 111.898 87.1534 111.256 86.6759 110.786C86.1985 110.329 85.4823 110.101 84.5274 110.101C83.798 110.101 83.1879 110.239 82.6972 110.516C82.2065 110.792 81.8882 111.18 81.7423 111.677C81.676 111.954 81.5235 112.078 81.2848 112.051L76.948 111.449C76.6562 111.394 76.5236 111.283 76.5501 111.117C76.6429 110.067 77.0408 109.12 77.7437 108.276C78.4466 107.433 79.3816 106.776 80.5487 106.306C81.7025 105.822 82.9956 105.58 84.428 105.58ZM83.7118 121.445C84.733 121.445 85.6017 121.161 86.3179 120.594C87.034 120.028 87.3921 119.295 87.3921 118.396V117.048C87.3921 116.924 87.3324 116.862 87.2131 116.862H84.6468C83.5725 116.862 82.7304 117.076 82.1203 117.505C81.5102 117.919 81.2052 118.514 81.2052 119.288C81.2052 119.965 81.4307 120.491 81.8816 120.864C82.3325 121.251 82.9426 121.445 83.7118 121.445ZM107.425 99.4006C107.425 99.2761 107.465 99.1655 107.544 99.0688C107.624 98.9858 107.723 98.9443 107.843 98.9443H112.04C112.16 98.9443 112.259 98.9858 112.339 99.0688C112.418 99.1655 112.458 99.2761 112.458 99.4006V124.618C112.458 124.742 112.418 124.853 112.339 124.949C112.259 125.032 112.16 125.074 112.04 125.074H107.843C107.723 125.074 107.624 125.032 107.544 124.949C107.465 124.853 107.425 124.742 107.425 124.618V123.394C107.425 123.325 107.398 123.283 107.345 123.27C107.292 123.256 107.246 123.27 107.206 123.311C106.198 124.68 104.826 125.364 103.088 125.364C101.417 125.364 99.9781 124.88 98.7713 123.913C97.5644 122.945 96.6957 121.618 96.1652 119.931C95.7673 118.631 95.5684 117.124 95.5684 115.41C95.5684 113.64 95.7806 112.099 96.205 110.786C96.762 109.182 97.6307 107.917 98.811 106.991C99.9914 106.05 101.45 105.58 103.188 105.58C104.912 105.58 106.251 106.203 107.206 107.447C107.246 107.53 107.292 107.557 107.345 107.53C107.398 107.502 107.425 107.454 107.425 107.385V99.4006ZM106.669 119.247C107.146 118.334 107.385 117.076 107.385 115.472C107.385 113.813 107.12 112.507 106.589 111.553C106.046 110.585 105.25 110.101 104.202 110.101C103.075 110.101 102.226 110.585 101.656 111.553C101.059 112.534 100.761 113.855 100.761 115.514C100.761 117.007 101.013 118.251 101.517 119.247C102.113 120.325 102.995 120.864 104.162 120.864C105.237 120.864 106.072 120.325 106.669 119.247ZM132.551 113.502C132.697 114.442 132.743 115.5 132.69 116.675C132.677 116.979 132.524 117.131 132.232 117.131H121.171C121.026 117.131 120.979 117.194 121.032 117.318C121.099 117.816 121.225 118.313 121.41 118.811C122.034 120.194 123.3 120.885 125.21 120.885C126.735 120.871 127.942 120.228 128.831 118.956C128.923 118.804 129.029 118.728 129.149 118.728C129.228 118.728 129.315 118.776 129.407 118.873L131.974 121.528C132.093 121.652 132.153 121.763 132.153 121.86C132.153 121.915 132.106 122.018 132.013 122.171C131.231 123.18 130.216 123.968 128.97 124.535C127.736 125.088 126.377 125.364 124.892 125.364C122.836 125.364 121.099 124.88 119.679 123.913C118.26 122.945 117.239 121.59 116.616 119.848C116.112 118.604 115.86 116.972 115.86 114.954C115.86 113.585 116.039 112.382 116.397 111.345C116.954 109.576 117.916 108.166 119.282 107.115C120.661 106.078 122.292 105.56 124.175 105.56C126.563 105.56 128.479 106.279 129.925 107.716C131.37 109.154 132.246 111.083 132.551 113.502ZM124.215 110.101C122.703 110.101 121.709 110.834 121.231 112.299C121.138 112.631 121.059 113.032 120.992 113.502C120.992 113.627 121.052 113.689 121.171 113.689H127.358C127.504 113.689 127.551 113.627 127.498 113.502C127.378 112.783 127.319 112.438 127.319 112.465C127.106 111.719 126.735 111.138 126.205 110.723C125.661 110.309 124.998 110.101 124.215 110.101ZM144.984 105.622C145.846 105.622 146.523 105.795 147.013 106.14C147.212 106.251 147.285 106.438 147.232 106.7L146.476 110.972C146.463 111.263 146.297 111.345 145.979 111.221C145.621 111.097 145.203 111.034 144.726 111.034C144.54 111.034 144.281 111.062 143.95 111.117C143.088 111.186 142.358 111.511 141.761 112.092C141.165 112.687 140.866 113.468 140.866 114.435V124.618C140.866 124.742 140.826 124.853 140.747 124.949C140.654 125.032 140.548 125.074 140.428 125.074H136.251C136.131 125.074 136.025 125.032 135.933 124.949C135.853 124.853 135.813 124.742 135.813 124.618V106.327C135.813 106.203 135.853 106.099 135.933 106.016C136.025 105.933 136.131 105.891 136.251 105.891H140.428C140.548 105.891 140.654 105.933 140.747 106.016C140.826 106.099 140.866 106.203 140.866 106.327V107.758C140.866 107.827 140.886 107.875 140.926 107.903C140.979 107.931 141.019 107.917 141.045 107.862C142.027 106.368 143.34 105.622 144.984 105.622Z" fill="black"/>
<path d="M57.1747 144.318C57.1747 144.387 57.1548 144.442 57.115 144.484C57.062 144.539 57.0023 144.567 56.936 144.567H50.1522C50.0859 144.567 50.0528 144.601 50.0528 144.671V148.548C50.0528 148.618 50.0859 148.652 50.1522 148.652H54.7079C54.7742 148.652 54.8339 148.673 54.8869 148.714C54.9267 148.77 54.9466 148.832 54.9466 148.901V150.477C54.9466 150.546 54.9267 150.608 54.8869 150.664C54.8339 150.705 54.7742 150.726 54.7079 150.726H50.1522C50.0859 150.726 50.0528 150.761 50.0528 150.83V154.832C50.0528 154.901 50.0859 154.936 50.1522 154.936H56.936C57.0023 154.936 57.062 154.963 57.115 155.019C57.1548 155.06 57.1747 155.115 57.1747 155.185V156.761C57.1747 156.83 57.1548 156.885 57.115 156.927C57.062 156.982 57.0023 157.009 56.936 157.009H47.9838C47.9175 157.009 47.8645 156.982 47.8247 156.927C47.7716 156.885 47.7451 156.83 47.7451 156.761V142.742C47.7451 142.673 47.7716 142.618 47.8247 142.576C47.8645 142.521 47.9175 142.493 47.9838 142.493H56.936C57.0023 142.493 57.062 142.521 57.115 142.576C57.1548 142.618 57.1747 142.673 57.1747 142.742V144.318ZM64.1772 146.247C65.2515 146.247 66.1136 146.578 66.7634 147.242C67.4 147.906 67.7183 148.811 67.7183 149.959V156.761C67.7183 156.83 67.6918 156.885 67.6387 156.927C67.5989 156.982 67.5459 157.009 67.4796 157.009H65.6494C65.5831 157.009 65.5234 156.982 65.4703 156.927C65.4305 156.885 65.4107 156.83 65.4107 156.761V150.456C65.4107 149.82 65.2382 149.302 64.8934 148.901C64.5486 148.514 64.091 148.32 63.5208 148.32C62.9505 148.32 62.4863 148.514 62.1282 148.901C61.7834 149.288 61.611 149.8 61.611 150.436V156.761C61.611 156.83 61.5911 156.885 61.5513 156.927C61.4982 156.982 61.4386 157.009 61.3722 157.009H59.542C59.4757 157.009 59.4227 156.982 59.3829 156.927C59.3298 156.885 59.3033 156.83 59.3033 156.761V146.661C59.3033 146.592 59.3298 146.53 59.3829 146.475C59.4227 146.433 59.4757 146.413 59.542 146.413H61.3722C61.4386 146.413 61.4982 146.433 61.5513 146.475C61.5911 146.53 61.611 146.592 61.611 146.661V147.325C61.611 147.366 61.6242 147.394 61.6508 147.408C61.6773 147.422 61.6972 147.408 61.7104 147.366C62.2542 146.62 63.0765 146.247 64.1772 146.247ZM75.5166 148.113C75.5166 148.182 75.4901 148.237 75.437 148.279C75.3972 148.334 75.3442 148.362 75.2779 148.362H73.2487C73.1824 148.362 73.1493 148.396 73.1493 148.466V153.463C73.1493 153.989 73.2554 154.369 73.4676 154.604C73.693 154.839 74.0445 154.956 74.5219 154.956H75.1187C75.185 154.956 75.2381 154.977 75.2779 155.019C75.3309 155.074 75.3575 155.136 75.3575 155.205V156.761C75.3575 156.913 75.2779 157.003 75.1187 157.03L74.0843 157.051C73.0365 157.051 72.2541 156.864 71.7368 156.491C71.2196 156.118 70.9543 155.413 70.9411 154.376V148.466C70.9411 148.396 70.9079 148.362 70.8416 148.362H69.7077C69.6414 148.362 69.5817 148.334 69.5286 148.279C69.4888 148.237 69.4689 148.182 69.4689 148.113V146.661C69.4689 146.592 69.4888 146.53 69.5286 146.475C69.5817 146.433 69.6414 146.413 69.7077 146.413H70.8416C70.9079 146.413 70.9411 146.378 70.9411 146.309V143.883C70.9411 143.813 70.961 143.751 71.0008 143.696C71.0538 143.654 71.1135 143.634 71.1798 143.634H72.9105C72.9769 143.634 73.0299 143.654 73.0697 143.696C73.1227 143.751 73.1493 143.813 73.1493 143.883V146.309C73.1493 146.378 73.1824 146.413 73.2487 146.413H75.2779C75.3442 146.413 75.3972 146.433 75.437 146.475C75.4901 146.53 75.5166 146.592 75.5166 146.661V148.113ZM85.9409 150.519C85.9939 150.864 86.0204 151.251 86.0204 151.68L86.0005 152.323C86.0005 152.489 85.921 152.572 85.7618 152.572H79.5351C79.4688 152.572 79.4356 152.606 79.4356 152.675C79.4754 153.132 79.5351 153.443 79.6147 153.608C79.933 154.604 80.7088 155.109 81.9422 155.122C82.8441 155.122 83.5603 154.735 84.0908 153.961C84.1438 153.878 84.2101 153.837 84.2897 153.837C84.3427 153.837 84.3892 153.857 84.4289 153.899L85.6624 154.956C85.7817 155.053 85.8016 155.164 85.722 155.288C85.3109 155.897 84.7671 156.367 84.0908 156.698C83.4011 157.03 82.6385 157.196 81.803 157.196C80.7685 157.196 79.8866 156.954 79.1571 156.47C78.441 155.986 77.9171 155.309 77.5855 154.438C77.2805 153.691 77.128 152.655 77.128 151.327C77.128 150.525 77.2076 149.876 77.3667 149.378C77.632 148.41 78.1359 147.643 78.8786 147.076C79.6081 146.523 80.49 146.247 81.5245 146.247C84.1372 146.247 85.6093 147.671 85.9409 150.519ZM81.5245 148.32C81.0338 148.32 80.6226 148.452 80.2911 148.714C79.9728 148.963 79.7473 149.316 79.6147 149.772C79.5351 150.007 79.4821 150.311 79.4555 150.684C79.429 150.754 79.4555 150.788 79.5351 150.788H83.5735C83.6398 150.788 83.673 150.754 83.673 150.684C83.6465 150.339 83.6067 150.076 83.5536 149.896C83.4343 149.399 83.2022 149.012 82.8574 148.735C82.4993 148.459 82.055 148.32 81.5245 148.32ZM92.8638 146.288C93.2882 146.288 93.6596 146.378 93.9779 146.558C94.084 146.613 94.1238 146.717 94.0972 146.869L93.7591 148.735C93.7458 148.901 93.653 148.949 93.4805 148.88C93.2816 148.811 93.0495 148.777 92.7843 148.777C92.6119 148.777 92.4792 148.784 92.3864 148.797C91.8294 148.825 91.3652 149.025 90.9938 149.399C90.6225 149.786 90.4368 150.284 90.4368 150.892V156.761C90.4368 156.83 90.4169 156.885 90.3771 156.927C90.3241 156.982 90.2644 157.009 90.1981 157.009H88.3679C88.3016 157.009 88.2485 156.982 88.2087 156.927C88.1557 156.885 88.1292 156.83 88.1292 156.761V146.661C88.1292 146.592 88.1557 146.53 88.2087 146.475C88.2485 146.433 88.3016 146.413 88.3679 146.413H90.1981C90.2644 146.413 90.3241 146.433 90.3771 146.475C90.4169 146.53 90.4368 146.592 90.4368 146.661V147.595C90.4368 147.65 90.4435 147.678 90.4567 147.678C90.4832 147.691 90.5098 147.678 90.5363 147.636C91.0933 146.737 91.8692 146.288 92.8638 146.288ZM104.223 149.15C104.462 149.855 104.581 150.719 104.581 151.742C104.581 152.724 104.468 153.567 104.243 154.272C103.951 155.185 103.487 155.897 102.85 156.408C102.201 156.92 101.385 157.175 100.404 157.175C99.4619 157.175 98.7059 156.823 98.1357 156.118C98.1091 156.09 98.0826 156.083 98.0561 156.097C98.0296 156.111 98.0163 156.138 98.0163 156.18V160.68C98.0163 160.749 97.9964 160.804 97.9566 160.846C97.9036 160.901 97.8439 160.929 97.7776 160.929H95.9474C95.881 160.929 95.828 160.901 95.7882 160.846C95.7352 160.804 95.7086 160.749 95.7086 160.68V146.661C95.7086 146.592 95.7352 146.53 95.7882 146.475C95.828 146.433 95.881 146.413 95.9474 146.413H97.7776C97.8439 146.413 97.9036 146.433 97.9566 146.475C97.9964 146.53 98.0163 146.592 98.0163 146.661V147.283C98.0163 147.325 98.0296 147.353 98.0561 147.366C98.0826 147.38 98.1091 147.366 98.1357 147.325C98.7192 146.606 99.4818 146.247 100.423 146.247C101.365 146.247 102.161 146.502 102.811 147.014C103.461 147.525 103.931 148.237 104.223 149.15ZM101.637 154.231C102.035 153.595 102.234 152.751 102.234 151.701C102.234 150.691 102.075 149.896 101.756 149.316C101.385 148.638 100.821 148.3 100.065 148.3C99.3757 148.3 98.8585 148.631 98.5136 149.295C98.2086 149.834 98.0561 150.636 98.0561 151.701C98.0561 152.793 98.2219 153.622 98.5534 154.189C98.8982 154.797 99.3956 155.102 100.045 155.102C100.748 155.102 101.279 154.811 101.637 154.231ZM111.544 146.288C111.968 146.288 112.34 146.378 112.658 146.558C112.764 146.613 112.804 146.717 112.777 146.869L112.439 148.735C112.426 148.901 112.333 148.949 112.161 148.88C111.962 148.811 111.73 148.777 111.464 148.777C111.292 148.777 111.159 148.784 111.067 148.797C110.509 148.825 110.045 149.025 109.674 149.399C109.303 149.786 109.117 150.284 109.117 150.892V156.761C109.117 156.83 109.097 156.885 109.057 156.927C109.004 156.982 108.945 157.009 108.878 157.009H107.048C106.982 157.009 106.929 156.982 106.889 156.927C106.836 156.885 106.809 156.83 106.809 156.761V146.661C106.809 146.592 106.836 146.53 106.889 146.475C106.929 146.433 106.982 146.413 107.048 146.413H108.878C108.945 146.413 109.004 146.433 109.057 146.475C109.097 146.53 109.117 146.592 109.117 146.661V147.595C109.117 147.65 109.124 147.678 109.137 147.678C109.163 147.691 109.19 147.678 109.216 147.636C109.773 146.737 110.549 146.288 111.544 146.288ZM115.602 144.961C115.191 144.961 114.853 144.823 114.588 144.546C114.322 144.27 114.19 143.917 114.19 143.488C114.19 143.06 114.322 142.707 114.588 142.431C114.853 142.154 115.191 142.016 115.602 142.016C116.013 142.016 116.352 142.154 116.617 142.431C116.882 142.707 117.015 143.06 117.015 143.488C117.015 143.917 116.882 144.27 116.617 144.546C116.352 144.823 116.013 144.961 115.602 144.961ZM114.647 157.009C114.581 157.009 114.528 156.982 114.488 156.927C114.435 156.885 114.409 156.83 114.409 156.761V146.641C114.409 146.572 114.435 146.516 114.488 146.475C114.528 146.419 114.581 146.392 114.647 146.392H116.478C116.544 146.392 116.604 146.419 116.657 146.475C116.696 146.516 116.716 146.572 116.716 146.641V156.761C116.716 156.83 116.696 156.885 116.657 156.927C116.604 156.982 116.544 157.009 116.478 157.009H114.647ZM123.142 157.134C122.306 157.134 121.57 157.003 120.934 156.74C120.31 156.491 119.826 156.138 119.482 155.682C119.137 155.24 118.964 154.742 118.964 154.189V154.003C118.964 153.933 118.984 153.871 119.024 153.816C119.077 153.774 119.137 153.754 119.203 153.754H120.954C121.02 153.754 121.08 153.774 121.133 153.816C121.172 153.871 121.192 153.933 121.192 154.003V154.044C121.192 154.39 121.371 154.694 121.729 154.956C122.101 155.205 122.565 155.33 123.122 155.33C123.653 155.33 124.084 155.219 124.415 154.998C124.747 154.763 124.912 154.473 124.912 154.127C124.912 153.809 124.773 153.567 124.495 153.401C124.229 153.249 123.792 153.083 123.182 152.903L122.426 152.655C121.749 152.447 121.179 152.226 120.715 151.991C120.251 151.756 119.859 151.431 119.541 151.016C119.223 150.615 119.064 150.097 119.064 149.461C119.064 148.493 119.428 147.726 120.158 147.159C120.887 146.578 121.849 146.288 123.042 146.288C123.851 146.288 124.561 146.419 125.171 146.682C125.781 146.959 126.252 147.332 126.584 147.802C126.915 148.286 127.081 148.832 127.081 149.44C127.081 149.509 127.061 149.572 127.021 149.627C126.968 149.668 126.908 149.689 126.842 149.689H125.151C125.085 149.689 125.025 149.668 124.972 149.627C124.932 149.572 124.912 149.509 124.912 149.44C124.912 149.081 124.747 148.784 124.415 148.548C124.07 148.3 123.606 148.175 123.023 148.175C122.505 148.175 122.088 148.272 121.769 148.466C121.438 148.673 121.272 148.956 121.272 149.316C121.272 149.648 121.424 149.896 121.729 150.062C122.048 150.242 122.572 150.436 123.301 150.643L123.739 150.767C124.442 150.989 125.032 151.21 125.509 151.431C125.987 151.666 126.391 151.984 126.723 152.385C127.054 152.8 127.22 153.332 127.22 153.982C127.22 154.963 126.849 155.731 126.106 156.284C125.363 156.85 124.375 157.134 123.142 157.134ZM137.744 150.519C137.797 150.864 137.823 151.251 137.823 151.68L137.804 152.323C137.804 152.489 137.724 152.572 137.565 152.572H131.338C131.272 152.572 131.239 152.606 131.239 152.675C131.278 153.132 131.338 153.443 131.418 153.608C131.736 154.604 132.512 155.109 133.745 155.122C134.647 155.122 135.363 154.735 135.894 153.961C135.947 153.878 136.013 153.837 136.093 153.837C136.146 153.837 136.192 153.857 136.232 153.899L137.465 154.956C137.585 155.053 137.605 155.164 137.525 155.288C137.114 155.897 136.563 156.367 135.874 156.698C135.197 157.03 134.442 157.196 133.606 157.196C132.572 157.196 131.69 156.954 130.96 156.47C130.244 155.986 129.72 155.309 129.389 154.438C129.083 153.691 128.931 152.655 128.931 151.327C128.931 150.525 129.011 149.876 129.17 149.378C129.435 148.41 129.932 147.643 130.662 147.076C131.404 146.523 132.293 146.247 133.327 146.247C135.94 146.247 137.412 147.671 137.744 150.519ZM133.327 148.32C132.837 148.32 132.426 148.452 132.094 148.714C131.776 148.963 131.55 149.316 131.418 149.772C131.338 150.007 131.285 150.311 131.259 150.684C131.232 150.754 131.259 150.788 131.338 150.788H135.377C135.443 150.788 135.476 150.754 135.476 150.684C135.449 150.339 135.41 150.076 135.357 149.896C135.237 149.399 134.999 149.012 134.64 148.735C134.296 148.459 133.858 148.32 133.327 148.32Z" fill="white"/>
<path d="M80.5478 173.994C80.5478 174.063 80.5213 174.118 80.4682 174.159C80.4285 174.215 80.3754 174.242 80.3091 174.242H73.8039C73.7376 174.242 73.7044 174.277 73.7044 174.346V177.56C73.7044 177.63 73.7376 177.664 73.8039 177.664H78.081C78.1473 177.664 78.2004 177.685 78.2402 177.726C78.2932 177.782 78.3197 177.844 78.3197 177.913V179.925C78.3197 179.994 78.2932 180.056 78.2402 180.111C78.2004 180.153 78.1473 180.173 78.081 180.173H73.8039C73.7376 180.173 73.7044 180.208 73.7044 180.277V186.001C73.7044 186.07 73.6845 186.125 73.6447 186.167C73.5917 186.222 73.532 186.25 73.4657 186.25H71.1381C71.0718 186.25 71.0188 186.222 70.979 186.167C70.9259 186.125 70.8994 186.07 70.8994 186.001V171.982C70.8994 171.913 70.9259 171.858 70.979 171.816C71.0188 171.761 71.0718 171.733 71.1381 171.733H80.3091C80.3754 171.733 80.4285 171.761 80.4682 171.816C80.5213 171.858 80.5478 171.913 80.5478 171.982V173.994ZM89.3408 186.25C89.2082 186.25 89.122 186.18 89.0822 186.042L88.4854 184.01C88.4588 183.955 88.4257 183.927 88.3859 183.927H83.4921C83.4523 183.927 83.4191 183.955 83.3926 184.01L82.8157 186.042C82.7759 186.18 82.6897 186.25 82.5571 186.25H80.0306C79.951 186.25 79.8913 186.222 79.8515 186.167C79.8118 186.125 79.8051 186.056 79.8317 185.959L84.1287 171.941C84.1685 171.802 84.2547 171.733 84.3873 171.733H87.5106C87.6432 171.733 87.7294 171.802 87.7692 171.941L92.0662 185.959C92.0795 185.987 92.0861 186.021 92.0861 186.063C92.0861 186.187 92.0132 186.25 91.8673 186.25H89.3408ZM84.1088 181.542C84.0955 181.625 84.122 181.667 84.1883 181.667H87.6896C87.7692 181.667 87.7957 181.625 87.7692 181.542L85.9788 175.383C85.9655 175.328 85.9456 175.3 85.9191 175.3C85.8926 175.314 85.8727 175.342 85.8594 175.383L84.1088 181.542ZM94.0755 186.25C94.0092 186.25 93.9561 186.222 93.9163 186.167C93.8633 186.125 93.8368 186.07 93.8368 186.001V171.982C93.8368 171.913 93.8633 171.858 93.9163 171.816C93.9561 171.761 94.0092 171.733 94.0755 171.733H96.403C96.4693 171.733 96.529 171.761 96.5821 171.816C96.6219 171.858 96.6418 171.913 96.6418 171.982V183.637C96.6418 183.706 96.6749 183.74 96.7412 183.74H103.246C103.313 183.74 103.372 183.761 103.425 183.802C103.465 183.858 103.485 183.92 103.485 183.989V186.001C103.485 186.07 103.465 186.125 103.425 186.167C103.372 186.222 103.313 186.25 103.246 186.25H94.0755ZM105.455 186.25C105.388 186.25 105.329 186.222 105.276 186.167C105.236 186.125 105.216 186.07 105.216 186.001V171.982C105.216 171.913 105.236 171.858 105.276 171.816C105.329 171.761 105.388 171.733 105.455 171.733H107.782C107.848 171.733 107.902 171.761 107.941 171.816C107.994 171.858 108.021 171.913 108.021 171.982V183.637C108.021 183.706 108.054 183.74 108.12 183.74H114.626C114.692 183.74 114.752 183.761 114.805 183.802C114.844 183.858 114.864 183.92 114.864 183.989V186.001C114.864 186.07 114.844 186.125 114.805 186.167C114.752 186.222 114.692 186.25 114.626 186.25H105.455ZM75.7137 203.109C75.6871 203.137 75.6805 203.165 75.6938 203.192C75.707 203.22 75.7336 203.234 75.7734 203.234H81.1645C81.2308 203.234 81.2905 203.254 81.3436 203.296C81.3833 203.351 81.4032 203.413 81.4032 203.483V205.494C81.4032 205.563 81.3833 205.619 81.3436 205.66C81.2905 205.715 81.2308 205.743 81.1645 205.743H72.2124C72.1461 205.743 72.0864 205.715 72.0333 205.66C71.9936 205.619 71.9737 205.563 71.9737 205.494V203.586C71.9737 203.462 72.0135 203.358 72.093 203.275C72.7429 202.612 73.406 201.893 74.0824 201.118C74.7588 200.33 75.1832 199.84 75.3556 199.646C75.7269 199.19 76.1049 198.754 76.4895 198.34C77.6964 196.943 78.2998 195.906 78.2998 195.229C78.2998 194.745 78.1341 194.344 77.8025 194.026C77.4709 193.722 77.0399 193.57 76.5094 193.57C75.9789 193.57 75.5479 193.722 75.2163 194.026C74.8848 194.344 74.719 194.759 74.719 195.27V195.789C74.719 195.858 74.6925 195.92 74.6394 195.976C74.5996 196.017 74.5466 196.038 74.4803 196.038H72.1328C72.0665 196.038 72.0135 196.017 71.9737 195.976C71.9206 195.92 71.8941 195.858 71.8941 195.789V194.814C71.9339 194.068 72.1593 193.404 72.5705 192.823C72.9816 192.257 73.5254 191.821 74.2018 191.517C74.8914 191.213 75.6606 191.061 76.5094 191.061C77.451 191.061 78.2733 191.24 78.9762 191.6C79.6659 191.973 80.203 192.471 80.5876 193.093C80.959 193.715 81.1446 194.406 81.1446 195.167C81.1446 195.747 81.0054 196.342 80.7269 196.95C80.4484 197.559 80.0306 198.215 79.4736 198.92C79.0624 199.459 78.6181 199.992 78.1407 200.517C77.6632 201.042 76.9537 201.803 76.0121 202.798L75.7137 203.109ZM87.8687 205.971C86.4098 205.971 85.256 205.543 84.4072 204.685C83.5584 203.842 83.134 202.688 83.134 201.222V195.747C83.134 194.31 83.5584 193.169 84.4072 192.326C85.256 191.482 86.4098 191.061 87.8687 191.061C89.3275 191.061 90.488 191.482 91.35 192.326C92.1988 193.169 92.6232 194.31 92.6232 195.747V201.222C92.6232 202.688 92.1988 203.842 91.35 204.685C90.488 205.543 89.3275 205.971 87.8687 205.971ZM87.8687 203.462C88.4655 203.462 88.9429 203.268 89.301 202.881C89.6458 202.508 89.8182 202.003 89.8182 201.367V195.664C89.8182 195.029 89.6458 194.524 89.301 194.151C88.9429 193.764 88.4655 193.57 87.8687 193.57C87.2851 193.57 86.8209 193.764 86.4761 194.151C86.118 194.524 85.939 195.029 85.939 195.664V201.367C85.939 202.003 86.118 202.508 86.4761 202.881C86.8209 203.268 87.2851 203.462 87.8687 203.462ZM98.1935 203.109C98.1669 203.137 98.1603 203.165 98.1736 203.192C98.1868 203.22 98.2133 203.234 98.2531 203.234H103.644C103.711 203.234 103.77 203.254 103.823 203.296C103.863 203.351 103.883 203.413 103.883 203.483V205.494C103.883 205.563 103.863 205.619 103.823 205.66C103.77 205.715 103.711 205.743 103.644 205.743H94.6922C94.6259 205.743 94.5728 205.715 94.533 205.66C94.48 205.619 94.4535 205.563 94.4535 205.494V203.586C94.4535 203.462 94.4932 203.358 94.5728 203.275C95.2227 202.612 95.8858 201.893 96.5622 201.118C97.2386 200.33 97.663 199.84 97.8354 199.646C98.2067 199.19 98.5847 198.754 98.9693 198.34C100.176 196.943 100.78 195.906 100.78 195.229C100.78 194.745 100.614 194.344 100.282 194.026C99.9507 193.722 99.5197 193.57 98.9892 193.57C98.4587 193.57 98.0277 193.722 97.6961 194.026C97.3646 194.344 97.1988 194.759 97.1988 195.27V195.789C97.1988 195.858 97.1789 195.92 97.1391 195.976C97.086 196.017 97.0264 196.038 96.9601 196.038H94.6126C94.5463 196.038 94.4932 196.017 94.4535 195.976C94.4004 195.92 94.3739 195.858 94.3739 195.789V194.814C94.4137 194.068 94.6391 193.404 95.0503 192.823C95.4614 192.257 96.0118 191.821 96.7014 191.517C97.3778 191.213 98.1404 191.061 98.9892 191.061C99.9308 191.061 100.753 191.24 101.456 191.6C102.146 191.973 102.683 192.471 103.067 193.093C103.439 193.715 103.624 194.406 103.624 195.167C103.624 195.747 103.485 196.342 103.207 196.95C102.928 197.559 102.51 198.215 101.953 198.92C101.542 199.459 101.098 199.992 100.62 200.517C100.143 201.042 99.4335 201.803 98.4919 202.798L98.1935 203.109ZM113.909 198.817C114.175 199.453 114.307 200.185 114.307 201.015C114.307 201.761 114.188 202.453 113.949 203.089C113.631 203.973 113.1 204.665 112.358 205.162C111.602 205.66 110.713 205.909 109.692 205.909C108.684 205.909 107.802 205.646 107.046 205.121C106.277 204.596 105.727 203.884 105.395 202.985C105.209 202.446 105.103 201.865 105.077 201.243C105.077 201.077 105.156 200.994 105.315 200.994H107.663C107.822 200.994 107.902 201.077 107.902 201.243C107.955 201.699 108.028 202.038 108.12 202.259C108.24 202.619 108.439 202.895 108.717 203.089C108.982 203.296 109.301 203.4 109.672 203.4C110.415 203.4 110.925 203.061 111.204 202.383C111.39 201.969 111.482 201.485 111.482 200.932C111.482 200.282 111.383 199.75 111.184 199.335C110.879 198.685 110.368 198.36 109.652 198.36C109.506 198.36 109.354 198.402 109.195 198.485C109.035 198.582 108.843 198.713 108.618 198.879C108.565 198.92 108.512 198.941 108.459 198.941C108.379 198.941 108.319 198.9 108.28 198.817L107.106 197.095C107.079 197.054 107.066 197.006 107.066 196.95C107.066 196.867 107.093 196.798 107.146 196.743L110.309 193.86C110.335 193.833 110.348 193.805 110.348 193.777C110.335 193.75 110.309 193.736 110.269 193.736H105.594C105.528 193.736 105.475 193.708 105.435 193.653C105.382 193.611 105.355 193.556 105.355 193.487V191.475C105.355 191.406 105.382 191.351 105.435 191.31C105.475 191.254 105.528 191.227 105.594 191.227H113.89C113.956 191.227 114.016 191.254 114.069 191.31C114.108 191.351 114.128 191.406 114.128 191.475V193.757C114.128 193.867 114.082 193.971 113.989 194.068L111.383 196.556C111.356 196.584 111.35 196.611 111.363 196.639C111.363 196.667 111.39 196.681 111.443 196.681C112.596 196.916 113.419 197.628 113.909 198.817Z" fill="black"/>
</svg>
