<svg width="40" height="40" viewBox="0 0 40 40" fill="none" xmlns="http://www.w3.org/2000/svg">
<g clip-path="url(#clip0_674_6996)">
<path d="M20 23.75C21.0355 23.75 21.875 22.9105 21.875 21.875C21.875 20.8395 21.0355 20 20 20C18.9645 20 18.125 20.8395 18.125 21.875C18.125 22.9105 18.9645 23.75 20 23.75Z" fill="#2E69FF"/>
<path d="M32.5 12.5H26.875V8.125C26.875 4.32797 23.797 1.25 20 1.25C16.203 1.25 13.125 4.32797 13.125 8.125V12.5H7.5C6.11922 12.5 5 13.6192 5 15V32.5C5 33.8808 6.11922 35 7.5 35H32.5C33.8808 35 35 33.8808 35 32.5V15C35 13.6192 33.8808 12.5 32.5 12.5ZM21.25 26.0625V28.75C21.25 29.4403 20.6903 30 20 30C19.3097 30 18.75 29.4403 18.75 28.75V26.0625C16.4345 25.3722 15.117 22.9355 15.8073 20.6198C16.4977 18.3044 18.9344 16.9869 21.25 17.6772C23.5655 18.3675 24.883 20.8042 24.1927 23.1198C23.7709 24.5344 22.6644 25.6408 21.25 26.0625ZM24.375 12.5H15.625V8.125C15.625 5.70875 17.5837 3.75 20 3.75C22.4163 3.75 24.375 5.70875 24.375 8.125V12.5Z" fill="#2E69FF"/>
</g>
<defs>
<clipPath id="clip0_674_6996">
<rect width="40" height="40" fill="white"/>
</clipPath>
</defs>
</svg>
