<svg width="187" height="253" viewBox="0 0 187 253" fill="none" xmlns="http://www.w3.org/2000/svg">
<path d="M16.1143 187.079L94.694 228.762L170.29 187.079V24.0811H16.1143V187.079Z" fill="white"/>
<path d="M171.882 24.7029L14.5234 189.982L96.0873 232.08L171.882 191.641V24.7029Z" fill="#F2F3F2"/>
<path d="M10.9424 78.4136V190.605L13.7275 192.056L92.3073 233.739L94.6945 234.983L97.0817 233.739L172.876 192.056L175.662 190.605V18.689H10.9424V78.4136ZM16.1147 187.494V24.0808H170.489V187.494L94.6945 229.177L16.1147 187.494Z" fill="#DCDEDC"/>
<path d="M93.3002 26.7767C94.096 26.7767 94.8917 26.7767 95.6875 26.984L93.3002 31.7537C89.7194 31.5463 86.5364 34.4496 86.3375 38.1824C86.1385 41.9152 88.9236 45.2332 92.5045 45.4406H93.3002C94.8917 45.4406 96.4832 44.8185 97.6768 43.7816L100.263 48.3439C98.2737 49.7955 95.8864 50.625 93.3002 50.625C86.9343 50.8324 81.563 45.8554 81.3641 39.2193C81.1651 32.5832 85.9396 26.984 92.3056 26.7767H93.3002ZM101.457 36.9381L104.441 42.1226L101.457 47.0996L98.6715 42.1226H92.9024L95.8864 36.9381H101.457ZM96.6822 35.0718C96.6822 34.2422 96.8811 33.4127 97.279 32.7906C97.6768 32.1685 98.4726 31.5463 99.0694 31.1316L99.4673 30.9242C100.263 30.5095 100.462 30.3021 100.462 29.8873C100.462 29.4726 99.8651 29.0578 99.4673 29.0578C98.6715 29.0578 98.0747 29.4726 97.6768 30.3021L96.6822 29.2652C96.8811 28.8504 97.279 28.4357 97.6768 28.0209C98.2736 27.6062 98.8705 27.6062 99.4673 27.6062C100.064 27.6062 100.86 27.8136 101.258 28.2283C101.656 28.6431 102.053 29.2652 102.053 29.8873C102.053 30.9242 101.457 31.7537 100.263 32.1685L99.6662 32.5832C99.0694 32.998 98.6715 33.2054 98.4726 33.8275H102.053V35.2791L96.6822 35.0718ZM93.3002 60.9939L112.199 49.7955V18.689H74.2024V49.5881L93.3002 60.9939ZM179.44 134.405H7.16088L0.794922 148.922L7.16088 163.438H179.44L185.607 148.922L179.44 134.405Z" fill="#FF492C"/>
<path d="M37.9764 125.074C37.857 125.074 37.7575 125.032 37.678 124.949C37.5984 124.853 37.5586 124.742 37.5586 124.618V99.4006C37.5586 99.2761 37.5984 99.1655 37.678 99.0688C37.7575 98.9858 37.857 98.9443 37.9764 98.9443H42.1739C42.2933 98.9443 42.3927 98.9858 42.4723 99.0688C42.5652 99.1655 42.6116 99.2761 42.6116 99.4006V120.366C42.6116 120.491 42.6713 120.553 42.7906 120.553H54.4881C54.6074 120.553 54.7135 120.595 54.8064 120.677C54.8859 120.774 54.9257 120.885 54.9257 121.009V124.618C54.9257 124.742 54.8859 124.853 54.8064 124.949C54.7135 125.032 54.6074 125.074 54.4881 125.074H37.9764ZM74.0037 113.502C74.1496 114.442 74.196 115.5 74.143 116.675C74.1297 116.979 73.9772 117.131 73.6854 117.131H62.6246C62.4787 117.131 62.4322 117.194 62.4853 117.318C62.5516 117.816 62.6776 118.313 62.8633 118.811C63.4866 120.194 64.7532 120.885 66.663 120.885C68.1881 120.871 69.395 120.228 70.2836 118.956C70.3764 118.804 70.4825 118.728 70.6019 118.728C70.6815 118.728 70.7677 118.776 70.8605 118.873L73.4268 121.528C73.5462 121.652 73.6058 121.763 73.6058 121.86C73.6058 121.915 73.5594 122.018 73.4666 122.171C72.6841 123.18 71.6695 123.968 70.4229 124.535C69.1895 125.088 67.83 125.364 66.3447 125.364C64.289 125.364 62.5516 124.88 61.1325 123.913C59.7135 122.945 58.6922 121.59 58.0689 119.848C57.5649 118.604 57.313 116.972 57.313 114.954C57.313 113.585 57.492 112.382 57.8501 111.345C58.4071 109.576 59.3686 108.166 60.7347 107.115C62.114 106.078 63.7452 105.56 65.6285 105.56C68.0157 105.56 69.9321 106.279 71.3777 107.716C72.8233 109.154 73.6987 111.083 74.0037 113.502ZM65.6683 110.101C64.1564 110.101 63.1617 110.834 62.6842 112.299C62.5914 112.631 62.5118 113.032 62.4455 113.502C62.4455 113.627 62.5052 113.689 62.6246 113.689H68.8115C68.9574 113.689 69.0038 113.627 68.9507 113.502C68.8314 112.783 68.7717 112.438 68.7717 112.465C68.5595 111.719 68.1881 111.138 67.6576 110.723C67.1139 110.309 66.4508 110.101 65.6683 110.101ZM84.428 105.58C85.9797 105.58 87.3656 105.864 88.5857 106.431C89.8059 106.984 90.7541 107.751 91.4305 108.733C92.1069 109.7 92.4451 110.779 92.4451 111.968V124.618C92.4451 124.742 92.4053 124.853 92.3257 124.949C92.2462 125.032 92.1467 125.074 92.0273 125.074H87.8298C87.7104 125.074 87.6109 125.032 87.5314 124.949C87.4385 124.853 87.3921 124.742 87.3921 124.618V123.394C87.3921 123.325 87.3722 123.277 87.3324 123.249C87.2794 123.221 87.233 123.242 87.1932 123.311C86.1852 124.68 84.5738 125.364 82.359 125.364C80.489 125.364 78.9837 124.894 77.8432 123.954C76.6893 123.014 76.1124 121.618 76.1124 119.765C76.1124 117.857 76.7623 116.371 78.062 115.306C79.3485 114.256 81.1853 113.73 83.5725 113.73H87.2131C87.3324 113.73 87.3921 113.668 87.3921 113.544V112.714C87.3921 111.898 87.1534 111.256 86.6759 110.786C86.1985 110.329 85.4823 110.101 84.5274 110.101C83.798 110.101 83.1879 110.239 82.6972 110.516C82.2065 110.792 81.8882 111.18 81.7423 111.677C81.676 111.954 81.5235 112.078 81.2848 112.051L76.948 111.449C76.6562 111.394 76.5236 111.283 76.5501 111.117C76.6429 110.067 77.0408 109.12 77.7437 108.276C78.4466 107.433 79.3816 106.776 80.5487 106.306C81.7025 105.822 82.9956 105.58 84.428 105.58ZM83.7118 121.445C84.733 121.445 85.6017 121.161 86.3179 120.594C87.034 120.028 87.3921 119.295 87.3921 118.396V117.048C87.3921 116.924 87.3324 116.862 87.2131 116.862H84.6468C83.5725 116.862 82.7304 117.076 82.1203 117.505C81.5102 117.919 81.2052 118.514 81.2052 119.288C81.2052 119.965 81.4307 120.491 81.8816 120.864C82.3325 121.251 82.9426 121.445 83.7118 121.445ZM107.425 99.4006C107.425 99.2761 107.465 99.1655 107.544 99.0688C107.624 98.9858 107.723 98.9443 107.843 98.9443H112.04C112.16 98.9443 112.259 98.9858 112.339 99.0688C112.418 99.1655 112.458 99.2761 112.458 99.4006V124.618C112.458 124.742 112.418 124.853 112.339 124.949C112.259 125.032 112.16 125.074 112.04 125.074H107.843C107.723 125.074 107.624 125.032 107.544 124.949C107.465 124.853 107.425 124.742 107.425 124.618V123.394C107.425 123.325 107.398 123.283 107.345 123.27C107.292 123.256 107.246 123.27 107.206 123.311C106.198 124.68 104.826 125.364 103.088 125.364C101.417 125.364 99.9781 124.88 98.7713 123.913C97.5644 122.945 96.6957 121.618 96.1652 119.931C95.7673 118.631 95.5684 117.124 95.5684 115.41C95.5684 113.64 95.7806 112.099 96.205 110.786C96.762 109.182 97.6307 107.917 98.811 106.991C99.9914 106.05 101.45 105.58 103.188 105.58C104.912 105.58 106.251 106.203 107.206 107.447C107.246 107.53 107.292 107.557 107.345 107.53C107.398 107.502 107.425 107.454 107.425 107.385V99.4006ZM106.669 119.247C107.146 118.334 107.385 117.076 107.385 115.472C107.385 113.813 107.12 112.507 106.589 111.553C106.046 110.585 105.25 110.101 104.202 110.101C103.075 110.101 102.226 110.585 101.656 111.553C101.059 112.534 100.761 113.855 100.761 115.514C100.761 117.007 101.013 118.251 101.517 119.247C102.113 120.325 102.995 120.864 104.162 120.864C105.237 120.864 106.072 120.325 106.669 119.247ZM132.551 113.502C132.697 114.442 132.743 115.5 132.69 116.675C132.677 116.979 132.524 117.131 132.232 117.131H121.171C121.026 117.131 120.979 117.194 121.032 117.318C121.099 117.816 121.225 118.313 121.41 118.811C122.034 120.194 123.3 120.885 125.21 120.885C126.735 120.871 127.942 120.228 128.831 118.956C128.923 118.804 129.029 118.728 129.149 118.728C129.228 118.728 129.315 118.776 129.407 118.873L131.974 121.528C132.093 121.652 132.153 121.763 132.153 121.86C132.153 121.915 132.106 122.018 132.013 122.171C131.231 123.18 130.216 123.968 128.97 124.535C127.736 125.088 126.377 125.364 124.892 125.364C122.836 125.364 121.099 124.88 119.679 123.913C118.26 122.945 117.239 121.59 116.616 119.848C116.112 118.604 115.86 116.972 115.86 114.954C115.86 113.585 116.039 112.382 116.397 111.345C116.954 109.576 117.916 108.166 119.282 107.115C120.661 106.078 122.292 105.56 124.175 105.56C126.563 105.56 128.479 106.279 129.925 107.716C131.37 109.154 132.246 111.083 132.551 113.502ZM124.215 110.101C122.703 110.101 121.709 110.834 121.231 112.299C121.138 112.631 121.059 113.032 120.992 113.502C120.992 113.627 121.052 113.689 121.171 113.689H127.358C127.504 113.689 127.551 113.627 127.498 113.502C127.378 112.783 127.319 112.438 127.319 112.465C127.106 111.719 126.735 111.138 126.205 110.723C125.661 110.309 124.998 110.101 124.215 110.101ZM144.984 105.622C145.846 105.622 146.523 105.795 147.013 106.14C147.212 106.251 147.285 106.438 147.232 106.7L146.476 110.972C146.463 111.263 146.297 111.345 145.979 111.221C145.621 111.097 145.203 111.034 144.726 111.034C144.54 111.034 144.281 111.062 143.95 111.117C143.088 111.186 142.358 111.511 141.761 112.092C141.165 112.687 140.866 113.468 140.866 114.435V124.618C140.866 124.742 140.826 124.853 140.747 124.949C140.654 125.032 140.548 125.074 140.428 125.074H136.251C136.131 125.074 136.025 125.032 135.933 124.949C135.853 124.853 135.813 124.742 135.813 124.618V106.327C135.813 106.203 135.853 106.099 135.933 106.016C136.025 105.933 136.131 105.891 136.251 105.891H140.428C140.548 105.891 140.654 105.933 140.747 106.016C140.826 106.099 140.866 106.203 140.866 106.327V107.758C140.866 107.827 140.886 107.875 140.926 107.903C140.979 107.931 141.019 107.917 141.045 107.862C142.027 106.368 143.34 105.622 144.984 105.622Z" fill="black"/>
<path d="M80.4898 144.318C80.4898 144.387 80.4632 144.443 80.4102 144.484C80.3704 144.539 80.3173 144.567 80.251 144.567H73.4872C73.4209 144.567 73.3877 144.601 73.3877 144.671V148.549C73.3877 148.618 73.4209 148.652 73.4872 148.652H78.0428C78.1092 148.652 78.1688 148.673 78.2219 148.714C78.2617 148.77 78.2816 148.832 78.2816 148.901V150.477C78.2816 150.546 78.2617 150.609 78.2219 150.664C78.1688 150.705 78.1092 150.726 78.0428 150.726H73.4872C73.4209 150.726 73.3877 150.761 73.3877 150.83V156.761C73.3877 156.83 73.3612 156.885 73.3082 156.927C73.2684 156.982 73.2153 157.01 73.149 157.01H71.3188C71.2525 157.01 71.1994 156.982 71.1597 156.927C71.1066 156.885 71.0801 156.83 71.0801 156.761V142.742C71.0801 142.673 71.1066 142.618 71.1597 142.576C71.1994 142.521 71.2525 142.493 71.3188 142.493H80.251C80.3173 142.493 80.3704 142.521 80.4102 142.576C80.4632 142.618 80.4898 142.673 80.4898 142.742V144.318ZM89.5612 157.01C89.4286 157.01 89.3424 156.94 89.3026 156.802L88.6461 154.583C88.6196 154.528 88.5865 154.5 88.5467 154.5H83.2948C83.255 154.5 83.2218 154.528 83.1953 154.583L82.5388 156.802C82.499 156.94 82.4128 157.01 82.2802 157.01H80.2908C80.2113 157.01 80.1516 156.982 80.1118 156.927C80.072 156.885 80.0654 156.816 80.0919 156.719L84.4088 142.701C84.4486 142.562 84.5348 142.493 84.6674 142.493H87.1541C87.2867 142.493 87.3729 142.562 87.4127 142.701L91.7495 156.719C91.7628 156.747 91.7694 156.781 91.7694 156.823C91.7694 156.947 91.6965 157.01 91.5506 157.01H89.5612ZM83.812 152.489C83.7987 152.572 83.8253 152.613 83.8916 152.613H87.93C88.0095 152.613 88.0361 152.572 88.0096 152.489L85.9605 145.542C85.9472 145.486 85.9273 145.459 85.9008 145.459C85.8743 145.459 85.8544 145.486 85.8411 145.542L83.812 152.489ZM94.0572 157.01C93.9909 157.01 93.9378 156.982 93.8981 156.927C93.845 156.885 93.8185 156.83 93.8185 156.761V142.742C93.8185 142.673 93.845 142.618 93.8981 142.576C93.9378 142.521 93.9909 142.493 94.0572 142.493H95.8874C95.9537 142.493 96.0134 142.521 96.0665 142.576C96.1063 142.618 96.1261 142.673 96.1261 142.742V154.832C96.1261 154.901 96.1593 154.936 96.2256 154.936H102.89C102.956 154.936 103.009 154.963 103.049 155.019C103.102 155.06 103.129 155.116 103.129 155.185V156.761C103.129 156.83 103.102 156.885 103.049 156.927C103.009 156.982 102.956 157.01 102.89 157.01H94.0572ZM105.416 157.01C105.35 157.01 105.297 156.982 105.257 156.927C105.204 156.885 105.178 156.83 105.178 156.761V142.742C105.178 142.673 105.204 142.618 105.257 142.576C105.297 142.521 105.35 142.493 105.416 142.493H107.247C107.313 142.493 107.373 142.521 107.426 142.576C107.466 142.618 107.485 142.673 107.485 142.742V154.832C107.485 154.901 107.519 154.936 107.585 154.936H114.249C114.316 154.936 114.375 154.963 114.428 155.019C114.468 155.06 114.488 155.116 114.488 155.185V156.761C114.488 156.83 114.468 156.885 114.428 156.927C114.375 156.982 114.316 157.01 114.249 157.01H105.416Z" fill="white"/>
<path d="M67.6978 194.462C67.658 194.503 67.6447 194.545 67.658 194.586C67.6845 194.628 67.7243 194.648 67.7774 194.648H75.5955C75.6884 194.648 75.768 194.683 75.8343 194.752C75.9138 194.821 75.9536 194.904 75.9536 195.001V197.925C75.9536 198.022 75.9138 198.105 75.8343 198.174C75.768 198.243 75.6884 198.277 75.5955 198.277H62.6249C62.5188 198.277 62.4326 198.243 62.3663 198.174C62.3 198.105 62.2668 198.022 62.2668 197.925V195.146C62.2668 194.966 62.3265 194.814 62.4459 194.69C63.3875 193.736 64.349 192.692 65.3304 191.558C66.3119 190.425 66.9286 189.72 67.1805 189.443C67.711 188.779 68.2548 188.144 68.8118 187.535C70.5625 185.517 71.4378 184.017 71.4378 183.035C71.4378 182.33 71.1991 181.749 70.7216 181.293C70.2442 180.851 69.6208 180.63 68.8516 180.63C68.0824 180.63 67.4591 180.851 66.9816 181.293C66.4909 181.749 66.2455 182.351 66.2455 183.097V183.844C66.2455 183.941 66.2124 184.024 66.1461 184.093C66.0798 184.162 66.0002 184.196 65.9074 184.196H62.5055C62.4127 184.196 62.3331 184.162 62.2668 184.093C62.1872 184.024 62.1475 183.941 62.1475 183.844V182.434C62.2138 181.355 62.5453 180.395 63.1421 179.551C63.739 178.722 64.5281 178.086 65.5095 177.643C66.5042 177.201 67.6182 176.98 68.8516 176.98C70.2176 176.98 71.4046 177.249 72.4126 177.789C73.4205 178.314 74.1964 179.026 74.7401 179.924C75.2971 180.837 75.5757 181.839 75.5757 182.931C75.5757 183.775 75.3701 184.639 74.959 185.524C74.5611 186.408 73.9576 187.362 73.1486 188.385C72.5518 189.16 71.9086 189.934 71.2189 190.708C70.5293 191.468 69.5015 192.568 68.1354 194.005L67.6978 194.462ZM85.3235 198.609C83.2015 198.609 81.5305 197.994 80.3103 196.764C79.0769 195.533 78.4602 193.853 78.4602 191.724V183.782C78.4602 181.694 79.0769 180.042 80.3103 178.825C81.5305 177.595 83.2015 176.98 85.3235 176.98C87.4322 176.98 89.1099 177.595 90.3566 178.825C91.59 180.042 92.2067 181.694 92.2067 183.782V191.724C92.2067 193.853 91.59 195.533 90.3566 196.764C89.1099 197.994 87.4322 198.609 85.3235 198.609ZM85.3235 194.98C86.1856 194.98 86.8686 194.704 87.3726 194.151C87.8898 193.598 88.1484 192.858 88.1484 191.932V183.657C88.1484 182.745 87.8898 182.012 87.3726 181.459C86.8686 180.906 86.1856 180.63 85.3235 180.63C84.4747 180.63 83.7983 180.906 83.2944 181.459C82.7771 182.012 82.5185 182.745 82.5185 183.657V191.932C82.5185 192.858 82.7771 193.598 83.2944 194.151C83.7983 194.704 84.4747 194.98 85.3235 194.98ZM100.284 194.462C100.244 194.503 100.237 194.545 100.264 194.586C100.277 194.628 100.317 194.648 100.383 194.648H108.201C108.294 194.648 108.374 194.683 108.44 194.752C108.506 194.821 108.539 194.904 108.539 195.001V197.925C108.539 198.022 108.506 198.105 108.44 198.174C108.374 198.243 108.294 198.277 108.201 198.277H95.2107C95.1178 198.277 95.0382 198.243 94.9719 198.174C94.9056 198.105 94.8725 198.022 94.8725 197.925V195.146C94.8725 194.966 94.9255 194.814 95.0316 194.69C95.9865 193.736 96.948 192.692 97.9162 191.558C98.8976 190.425 99.5143 189.72 99.7663 189.443C100.31 188.779 100.86 188.144 101.417 187.535C103.168 185.517 104.043 184.017 104.043 183.035C104.043 182.33 103.805 181.749 103.327 181.293C102.837 180.851 102.207 180.63 101.437 180.63C100.668 180.63 100.045 180.851 99.5674 181.293C99.0899 181.749 98.8512 182.351 98.8512 183.097V183.844C98.8512 183.941 98.818 184.024 98.7517 184.093C98.6854 184.162 98.5992 184.196 98.4931 184.196H95.0913C94.9985 184.196 94.9189 184.162 94.8526 184.093C94.7863 184.024 94.7531 183.941 94.7531 183.844V182.434C94.8062 181.355 95.1311 180.395 95.7279 179.551C96.3247 178.722 97.1204 178.086 98.1151 177.643C99.1098 177.201 100.217 176.98 101.437 176.98C102.803 176.98 103.99 177.249 104.998 177.789C106.02 178.314 106.802 179.026 107.346 179.924C107.89 180.837 108.161 181.839 108.161 182.931C108.161 183.775 107.962 184.639 107.565 185.524C107.153 186.408 106.543 187.362 105.734 188.385C105.138 189.16 104.494 189.934 103.805 190.708C103.115 191.468 102.087 192.568 100.721 194.005L100.284 194.462ZM123.082 188.24C123.466 189.153 123.659 190.21 123.659 191.413C123.659 192.505 123.486 193.508 123.141 194.42C122.677 195.706 121.901 196.708 120.814 197.427C119.726 198.16 118.44 198.526 116.954 198.526C115.496 198.526 114.216 198.146 113.115 197.386C112.014 196.611 111.218 195.575 110.728 194.275C110.462 193.501 110.31 192.657 110.27 191.745C110.27 191.51 110.383 191.392 110.608 191.392H114.03C114.255 191.392 114.368 191.51 114.368 191.745C114.448 192.409 114.554 192.899 114.687 193.217C114.859 193.743 115.144 194.151 115.542 194.441C115.927 194.731 116.391 194.876 116.934 194.876C118.009 194.876 118.751 194.386 119.163 193.404C119.428 192.81 119.56 192.111 119.56 191.309C119.56 190.356 119.415 189.581 119.123 188.987C118.685 188.047 117.949 187.577 116.915 187.577C116.702 187.577 116.477 187.639 116.238 187.763C116.013 187.902 115.734 188.088 115.403 188.323C115.323 188.379 115.25 188.406 115.184 188.406C115.064 188.406 114.978 188.351 114.925 188.24L113.214 185.731C113.175 185.676 113.155 185.607 113.155 185.524C113.155 185.399 113.194 185.302 113.274 185.233L117.85 181.044C117.889 181.003 117.909 180.961 117.909 180.92C117.896 180.878 117.863 180.858 117.81 180.858H111.026C110.933 180.858 110.847 180.823 110.767 180.754C110.701 180.685 110.668 180.602 110.668 180.505V177.581C110.668 177.484 110.701 177.401 110.767 177.332C110.847 177.263 110.933 177.229 111.026 177.229H123.042C123.148 177.229 123.234 177.263 123.3 177.332C123.367 177.401 123.4 177.484 123.4 177.581V180.899C123.4 181.051 123.334 181.203 123.201 181.355L119.421 184.964C119.381 185.005 119.368 185.04 119.381 185.067C119.381 185.109 119.421 185.13 119.501 185.13C121.172 185.475 122.365 186.512 123.082 188.24Z" fill="black"/>
</svg>
