<svg width="540" height="800" viewBox="0 0 540 800" fill="none" xmlns="http://www.w3.org/2000/svg">
<mask id="mask0_93_1581" style="mask-type:alpha" maskUnits="userSpaceOnUse" x="0" y="0" width="539" height="800">
<rect width="539" height="800" fill="#D9D9D9"/>
</mask>
<g mask="url(#mask0_93_1581)">
<path d="M53.3801 508.145L96.1803 434.033C105.101 418.586 124.928 413.249 140.327 422.137C155.728 431.027 161.057 450.792 152.096 466.308L109.296 540.42C100.376 555.867 80.5483 561.204 65.1492 552.316C49.7481 543.426 44.4196 523.661 53.3801 508.145Z" stroke="#FFCA36" stroke-width="3"/>
<path d="M364.483 325.726C355.561 341.175 335.804 346.55 320.336 337.622C304.935 328.732 299.606 308.968 308.567 293.452L423.153 95.0348C432.074 79.5879 451.901 74.251 467.3 83.1393C482.701 92.0288 488.03 111.794 479.069 127.31L364.483 325.726Z" stroke="#2E69FF" stroke-width="3"/>
<path d="M308.817 655.261C299.895 670.709 280.138 676.084 264.67 667.156C249.269 658.266 243.94 638.502 252.901 622.986L367.487 424.569C376.407 409.122 396.235 403.785 411.634 412.673C427.035 421.563 432.364 441.328 423.403 456.844L308.817 655.261Z" stroke="#FFCA36" stroke-width="3"/>
</g>
</svg>
