<svg width="540" height="560" viewBox="0 0 540 560" fill="none" xmlns="http://www.w3.org/2000/svg">
<mask id="mask0_93_2726" style="mask-type:alpha" maskUnits="userSpaceOnUse" x="0" y="0" width="539" height="560">
<rect width="539" height="560" fill="#D9D9D9"/>
</mask>
<g mask="url(#mask0_93_2726)">
<path d="M53.3801 500.145L96.1803 426.033C105.101 410.586 124.928 405.249 140.327 414.137C155.728 423.027 161.057 442.792 152.096 458.308L109.296 532.42C100.376 547.867 80.5483 553.204 65.1492 544.316C49.7481 535.426 44.4196 515.661 53.3801 500.145Z" stroke="#2E69FF" stroke-width="3"/>
<path d="M115.181 153.706L157.981 79.5934C166.902 64.1465 186.729 58.8095 202.128 67.6979C217.529 76.5874 222.858 96.3521 213.897 111.868L171.097 185.981C162.176 201.428 142.349 206.765 126.95 197.876C111.549 188.987 106.22 169.222 115.181 153.706Z" stroke="#FFCA36" stroke-width="3"/>
<path d="M308.817 647.261C299.895 662.709 280.138 668.084 264.67 659.156C249.269 650.266 243.94 630.502 252.901 614.986L367.487 416.569C376.407 401.122 396.235 395.785 411.634 404.673C427.035 413.563 432.364 433.328 423.403 448.844L308.817 647.261Z" stroke="#FFCA36" stroke-width="3"/>
</g>
</svg>
