<svg width="540" height="800" viewBox="0 0 540 800" fill="none" xmlns="http://www.w3.org/2000/svg">
<mask id="mask0_93_1580" style="mask-type:alpha" maskUnits="userSpaceOnUse" x="0" y="0" width="539" height="800">
<rect width="539" height="800" fill="#D9D9D9"/>
</mask>
<g mask="url(#mask0_93_1580)">
<path d="M156.682 86.8435L113.882 160.956C104.508 177.188 110.08 197.871 126.2 207.175C142.32 216.48 163.063 210.892 172.396 194.731L215.196 120.618C224.57 104.386 218.998 83.7033 202.878 74.3989C186.758 65.0946 166.015 70.6826 156.682 86.8435Z" fill="#2E69FF"/>
<path d="M-39.0899 493.557C-22.8991 502.903 -2.22659 497.274 7.10639 481.113L121.692 282.696C131.066 266.464 125.494 245.781 109.374 236.477C93.2545 227.173 72.511 232.761 63.178 248.922L-51.408 447.338C-60.7821 463.571 -55.2098 484.253 -39.0899 493.557Z" fill="#79F7C6"/>
<path d="M221.002 276.323C237.193 285.668 257.936 280.08 267.269 263.919L381.855 65.5027C391.229 49.2705 385.657 28.588 369.466 19.2427C353.275 9.89734 332.603 15.5263 323.27 31.6873L208.684 230.104C199.31 246.336 204.882 267.019 221.002 276.323Z" fill="#FFCA36"/>
<path d="M253.42 385.783L210.62 459.896C201.246 476.128 206.818 496.81 222.938 506.115C239.058 515.419 259.801 509.831 269.134 493.67L311.935 419.557C321.309 403.325 315.736 382.643 299.617 373.338C283.497 364.034 262.753 369.622 253.42 385.783Z" fill="#79F7C6"/>
<path d="M384.733 624.847L341.933 698.96C332.558 715.192 338.131 735.875 354.251 745.179C370.37 754.483 391.114 748.895 400.447 732.734L443.247 658.622C452.621 642.39 447.049 621.707 430.929 612.403C414.809 603.098 394.066 608.686 384.733 624.847Z" fill="#2E69FF"/>
<path d="M459.764 261.782L416.964 335.895C407.59 352.127 413.162 372.809 429.282 382.114C445.402 391.418 466.145 385.83 475.478 369.669L518.278 295.556C527.652 279.324 522.08 258.642 505.96 249.337C489.84 240.033 469.097 245.621 459.764 261.782Z" fill="#79F7C6"/>
</g>
</svg>
