<svg width="540" height="560" viewBox="0 0 540 560" fill="none" xmlns="http://www.w3.org/2000/svg">
<mask id="mask0_93_2703" style="mask-type:alpha" maskUnits="userSpaceOnUse" x="0" y="0" width="539" height="560">
<rect width="539" height="560" fill="#D9D9D9"/>
</mask>
<g mask="url(#mask0_93_2703)">
<path d="M-39.0899 485.557C-22.8991 494.903 -2.22659 489.274 7.10639 473.113L121.692 274.696C131.066 258.464 125.494 237.781 109.374 228.477C93.2545 219.173 72.511 224.761 63.178 240.922L-51.408 439.338C-60.7821 455.571 -55.2098 476.253 -39.0899 485.557Z" fill="#79F7C6"/>
<path d="M221.002 268.323C237.193 277.668 257.936 272.08 267.269 255.919L381.855 57.5027C391.229 41.2705 385.657 20.588 369.466 11.2427C353.275 1.89734 332.603 7.52629 323.27 23.6873L208.684 222.104C199.31 238.336 204.882 259.019 221.002 268.323Z" fill="#2E69FF"/>
<path d="M253.42 377.783L210.62 451.896C201.246 468.128 206.818 488.81 222.938 498.115C239.058 507.419 259.801 501.831 269.134 485.67L311.935 411.557C321.309 395.325 315.736 374.643 299.617 365.338C283.497 356.034 262.753 361.622 253.42 377.783Z" fill="#79F7C6"/>
<path d="M319.586 330.921C335.777 340.266 356.449 334.637 365.782 318.476L480.368 120.059C489.742 103.827 484.17 83.1447 468.05 73.8404C451.93 64.536 431.187 70.124 421.854 86.2849L307.268 284.702C297.894 300.934 303.466 321.616 319.586 330.921Z" fill="#79F7C6"/>
<path d="M459.764 253.782L416.964 327.895C407.59 344.127 413.162 364.809 429.282 374.114C445.402 383.418 466.145 377.83 475.478 361.669L518.278 287.556C527.652 271.324 522.08 250.642 505.96 241.337C489.84 232.033 469.097 237.621 459.764 253.782Z" fill="#FFCA36"/>
</g>
</svg>
