<svg width="334" height="615" viewBox="0 0 334 615" fill="none" xmlns="http://www.w3.org/2000/svg">
<mask id="mask0_63_558" style="mask-type:alpha" maskUnits="userSpaceOnUse" x="0" y="0" width="334" height="615">
<rect width="334" height="615" fill="#D9D9D9"/>
</mask>
<g mask="url(#mask0_63_558)">
<path d="M19.9101 430.556C36.1009 439.902 56.7734 434.273 66.1064 418.112L180.692 219.695C190.066 203.463 184.494 182.78 168.374 173.476C152.255 164.172 131.511 169.76 122.178 185.921L7.59203 384.337C-1.78206 400.57 3.79021 421.252 19.9101 430.556Z" fill="#FFCA36"/>
<path d="M280.002 213.323C296.193 222.668 316.936 217.08 326.269 200.919L440.855 2.50268C450.229 -13.7295 444.657 -34.412 428.466 -43.7573C412.275 -53.1027 391.603 -47.4737 382.27 -31.3127L267.684 167.104C258.31 183.336 263.882 204.019 280.002 213.323Z" fill="#FFCA36"/>
<path d="M312.419 322.782L269.619 396.895C260.245 413.127 265.817 433.809 281.937 443.114C298.057 452.418 318.8 446.83 328.133 430.669L370.934 356.556C380.308 340.324 374.735 319.642 358.616 310.337C342.496 301.033 321.752 306.621 312.419 322.782Z" fill="#79F7C6"/>
</g>
</svg>
