<svg width="334" height="615" viewBox="0 0 334 615" fill="none" xmlns="http://www.w3.org/2000/svg">
<mask id="mask0_64_3686" style="mask-type:alpha" maskUnits="userSpaceOnUse" x="0" y="0" width="334" height="615">
<rect width="334" height="615" fill="#D9D9D9"/>
</mask>
<g mask="url(#mask0_64_3686)">
<path d="M112.38 445.145L155.18 371.033C164.1 355.586 183.928 350.249 199.327 359.137C214.728 368.027 220.056 387.792 211.096 403.308L168.296 477.42C159.375 492.867 139.548 498.204 124.149 489.316C108.748 480.426 103.419 460.661 112.38 445.145Z" stroke="#2E69FF" stroke-width="3"/>
<path d="M174.181 98.706L216.982 24.5934C225.902 9.14653 245.73 3.80954 261.129 12.6979C276.53 21.5874 281.858 41.3521 272.898 56.8681L230.097 130.981C221.177 146.428 201.35 151.765 185.95 142.876C170.549 133.987 165.221 114.222 174.181 98.706Z" stroke="#79F7C6" stroke-width="3"/>
<path d="M367.817 592.26C358.895 607.709 339.138 613.084 323.67 604.155C308.269 595.266 302.94 575.501 311.901 559.985L426.487 361.568C435.407 346.122 455.235 340.785 470.634 349.673C486.035 358.562 491.364 378.327 482.403 393.843L367.817 592.26Z" stroke="#FFCA36" stroke-width="3"/>
</g>
</svg>
