<svg width="14" height="12" viewBox="0 0 14 12" fill="#FF3B84" xmlns="http://www.w3.org/2000/svg">
<path d="M8.73646 0.268163C8.38467 -0.0894499 7.8143 -0.0893278 7.46264 0.268163C7.11073 0.626019 7.11074 1.20592 7.46276 1.56377L10.9241 5.08359L0.900657 5.08457C0.403187 5.08469 0 5.4947 0 6.00083C0.000120163 6.50672 0.403306 6.9166 0.900776 6.9166L10.9246 6.91563L7.4624 10.4362C7.11062 10.7939 7.11062 11.3741 7.4624 11.7317C7.63835 11.9105 7.86883 12 8.09943 12C8.32991 12 8.56039 11.9105 8.73634 11.7318L13.7361 6.64754C13.9051 6.47582 14 6.2429 14 5.99985C13.9999 5.7568 13.905 5.52401 13.736 5.35192L8.73646 0.268163Z" fill="#FF3B84"/>
</svg>
