<svg xmlns="http://www.w3.org/2000/svg" width="20" height="17" viewBox="0 0 20 17" fill="none">
<path d="M13.7365 2.76816C13.3847 2.41055 12.8143 2.41067 12.4626 2.76816C12.1107 3.12602 12.1107 3.70592 12.4628 4.06378L15.9241 7.58359L1.90066 7.58457C1.40319 7.58469 1 7.9947 1 8.50083C1.00012 9.00672 1.40331 9.4166 1.90078 9.4166L15.9246 9.41563L12.4624 12.9362C12.1106 13.2939 12.1106 13.8741 12.4624 14.2317C12.6384 14.4105 12.8688 14.5 13.0994 14.5C13.3299 14.5 13.5604 14.4105 13.7363 14.2318L18.7361 9.14754C18.9051 8.97582 19 8.7429 19 8.49985C18.9999 8.2568 18.905 8.02401 18.736 7.85192L13.7365 2.76816Z" fill="#FF3B84"/>
</svg>