<svg version="1.2" xmlns="http://www.w3.org/2000/svg" viewBox="0 0 221 232" width="221" height="232"><defs><clipPath clipPathUnits="userSpaceOnUse" id="cp1"><path d="m-44-39h309.07v309.07h-309.07z"/></clipPath><clipPath clipPathUnits="userSpaceOnUse" id="cp2"><path d="m-44-39h309.07v309.07h-309.07z"/></clipPath><clipPath clipPathUnits="userSpaceOnUse" id="cp3"><path d="m-44-39h309.07v309.07h-309.07z"/></clipPath><clipPath clipPathUnits="userSpaceOnUse" id="cp4"><path d="m-44-39h309.07v309.07h-309.07z"/></clipPath><clipPath clipPathUnits="userSpaceOnUse" id="cp5"><path d="m-44-39h309.07v309.07h-309.07z"/></clipPath><clipPath clipPathUnits="userSpaceOnUse" id="cp6"><path d="m-44-39h309.07v309.07h-309.07z"/></clipPath><clipPath clipPathUnits="userSpaceOnUse" id="cp7"><path d="m-44-39h309.07v309.07h-309.07z"/></clipPath><clipPath clipPathUnits="userSpaceOnUse" id="cp8"><path d="m-44-39h309.07v309.07h-309.07z"/></clipPath></defs><style>.a{fill:#316cff}.b{fill:#00c8b7}.c{fill:#ebebeb}.d{fill:#071871}</style><g clip-path="url(#cp1)"><g clip-path="url(#cp2)"><g clip-path="url(#cp3)"><path class="a" d="m131.7 18.7c-3.4-8.4-11.6-14.2-21.2-14.2-9.5 0-17.7 5.8-21.1 14.2q2.6-0.6 5.2-1 2.6-0.4 5.3-0.6 2.6-0.3 5.3-0.4 2.7-0.2 5.3-0.2c7.3 0 14.4 0.8 21.2 2.2z"/></g><g clip-path="url(#cp4)"><path fill-rule="evenodd" class="b" d="m215.6 121.6c0 58-47.1 105-105.1 105-58 0-105-47-105-105 0-50.8 36-93.2 83.9-102.9 6.8-1.4 13.9-2.2 21.1-2.2q2.7 0 5.4 0.2 2.6 0.1 5.3 0.4 2.6 0.2 5.3 0.6 2.6 0.4 5.2 1c47.9 9.7 83.9 52.1 83.9 102.9zm-10.4 0l-22.4-5c-2.5-36.1-31.3-64.8-67.3-67.3l-4.5-20.2-0.5-2.2-0.5 2.2-4.4 20.2c-36.1 2.5-64.9 31.2-67.3 67.3l-22.4 5 22.4 4.9c2.4 36.1 31.2 64.8 67.3 67.3l4.9 22.4 5-22.4c36-2.5 64.8-31.2 67.3-67.3z"/></g><g clip-path="url(#cp5)"><path class="c" d="m70.8 81.9l24.1 15.3 10.7-47.9c-36.1 2.5-64.9 31.2-67.3 67.3l47.9-10.7zm79.3 79.4l-24-15.3-10.7 47.9c36.1-2.5 64.8-31.3 67.3-67.3l-47.9 10.6zm0-79.4l-15.3 24.1 47.9 10.6c-2.5-36-31.3-64.8-67.3-67.2l10.7 47.9zm-79.4 79.3l15.3-24-47.9-10.7c2.5 36.1 31.3 64.8 67.3 67.3l-10.7-47.9z"/></g><g clip-path="url(#cp6)"><path class="a" d="m110.5 107.1l15.7-9.9-10.7-47.9-4.5-20.2-0.5-2.2-0.5 2.2-4.4 20.2-10.7 47.9zm72.3 9.4l-47.9-10.6-10 15.6 10 15.6 47.9-10.6 22.4-5zm-86.7 5l-9.9-15.6-47.9 10.6-22.4 5 22.4 5 47.9 10.6zm14.4 14.4l-15.6 10 10.6 47.9 5 22.4 5-22.4 10.6-47.9z"/></g><g clip-path="url(#cp7)"><path class="d" d="m86.2 137.2l-15.4 24.1 24.1-15.4-1.6-7.1zm40-40l1.6 7.1 7.2 1.6 15.3-24zm0 48.7l24.1 15.3-15.4-24.1-7.1 1.6zm-31.3-48.7l-24-15.3 15.3 24 7.1-1.6z"/></g><g clip-path="url(#cp8)"><path class="d" d="m126.2 97.2l-15.7 9.9-15.6-9.9-1.6 7.1-7.1 1.6 9.9 15.7-9.9 15.6 7.1 1.6 1.6 7.1 15.6-9.9 15.7 9.9 1.5-7.1 7.2-1.6-9.9-15.6 9.9-15.7-7.2-1.6z"/></g></g></g></svg>