<svg xmlns="http://www.w3.org/2000/svg" viewBox="0 0 192 192" style="enable-background:new 0 0 192 192" xml:space="preserve"><path style="fill:none" d="M0 0h192v192H0z"/><path style="fill:#1d269a" d="M180 42v48a6 6 0 0 1-3.675 5.55A6.364 6.364 0 0 1 174 96a6.227 6.227 0 0 1-4.275-1.725L150 74.475l-43.725 43.8a6.075 6.075 0 0 1-8.55 0L72 92.475l-49.725 49.8A6.227 6.227 0 0 1 18 144a6.378 6.378 0 0 1-4.275-1.725 6.075 6.075 0 0 1 0-8.55l54-54a6.075 6.075 0 0 1 8.55 0l25.725 25.8L141.525 66l-19.8-19.725a6.301 6.301 0 0 1-1.275-6.6A6.075 6.075 0 0 1 126 36h48a6 6 0 0 1 6 6z"/></svg>
