<svg xmlns="http://www.w3.org/2000/svg" viewBox="0 0 192 192" style="enable-background:new 0 0 192 192" xml:space="preserve"><path style="fill:none" d="M0 0h192v192H0z"/><path style="fill:#1d269a" d="M48 105a5.925 5.925 0 0 1-6 6H9a6.15 6.15 0 0 1-5.4-3.3 6.15 6.15 0 0 1 .6-6.3 50.848 50.848 0 0 1 20.55-16.275C12.529 73.938 11.69 54.961 22.878 42.74s30.164-13.06 42.385-1.872a30 30 0 0 1 9.212 16.507 6.075 6.075 0 0 1-2.85 6.3 48.225 48.225 0 0 0-20.85 25.35A46.188 46.188 0 0 0 48 105zm139.8-3.6a50.848 50.848 0 0 0-20.55-16.275c12.221-11.187 13.06-30.164 1.872-42.385s-30.164-13.06-42.385-1.872a30 30 0 0 0-9.212 16.507 6.075 6.075 0 0 0 2.85 6.3 47.996 47.996 0 0 1 20.85 25.35A46.212 46.212 0 0 1 144 105a5.925 5.925 0 0 0 6 6h33a6 6 0 0 0 4.8-9.6zm-69.9 32.175c15.78-12.095 18.768-34.692 6.673-50.473S89.88 64.335 74.1 76.43s-18.768 34.692-6.673 50.473a36.007 36.007 0 0 0 6.673 6.673 54.072 54.072 0 0 0-26.7 25.8 5.85 5.85 0 0 0 .375 5.775 5.85 5.85 0 0 0 5.025 2.85h86.4a5.85 5.85 0 0 0 5.025-2.85 5.85 5.85 0 0 0 .375-5.775 54.07 54.07 0 0 0-26.7-25.801z"/></svg>
