<svg xmlns="http://www.w3.org/2000/svg" version="1.1" x="0" y="0" viewBox="0 0 1929 242" style="enable-background:new 0 0 1929 242" xml:space="preserve"><path fill="#fff" d="M188.6 187c-11.2-19.3-29.1-33.8-50.3-40.6 25.6-15.2 34.1-48.4 18.8-74-15.2-25.6-48.4-34.1-74-18.8S49 102 64.3 127.6c4.6 7.7 11.1 14.2 18.8 18.8-21.2 6.9-39.1 21.3-50.3 40.6-1.1 1.8-1.1 4.2 0 6 1 1.9 3 3 5.2 3h145.5c2.1 0 4.1-1.1 5.2-3 1-1.8 1-4.1-.1-6zM378.3 187c-11.2-19.3-29.1-33.8-50.3-40.6 25.6-15.2 34.1-48.4 18.8-74-15.2-25.6-48.4-34.1-74-18.8-25.6 15.2-34.1 48.4-18.8 74 4.6 7.7 11.1 14.2 18.8 18.8-21.2 6.9-39.1 21.4-50.3 40.6-1.1 1.8-1.1 4.2 0 6 1 1.9 3 3 5.2 3h145.5c2.1 0 4.1-1.1 5.2-3 1.1-1.8 1.1-4.1-.1-6zM568.1 187c-11.2-19.3-29.1-33.8-50.3-40.6 25.6-15.2 34.1-48.4 18.8-74-15.2-25.6-48.4-34.1-74-18.8s-34.1 48.4-18.8 74c4.6 7.7 11.1 14.2 18.8 18.8-21.2 6.9-39.1 21.4-50.3 40.6-1.1 1.8-1.1 4.2 0 6 1 1.9 3 3 5.2 3H563c2.1 0 4.1-1.1 5.2-3 1-1.8 1-4.1-.1-6zM757.8 187c-11.2-19.3-29.1-33.8-50.3-40.6 25.6-15.2 34.1-48.4 18.8-74-15.2-25.6-48.4-34.1-74-18.8-25.6 15.2-34.1 48.4-18.8 74 4.6 7.7 11.1 14.2 18.8 18.8-21.2 6.9-39.1 21.4-50.3 40.6-1.1 1.8-1.1 4.2 0 6 1 1.9 3 3 5.2 3h145.5c2.1 0 4.1-1.1 5.2-3 1.1-1.8 1.1-4.1-.1-6zM947.6 187c-11.2-19.3-29.1-33.8-50.3-40.6 25.6-15.2 34.1-48.4 18.8-74-15.2-25.6-48.4-34.1-74-18.8-25.6 15.2-34.1 48.4-18.8 74 4.6 7.7 11.1 14.2 18.8 18.8-21.2 6.9-39.1 21.4-50.3 40.6-1.1 1.8-1.1 4.2 0 6 1 1.9 3 3 5.2 3h145.5c2.1 0 4.1-1.1 5.2-3 1-1.8 1-4.1-.1-6zM1137.3 187c-11.2-19.3-29.1-33.8-50.3-40.6 25.6-15.2 34.1-48.4 18.8-74-15.2-25.6-48.4-34.1-74-18.8-25.6 15.2-34.1 48.4-18.8 74 4.6 7.7 11.1 14.2 18.8 18.8-21.2 6.9-39.1 21.4-50.3 40.6-1.1 1.8-1.1 4.2 0 6 1 1.9 3 3 5.2 3h145.5c2.1 0 4.1-1.1 5.2-3 1-1.8 1-4.1-.1-6zM1327.1 187c-11.2-19.3-29.1-33.8-50.3-40.6 25.6-15.2 34.1-48.4 18.8-74s-48.4-34.1-74-18.8-34.1 48.4-18.8 74c4.6 7.7 11.1 14.2 18.8 18.8-21.2 6.9-39.1 21.4-50.3 40.6-1.1 1.8-1.1 4.2 0 6 1 1.9 3 3 5.2 3H1322c2.1 0 4.1-1.1 5.2-3 1-1.8 1-4.1-.1-6zM1516.8 187c-11.2-19.3-29.1-33.8-50.3-40.6 25.6-15.2 34.1-48.4 18.8-74-15.2-25.6-48.4-34.1-74-18.8-25.6 15.2-34.1 48.4-18.8 74 4.6 7.7 11.1 14.2 18.8 18.8-21.2 6.9-39.1 21.4-50.3 40.6-1.1 1.8-1.1 4.2 0 6 1 1.9 3 3 5.2 3h145.5c2.1 0 4.1-1.1 5.2-3 1-1.8 1-4.1-.1-6zM1706.5 187c-11.2-19.3-29.1-33.8-50.3-40.6 25.6-15.2 34.1-48.4 18.8-74s-48.4-34.1-74-18.8c-25.6 15.2-34.1 48.4-18.8 74 4.6 7.7 11.1 14.2 18.8 18.8-21.2 6.9-39.1 21.4-50.3 40.6-1.1 1.8-1.1 4.2 0 6 1 1.9 3 3 5.2 3h145.5c2.1 0 4.1-1.1 5.2-3 1.1-1.8 1.1-4.1-.1-6zM1896.3 187c-11.2-19.3-29.1-33.8-50.3-40.6 25.6-15.2 34.1-48.4 18.8-74s-48.4-34.1-74-18.8-34.1 48.4-18.8 74c4.6 7.7 11.1 14.2 18.8 18.8-21.2 6.9-39.1 21.4-50.3 40.6-1.1 1.8-1.1 4.2 0 6 1 1.9 3 3 5.2 3h145.5c2.1 0 4.1-1.1 5.2-3 1-1.8 1-4.1-.1-6z"/></svg>