<svg xmlns="http://www.w3.org/2000/svg" xml:space="preserve" style="enable-background:new 0 0 100 100" viewBox="0 0 100 100"><path d="M77.979 82.5H10.493a4.642 4.642 0 0 1-4.642-4.642V17.5h67.486a4.642 4.642 0 0 1 4.642 4.642V82.5z" style="fill:#071871"/><path d="m85.269 56.799 6.88 6.881" style="fill:none;stroke:#00c9b8;stroke-width:4;stroke-linecap:round;stroke-miterlimit:10"/><path d="M78.307 59.377c6.045-.14 10.831-5.154 10.691-11.199-.14-6.045-5.154-10.831-11.199-10.691-6.045.14-10.831 5.154-10.691 11.199.148 6.041 5.157 10.823 11.199 10.691z" style="fill:none;stroke:#00c9b8;stroke-width:4;stroke-miterlimit:10"/><path d="M77.797 39.487a8.982 8.982 0 0 0-8.77 9.186c.118 4.831 4.03 8.67 8.818 8.759V39.489l-.048-.002z" style="fill:#0d6eff"/><path d="M14.008 62.969a1.518 1.518 0 0 0-.116 1.616c.272.512.803.833 1.382.837H43.32a1.58 1.58 0 0 0 1.383-.837 1.52 1.52 0 0 0-.117-1.616 18.613 18.613 0 0 0-8.823-6.798c5.376-3.571 6.839-10.824 3.268-16.2-3.572-5.376-10.825-6.839-16.201-3.268-5.375 3.572-6.839 10.825-3.267 16.201a11.682 11.682 0 0 0 3.267 3.267 18.606 18.606 0 0 0-8.822 6.798z" style="fill:#fff"/><path d="M51.636 56.172c5.378-3.548 6.863-10.784 3.314-16.163a11.663 11.663 0 0 0-9.78-5.241c-1.072.006-2.14.149-3.174.428a1.6 1.6 0 0 0-1.052 1.013 1.56 1.56 0 0 0 .234 1.422 14.764 14.764 0 0 1 .74 16.536 1.576 1.576 0 0 0 .41 2.064c.584.454 1.149.922 1.695 1.402l.097.097a21.94 21.94 0 0 1 4.966 6.798c.251.547.799.897 1.402.896h8.706a1.58 1.58 0 0 0 1.383-.837 1.56 1.56 0 0 0-.097-1.616 18.755 18.755 0 0 0-8.844-6.799z" style="fill:#fff"/></svg>
