<svg width="556" height="361" viewBox="0 0 556 361" fill="none" xmlns="http://www.w3.org/2000/svg">
<path d="M375.416 361H2.07578C0.929948 361 0 360.071 0 358.925C0 357.78 0.929948 356.851 2.07578 356.851H375.416C472.703 356.851 551.857 277.738 551.857 180.5C551.857 83.2624 472.703 4.14943 375.416 4.14943C278.128 4.14943 198.975 83.2624 198.975 180.5C198.975 181.645 198.045 182.575 196.899 182.575C195.753 182.575 194.823 181.645 194.823 180.5C194.823 132.284 213.605 86.9553 247.714 52.8637C281.823 18.772 327.175 0 375.407 0C423.64 0 469 18.772 503.109 52.8637C537.218 86.9553 556 132.284 556 180.5C556 228.716 537.218 274.045 503.109 308.136C469 342.228 423.648 361 375.407 361H375.416Z" fill="#FF3B84"/>
</svg>
