<svg width="506" height="361" viewBox="0 0 506 361" fill="none" xmlns="http://www.w3.org/2000/svg">
<path d="M325.416 361H2.07578C0.929948 361 0 360.071 0 358.925C0 357.78 0.929948 356.851 2.07578 356.851H325.416C422.703 356.851 501.857 277.738 501.857 180.5C501.857 83.2624 422.703 4.14943 325.416 4.14943C228.128 4.14943 148.975 83.2624 148.975 180.5C148.975 181.645 148.045 182.575 146.899 182.575C145.753 182.575 144.823 181.645 144.823 180.5C144.823 132.284 163.605 86.9554 197.714 52.8637C231.823 18.772 277.175 0 325.407 0C373.64 0 419 18.772 453.109 52.8637C487.218 86.9554 506 132.284 506 180.5C506 228.716 487.218 274.045 453.109 308.136C419 342.228 373.648 361 325.407 361H325.416Z" fill="#FF3B84"/>
</svg>
