<svg version="1.2" xmlns="http://www.w3.org/2000/svg" viewBox="0 0 86 78" width="86" height="78"><style>.a{fill:none}.b{fill:#ebebeb}.c{fill:#071871}.d{fill:#00c8b7}.e{fill:#316cff}</style><path fill-rule="evenodd" className="a" d="m21.4 32.8l7.7 7.7v-1.3l-7.1-7.1zm18.2 17.8h0.9v-9q-0.1 0-0.2 0-0.1-0.1-0.2-0.1-0.1 0-0.3-0.1-0.1 0-0.2 0zm-5.7 0h1v-6.7q-0.2 0-0.3 0-0.1 0-0.2 0-0.2-0.1-0.3-0.1-0.1-0.1-0.2-0.1zm26.8-21.8l-0.7-0.6-9 9v1.3zm-14.4 6.4v-0.3q0-0.4 0.1-0.9 0.2-0.4 0.6-0.7 0.3-0.4 0.7-0.6 0.5-0.1 0.9-0.1 0.2 0 0.3 0l7.8-7.8-0.7-0.7-10.7 10.7v1.4zm-20.8-6.4l9.4 9.4v-1.4l-8.7-8.7zm19.8 12.8v9h1v-9.1q-0.2 0-0.3 0.1-0.1 0-0.2 0-0.1 0-0.3 0-0.1 0-0.2 0zm-15.8-16.8l7.8 7.8q0.4 0 0.9 0.1 0.4 0.2 0.7 0.6 0.4 0.3 0.5 0.7 0.2 0.4 0.2 0.9l1 0.9v-1.3l-10.4-10.4z"/><path className="b" d="m42.5 9.5c0.4 0.8 0.8 1.6 1.2 2.4 0.3-0.7 0.6-1.3 0.8-1.9 0.3-0.6 0.7-1 1.3-1.3 0.7-0.2 1.2-0.5 1.9-0.9-0.5-0.2-1-0.5-1.5-0.6-0.9-0.3-1.5-0.9-1.8-1.9-0.2-0.5-0.5-1-0.7-1.5-0.4 0.8-0.8 1.6-1.1 2.4q-0.1 0.1-0.1 0.2-0.1 0.1-0.2 0.1 0 0.1-0.1 0.2-0.1 0-0.2 0.1c-0.8 0.3-1.6 0.7-2.4 1.1 0.9 0.4 1.7 0.7 2.4 1.1 0.2 0.1 0.4 0.3 0.5 0.5zm-25.8 34.8c-0.1-0.5-0.4-1-0.6-1.5-0.4 0.8-0.8 1.5-1.2 2.3q0 0.1-0.1 0.2 0 0.1-0.1 0.2-0.1 0-0.2 0.1-0.1 0.1-0.2 0.1c-0.8 0.3-1.5 0.6-2.4 1 0.9 0.4 1.6 0.8 2.4 1.2 0.2 0.1 0.4 0.3 0.5 0.5 0.4 0.8 0.7 1.6 1.1 2.5 0.3-0.7 0.6-1.3 0.9-1.9 0.2-0.6 0.6-1 1.3-1.2 0.6-0.2 1.2-0.6 1.9-0.9-0.5-0.2-1-0.5-1.5-0.7-0.9-0.3-1.5-0.9-1.8-1.9zm54.2 0.7c-0.4-0.7-0.8-1.4-1.3-2.2-0.3 0.9-0.6 1.7-0.9 2.5q0 0.1-0.1 0.2 0 0-0.1 0.1 0 0.1-0.1 0.1-0.1 0.1-0.1 0.2c-0.8 0.4-1.5 0.8-2.3 1.3 0.7 0.3 1.3 0.5 2 0.7 0.6 0.2 1.1 0.5 1.4 1.1 0.3 0.6 0.6 1.2 1 1.9 0.2-0.6 0.5-1.1 0.6-1.6 0.2-1 0.7-1.7 1.6-2.1 0.5-0.2 0.9-0.5 1.5-0.8-0.9-0.3-1.7-0.6-2.5-0.8q-0.1-0.1-0.2-0.1-0.1-0.1-0.2-0.1-0.1-0.1-0.2-0.2 0-0.1-0.1-0.2z"/><path className="c" d="m72 3.8l-4.8 4.8c-0.3 0-9.9 1.7-14.4 2.7q-0.3 0.1-0.6 0.1-0.3 0.1-0.5 0.2-0.3 0.1-0.6 0.1-0.3 0.1-0.5 0.2-1.3 0.3-2.6 0.7-0.4 0.1-0.8 0.2c-0.5 0.2-1 0.4-1.3 0.7q-0.3 0.2-0.4 0.5-0.2 0.3-0.3 0.7-0.1 0.3-0.1 0.6-0.1 0.4 0 0.7 0.1 0.6 0.4 1 0.3 0.4 0.8 0.7 0.4 0.3 1 0.4 0.5 0.1 1 0l8.8-1.9-3.4 3.4-0.5 0.5-10.1 10.1q0.4 0 0.8 0.2 0.4 0.2 0.7 0.5 0.3 0.4 0.4 0.8 0.2 0.4 0.2 0.8v0.9q0 0.1 0 0.1v1.3l10.7-10.7 0.7 0.7-7.8 7.7q0.4 0.1 0.8 0.3 0.4 0.2 0.7 0.5 0.3 0.3 0.4 0.8 0.2 0.4 0.2 0.8v2.2l9-9 0.7 0.7-9.7 9.7v5.4q0.3 0 0.5 0 0.3-0.1 0.6-0.1 0.2-0.1 0.5-0.3 0.2-0.1 0.4-0.3l11.1-11.1 0.6 0.7-8.2 8.2c-0.4 0.5-0.6 1.1-0.6 1.7 0 0.6 0.2 1.2 0.7 1.6 0.4 0.5 1 0.7 1.6 0.7 0.6 0 1.2-0.2 1.7-0.6l8.8-8.9 0.6-0.5 7.3-7.3q0.4-0.4 0.7-0.9 0.3-0.4 0.5-1 0.2-0.5 0.4-1 0.1-0.6 0.1-1.1l6.8-6.8z"/><path className="d" d="m21.4 32.8l0.6-0.7 7.1 7.1v-0.3c0-0.6 0.2-1.2 0.7-1.6 0.4-0.5 1-0.7 1.6-0.7 0.7 0 1.3 0.2 1.7 0.7 0.5 0.4 0.7 1 0.7 1.6v4.8q0.5 0.2 1 0.2v-5.7l-9.4-9.4 0.7-0.7 8.7 8.7v-1.9q0-0.5 0.2-0.9 0.1-0.5 0.5-0.8 0.3-0.3 0.7-0.5 0.5-0.2 1-0.2l-7.8-7.7 0.7-0.7 10.4 10.4v-2q0-0.5 0.1-0.9 0.2-0.4 0.6-0.8 0.3-0.3 0.7-0.5 0.5-0.2 0.9-0.2 0.1 0 0.1 0.1l-10.1-10.1-0.5-0.5-3.4-3.4 8.8 1.9q0.5 0.1 1 0 0.6-0.1 1-0.4 0.5-0.3 0.8-0.7 0.3-0.4 0.4-1 0.1-0.3 0-0.7 0-0.3-0.1-0.6-0.1-0.4-0.3-0.7-0.1-0.3-0.4-0.5c-0.3-0.3-0.8-0.5-1.3-0.7q-0.4-0.1-0.8-0.2-1.3-0.4-2.6-0.7-0.2-0.1-0.5-0.2-0.3 0-0.6-0.1-0.2-0.1-0.5-0.2-0.3 0-0.6-0.1c-4.5-1-14.1-2.7-14.4-2.7l-4.8-4.8-13 13.1 6.8 6.8q0 0.5 0.1 1.1 0.2 0.5 0.4 1 0.2 0.6 0.5 1 0.3 0.5 0.7 0.9l7.3 7.3 0.6 0.5 8.8 8.9q0.3 0.3 0.6 0.4 0.4 0.2 0.8 0.2 0.4 0.1 0.7 0 0.4-0.1 0.8-0.3v-4.2z"/><path className="e" d="m50.9 37.1v-2.2q0-0.4-0.2-0.9-0.1-0.4-0.4-0.7-0.3-0.3-0.7-0.5-0.4-0.2-0.8-0.3-0.1 0-0.3 0-0.4 0-0.9 0.2-0.4 0.2-0.7 0.5-0.4 0.3-0.6 0.8-0.1 0.4-0.1 0.9v15.6h-1v-17q0 0 0-0.1v-0.9q0-0.4-0.2-0.8-0.1-0.4-0.4-0.8-0.3-0.3-0.7-0.5-0.4-0.2-0.8-0.2-0.1 0-0.2-0.1-0.1 0-0.1 0-0.4 0-0.9 0.2-0.4 0.2-0.7 0.5-0.4 0.4-0.6 0.8-0.1 0.4-0.1 0.9v18h-1v-15.6q0-0.5-0.2-0.9-0.1-0.5-0.5-0.8-0.3-0.3-0.7-0.5-0.5-0.2-0.9-0.2-0.5 0-1 0.2-0.4 0.2-0.7 0.5-0.4 0.3-0.5 0.8-0.2 0.4-0.2 0.9v15.6h-1v-11.6c0-0.6-0.2-1.2-0.7-1.6-0.4-0.5-1-0.7-1.7-0.7-0.6 0-1.2 0.2-1.6 0.7-0.5 0.4-0.7 1-0.7 1.6v23.7q0 0.5 0.1 1.1 0.1 0.5 0.3 1 0.2 0.6 0.5 1 0.3 0.5 0.7 0.9v9.6h18.4v-6.8c0.2-0.1 5.9-8.1 8.3-12q0.6-1 1.2-2 0.6-1.2 1.3-2.4 0.2-0.3 0.4-0.7c0.2-0.4 0.4-0.9 0.4-1.4q0-0.3 0-0.6-0.1-0.4-0.3-0.7-0.2-0.3-0.4-0.6-0.2-0.2-0.5-0.4-0.5-0.3-1-0.4-0.5-0.1-1 0-0.6 0.2-1 0.5-0.4 0.3-0.7 0.7l-4.9 7.6c0 0 0-19.9 0-19.9z"/></svg>