<svg xmlns="http://www.w3.org/2000/svg" viewBox="0 0 192 192" style="enable-background:new 0 0 192 192" xml:space="preserve"><path style="fill:none" d="M0 0h192v192H0z"/><path d="m104.485 96 49.757-49.757a5.998 5.998 0 0 0 0-8.485 5.999 5.999 0 0 0-8.484 0L96 87.515 46.243 37.757a6 6 0 0 0-8.485 8.485L87.515 96l-49.758 49.758A5.999 5.999 0 0 0 42 156a5.98 5.98 0 0 0 4.243-1.758L96 104.485l49.758 49.757c1.171 1.172 2.707 1.758 4.242 1.758s3.071-.586 4.242-1.758a5.997 5.997 0 0 0 0-8.484L104.485 96z"/></svg>
