<svg width="184" height="100" viewBox="0 0 184 100" fill="none" xmlns="http://www.w3.org/2000/svg">
<mask id="mask0_1587_15558" style="mask-type:luminance" maskUnits="userSpaceOnUse" x="12" y="40" width="160" height="20">
<path d="M12 40.6099H172V59.3899H12V40.6099Z" fill="white"/>
</mask>
<g mask="url(#mask0_1587_15558)">
<mask id="mask1_1587_15558" style="mask-type:luminance" maskUnits="userSpaceOnUse" x="12" y="40" width="160" height="20">
<path d="M12 40.6099H172V59.3899H12V40.6099Z" fill="white"/>
</mask>
<g mask="url(#mask1_1587_15558)">
<path d="M12 41.7799C12.07 40.8499 12.24 40.6499 13.02 40.6099H36.09C39.57 40.6099 42.81 42.6499 44.13 45.9299C44.77 47.5199 45.12 49.1299 44.99 50.8299C44.84 52.6699 44.19 54.3399 43.03 55.7699C42.02 57.0099 40.84 58.0599 39.31 58.6599C38.32 59.0399 37.31 59.3299 36.25 59.3499C34.34 59.3899 32.43 59.3499 30.53 59.3899C29.78 59.3899 29.18 59.1099 28.69 58.6199C27.01 56.9399 25.36 55.2399 23.7 53.5399C23.61 53.4499 23.55 53.3399 23.48 53.2599C23.51 52.4499 23.72 52.1799 24.39 52.0999C24.61 52.0699 24.83 52.0999 25.05 52.0999H35.28C35.78 52.0999 36.27 52.0999 36.73 51.8299C37.59 51.3399 37.92 50.5399 37.71 49.4199C37.57 48.6999 36.7 47.9799 35.89 47.9099C35.61 47.8899 35.33 47.9099 35.05 47.9099C29.92 47.9099 24.79 47.8899 19.67 47.9099C18.56 47.9099 17.7 47.5599 16.94 46.7599C15.54 45.2899 14.08 43.8699 12.65 42.4299C12.43 42.2099 12.22 41.9799 12.03 41.7799" fill="white"/>
<path d="M91.4299 56.9398C89.2199 57.0098 87.4399 56.1999 85.9799 54.7399C84.2499 53.0098 83.4398 50.0698 84.5598 47.4998C85.6098 45.0998 87.3999 43.6798 89.9999 43.1898C92.5599 42.7198 94.7699 43.3898 96.5699 45.1898C99.8599 48.4598 98.9998 53.7298 95.0598 55.9899C93.8998 56.6599 92.6799 57.0198 91.4299 56.9298M95.6799 50.0598C95.7599 47.7799 93.9098 45.6798 91.3498 45.6598C88.6898 45.6398 86.9198 47.5998 86.9198 50.0598C86.9198 52.5198 88.7399 54.4398 91.4099 54.4298C94.1299 54.4298 95.7499 52.0898 95.6799 50.0598ZM81.2798 49.3698C81.2098 52.7898 79.9399 54.7098 77.6799 56.0498C75.1499 57.5498 71.2999 57.1898 69.0799 55.1198C65.5799 51.8698 66.1399 46.4698 70.3299 44.0198C73.0499 42.4398 76.3298 42.6898 78.7798 44.7198C80.4298 46.0898 81.3498 47.8998 81.2698 49.3698M78.3999 50.0799C78.5099 47.5399 76.1799 45.6398 74.1999 45.6398C71.7699 45.6398 69.5798 47.4998 69.6398 50.0498C69.6998 52.5998 71.4298 54.4498 74.2098 54.4198C76.8498 54.3898 78.4398 52.1798 78.3898 50.0799" fill="white"/>
<path d="M117.599 43.4599C117.789 43.4399 117.939 43.4099 118.089 43.4099C119.619 43.4099 121.149 43.3699 122.679 43.4099C125.989 43.5099 128.559 45.5599 129.179 48.8699C129.869 52.4999 127.709 55.4899 124.639 56.4599C124.029 56.6499 123.359 56.7099 122.719 56.7299C121.289 56.7699 119.849 56.7299 118.409 56.7299H117.599C117.399 55.9399 117.389 44.2699 117.599 43.4399M120.329 45.9899C120.179 48.7899 120.239 53.4499 120.449 54.2399C121.039 54.2399 121.659 54.2699 122.269 54.2399C123.549 54.1599 124.679 53.7499 125.529 52.7099C127.259 50.5899 126.499 47.1599 123.709 46.2199C122.609 45.8499 121.489 46.0999 120.329 46.0099" fill="white"/>
<path d="M52.1999 43.44C54.2799 43.44 56.3299 43.23 58.3199 43.49C61.1099 43.86 62.9699 45.6 63.7399 48.33C64.4499 50.85 63.5599 53.82 61.0599 55.53C60.0899 56.2 59.0099 56.62 57.8699 56.68C56.0099 56.78 54.1299 56.71 52.2699 56.71C52.0799 56.03 52.0199 45.17 52.1899 43.44M54.9799 54.1C55.7599 54.1 56.4499 54.12 57.1299 54.1C58.5499 54.04 59.6899 53.43 60.4599 52.21C61.5499 50.48 61.1799 48.38 59.8999 47.1C58.4799 45.67 56.7299 45.83 54.9799 45.9V54.1ZM105.23 52.08V56.46C104.56 56.79 103.19 56.81 102.44 56.5V43.46C102.65 43.44 102.86 43.39 103.07 43.39C104.85 43.39 106.63 43.41 108.41 43.39C110.49 43.36 112.65 44.82 112.86 47.51C112.98 49.14 112.26 50.46 110.94 51.44C110.87 51.49 110.78 51.53 110.7 51.58C110.65 51.61 110.6 51.66 110.51 51.74C111.39 53.29 112.26 54.84 113.14 56.38C112.85 56.64 111.92 56.75 110.35 56.72C109.38 55.28 108.66 53.63 107.69 52.09H105.23V52.08ZM109.92 48.27C109.93 48.09 109.96 47.9 109.96 47.71C109.96 46.7 109.36 45.95 108.36 45.87C107.34 45.8 106.32 45.85 105.29 45.85V49.39C106.18 49.39 107.02 49.34 107.85 49.39C108.77 49.45 109.41 49.1 109.92 48.24" fill="white"/>
<path d="M163.57 51.3199C163.48 53.0599 163.63 54.7699 163.48 56.5099C162.58 56.8299 161.72 56.6199 160.83 56.6699C160.76 56.4699 160.66 56.2999 160.66 56.1399V43.9499C160.66 43.7999 160.72 43.6499 160.77 43.4499H163.44C163.67 44.2799 163.51 45.1499 163.54 46.0099C163.57 46.8499 163.54 47.6999 163.54 48.5399C164.23 48.6999 167.42 48.7399 169.22 48.6099V43.4599C170.19 43.3399 171.07 43.3799 172 43.4299V56.5099C171.12 56.8299 170.21 56.6799 169.23 56.5799V51.3099H163.57V51.3199Z" fill="white"/>
<path d="M136.47 43.4099H139.56C140.43 45.5999 141.32 47.7999 142.18 50.0099C143.02 52.1899 143.92 54.3499 144.72 56.5699C144.17 56.8399 143.7 56.7099 143.24 56.7299C142.78 56.7499 142.31 56.7299 141.78 56.7299C141.38 55.6599 141 54.6299 140.6 53.5699H135.47C135.07 54.5899 134.66 55.6399 134.26 56.6799H131.58C131.5 56.6799 131.43 56.5099 131.34 56.4099C133.04 52.0899 134.74 47.7799 136.46 43.4199M137.99 46.6999C137.42 48.2399 136.9 49.6299 136.35 51.1199H138.01C138.52 51.0999 139.05 51.1999 139.6 51.0399C139.07 49.6099 138.55 48.2199 137.99 46.6999Z" fill="white"/>
<path d="M156.3 44.9397C155.77 45.4597 155.29 45.9397 154.72 46.4897C154.49 46.3697 154.25 46.2597 154.03 46.1097C153.27 45.6197 152.47 45.4597 151.56 45.5997C150.96 45.6897 150.63 46.0597 150.25 46.4797V47.3797C150.78 48.1797 151.64 48.3897 152.46 48.6497C153.43 48.9597 154.43 49.1697 155.3 49.7497C156.55 50.5697 157.03 51.6997 156.86 53.1497C156.6 55.3297 155.02 56.7497 152.82 56.9197C151.6 57.0197 150.42 56.9797 149.27 56.5297C148.33 56.1697 147.5 55.6597 146.82 54.7397C147.34 54.1997 147.85 53.6697 148.33 53.1797C148.77 53.1597 148.93 53.4797 149.18 53.6497C150.25 54.3997 151.41 54.7197 152.69 54.2997C153 54.1997 153.31 54.0097 153.54 53.7797C154.29 53.0197 154.14 52.1197 153.28 51.7097C152.61 51.3897 151.92 51.1297 151.22 50.8997C150.34 50.6097 149.45 50.3597 148.68 49.7897C146.65 48.2797 146.98 45.3097 148.81 43.9397C150.85 42.3997 154.4 42.8697 156.11 44.5997C156.17 44.6597 156.21 44.7597 156.3 44.9197" fill="white"/>
</g>
</g>
</svg>
