<svg width="184" height="100" viewBox="0 0 184 100" fill="none" xmlns="http://www.w3.org/2000/svg">
<path d="M76.9008 63.9001L83.0008 36.2001H90.6008L87.3008 51L93.4008 43.6H101.801L94.2008 52.8L97.3008 63.9001H89.8008L86.7008 53.4001L84.2008 63.9001H76.9008ZM49.6008 50L55.0008 63.9001H62.2008L68.4008 36.2001H61.0008L57.8008 50.3L52.6008 36.2001H45.0008L38.8008 63.8H46.4008C47.4008 59.5 48.5008 54.8 49.6008 50ZM73.3008 63.9001L77.8008 43.6H70.4008L65.9008 63.9001H73.3008ZM70.8008 39.2001C70.8008 39.8001 71.0008 42.1 75.0008 42.1C78.4008 42.1 79.7008 39.9 79.7008 38.3C79.7008 37.2 78.8008 35.3 75.5008 35.3C72.4008 35.3 70.8008 37.4001 70.8008 39.2001ZM142.201 43.3C139.001 42.3 135.101 43.9 133.101 46.6C133.301 45.8 133.501 44.8001 133.701 43.7001H126.201L121.801 63.9001H129.301L131.801 52.4001C132.301 50.3001 134.001 49.4 135.501 49.8C136.201 50 137.001 50.5001 136.701 52.2001L134.101 63.9001H141.501L144.901 48.4001C145.701 44.9001 142.901 43.5 142.201 43.3ZM117.001 62.1C120.301 59.4 121.901 54.9001 121.801 50.7001C121.701 46.6 118.301 42.8 112.301 42.8C100.901 42.8 99.2008 51.7 98.9008 53.3C98.1008 57.4 99.0008 62.8 104.401 64.2C107.901 65.1 113.401 65 117.001 62.1ZM108.601 50.3C109.101 48.8 110.601 48.5 111.301 48.5C112.901 48.5 113.401 49.5001 113.201 50.4001C112.801 52.9001 111.901 56.2001 111.601 57.2001C111.201 58.3001 110.201 59 108.901 59C107.601 59 106.901 58.2001 107.001 57.2001C107.201 55.5 108.301 51.2 108.601 50.3Z" fill="white"/>
</svg>
