<svg width="184" height="100" viewBox="0 0 184 100" fill="none" xmlns="http://www.w3.org/2000/svg">
<path d="M42.019 35.2129C45.594 35.2129 49.169 35.2659 52.742 35.1879C54.152 35.1559 54.544 35.6829 54.532 37.0289C54.48 42.9859 54.538 48.9439 54.471 54.9009C54.463 55.5419 54.063 56.3969 53.561 56.7769C50.145 59.3609 46.647 61.8369 43.192 64.3699C42.38 64.9649 41.636 64.9569 40.842 64.3769C37.305 61.7969 33.746 59.2469 30.247 56.6159C29.838 56.3099 29.55 55.5769 29.546 55.0389C29.496 48.9389 29.523 42.8389 29.502 36.7369C29.497 35.5649 29.994 35.1739 31.155 35.1919C34.776 35.2489 38.399 35.2129 42.021 35.2129M31.441 38.2779C31.301 38.5719 31.228 38.6539 31.228 38.7369C31.211 44.0279 31.19 49.3199 31.214 54.6109C31.216 54.9729 31.466 55.4599 31.759 55.6769C34.973 58.0589 38.197 60.4279 41.483 62.7069C41.873 62.9769 42.868 62.9189 43.2 62.6079C43.823 62.0219 43.488 61.3259 42.795 60.8359C41.63 60.0109 40.441 59.2079 39.351 58.2909C38.932 57.9399 38.392 57.0319 38.534 56.8389C39.174 55.9699 39.771 56.7749 40.308 57.1549C41.785 58.1969 43.188 59.3569 44.725 60.2979C45.16 60.5639 45.957 60.2399 46.589 60.1849C46.44 59.6209 46.471 58.8509 46.107 58.5329C44.929 57.5029 43.568 56.6839 42.361 55.6809C42.039 55.4139 42.018 54.7829 41.859 54.3189C42.32 54.3789 42.879 54.2939 43.225 54.5259C44.8004 55.5954 46.3454 56.7092 47.858 57.8659C48.568 58.4029 49.252 58.6179 49.832 57.8219C50.368 57.0869 49.958 56.4889 49.313 56.0189C48.081 55.1229 46.821 54.2599 45.637 53.3049C45.31 53.0419 45.209 52.5009 45.005 52.0869C45.506 52.0929 46.129 51.9099 46.488 52.1389C47.888 53.0359 49.205 54.0629 50.552 55.0439C51.176 55.4979 51.857 55.8419 52.408 55.0389C52.933 54.2719 52.626 53.6479 51.883 53.1149C48.943 51.0069 46.05 48.8309 43.076 46.7689C42.68 46.4939 41.806 46.5229 41.364 46.7789C40.214 47.4389 39.206 48.3379 38.099 49.0769C36.622 50.0629 35.036 49.8059 34.067 48.4939C33.055 47.1219 33.352 45.5019 34.832 44.3739C35.613 43.7769 36.406 43.1939 37.296 42.5289L31.441 38.2779ZM52.741 38.1689C50.941 39.4709 49.354 40.5939 47.798 41.7559C47.184 42.2129 46.719 42.2839 46.058 41.7519C44.706 40.6599 43.157 40.5139 41.698 41.4899C39.6822 42.8389 37.7219 44.2691 35.822 45.7769C35.466 46.0609 35.269 46.9839 35.456 47.4159C35.808 48.2309 36.565 48.1349 37.246 47.6369C38.513 46.7099 39.807 45.8199 41.051 44.8639C41.851 44.2489 42.544 44.2309 43.357 44.8539C44.905 46.0389 46.499 47.1649 48.079 48.3069C49.562 49.3779 51.052 50.4389 52.74 51.6479V38.1679L52.741 38.1689ZM51.514 36.9759H32.5L38.734 41.4929C39.004 41.3169 39.217 41.2069 39.396 41.0579C41.538 39.2829 43.826 38.5539 46.476 39.9599C46.735 40.0979 47.247 40.0289 47.505 39.8539C48.789 38.9879 50.027 38.0539 51.514 36.9759ZM110.123 55.6529C110.123 53.4579 110.133 51.3279 110.119 49.1959C110.11 47.6559 109.537 46.8899 108.419 46.8599C107.237 46.8289 106.547 47.6259 106.52 49.1879C106.484 51.3209 106.511 53.4549 106.511 55.6879H102.098C102.098 53.7319 102.102 51.7979 102.095 49.8629C102.095 49.3409 102.153 48.7939 102.025 48.3009C101.789 47.3989 101.23 46.7659 100.19 46.8689C99.211 46.9659 98.593 47.5129 98.566 48.5219C98.517 50.3779 98.527 52.2349 98.514 54.0919C98.511 54.6019 98.514 55.1129 98.514 55.7079H94.165V43.3269H98.305L98.686 44.5639C101.151 42.4669 103.58 42.1979 105.878 44.6989C106.87 44.1819 107.81 43.4999 108.859 43.1819C111.941 42.2499 114.462 44.0329 114.582 47.2369C114.685 49.9929 114.604 52.7549 114.604 55.6529H110.123ZM68.027 55.6589H63.663V39.7079C66.997 39.7079 70.227 39.5599 73.436 39.7579C75.757 39.9009 77.477 41.2659 77.947 43.6469C78.444 46.1689 77.864 48.3859 75.426 49.7689C75.264 49.8609 75.123 49.9889 74.84 50.1969L78.546 55.7219C76.745 55.7219 75.252 55.7579 73.764 55.6899C73.48 55.6769 73.153 55.2989 72.951 55.0139C72.181 53.9299 71.373 52.8609 70.738 51.6989C70.193 50.7019 69.337 50.6929 68.563 50.9499C68.248 51.0549 68.09 51.9429 68.048 52.4879C67.969 53.5149 68.025 54.5529 68.025 55.6589M68.213 43.4279C67.591 47.1929 67.971 47.6109 71.466 47.2819C71.608 47.2689 71.752 47.2649 71.891 47.2379C72.964 47.0349 73.545 46.4429 73.539 45.2909C73.534 44.0979 72.84 43.5399 71.798 43.4509C70.629 43.3519 69.443 43.4279 68.213 43.4279ZM150.134 43.2939H154.498C154.498 44.7339 154.503 46.1009 154.498 47.4669C154.484 50.5149 154.542 53.5679 154.428 56.6119C154.311 59.7099 152.611 61.5509 149.549 61.9739C148.4 62.1319 147.212 61.9989 145.944 61.9989L146.255 58.3429C149.805 57.9559 150.612 57.1479 149.913 54.9019C148.686 55.2879 147.48 55.9109 146.232 56.0099C143.96 56.1919 142.322 54.7899 142.205 52.5159C142.051 49.4849 142.167 46.4399 142.167 43.3089H146.432C146.432 44.7809 146.423 46.2809 146.436 47.7809C146.443 48.6839 146.436 49.5919 146.522 50.4899C146.62 51.5049 147.157 52.2059 148.256 52.2019C149.408 52.1969 149.994 51.4549 150.088 50.3989C150.184 49.3119 150.13 48.2099 150.135 47.1139C150.14 45.8819 150.134 44.6489 150.134 43.2939ZM83.481 50.8399C83.82 52.7739 85.465 53.4799 87.184 52.8839C88.597 52.3929 90.12 52.2149 91.68 52.1159C91.249 54.2599 89.911 55.2479 88.101 55.7949C85.164 56.6849 81.956 55.7449 80.439 53.4989C78.765 51.0229 78.878 47.5069 80.767 45.2519C82.622 43.0349 85.051 42.4989 87.725 43.2569C90.249 43.9719 91.672 45.7639 92.042 48.3719C92.2753 50.0172 91.5477 50.8396 89.859 50.8389H83.482M88 48.3479C88.041 46.6879 87.338 45.9469 85.853 45.9659C84.399 45.9859 83.687 46.7969 83.828 48.3479H88ZM125.514 39.5559H129.862L130.04 43.1319L132.321 43.3169C132.321 44.3679 132.379 45.3599 132.284 46.3369C132.257 46.6119 131.823 46.9609 131.505 47.0679C131.083 47.2109 130.591 47.1509 129.994 47.1879C129.994 48.6389 129.795 50.0469 130.08 51.3509C130.217 51.9739 131.269 52.3969 131.907 52.9099L132.325 52.5969C132.325 53.3909 132.383 54.1929 132.294 54.9769C132.262 55.2559 131.894 55.7029 131.653 55.7209C130.256 55.8279 128.801 56.0709 127.462 55.7989C126.159 55.5339 125.56 54.3159 125.554 52.9439C125.545 51.0509 125.552 49.1579 125.552 47.2219L123.905 47.0129V43.3049L125.515 43.1239V39.5539L125.514 39.5559ZM134.929 39.5499H139.111V55.7059H134.929V39.5499ZM117.544 43.3299H121.686V55.7189H117.544V43.3299ZM122.046 39.5079C122.029 40.8169 120.85 41.9719 119.569 41.9319C118.245 41.8909 117.187 40.7419 117.227 39.3889C117.245 38.7659 117.505 38.1743 117.95 37.7385C118.396 37.3027 118.993 37.0565 119.616 37.0519C120.943 37.0469 122.062 38.1769 122.046 39.5079Z" fill="white"/>
</svg>
