<svg width="184" height="100" viewBox="0 0 184 100" fill="none" xmlns="http://www.w3.org/2000/svg">
<path d="M82.972 41.5121C83.542 41.5121 84.052 41.6021 84.532 41.7521L84.802 45.4411H87.741L88.191 41.2121C86.931 40.2521 84.592 39.6221 82.373 39.6221C77.994 39.6221 74.875 42.0211 74.875 45.8601C74.875 48.0191 75.775 50.0891 79.044 52.3081C81.293 53.8381 81.713 54.8871 81.713 55.9071C81.713 57.6471 80.393 58.4861 78.474 58.4861C77.904 58.4861 77.214 58.3661 76.525 58.2161L76.165 54.2571H73.256L72.836 58.7861C74.366 59.8061 76.465 60.3761 78.744 60.3761C83.453 60.3761 86.902 57.9771 86.902 53.9581C86.902 51.4991 85.702 49.6691 82.643 47.6601C80.334 46.1601 79.764 45.2311 79.764 44.1811C79.764 42.6211 81.233 41.5121 82.972 41.5121ZM145.01 55.5181C144.11 56.7181 143.51 57.2581 143.091 57.2581C142.821 57.2581 142.671 57.0481 142.671 56.6581C142.671 56.3581 142.761 56.0281 142.881 55.5481L144.321 49.8501C144.561 48.9201 144.651 48.1101 144.651 47.3611C144.651 45.5621 143.541 44.6921 142.222 44.6921C140.303 44.6921 138.263 45.7721 136.164 47.8111L136.674 45.1721L136.044 44.6321L129.506 46.4021L129.296 47.6321L131.035 47.9621L128.606 59.6291L129.086 60.0191L133.735 59.7791C134.155 57.5901 134.545 55.4601 135.025 53.3011L135.805 49.6721C136.885 48.6221 137.874 48.1721 138.654 48.1721C139.044 48.1721 139.344 48.4421 139.344 48.9221C139.344 49.3721 139.224 50.1221 138.984 51.0211L137.934 55.1901C137.724 55.9701 137.424 57.1391 137.424 58.0991C137.424 59.4791 138.324 60.2581 139.943 60.2581C142.702 60.2581 144.832 58.2491 146.001 56.1491L145.011 55.5191L145.01 55.5181ZM125.311 57.2581C124.981 57.2581 124.831 57.0481 124.831 56.6581C124.831 56.3581 124.921 56.0281 125.041 55.5481L127.44 45.1111L126.96 44.6911L124.591 45.6811C123.751 44.9911 122.792 44.6911 121.772 44.6911C117.123 44.6911 111.305 50.4191 111.305 55.8181C111.305 59.1471 112.865 60.2571 114.574 60.2571C116.314 60.2571 118.263 58.9971 119.853 57.2881C119.853 59.2371 120.963 60.2571 122.702 60.2571C125.041 60.2571 127.111 58.0681 128.13 56.1181L127.14 55.4881C126.27 56.6281 125.79 57.2581 125.311 57.2581ZM120.152 54.8291C120.092 55.1591 120.032 55.4891 119.972 55.7891C119.402 56.2991 118.682 56.7791 118.023 56.7791C117.033 56.7791 116.433 56.0591 116.433 54.1401C116.433 52.2211 117.333 48.9221 118.712 47.7221C119.312 47.1821 119.792 47.0021 120.332 47.0021C120.812 47.0021 121.322 47.1221 121.802 47.3321L120.152 54.8301V54.8291ZM111.219 44.9911C110.859 44.7511 110.319 44.5411 109.749 44.5411C108.13 44.5411 106.9 45.4111 106.9 47.2101C106.9 48.1401 107.35 49.1591 107.71 50.1191L108.1 51.1991C107.171 52.8125 106.17 54.3837 105.101 55.9081L103.571 45.4711H100.392C98.952 48.5601 97.483 51.6491 96.043 54.7081C95.833 52.4291 95.623 50.1191 95.413 47.8101C95.233 45.7111 94.453 44.6911 92.774 44.6911C91.214 44.6911 89.715 45.8011 87.885 48.0501L88.575 48.9501C88.995 48.5601 89.445 48.2901 89.715 48.2901C90.045 48.2901 90.285 48.3801 90.375 49.1001C90.885 52.6691 91.425 56.2081 91.935 59.7771L92.295 60.0771L95.354 59.7771L99.313 51.6791C99.733 54.3781 100.183 57.0771 100.603 59.7771L100.963 60.0771L103.662 59.7771C106.601 56.6881 109.03 53.4191 110.53 50.7801C111.49 49.1001 111.76 48.1411 111.76 47.1811C111.76 46.0711 111.64 45.5611 111.22 44.9921L111.219 44.9911ZM51.608 34.3921C42.988 34.3921 36 41.3801 36 50.0001C36 58.6201 42.988 65.6081 51.608 65.6081C60.228 65.6081 67.216 58.6201 67.216 50.0001C67.216 41.3801 60.228 34.3921 51.608 34.3921ZM51.608 63.7711C44.002 63.7711 37.836 57.6051 37.836 49.9991C37.836 42.3931 44.002 36.2271 51.608 36.2271C59.214 36.2271 65.38 42.3931 65.38 49.9991C65.38 57.6051 59.214 63.7711 51.608 63.7711Z" fill="white"/>
<path d="M52.591 55.0191C51.175 54.3831 49.737 53.7941 48.303 53.1971C46.886 52.6071 45.483 51.9941 44.257 51.0501C43.064 50.1301 42.224 48.9861 41.992 47.4631C41.973 47.3381 41.946 47.2151 41.922 47.0911L41.812 47.0811C41.776 47.1661 41.731 47.2491 41.707 47.3381C41.3726 48.6026 41.2743 49.9179 41.417 51.2181C41.93 56.1171 46.043 59.8981 50.448 60.3231C51.404 60.4151 52.352 60.3871 53.248 59.9801C54.964 59.2021 55.281 57.0631 53.843 55.8501C53.462 55.5281 53.043 55.2221 52.591 55.0191Z" fill="white"/>
<path d="M59.0006 50.363C58.3026 49.783 57.5216 49.259 56.6996 48.879C55.0386 48.111 53.3216 47.46 51.6296 46.758C50.6896 46.368 49.7436 45.989 48.9366 45.346C47.6916 44.354 48.3126 43.008 49.2336 42.547C49.7906 42.268 50.3816 42.192 50.9956 42.232C52.0996 42.304 53.1226 42.645 54.0836 43.174C56.0006 44.229 57.5196 45.727 58.8476 47.436C58.9236 47.534 59.0136 47.621 59.0976 47.713L59.1826 47.669C59.1626 47.569 59.1526 47.467 59.1216 47.371C58.8916 46.649 58.6516 45.93 58.4326 45.205C58.3929 45.0729 58.4018 44.931 58.4576 44.805C58.8436 44.078 58.8096 43.37 58.3956 42.673C58.0096 42.023 57.4506 41.542 56.8156 41.153C54.5126 39.743 52.0206 39.309 49.3676 39.776C47.8016 40.052 46.3886 40.657 45.2456 41.793C43.3496 43.677 43.2536 46.653 45.3356 48.439C46.0482 49.049 46.8401 49.56 47.6896 49.958C49.3186 50.716 51.0066 51.349 52.6646 52.045C53.8646 52.549 55.0196 53.131 55.9956 54.016C57.4946 55.375 57.7696 57.452 56.9086 58.95C56.8826 58.995 56.8726 59.049 56.8456 59.127C56.9276 59.142 56.9626 59.159 56.9906 59.151C57.0435 59.1336 57.0942 59.1101 57.1416 59.081C58.2146 58.448 59.1496 57.659 59.8506 56.623C61.3076 54.466 61.0006 52.027 59.0006 50.363Z" fill="white"/>
</svg>
