<svg width="164" height="100" viewBox="0 0 164 100" fill="none" xmlns="http://www.w3.org/2000/svg">
<path d="M81.3035 61.505C82.0035 62.555 82.6865 63.616 83.4125 64.647C83.7025 65.058 83.6445 65.263 83.2175 65.514C81.0405 66.797 78.7365 67.7019 76.2095 67.9789C76.0005 68.0019 75.7715 67.9359 75.6145 68.1429H72.3685C72.2785 68.0919 72.1915 68.006 72.0965 67.996C68.0255 67.584 64.5485 65.9249 61.6555 63.0359C61.4665 62.847 61.2955 62.6279 60.9925 62.6199C60.4535 61.7099 59.7705 60.9119 59.0695 60.128C58.9985 59.955 58.9485 59.769 58.8525 59.611C57.4875 57.366 56.7315 54.935 56.4245 52.324C56.0535 49.16 56.5835 46.167 57.8635 43.284C58.2445 42.425 58.6785 41.589 59.0885 40.743C59.6385 40.445 59.7885 39.801 60.2345 39.418C60.7955 38.937 60.7675 38.596 60.2115 38.046C58.3765 36.228 58.0655 33.441 59.3405 31.172C60.5975 28.935 63.1925 27.807 65.7015 28.367C67.4865 28.765 68.7005 29.881 69.6505 31.362C70.1395 32.611 70.4205 33.882 70.0415 35.219C69.6105 36.805 68.6135 37.988 67.3555 38.984C67.1325 39.16 66.8045 39.249 66.8335 39.629C66.4725 39.387 66.2945 39.732 66.0815 39.887C58.1175 45.689 59.3405 58.115 68.3205 62.296C72.7065 64.338 77.0505 64.582 81.1515 61.498L81.2265 61.507H81.3025L81.3035 61.505ZM66.7435 34.369C67.5185 34.379 68.1705 33.722 68.1685 32.931C68.1665 32.136 67.5165 31.488 66.7375 31.502C66.372 31.5127 66.0247 31.6634 65.7672 31.9231C65.5098 32.1827 65.3621 32.5314 65.3545 32.897C65.3375 33.694 65.9635 34.358 66.7435 34.369Z" fill="white"/>
<path d="M59.0883 40.7429C58.6783 41.5889 58.2443 42.4249 57.8633 43.2839C56.5833 46.1679 56.0533 49.1599 56.4243 52.3239C56.7303 54.9349 57.4873 57.3659 58.8523 59.6109C58.9483 59.7689 58.9983 59.9549 59.0693 60.1279C57.1623 60.6669 55.6563 61.7989 54.3873 63.2819C54.1383 63.3109 53.9913 63.1419 53.8353 62.9939C51.1673 60.4709 49.3263 57.4519 48.3443 53.9079C48.1023 53.0339 48.0543 52.1149 47.6953 51.2709V46.7289C48.1583 45.6119 48.2183 44.3939 48.5893 43.2469C49.9093 39.1609 52.2953 35.8809 55.8143 33.4209C55.8393 33.9039 55.8443 34.3889 55.8923 34.8699C56.1303 37.2749 57.2933 39.1809 59.0893 40.7409" fill="white"/>
<path d="M81.3038 61.5051H81.2288L81.1538 61.4971C81.1818 61.1331 80.9118 60.9091 80.7378 60.6471C76.2488 53.8931 71.7528 47.1431 67.2638 40.3891C67.1038 40.1481 66.8688 39.9421 66.8358 39.6271C66.8068 39.2481 67.1348 39.1591 67.3578 38.9821C68.6158 37.9851 69.6128 36.8031 70.0438 35.2171C70.3838 35.2571 70.5748 34.9871 70.8118 34.8311C72.2668 33.8741 73.7118 32.9011 75.1598 31.9331C76.6488 32.4851 77.9158 33.4091 79.0998 34.4241C82.6758 37.4911 84.9318 41.3611 85.6418 46.0151C86.4708 51.4501 85.1588 56.3921 81.7758 60.7561C81.5928 60.9921 81.3988 61.2151 81.3048 61.5041" fill="white"/>
<path opacity="0.5" d="M59.0895 40.7429C57.2935 39.1829 56.1305 37.2769 55.8925 34.8719C55.8445 34.3909 55.8395 33.9059 55.8145 33.4229C56.0305 32.5099 56.1325 31.5679 56.5435 30.7039C58.0285 27.5789 60.4885 25.7889 63.9435 25.6679C67.5715 25.5419 70.2295 27.2399 71.8795 30.4829L69.6515 31.3599C68.7015 29.8789 67.4865 28.7639 65.7025 28.3649C63.1935 27.8049 60.5985 28.9329 59.3415 31.1699C58.0665 33.4389 58.3775 36.2259 60.2125 38.0439C60.7685 38.5949 60.7965 38.9349 60.2355 39.4159C59.7895 39.7989 59.6395 40.4429 59.0895 40.7409" fill="white"/>
<path opacity="0.5" d="M69.6504 31.3621L71.8784 30.4851C73.8964 30.0421 75.9144 29.5961 77.9334 29.1571C78.2274 29.0931 78.6354 28.8331 78.7924 29.1711C78.9374 29.4831 78.4624 29.5861 78.2424 29.7461C77.2224 30.4871 76.1874 31.2081 75.1574 31.9361C73.7094 32.9041 72.2644 33.8771 70.8094 34.8341C70.5724 34.9901 70.3814 35.2601 70.0414 35.2201C70.4204 33.8831 70.1394 32.6121 69.6504 31.3631" fill="white"/>
<path opacity="0.5" d="M66.8354 39.628C66.8684 39.943 67.1034 40.149 67.2634 40.39C71.7524 47.144 76.2484 53.894 80.7374 60.648C80.9114 60.909 81.1804 61.134 81.1534 61.497C77.0524 64.581 72.7084 64.337 68.3224 62.295C59.3424 58.114 58.1204 45.688 66.0834 39.886C66.2964 39.731 66.4734 39.386 66.8354 39.628Z" fill="white"/>
<path opacity="0.5" d="M60.9937 62.6209C59.3387 62.6659 57.9687 63.3439 56.8937 64.5729C56.5597 64.9549 56.3297 64.9779 55.9787 64.6749C55.4457 64.2139 54.6947 64.0029 54.3867 63.2839C55.6567 61.8009 57.1627 60.6679 59.0687 60.1299C59.7697 60.9139 60.4537 61.7119 60.9927 62.6219" fill="white"/>
<path d="M66.7439 34.3702C65.9639 34.3602 65.3369 33.6962 65.3539 32.8982C65.3614 32.5326 65.5092 32.1839 65.7666 31.9243C66.024 31.6646 66.3714 31.5139 66.7369 31.5032C67.5159 31.4892 68.1659 32.1372 68.1679 32.9322C68.1699 33.7232 67.5189 34.3802 66.7439 34.3702Z" fill="white"/>
<path d="M137.306 45.9261C136.592 44.2541 134.676 43.3611 132.987 44.1241C132.711 44.2701 132.435 44.4491 132.224 44.7091C132.175 44.7741 132.143 44.8881 132.045 44.8391C131.915 44.6771 131.948 44.3681 131.899 44.1731C131.867 44.0431 131.818 43.9941 131.672 43.9941H130.568C130.292 43.9941 130.243 44.0591 130.243 44.3191C130.275 47.5661 130.227 50.7971 130.227 54.0451C130.227 54.2241 130.292 54.3051 130.471 54.3051H131.949C132.128 54.3051 132.193 54.2241 132.193 54.0451C132.209 52.8761 132.096 51.7071 132.193 50.5381C133.524 51.8691 135.862 51.5611 136.918 50.0351C137.162 49.6291 137.714 48.7201 137.697 47.6641C137.648 46.6411 137.389 46.0731 137.307 45.9271M134.628 49.4831C133.865 49.8561 132.874 49.5481 132.42 48.8341C131.641 47.6491 132.258 45.6841 133.816 45.6521C135.034 45.6361 135.699 46.4151 135.699 47.6171C135.699 48.4941 135.374 49.1591 134.627 49.4841M122.254 64.7601V54.8561C122.238 54.7261 122.205 54.6771 122.124 54.6451C122.092 54.6451 122.059 54.6291 122.027 54.6291H120.533C120.517 54.6291 120.501 54.6291 120.484 54.6451C120.37 54.6771 120.338 54.7421 120.338 54.9051C120.322 55.4081 120.338 55.9281 120.354 56.4311V56.6581C120.37 57.2591 120.37 57.8431 120.338 58.4441C120.293 58.443 120.249 58.4321 120.208 58.4121C120.111 58.3631 120.062 58.2661 119.964 58.2011C119.769 58.0871 119.574 57.9741 119.379 57.8761C119.298 57.8441 119.2 57.8111 119.119 57.7791C118.697 57.6538 118.253 57.6193 117.816 57.6781C117.38 57.7369 116.96 57.8875 116.586 58.1201C115.855 58.5703 115.317 59.2764 115.076 60.1011C114.962 60.4261 114.93 60.7671 114.914 61.1081C114.914 61.2541 114.914 61.4161 114.898 61.5631V61.7251C114.898 61.8551 114.914 61.9851 114.93 62.1151C114.995 62.6181 115.174 63.1051 115.433 63.5601C115.725 64.0631 116.147 64.5021 116.667 64.7941C117.197 65.09 117.799 65.2307 118.404 65.2001C119.053 65.1841 119.687 64.9561 120.141 64.5021C120.2 64.4414 120.254 64.3762 120.303 64.3071L120.319 64.2911C120.368 64.2421 120.416 64.2261 120.465 64.2591C120.488 64.2879 120.504 64.3209 120.514 64.3561C120.53 64.4211 120.53 64.5021 120.546 64.5671C120.546 64.5831 120.546 64.6161 120.562 64.6321C120.562 64.6641 120.578 64.6971 120.578 64.7291C120.578 64.7781 120.594 64.8101 120.594 64.8591C120.61 64.9731 120.675 65.0381 120.789 65.0381H122.039C122.104 65.0381 122.153 65.0221 122.185 64.9891C122.234 64.9401 122.25 64.8751 122.25 64.7781V64.7621M120.269 62.0831C120.074 62.9921 119.149 63.5931 118.239 63.4141C117.216 63.2841 116.729 62.2941 116.761 61.3191C117.053 58.3311 120.999 59.1921 120.268 62.0821M115.419 48.0201C115.419 47.9881 115.419 47.9551 115.435 47.9391C115.565 46.8511 115.175 45.7471 114.477 44.9511C113.86 44.2691 113.016 43.8471 112.025 43.8631H111.879C111.7 43.8951 111.522 43.9281 111.343 43.9441C111.311 43.9441 111.294 43.9601 111.262 43.9601C111.002 44.0251 110.726 44.1551 110.483 44.3171C110.304 44.4471 110.142 44.5931 110.028 44.7551C110.028 44.7551 110.028 44.7711 110.012 44.7711C109.963 44.8521 109.931 44.8681 109.882 44.8521C109.85 44.8361 109.817 44.7711 109.801 44.7221C109.801 44.6901 109.785 44.6571 109.785 44.6411C109.753 44.5111 109.769 44.3331 109.72 44.2031C109.72 44.1924 109.715 44.1818 109.704 44.1711C109.689 44.1165 109.654 44.0696 109.606 44.0396C109.558 44.0096 109.5 43.9987 109.444 44.0091H108.405C108.113 44.0091 108.048 44.0581 108.064 44.3501V44.4471C108.096 46.2011 108.08 52.4351 108.064 54.0271C108.064 54.2541 108.113 54.3031 108.34 54.3031H109.818C109.899 54.3031 109.948 54.2541 109.98 54.1891C109.996 53.6371 109.996 53.1011 109.98 52.5491C109.98 51.9481 109.964 51.3471 109.964 50.7471C109.964 50.7151 109.964 50.6981 109.98 50.6821V50.6661C109.996 50.6501 109.996 50.6341 110.012 50.6341H110.028C110.06 50.6341 110.109 50.6501 110.142 50.6991C110.142 50.7151 110.158 50.7151 110.158 50.7311C110.158 50.7471 110.174 50.7471 110.174 50.7631C110.19 50.7951 110.206 50.8121 110.239 50.8281C110.272 50.8441 110.288 50.8771 110.32 50.8931C110.791 51.2661 111.392 51.4451 112.009 51.4451C112.334 51.4451 112.642 51.4131 112.951 51.3311C113.081 51.2991 113.211 51.2501 113.341 51.2011C113.406 51.1691 113.455 51.1521 113.52 51.1201C114.218 50.7631 114.754 50.1621 115.079 49.4481C115.274 48.9451 115.387 48.4901 115.42 48.0191M109.916 47.6781C109.851 45.0311 113.472 44.9181 113.521 47.5641C113.602 50.2271 109.998 50.3571 109.916 47.6781ZM98.5973 61.6921C98.3373 59.7271 96.1133 59.3701 94.6193 58.6561C94.2623 58.5101 94.0833 58.1851 94.0513 57.8441V57.5681C94.1163 57.1301 94.4243 56.7241 94.9603 56.7241C95.1873 56.7241 95.4313 56.6921 95.6423 56.7891C95.6583 56.7891 95.6583 56.8051 95.6743 56.8051C95.8533 56.8861 95.9663 57.0001 96.0473 57.0971C96.1933 57.2761 96.2263 57.4701 96.2583 57.6171C96.3073 57.8121 96.3553 57.9421 96.5833 57.9091H98.0443C98.0933 57.9091 98.1413 57.9091 98.1743 57.8931C98.1903 57.8931 98.2063 57.8931 98.2063 57.8771H98.2223C98.2873 57.8451 98.3033 57.7631 98.2873 57.6331C98.2713 57.5191 98.2553 57.4221 98.2383 57.3081C98.2063 57.1461 98.1733 56.9671 98.1083 56.8051V56.7891C97.9133 56.2041 97.5723 55.6851 97.0363 55.3761C97.0203 55.3601 97.0043 55.3601 96.9873 55.3441L96.8903 55.2951C96.4108 55.0511 95.8849 54.912 95.3475 54.8868C94.8101 54.8616 94.2735 54.951 93.7733 55.1491C93.4799 55.2701 93.2062 55.4343 92.9613 55.6361C92.7503 55.8151 92.5713 56.0261 92.4253 56.2691C92.4253 56.2851 92.4093 56.2851 92.4093 56.3011C92.1284 56.7898 91.9828 57.3445 91.9873 57.9081C92.0033 58.5411 92.2143 59.1421 92.6043 59.6451C92.8803 59.9861 93.2213 60.2621 93.6593 60.4411C94.2603 60.7331 94.9093 60.9441 95.5263 61.1881C95.5583 61.2041 95.6073 61.2201 95.6403 61.2371C95.6723 61.2531 95.7213 61.2691 95.7543 61.2861C95.8033 61.3021 95.8353 61.3351 95.8843 61.3511C96.0463 61.4321 96.1923 61.5461 96.3223 61.6921C96.3741 61.7387 96.418 61.7934 96.4523 61.8541C96.5333 61.9681 96.5663 62.1141 96.5823 62.2601C96.5983 62.3901 96.5823 62.5201 96.5663 62.6501C96.5663 62.6661 96.5503 62.6821 96.5503 62.7151C96.5182 62.8149 96.4687 62.9084 96.4043 62.9911C96.2796 63.1581 96.111 63.2872 95.9173 63.3641C95.7058 63.4488 95.4788 63.4876 95.2513 63.4781C95.0755 63.4697 94.9012 63.4426 94.7313 63.3971C94.4888 63.327 94.2699 63.1922 94.0983 63.0071C93.9616 62.8364 93.8671 62.636 93.8223 62.4221C93.8038 62.3532 93.7931 62.2824 93.7903 62.2111C93.7743 62.0491 93.7253 62.0001 93.5953 61.9841H93.5303C93.2703 61.9841 92.7673 61.9841 92.7673 61.9681H91.9883C91.9233 61.9681 91.8913 61.9681 91.8423 61.9841C91.8263 61.9841 91.8263 62.0001 91.8103 62.0001L91.7943 62.0161L91.7623 62.0481C91.7623 62.0481 91.7623 62.0641 91.7463 62.0641C91.7303 62.0961 91.7303 62.1131 91.7303 62.1611V62.1931C91.7303 62.3071 91.7463 62.4041 91.7623 62.5181C91.7623 62.5501 91.7783 62.5831 91.7783 62.6151C91.7783 62.6311 91.7783 62.6471 91.7943 62.6641C91.8103 62.7131 91.8103 62.7611 91.8263 62.8101C91.8423 62.9071 91.8753 62.9891 91.9073 63.0861C92.0693 63.5891 92.3623 64.0601 92.7513 64.4171C92.8483 64.4981 92.9463 64.5791 93.0593 64.6611C93.4493 64.9211 93.8713 65.0831 94.3423 65.1641C94.4883 65.1961 94.6503 65.2131 94.8133 65.2131C94.9273 65.2291 95.0243 65.2291 95.1383 65.2291C95.5771 65.243 96.0153 65.1883 96.4373 65.0671C97.0227 64.9006 97.5473 64.5678 97.9473 64.1091C98.3043 63.6711 98.5483 63.1191 98.5803 62.4691C98.6453 62.2421 98.6293 61.9661 98.5963 61.6901M128.603 46.7701V44.2211C128.604 44.1706 128.593 44.1206 128.571 44.0751L128.522 44.0261C128.477 44.0043 128.427 43.9933 128.376 43.9941H127.207C127.158 43.9941 127.126 43.9941 127.093 44.0101C126.996 44.0261 126.963 44.0911 126.947 44.2211V44.2531C126.931 44.3181 126.931 44.3991 126.915 44.4971C126.914 44.5738 126.903 44.6499 126.883 44.7241C126.87 44.7634 126.854 44.8016 126.834 44.8381H126.802L126.705 44.7891C126.673 44.7571 126.64 44.7081 126.608 44.6751C126.296 44.3326 125.889 44.0899 125.439 43.9771C125.005 43.866 124.552 43.8438 124.108 43.9121C124.092 43.9121 124.076 43.9121 124.059 43.9281C122.663 44.1071 121.672 45.3241 121.364 46.6401C121.348 46.7371 121.315 46.8351 121.299 46.9321C121.299 46.9811 121.283 47.0131 121.283 47.0621C121.153 48.0691 121.38 49.1401 121.932 49.9681C122.403 50.6821 123.101 51.2021 124.027 51.3641C124.059 51.3641 124.092 51.3801 124.124 51.3801C124.156 51.3801 124.189 51.3801 124.205 51.3961C124.806 51.4611 125.455 51.4121 125.991 51.1201C126.153 51.0391 126.299 50.9251 126.429 50.8121C126.51 50.7311 126.591 50.6331 126.673 50.5361V50.5201C126.705 50.4881 126.754 50.4551 126.787 50.4551C126.82 50.4551 126.852 50.4711 126.868 50.5201V50.5521C126.884 50.6331 126.9 50.7311 126.917 50.8121C126.917 50.8441 126.917 50.8771 126.933 50.8931C126.933 50.9251 126.949 50.9741 126.949 51.0071C126.965 51.2021 127.014 51.2511 127.209 51.2511H128.378C128.557 51.2511 128.622 51.2021 128.622 51.0071V47.6141C128.606 47.3381 128.606 47.0621 128.606 46.7701M125.716 49.4651C124.433 50.1141 123.086 49.0101 123.151 47.6461C123.086 46.6231 123.898 45.5841 124.986 45.6331C126.934 45.6491 127.404 48.6691 125.716 49.4651ZM106.407 44.1241C106.391 44.0431 106.342 43.9941 106.228 43.9941H105.432C105.075 43.9781 104.912 43.9781 104.831 44.0751L104.815 44.0911C104.766 44.1561 104.75 44.2531 104.734 44.4161C104.718 44.5301 104.702 44.6761 104.669 44.8541C104.637 44.8541 104.604 44.8541 104.572 44.8381C104.54 44.8221 104.507 44.8061 104.491 44.7731L104.459 44.7411C104.443 44.7251 104.427 44.6921 104.394 44.6761C104.264 44.5301 104.134 44.4161 103.988 44.3191C103.972 44.3031 103.956 44.2871 103.923 44.2871C103.764 44.1898 103.595 44.1081 103.42 44.0431H103.404C102.608 43.7671 101.65 43.8811 100.904 44.2701C100.888 44.2861 100.872 44.2861 100.855 44.3021C100.774 44.3511 100.709 44.3991 100.628 44.4481C99.5243 45.1791 99.0043 46.5261 99.0533 47.8251C99.1023 49.0591 99.6383 50.2601 100.66 50.9261C100.822 51.0231 100.985 51.1211 101.163 51.2021C101.212 51.2181 101.244 51.2341 101.293 51.2511C101.829 51.4461 102.462 51.5111 103.047 51.3971C103.502 51.3001 103.94 51.1051 104.265 50.7961C104.318 50.7457 104.367 50.6916 104.411 50.6341C104.442 50.5837 104.487 50.5439 104.541 50.5201C104.59 50.5041 104.638 50.4881 104.655 50.5361C104.671 50.5521 104.671 50.5851 104.671 50.6171C104.687 50.6981 104.703 50.8121 104.703 50.9251C104.719 51.0551 104.735 51.1691 104.784 51.2501C104.801 51.2761 104.826 51.2963 104.855 51.308C104.884 51.3196 104.916 51.3221 104.946 51.3151H106.196C106.31 51.3151 106.358 51.2831 106.375 51.2011C106.375 51.1851 106.375 51.1521 106.391 51.1361V45.5021C106.391 45.1611 106.407 44.8361 106.407 44.4951C106.423 44.3713 106.423 44.2459 106.407 44.1221M102.072 49.4961C100.708 48.9441 100.594 46.6711 101.812 45.9081C103.095 45.0801 104.653 46.1681 104.572 47.6291C104.669 48.9601 103.322 50.0481 102.072 49.4961ZM106.391 61.0751C106.368 60.5155 106.241 59.965 106.018 59.4511C105.791 58.9641 105.466 58.5261 104.979 58.2171C104.963 58.2011 104.947 58.2011 104.93 58.1851C104.256 57.7828 103.469 57.6118 102.689 57.6981C102.036 57.7633 101.414 58.0045 100.887 58.3961C100.725 58.5261 100.562 58.6561 100.432 58.8181C100.302 58.9641 100.188 59.1261 100.075 59.2891C99.6533 59.9871 99.4583 60.8311 99.4903 61.6761C99.5553 62.9421 100.139 64.1761 101.26 64.7771C101.26 64.7771 101.276 64.7771 101.276 64.7931C102.786 65.6051 104.994 65.2961 105.92 63.7861C105.968 63.7212 106.006 63.6502 106.034 63.5751C106.066 63.4941 106.164 63.3311 106.245 63.1531C106.326 62.9581 106.359 62.7631 106.18 62.7631H104.865C104.654 62.7631 104.524 62.8281 104.427 63.0071C104.411 63.0391 104.395 63.0561 104.378 63.0881C104.232 63.2991 104.021 63.4291 103.777 63.5101C103.452 63.6241 103.079 63.6241 102.738 63.5591C102.722 63.5591 102.706 63.5591 102.689 63.5431C102.592 63.5271 102.51 63.4941 102.429 63.4621C102.249 63.3906 102.084 63.2862 101.942 63.1541C101.739 62.9563 101.589 62.7109 101.504 62.4401C101.488 62.4081 101.488 62.3751 101.472 62.3431C101.456 62.2621 101.44 62.2131 101.44 62.1641V62.1481C101.44 62.1321 101.44 62.1161 101.456 62.0991C101.456 62.0991 101.456 62.0831 101.472 62.0831L101.488 62.0671L101.504 62.0511C101.52 62.0351 101.536 62.0351 101.553 62.0191C101.602 62.0031 101.65 62.0031 101.732 62.0031H103.956V62.0191H106.262C106.327 62.0191 106.376 61.9871 106.392 61.9541C106.424 61.8891 106.424 61.8081 106.424 61.7101C106.408 61.5151 106.408 61.3041 106.392 61.0771M104.395 60.7201C103.924 60.7521 103.453 60.7201 102.999 60.7361H101.619C101.489 60.7201 101.457 60.6711 101.473 60.5411C101.538 60.1191 101.749 59.7621 102.106 59.5341C102.837 59.0471 104.006 59.2091 104.395 60.0541C104.444 60.1841 104.655 60.6871 104.395 60.7201ZM91.8433 43.1821C92.2163 43.1821 92.5903 43.1821 92.9803 43.1661C93.4673 43.1661 93.9543 43.1501 94.4413 43.1661C94.5553 43.1821 94.5873 43.2311 94.5873 43.3451C94.5713 44.5471 94.5713 45.7481 94.5713 46.9501V51.0741C94.5873 51.2361 94.7013 51.2691 94.8153 51.2691C94.9123 51.2691 95.0103 51.2691 95.0913 51.2531H96.3093C96.5363 51.2531 96.5853 51.1881 96.5853 50.9771V43.3781C96.5853 43.2971 96.5853 43.2481 96.6173 43.2161C96.6314 43.1948 96.6508 43.1777 96.6736 43.1663C96.6964 43.1549 96.7218 43.1496 96.7473 43.1511C96.8123 43.1351 96.8933 43.1511 96.9583 43.1511H99.5233C99.7503 43.1511 99.7993 43.1021 99.8153 42.8591C99.8153 42.4371 99.8153 42.0311 99.8313 41.6091C99.8313 41.3011 99.7993 41.2681 99.5063 41.2681C98.2073 41.2681 92.0703 41.2361 91.5663 41.2361C91.4043 41.2361 91.3393 41.3011 91.3223 41.4471V42.9411C91.3233 42.9862 91.3343 43.0306 91.3543 43.0711C91.3729 43.0911 91.3949 43.1077 91.4193 43.1201C91.5333 43.2171 91.7273 43.1851 91.8413 43.1851M113.746 61.6271C113.778 60.7661 113.762 59.8731 113.535 59.1591C113.429 58.8403 113.258 58.5471 113.032 58.2981C112.512 57.7621 111.717 57.5671 110.986 57.6971C110.648 57.7586 110.327 57.8916 110.044 58.0871C109.882 58.2011 109.736 58.3471 109.622 58.5091C109.541 58.5901 109.492 58.5901 109.46 58.5581C109.411 58.5091 109.395 58.4121 109.395 58.3141C109.379 58.2171 109.379 58.1031 109.379 58.0541C109.379 58.0051 109.363 57.9731 109.363 57.9401C109.331 57.8751 109.298 57.8431 109.217 57.8431H107.983C107.772 57.8431 107.739 57.8751 107.739 58.1031V61.4481H107.755C107.755 62.3091 107.755 63.1531 107.739 64.0131V64.8741C107.739 64.9231 107.739 64.9551 107.755 64.9881C107.771 65.0691 107.836 65.1021 107.966 65.1021H109.508C109.605 65.0701 109.638 65.0051 109.638 64.8581C109.654 64.3712 109.654 63.884 109.638 63.3971C109.622 62.7801 109.606 62.1791 109.622 61.5781C109.638 61.2371 109.671 60.8961 109.719 60.5711C109.719 60.5391 109.735 60.5221 109.735 60.4901C109.784 60.2791 109.897 60.0841 110.043 59.9221C110.222 59.7271 110.449 59.5971 110.692 59.5491C110.806 59.5331 110.919 59.5331 111.033 59.5491C111.114 59.5491 111.179 59.5811 111.26 59.6141C111.276 59.6141 111.292 59.6301 111.309 59.6461C111.309 59.6461 111.325 59.6461 111.325 59.6621H111.341C111.568 59.7921 111.747 60.0031 111.796 60.2301C111.893 61.0261 111.893 61.8211 111.877 62.6171C111.861 63.3481 111.828 64.0781 111.845 64.8091C111.845 64.8901 111.845 64.9391 111.861 64.9881C111.877 65.0531 111.91 65.0851 111.975 65.1021H111.991C112.023 65.1181 112.072 65.1181 112.121 65.1181H113.274C113.371 65.1021 113.501 65.1341 113.615 65.1181C113.696 65.1021 113.761 65.0691 113.777 64.9561V64.8751C113.777 64.4531 113.761 64.0141 113.761 63.5921C113.761 63.5271 113.745 63.4781 113.745 63.4131C113.68 62.8451 113.714 62.2441 113.746 61.6271ZM115.841 44.5131C115.841 44.7401 115.857 45.0491 115.857 45.4711C115.857 45.5851 115.873 45.6661 115.922 45.6981C115.922 45.6981 115.938 45.7141 115.954 45.7141H116.798C116.993 45.7141 117.042 45.7631 117.042 45.9581V47.5171C117.074 48.0531 117.01 48.6211 117.026 49.1571C117.042 49.4011 117.058 49.6441 117.123 49.8881V49.9041C117.155 50.0501 117.204 50.1801 117.269 50.3261C117.301 50.3911 117.334 50.4401 117.366 50.4881C117.853 51.2671 118.876 51.3811 119.737 51.3321C119.834 51.3161 120.013 51.3161 120.175 51.3001C120.37 51.2681 120.565 51.2031 120.581 51.0561V49.6601C120.581 49.6494 120.576 49.6387 120.565 49.6281C120.533 49.5631 120.468 49.5471 120.354 49.5791H120.338C120.111 49.6281 119.818 49.6761 119.575 49.6281C119.379 49.603 119.199 49.5044 119.072 49.3521C119.056 49.3361 119.056 49.3201 119.04 49.3031C118.973 49.1884 118.929 49.0617 118.91 48.9301C118.894 48.8331 118.894 48.7351 118.894 48.6381C118.894 48.1671 118.91 47.7131 118.91 47.2421C118.91 46.7711 118.926 46.3171 118.926 45.8461C118.942 45.7971 118.975 45.7651 119.007 45.7321H119.023C119.069 45.7121 119.119 45.7012 119.169 45.7001H120.371C120.436 45.7001 120.468 45.7001 120.501 45.6841C120.55 45.6521 120.566 45.6031 120.582 45.5051V44.1901C120.584 44.1322 120.567 44.0754 120.533 44.0281C120.501 43.9961 120.452 43.9791 120.387 43.9791C119.981 43.9791 119.591 43.9791 119.185 43.9951C118.99 43.9951 118.941 43.9631 118.941 43.7841C118.941 43.3621 118.957 42.9561 118.973 42.5341V42.4531C118.957 42.2911 118.876 42.2421 118.713 42.2421C118.177 42.2741 117.804 42.2421 117.56 42.2421C117.333 42.2261 117.203 42.2261 117.122 42.2741L117.106 42.2901C117.025 42.3711 117.009 42.5341 117.025 42.8751C117.025 43.0861 117.041 43.3621 117.041 43.7361V43.7851C117.041 43.8501 117.025 43.8821 117.009 43.9311C117.009 43.9311 117.009 43.9471 116.993 43.9471L116.977 43.9631H116.961C116.945 43.9631 116.945 43.9791 116.929 43.9791C116.897 43.9951 116.848 43.9951 116.799 43.9951H116.442C116.02 43.9791 115.89 43.9791 115.841 44.1741V44.5151" fill="white"/>
</svg>
