<svg width="757" height="872" viewBox="0 0 757 872" fill="none" xmlns="http://www.w3.org/2000/svg">
<mask id="mask0_2318_5889" style="mask-type:alpha" maskUnits="userSpaceOnUse" x="0" y="0" width="757" height="872">
<rect width="757" height="872" fill="#D9D9D9"/>
</mask>
<g mask="url(#mask0_2318_5889)">
<mask id="mask1_2318_5889" style="mask-type:alpha" maskUnits="userSpaceOnUse" x="-25" y="-156" width="782" height="1106">
<rect x="-24.2446" y="-155.522" width="780.706" height="1105.13" fill="#D9D9D9"/>
</mask>
<g mask="url(#mask1_2318_5889)">
<path d="M101.171 778.745L157.54 681.148C169.42 660.58 195.824 653.472 216.333 665.309C236.845 677.147 243.94 703.466 232.008 724.125L175.638 821.722C163.759 842.29 137.355 849.398 116.845 837.561C96.3334 825.723 89.2385 799.404 101.171 778.745Z" stroke="#2E69FF" stroke-width="3"/>
<path d="M299.107 113.457L242.738 211.054C230.392 232.43 237.731 259.666 258.961 271.919C280.192 284.172 307.512 276.813 319.804 255.531L376.173 157.934C388.519 136.558 381.18 109.322 359.95 97.0694C338.719 84.8167 311.399 92.1754 299.107 113.457Z" fill="#2E69FF"/>
<path d="M76.9753 662.996C65.0946 683.566 38.7835 690.725 18.1822 678.835C-2.32965 666.997 -9.42462 640.679 2.50779 620.019L153.422 358.73C165.302 338.162 191.705 331.054 212.215 342.891C232.727 354.729 239.822 381.047 227.89 401.707L76.9753 662.996Z" stroke="#79F7C6" stroke-width="3"/>
<path d="M373.455 373.34C394.779 385.647 422.099 378.288 434.391 357.006L585.306 95.7164C597.652 74.3407 590.313 47.1045 568.989 34.7979C547.665 22.4913 520.438 29.9039 508.147 51.1858L357.232 312.476C344.886 333.851 352.225 361.088 373.455 373.34Z" fill="#79F7C6"/>
<path d="M403.716 527.846L347.346 625.443C335 646.819 342.339 674.055 363.57 686.308C384.8 698.561 412.12 691.202 424.412 669.92L480.782 572.323C493.128 550.947 485.789 523.711 464.558 511.459C443.328 499.206 416.008 506.564 403.716 527.846Z" fill="#FFCA36"/>
<path d="M593.986 819.664L537.617 917.261C525.271 938.637 532.61 965.873 553.84 978.126C575.071 990.379 602.391 983.02 614.683 961.738L671.052 864.141C683.398 842.765 676.059 815.529 654.829 803.276C633.598 791.024 606.278 798.382 593.986 819.664Z" fill="#2E69FF"/>
<path d="M559.73 448.997C547.85 469.567 521.538 476.726 500.937 464.836C480.425 452.998 473.33 426.68 485.263 406.02L636.177 144.731C648.057 124.163 674.46 117.055 694.97 128.892C715.482 140.73 722.577 167.048 710.645 187.708L559.73 448.997Z" stroke="#2E69FF" stroke-width="3"/>
<path d="M684.806 364.552L628.437 462.149C616.091 483.525 623.429 510.761 644.66 523.014C665.89 535.266 693.21 527.908 705.502 506.626L761.872 409.029C774.218 387.653 766.879 360.417 745.649 348.164C724.418 335.911 697.098 343.27 684.806 364.552Z" fill="#FFCA36"/>
<path d="M740.048 568.732L664.678 696.329C652.332 717.704 659.671 744.94 680.901 757.193C702.132 769.446 729.452 762.087 741.744 740.805L817.113 613.208C829.459 591.833 822.12 564.596 800.89 552.344C779.659 540.091 752.339 547.45 740.048 568.732Z" fill="#79F7C6"/>
<path d="M337.679 669.626L281.31 767.223C268.964 788.599 276.302 815.835 297.533 828.088C318.763 840.34 346.084 832.982 358.375 811.7L414.745 714.103C427.091 692.727 419.752 665.491 398.522 653.238C377.291 640.986 349.971 648.344 337.679 669.626Z" fill="#FFCA36"/>
<path d="M486.416 882.954C474.536 903.524 448.224 910.682 427.623 898.793C407.111 886.955 400.016 860.636 411.949 839.977L562.863 578.687C574.743 558.119 601.146 551.012 621.656 562.848C642.168 574.686 649.263 601.005 637.331 621.664L486.416 882.954Z" stroke="#FF3B84" stroke-width="3"/>
<path d="M279.883 444.572L277.933 447.947C265.587 469.322 272.926 496.559 294.157 508.811C315.387 521.064 342.707 513.705 354.999 492.423L356.949 489.048C369.295 467.673 361.956 440.436 340.725 428.184C319.495 415.931 292.175 423.29 279.883 444.572Z" fill="#FF3B84"/>
</g>
</g>
</svg>
