<?xml version="1.0" encoding="UTF-8"?>
<svg id="Icon_art" data-name="Icon art" xmlns="http://www.w3.org/2000/svg" viewBox="0 0 100 100">
  <defs>
    <style>
      .cls-1 {
        fill: #ff00b8;
      }

      .cls-1, .cls-2, .cls-3, .cls-4, .cls-5, .cls-6, .cls-7 {
        stroke-width: 0px;
      }

      .cls-2 {
        fill: none;
      }

      .cls-3 {
        fill: #0d6eff;
      }

      .cls-4 {
        fill: #021876;
      }

      .cls-5 {
        fill: rgba(255, 74, 251, 0);
      }

      .cls-6 {
        fill: #fff;
      }

      .cls-7 {
        fill: #00cfbd;
      }

      .cls-8 {
        opacity: 0;
      }
    </style>
  </defs>
  <rect class="cls-5" width="100" height="100"/>
  <g>
    <g class="cls-8">
      <rect class="cls-1" width="100" height="100"/>
    </g>
    <g>
      <rect class="cls-2" x="46.17" y="37.02" width=".09" height="6"/>
      <rect class="cls-2" x="38.71" y="49.07" width=".09" height="6"/>
      <path class="cls-7" d="M88.25,36.91h-9.5v12.55l1.7-1.62c.62-.54,1.57-.48,2.12.15.51.59.49,1.47-.05,2.03l-3.77,3.61v18.04h0v.52c5.2-2.94,12.5-9.21,12.5-21.25v-11.02c0-1.66-1.34-3.01-3-3.01Z"/>
      <path class="cls-4" d="M72.28,74.26c-2.86-.94-17.1-6.52-17.1-23.32v-11.02c0-1.66,1.35-3.01,3.01-3.01h20.56v-8.83H8.75v51.14c0,2.5,2.02,4.53,4.5,4.53h65.5v-11.56c-2.05,1.17-3.78,1.81-4.59,2.07-.61.2-1.27.2-1.88,0ZM38.8,55.07h-22.68v-6h22.68v6ZM46.26,43.02h-30.14v-6h30.14v6Z"/>
      <path class="cls-3" d="M78.75,71.67v-18.04l-7.24,6.91c-.29.27-.66.42-1.06.42s-.75-.15-1.03-.42l-5.5-5.26c-.63-.54-.69-1.49-.15-2.12.55-.62,1.5-.69,2.12-.14.03.03.06.06.09.08l4.47,4.27,8.3-7.91v-12.55h-20.56c-1.66,0-3.01,1.35-3.01,3.01v11.02c0,16.8,14.24,22.38,17.1,23.32.61.2,1.27.2,1.88,0,.81-.26,2.54-.9,4.59-2.07v-.51h0Z"/>
      <path class="cls-6" d="M65.98,53.1s-.06-.05-.09-.08c-.62-.55-1.57-.48-2.12.14-.54.63-.48,1.58.15,2.12l5.5,5.26c.28.27.65.42,1.03.42.4,0,.77-.15,1.06-.42l7.24-6.91,3.77-3.61c.54-.56.56-1.44.05-2.03-.55-.63-1.5-.69-2.12-.15l-1.7,1.62-8.3,7.91-4.47-4.27Z"/>
      <path class="cls-7" d="M8.84,28.08h69.91v-7.33c0-1.86-1.12-3.46-2.74-4.14-.54-.24-1.13-.36-1.76-.36H8.75v11.83h.09ZM33.49,19.92c1.24,0,2.25,1.01,2.25,2.25s-1.01,2.25-2.25,2.25-2.25-1.01-2.25-2.25,1.01-2.25,2.25-2.25ZM24.24,20.77c.41-.52,1.04-.85,1.75-.85.46,0,.9.14,1.26.38.59.41.99,1.09.99,1.87s-.4,1.47-1,1.87c-.36.24-.79.38-1.25.38-.71,0-1.34-.34-1.75-.85-.31-.39-.5-.87-.5-1.4s.19-1.02.5-1.4ZM17.47,20.16c.3-.15.64-.24.99-.24.89,0,1.66.52,2.02,1.27.15.29.23.62.23.98s-.08.68-.23.98c-.37.75-1.13,1.27-2.02,1.27-.35,0-.68-.09-.98-.24-.74-.36-1.27-1.12-1.27-2.01s.52-1.65,1.26-2.01Z"/>
      <polygon class="cls-3" points="16.21 37.02 16.12 37.02 16.12 43.02 16.21 43.02 46.25 43.02 46.25 37.02 16.21 37.02"/>
      <polygon class="cls-3" points="16.21 49.07 16.12 49.07 16.12 55.07 16.21 55.07 38.79 55.07 38.79 49.07 16.21 49.07"/>
      <circle class="cls-4" cx="33.49" cy="22.17" r="2.25"/>
      <path class="cls-4" d="M25.99,24.42c.46,0,.89-.14,1.25-.38.6-.4,1-1.09,1-1.87s-.4-1.46-.99-1.87c-.36-.24-.8-.38-1.26-.38-.71,0-1.34.33-1.75.85-.31.38-.5.87-.5,1.4s.19,1.01.5,1.4c.41.51,1.04.85,1.75.85Z"/>
      <path class="cls-4" d="M17.48,24.18c.3.15.63.24.98.24.89,0,1.65-.52,2.02-1.27.15-.3.23-.63.23-.98s-.08-.69-.23-.98c-.36-.75-1.13-1.27-2.02-1.27-.35,0-.69.09-.99.24-.74.36-1.26,1.12-1.26,2.01s.53,1.65,1.27,2.01Z"/>
    </g>
  </g>
</svg>