<?xml version="1.0" encoding="UTF-8"?>
<svg id="Icon_art" data-name="Icon art" xmlns="http://www.w3.org/2000/svg" viewBox="0 0 100 100">
  <defs>
    <style>
      .cls-1 {
        fill: #316cff;
      }

      .cls-1, .cls-2, .cls-3, .cls-4 {
        stroke-width: 0px;
      }

      .cls-2 {
        fill: #071871;
      }

      .cls-3 {
        fill: #36cbbd;
      }

      .cls-4 {
        fill: #fff;
      }
    </style>
  </defs>
  <path class="cls-3" d="M16.16,79.23c0,2.5,2.02,4.52,4.52,4.52h9.18c2.5,0,4.52-2.02,4.52-4.52v-10.42h-18.22v10.42Z"/>
  <path class="cls-2" d="M86.52,43.04c1.31,0,2.37-1.13,2.37-2.53v-2.94c0-1.39-1.06-2.52-2.37-2.52h-6.1l-6.55-15.53c-.83-1.99-2.7-3.27-4.76-3.27H30.73c-2.06,0-3.93,1.28-4.76,3.27l-6.55,15.53h-5.85c-1.35,0-2.45,1.1-2.45,2.45v3.1c0,1.35,1.1,2.45,2.45,2.45h2.6v25.77h35.21v-22.55h32.28v-3.21h2.85v-.02ZM31.49,20.94h36.84l7.09,16.55H24.41s7.08-16.55,7.08-16.55ZM32.57,57.96h-6.8c-.75,0-1.35-.6-1.35-1.35s.6-1.35,1.35-1.35h6.8c.75,0,1.35.6,1.35,1.35s-.6,1.35-1.35,1.35Z"/>
  <polygon class="cls-1" points="68.32 20.93 31.49 20.94 24.41 37.49 75.42 37.49 68.32 20.93"/>
  <path class="cls-3" d="M83.66,79.23v4.52h5.22v-35.1c0-1.33-1.07-2.4-2.4-2.4h-2.82v32.98Z"/>
  <path class="cls-1" d="M51.38,68.8v12.7c0,1.24,1.01,2.25,2.25,2.25h16.33c-1.37,0-2.59-.61-3.42-1.56.83.96,2.05,1.56,3.42,1.56h13.7v-37.5h-32.28v22.55ZM60.57,64.7v-.21c.26-4.89,4.16-8.8,9.05-9.05h1c4.89.25,8.8,4.17,9.05,9.06,0,.07,0,.14.01.21h0v.57c-.01.07-.01.14-.01.21-.25,4.89-4.16,8.8-9.05,9.05h-1c-4.9-.25-8.81-4.18-9.05-9.07v-.21s0-.56,0-.56Z"/>
  <path class="cls-4" d="M32.57,55.26h-6.8c-.75,0-1.35.6-1.35,1.35s.6,1.35,1.35,1.35h6.8c.75,0,1.35-.6,1.35-1.35s-.6-1.35-1.35-1.35Z"/>
  <path class="cls-1" d="M70.14,65.8h5.58c.44,0,.8-.36.8-.8s-.36-.8-.8-.8h-4.78v-4.78c0-.44-.36-.8-.8-.8s-.8.36-.8.8v5.58c0,.44.36.8.8.8Z"/>
  <path class="cls-4" d="M69.64,74.55h1c4.89-.25,8.8-4.17,9.05-9.05,0-.07,0-.14.01-.21v-.56h0c-.01-.08-.01-.15-.01-.22-.25-4.9-4.16-8.81-9.05-9.06h-1c-4.89.25-8.8,4.16-9.05,9.05v.98c.25,4.9,4.15,8.82,9.05,9.07ZM69.34,59.42c0-.44.36-.8.8-.8s.8.36.8.8v4.78h4.78c.44,0,.8.36.8.8s-.36.8-.8.8h-5.58c-.44,0-.8-.36-.8-.8v-5.58Z"/>
</svg>