<?xml version="1.0" encoding="utf-8"?>
<!-- Generator: Adobe Illustrator 28.3.0, SVG Export Plug-In . SVG Version: 6.00 Build 0)  -->
<svg version="1.1" id="Icon_art" xmlns="http://www.w3.org/2000/svg" xmlns:xlink="http://www.w3.org/1999/xlink" x="0px" y="0px"
	 viewBox="0 0 100 100" style="enable-background:new 0 0 100 100;" xml:space="preserve">
<style type="text/css">
	.st0{fill:#00CFBD;}
	.st1{fill:#0D6EFF;}
	.st2{fill:#FFFFFF;}
	.st3{fill:#021876;}
</style>
<g>
	<path class="st0" d="M81.5,46.2H61.2v9.4l8.4,0c3.1,0,5.7,2.2,6.3,5.2c0.4,2,0.4,2,0,0l1.7,9h0c0.4,2.1-1,4.1-3.1,4.4
		c-0.2,0-0.4,0.1-0.7,0.1c-1,0-2-0.4-2.7-1.1l-0.1-0.1l-4.3-4.8l-3.7,0l-1.9,2.1v13.2h22.5V48.5C83.8,47.2,82.7,46.2,81.5,46.2z"/>
	<path class="st0" d="M67.9,62.9h3.4c0.5,0,0.8-0.4,0.8-0.8s-0.4-0.8-0.8-0.8h-3.4c-0.5,0-0.8,0.4-0.8,0.8S67.4,62.9,67.9,62.9z"/>
	<path class="st0" d="M61.3,63.7v-0.8h0.8c0.5,0,0.8-0.4,0.8-0.8s-0.4-0.8-0.8-0.8h-0.8v-0.8c0,0,0-0.1,0-0.1L61.3,63.7
		C61.2,63.8,61.3,63.8,61.3,63.7z"/>
	<path class="st1" d="M61.2,79.2v-8.8l-2.4,2.7l0,0.1c-0.2,0.2-0.4,0.3-0.6,0.4c-0.6,0.4-1.4,0.7-2.2,0.7c-0.2,0-0.4,0-0.7-0.1
		c-0.1,0-0.2,0,0,0c-0.5-0.1-1-0.3-1.5-0.6c-1.2-0.8-1.9-2.3-1.6-3.8L54,61v0c0.5-3,3.2-5.3,6.3-5.3h0.9v-9.4h-15v35.2
		c0,1.2,1,2.2,2.2,2.2h12.8C61.2,83.8,61.2,79.2,61.2,79.2z"/>
	<path class="st2" d="M54,60.9L54,60.9l-1.7,8.9c-0.3,1.5,0.4,3,1.6,3.8c0.4,0.3,0.9,0.5,1.5,0.6c0.4,0.1,0.4,0.1,0,0
		c0.2,0,0.4,0.1,0.7,0.1c0.8,0,1.5-0.2,2.2-0.7c0.2-0.1,0.4-0.3,0.6-0.4l0-0.1l2.4-2.7l1.9-2.1l3.7,0l4.3,4.8l0.1,0.1
		c0.7,0.7,1.7,1.1,2.7,1.1c0.2,0,0.4,0,0.7-0.1c2.1-0.4,3.5-2.3,3.1-4.4h0l-1.7-9c0,0,0,0,0,0c-0.6-3-3.2-5.2-6.3-5.2l-8.4,0h-0.9
		C57.2,55.7,54.6,57.9,54,60.9z M67.9,61.2h3.4c0.5,0,0.8,0.4,0.8,0.8s-0.4,0.8-0.8,0.8h-3.4c-0.5,0-0.8-0.4-0.8-0.8
		S67.4,61.2,67.9,61.2z M61.2,60.2C61.2,60.2,61.3,60.3,61.2,60.2l0,0.9h0.8c0.5,0,0.8,0.4,0.8,0.8s-0.4,0.8-0.8,0.8h-0.8v0.8
		c0,0,0,0.1,0,0.1c0,0.4-0.4,0.8-0.8,0.8c-0.5,0-0.8-0.4-0.8-0.8v-0.8h-0.8c-0.5,0-0.8-0.4-0.8-0.8s0.4-0.8,0.8-0.8h0.8v-0.8
		c0-0.5,0.4-0.8,0.8-0.8C60.8,59.5,61.2,59.8,61.2,60.2z"/>
	<path class="st1" d="M59.6,60.3v0.8h-0.8c-0.5,0-0.8,0.4-0.8,0.8s0.4,0.8,0.8,0.8h0.8v0.8c0,0.5,0.4,0.9,0.8,0.9
		c0.4,0,0.8-0.3,0.8-0.8v-3.6c0-0.4-0.4-0.8-0.8-0.8C59.9,59.5,59.6,59.9,59.6,60.3z"/>
	<path class="st3" d="M46.2,73.7V46.2h15V20.8c0-2.5-2-4.5-4.5-4.5h-36c-2.5,0-4.5,2-4.5,4.5v52.9H46.2z M21.6,25.7h34.3v6H21.6
		V25.7z M29.9,57.8c-1.1,0-2.2,0-3.3-0.2c-1.3-0.2-2.4-1.2-2.6-2.5c-0.1-0.8-0.3-1.8-0.3-2.9c-0.1-1.6,0.1-3.4,0.6-5.2
		c0.5-1.8,1.5-3.6,3-5.2c4.2-4.4,10.1-4.3,13.2-3.8c1.3,0.2,2.4,1.2,2.6,2.5c0.6,3.1,0.9,9-3.3,13.4C36.8,56.9,33,57.7,29.9,57.8z"
		/>
	<rect x="21.6" y="25.7" class="st1" width="34.3" height="6"/>
	<path class="st0" d="M46.2,81.5v-7.8h-30v5.6c0,2.5,2,4.5,4.5,4.5h27.8C47.3,83.8,46.2,82.7,46.2,81.5z M38.8,81
		c-1.2,0-2.2-1-2.2-2.2s1-2.2,2.2-2.2s2.2,1,2.2,2.2S40,81,38.8,81z"/>
	<path class="st1" d="M43.1,40.4c-0.2-1.3-1.3-2.3-2.6-2.5c-3.1-0.5-9-0.6-13.2,3.8c-1.6,1.6-2.5,3.4-3,5.2
		c-0.5,1.8-0.7,3.6-0.6,5.2c0,1.1,0.2,2.1,0.3,2.9c0.2,1.3,1.3,2.3,2.6,2.5c1.1,0.2,2.2,0.2,3.3,0.2c3.1-0.1,6.9-0.9,9.9-4
		C44,49.4,43.7,43.5,43.1,40.4z M26.8,56.1c-0.7-0.1-1.2-0.6-1.4-1.3c-0.2-0.8-0.2-1.6-0.3-2.4c0-0.7,0-1.4,0-2.1l2.1,2l4,3.9
		C29.8,56.3,28.3,56.3,26.8,56.1z M37.1,45.1C37.1,45.1,37.1,45.1,37.1,45.1l-1.4,1.4l0.1,0.1l0.5,0.5c0.3,0.3,0.3,0.8,0.1,1.1
		c-0.3,0.3-0.8,0.3-1.1,0.1c0,0,0,0,0,0l-0.6-0.6l-1.2,1.2l0.6,0.6c0.3,0.3,0.3,0.8,0.1,1.1s-0.8,0.3-1.1,0.1c0,0,0,0,0,0L32.4,50
		l-1.4,1.4c-0.3,0.3-0.8,0.3-1.1,0c-0.3-0.3-0.3-0.8,0-1.1c0,0,0,0,0,0l1.4-1.4l-0.6-0.6c-0.3-0.3-0.3-0.8,0-1.1
		c0.3-0.3,0.8-0.3,1,0l0.6,0.6l1.1-1.1l0.1-0.1L32.9,46c-0.3-0.3-0.3-0.8,0-1.1c0.3-0.3,0.7-0.3,1,0l0.6,0.6l1.3-1.4
		c0.3-0.3,0.8-0.3,1.1,0C37.4,44.3,37.4,44.8,37.1,45.1z M41.9,45.2l-6.2-5.9c0.5,0,0.9-0.1,1.4-0.1c1,0,2.1,0,3.1,0.2
		c0.7,0.1,1.2,0.6,1.4,1.3C41.9,42.2,42,43.7,41.9,45.2z"/>
	<path class="st3" d="M40.2,39.4c-1-0.2-2-0.2-3.1-0.2c-0.5,0-1,0-1.4,0.1l6.2,5.9c0.1-1.5,0-3-0.3-4.5C41.5,40,40.9,39.5,40.2,39.4
		z"/>
	<circle class="st3" cx="38.8" cy="78.7" r="2.2"/>
	<path class="st3" d="M36,44.1l-1.3,1.4L34,44.9c-0.3-0.3-0.8-0.3-1,0c-0.3,0.3-0.3,0.8,0,1.1l0.6,0.6l-0.1,0.1l-1.1,1.1l-0.6-0.6
		c-0.3-0.3-0.8-0.3-1,0c-0.3,0.3-0.3,0.8,0,1.1l0.6,0.6L30,50.3c0,0,0,0,0,0c-0.3,0.3-0.3,0.8,0,1.1c0.3,0.3,0.8,0.3,1.1,0l1.3-1.4
		l0.6,0.6c0,0,0,0,0,0c0.3,0.3,0.8,0.3,1.1-0.1c0.3-0.3,0.3-0.8-0.1-1.1l-0.6-0.6l1.2-1.2l0.6,0.6c0,0,0,0,0,0
		c0.3,0.3,0.8,0.2,1.1-0.1c0.3-0.3,0.3-0.8-0.1-1.1l-0.5-0.5l-0.1-0.1l1.3-1.4c0,0,0,0,0,0c0.3-0.3,0.3-0.8,0-1.1
		C36.8,43.7,36.3,43.8,36,44.1z"/>
	<path class="st3" d="M25.2,50.2c0,0.7,0,1.4,0,2.1c0,0.8,0.1,1.6,0.3,2.4c0.1,0.7,0.7,1.2,1.4,1.3c1.5,0.2,3,0.3,4.5,0.1l-4-3.9
		L25.2,50.2z"/>
</g>
</svg>
