<?xml version="1.0" encoding="utf-8"?>
<!-- Generator: Adobe Illustrator 28.3.0, SVG Export Plug-In . SVG Version: 6.00 Build 0)  -->
<svg version="1.1" id="Icon_art" xmlns="http://www.w3.org/2000/svg" xmlns:xlink="http://www.w3.org/1999/xlink" x="0px" y="0px"
	 viewBox="0 0 100 100" style="enable-background:new 0 0 100 100;" xml:space="preserve">
<g>
	<g>
		<path style="fill:#021876;" d="M23.6,71L23.6,71c3.4,0,6.1-2.7,6-6.1c0-1.1-0.3-2.3-1-3.5c0,0-0.1-0.1-0.1-0.2
			c-1-1.5-2.6-2.3-4.4-2.3c-0.1,0-0.3,0-0.5,0l0,0V46.2h37.8V20.7c0-2.5-2-4.5-4.5-4.5h-36c-2.5,0-4.5,2-4.5,4.5v52.9h7.2L23.6,71
			L23.6,71z"/>
		<path style="fill:#00C5B4;" d="M16.4,73.7v5.6c0,2.5,2,4.5,4.5,4.5h2.7V73.7H16.4z"/>
		<path style="fill:#00C5B4;" d="M83.6,59V46.2H64.1h-2.7v33c0,2.5-2,4.5-4.5,4.5h12.2h14.5V71c-3.3,0-5.9-2.7-5.9-6
			S80.3,59,83.6,59z"/>
		<path style="fill:#0D6EFF;" d="M61.4,79.2v-33H23.6V59l0,0c0.1,0,0.3,0,0.5,0c1.8,0,3.4,0.8,4.4,2.3c0,0.1,0.1,0.1,0.1,0.2
			c0.7,1.2,1,2.4,1,3.5c0,3.3-2.7,6.1-6,6.1l0,0v12.8h33.3C59.4,83.8,61.4,81.8,61.4,79.2L61.4,79.2z M41.7,75.3h-6.1V54.7h6.1V75.3
			z M49.5,75.3h-4.7V54.7h4.7V75.3z M55.4,75.3h-3.7V54.7h3.7V75.3z"/>
		<rect x="35.6" y="54.7" style="fill:#FFFFFF;" width="6.1" height="20.7"/>
		<rect x="44.7" y="54.7" style="fill:#FFFFFF;" width="4.7" height="20.7"/>
		<rect x="51.8" y="54.7" style="fill:#FFFFFF;" width="3.7" height="20.7"/>
	</g>
</g>
</svg>
