<?xml version="1.0" encoding="UTF-8"?>
<svg id="Icon_art" data-name="Icon art" xmlns="http://www.w3.org/2000/svg" viewBox="0 0 100 100">
  <defs>
    <style>
      .cls-1 {
        fill: none;
      }

      .cls-1, .cls-2, .cls-3, .cls-4, .cls-5 {
        stroke-width: 0px;
      }

      .cls-2 {
        fill: #316cff;
      }

      .cls-3 {
        fill: #071871;
      }

      .cls-4 {
        fill: #36cbbd;
      }

      .cls-5 {
        fill: #fff;
      }
    </style>
  </defs>
  <path class="cls-1" d="M29.95,70.69s.03-.02.05-.02c-.13.06-.27.12-.41.17.02,0,.04-.01.05-.02.1-.04.21-.08.31-.13Z"/>
  <path class="cls-1" d="M29.23,70.97s.05-.02.08-.03c-.14.04-.27.09-.42.12.02,0,.04,0,.05-.01.09-.02.19-.05.28-.08h.01Z"/>
  <path class="cls-1" d="M27.83,71.22c-.13,0-.25.02-.38.02h0c.13,0,.25-.02.38-.03h0Z"/>
  <path class="cls-1" d="M30.6,70.34s.02-.01.03-.02c-.13.08-.27.16-.41.23.02-.01.04-.02.06-.03.11-.06.22-.12.32-.18Z"/>
  <path class="cls-1" d="M32.31,61.54c-.15-.23-.32-.44-.5-.63-.01,0-.03-.03-.04-.04-.17-.17-.35-.34-.53-.49.41.33.78.71,1.07,1.17.04.06.08.1.11.16.7,1.17,1.01,2.36,1.03,3.47-.01-1.12-.33-2.3-1.02-3.47-.04-.05-.08-.1-.11-.16h0Z"/>
  <path class="cls-1" d="M31.2,69.92s.03-.03.05-.04c.04-.03.07-.08.11-.11-.18.16-.37.31-.58.45.02-.02.05-.03.07-.05.12-.08.24-.16.35-.25Z"/>
  <path class="cls-1" d="M28.44,71.16s.1-.02.15-.03c-.14.03-.27.06-.41.07h.05c.07,0,.15-.03.22-.04h0Z"/>
  <path class="cls-3" d="M72.93,21c0-2.49-2.01-4.5-4.5-4.5H19.93v63c0,2.49,2.01,4.5,4.5,4.5h3v-12.76h.01c.13,0,.26-.01.38-.02.12,0,.23,0,.35-.02.14-.02.28-.05.41-.07.07-.01.15-.03.22-.05.03,0,.06-.01.09-.02.14-.03.28-.08.42-.12.09-.03.18-.06.27-.1.14-.05.28-.11.41-.17.02-.01.05-.03.07-.04.05-.02.1-.05.15-.07.14-.07.28-.15.41-.23.05-.03.1-.07.15-.1.2-.14.39-.29.58-.45.26-.23.52-.47.74-.75h0c.71-.87,1.17-1.94,1.3-3.12.03-.24.04-.48.04-.72-.01-1.11-.33-2.3-1.03-3.47-.03-.06-.08-.1-.11-.16-.29-.45-.66-.84-1.07-1.17h0c-.93-.75-2.11-1.17-3.33-1.14-.12,0-.25,0-.37.02h-.1v-12.75h3.5c.05-1.63.35-3.19.87-4.66.02-.05.03-.1.05-.15,2.17-5.95,7.88-10.22,14.57-10.22s12.4,4.27,14.58,10.23c.02.04.03.09.05.14.52,1.47.82,3.03.88,4.67h11v-25.53h.01Z"/>
  <path class="cls-3" d="M32.31,61.54c-.15-.23-.32-.43-.5-.63.18.2.35.41.5.63.03.06.07.11.11.16.7,1.18,1.01,2.36,1.02,3.47-.01-1.12-.33-2.3-1.02-3.48-.04-.05-.08-.1-.11-.16h0Z"/>
  <path class="cls-3" d="M50.8,43.62h-8.74c-.1.9-.16,1.86-.18,2.88h9.09c-.02-1.02-.08-1.98-.18-2.88h.01Z"/>
  <path class="cls-3" d="M50.96,35.01c.94,1.53,1.69,3.55,2.16,5.91h4.6c-1.46-2.7-3.86-4.81-6.76-5.91Z"/>
  <path class="cls-3" d="M59.23,46.5c-.04-.99-.19-1.96-.44-2.88h-5.28c.09.93.15,1.89.16,2.88,0,0,5.56,0,5.56,0Z"/>
  <path class="cls-3" d="M46.43,34.55c-1.33,0-3.03,2.33-3.93,6.37h7.86c-.9-4.04-2.6-6.37-3.93-6.37Z"/>
  <path class="cls-3" d="M39.19,46.5c0-.99.07-1.95.16-2.88h-5.28c-.25.92-.4,1.89-.44,2.88h5.56Z"/>
  <path class="cls-3" d="M35.14,40.92h4.6c.47-2.36,1.21-4.38,2.16-5.91-2.9,1.1-5.3,3.21-6.76,5.91Z"/>
  <path class="cls-4" d="M61.01,41.7c-2.17-5.96-7.88-10.23-14.58-10.23s-12.4,4.27-14.57,10.22c-.02.05-.04.1-.05.15-.52,1.47-.82,3.03-.87,4.66h2.7c.04-1,.19-1.96.44-2.88h5.28c-.09.93-.15,1.89-.16,2.88h2.7c.02-1.02.08-1.98.18-2.88h8.74c.1.9.16,1.86.18,2.88h2.7c0-.99-.07-1.96-.16-2.88h5.28c.25.92.4,1.89.44,2.88h2.7c-.05-1.63-.36-3.2-.88-4.67-.02-.05-.03-.09-.05-.14h-.02ZM35.14,40.92c1.46-2.7,3.86-4.81,6.76-5.91-.94,1.53-1.69,3.55-2.16,5.91h-4.6ZM42.5,40.92c.9-4.04,2.6-6.37,3.93-6.37s3.03,2.33,3.93,6.37h-7.86ZM53.12,40.92c-.47-2.36-1.21-4.38-2.16-5.91,2.9,1.1,5.3,3.21,6.76,5.91h-4.6Z"/>
  <path class="cls-4" d="M87.43,59.25v-8.25c0-2.49-2.01-4.5-4.5-4.5h-10v37.5h14.5v-12.75c-3.29-.02-5.95-2.7-5.95-6s2.66-5.97,5.95-6Z"/>
  <path class="cls-2" d="M59.23,46.5h-31.8v12.75h.1c.12,0,.25-.02.37-.02,1.22-.02,2.4.4,3.33,1.14h0c.19.15.37.31.53.49.01,0,.03.03.04.04.18.2.35.4.5.63.03.06.07.11.11.16.7,1.18,1.01,2.36,1.02,3.48,0,.24-.02.48-.04.72-.13,1.18-.6,2.25-1.3,3.12h0c-.22.27-.47.52-.74.75-.04.03-.07.08-.11.11-.02.01-.03.03-.05.04-.11.09-.23.17-.35.25-.02.02-.05.03-.07.05-.05.03-.1.07-.15.1,0,0-.02.01-.03.02-.11.07-.22.12-.32.18-.02.01-.04.02-.06.03-.05.03-.1.05-.15.07-.02.01-.05.03-.07.04-.02,0-.03.02-.05.02-.1.05-.2.09-.31.13-.02,0-.04.01-.05.02-.09.03-.18.07-.27.1-.03,0-.05.02-.08.03-.09.03-.19.06-.28.08-.02,0-.04,0-.05.01-.03,0-.06.01-.09.02-.07.02-.15.03-.22.05-.05,0-.1.02-.15.03-.07.01-.15.03-.22.04h-.05c-.11.01-.23.02-.35.02-.13,0-.25.03-.38.03h-.01v12.76h45.5v-37.49h-13.7ZM61.59,72.65l-2.25,2.25c-.17.17-.4.26-.64.23-.24-.02-.45-.15-.58-.35l-3.98-5.95-1.89,1.89v1.92c0,.21-.1.41-.25.56l-1.69,1.69c-.19.19-.45.27-.71.22-.16-.03-.3-.11-.42-.22-.07-.07-.13-.16-.17-.25l-1.56-3.65-3.65-1.56c-.25-.1-.42-.32-.47-.58-.05-.26.03-.53.22-.71l1.69-1.69c.15-.15.35-.24.56-.24h1.92l.31-.3,1.59-1.59-2.71-1.81-.55-.37-2.46-1.64-.23-.15c-.31-.2-.42-.57-.31-.9.02-.06.03-.13.07-.19.03-.05.07-.1.11-.14l.99-.99,1.26-1.26c.22-.21.53-.29.82-.2l2.17.72,2.58.86.72.24,2.51.84,3.03-3.03c.51-.51,1.16-.8,1.83-.89.81-.1,1.65.09,2.33.6.12.09.24.18.35.29,1.25,1.25,1.25,3.26,0,4.51l-3.03,3.03.69,2.07,1.97,5.92c.1.29.03.61-.18.83h0Z"/>
  <path class="cls-5" d="M59.8,65.89l-.69-2.07,3.03-3.03c1.25-1.24,1.25-3.26,0-4.51-.11-.11-.23-.2-.35-.29-.68-.51-1.52-.71-2.33-.6-.67.09-1.31.37-1.83.89l-3.03,3.03-2.51-.84-.72-.24-2.58-.86-2.17-.72c-.29-.09-.6,0-.82.2l-1.26,1.26-.99.99s-.08.09-.11.14c-.04.06-.05.12-.07.19-.11.33,0,.7.31.9l.23.15,2.46,1.64.55.37,2.71,1.81-1.59,1.59-.31.31h-1.92c-.21,0-.41.08-.56.23l-1.69,1.69c-.19.19-.27.45-.22.71s.23.48.47.58l3.65,1.56,1.56,3.65c.04.09.1.18.17.25.11.11.26.19.42.22.26.05.53-.03.71-.22l1.69-1.69c.15-.15.23-.35.23-.56v-1.92l1.91-1.89,3.98,5.95c.13.2.34.33.58.35.24.03.47-.06.64-.23l2.25-2.25c.21-.22.28-.54.18-.83l-1.97-5.92h0Z"/>
</svg>