<svg width="40" height="40" viewBox="0 0 40 40" fill="none" xmlns="http://www.w3.org/2000/svg">
<path d="M34.1667 2H5.83333C4.26556 2 3 3.23724 3 4.76994V16.3852C3 31.86 16.43 37.0121 19.1122 37.8615C19.6789 38.0462 20.3022 38.0462 20.8878 37.8615C23.57 36.9936 37 31.86 37 16.3852V4.76994C37 3.23724 35.7344 2 34.1667 2Z" fill="#2E69FF"/>
<path d="M19.9997 18.6196C23.1293 18.6196 25.6663 16.1393 25.6663 13.0797C25.6663 10.0201 23.1293 7.53979 19.9997 7.53979C16.8701 7.53979 14.333 10.0201 14.333 13.0797C14.333 16.1393 16.8701 18.6196 19.9997 18.6196Z" fill="white"/>
<path d="M30.3891 28.0373C28.6324 24.1224 24.6469 21.3894 20.0002 21.3894C15.3536 21.3894 11.368 24.1224 9.61133 28.0373C13.2758 32.82 18.508 34.7775 20.0002 35.2391C21.4924 34.759 26.7058 32.8016 30.3891 28.0373Z" fill="white"/>
</svg>
