<svg width="40" height="40" viewBox="0 0 40 40" fill="none" xmlns="http://www.w3.org/2000/svg">
<g clip-path="url(#clip0_2318_5760)">
<path d="M33.5935 13.4688L28.9373 17.8438L33.656 30.8281C33.821 31.2861 33.7053 31.7983 33.3592 32.1406L29.6092 35.8906C29.3435 36.1495 28.9789 36.2806 28.6092 36.25C28.2417 36.2089 27.9106 36.0091 27.7029 35.7031L21.0467 25.9688L18.1092 28.6719V31.875C18.1053 32.2094 17.9706 32.5291 17.7342 32.7656L14.6092 35.8906C14.3768 36.1219 14.062 36.2511 13.7342 36.25L13.4529 36.2188C13.0304 36.1233 12.6876 35.8158 12.5467 35.4063L10.531 29.4531L4.57792 27.4375C4.16839 27.2966 3.86089 26.9538 3.76542 26.5313C3.67339 26.1103 3.79636 25.6713 4.09354 25.3594L7.21854 22.2344C7.45667 22.0022 7.77667 21.8731 8.10917 21.875H11.3435L14.2654 18.9375L4.28104 12.2969C3.9801 12.0775 3.78245 11.7442 3.73417 11.375C3.69885 11.0002 3.83026 10.6286 4.09354 10.3594L7.84354 6.60939C8.18745 6.26517 8.70135 6.15502 9.15604 6.32814L22.1404 11.0469L26.2967 6.64064C26.3403 6.57611 26.3929 6.5183 26.4529 6.46877C28.4317 4.54252 31.5971 4.58517 33.5234 6.56392C35.3029 8.39205 35.4207 11.2669 33.7967 13.2344C33.7415 13.3227 33.6731 13.4017 33.5935 13.4688Z" fill="#2E69FF"/>
</g>
<defs>
<clipPath id="clip0_2318_5760">
<rect width="40" height="40" fill="white"/>
</clipPath>
</defs>
</svg>
