<svg width="40" height="40" viewBox="0 0 40 40" fill="none" xmlns="http://www.w3.org/2000/svg">
<g clip-path="url(#clip0_2318_5761)">
<path d="M34.875 10.6875L32.375 5.6875C32.1558 5.26813 31.7231 5.00391 31.25 5H8.75C8.27688 5.00391 7.84422 5.26813 7.625 5.6875L5.125 10.6875C5.045 10.8644 5.00234 11.0559 5 11.25V32.5C5 33.8808 6.11922 35 7.5 35H32.5C33.8808 35 35 33.8808 35 32.5V11.25C34.9977 11.0559 34.955 10.8644 34.875 10.6875ZM26.1875 24.3281L20.8906 29.6406C20.3939 30.1208 19.6061 30.1208 19.1094 29.6406L13.8125 24.3281C13.3489 23.8166 13.388 23.0261 13.8995 22.5625C14.3758 22.1309 15.1019 22.1309 15.5781 22.5625L18.75 25.7344V16.25C18.75 15.5597 19.3097 15 20 15C20.6903 15 21.25 15.5597 21.25 16.25V25.7344L24.4219 22.5625C24.9334 22.0989 25.7239 22.138 26.1875 22.6495C26.6191 23.1258 26.6191 23.8519 26.1875 24.3281ZM8.26563 10L9.51562 7.5H30.4844L31.7344 10H8.26563Z" fill="#2E69FF"/>
</g>
<defs>
<clipPath id="clip0_2318_5761">
<rect width="40" height="40" fill="white"/>
</clipPath>
</defs>
</svg>
