<svg width="40" height="40" viewBox="0 0 40 40" fill="none" xmlns="http://www.w3.org/2000/svg">
<g clip-path="url(#clip0_2318_5762)">
<path d="M33.75 9.99988H27.3906C26.6858 5.91816 22.8055 3.18066 18.7238 3.88551C15.5977 4.42519 13.1492 6.87363 12.6094 9.99988H6.25C4.86922 9.99988 3.75 11.1191 3.75 12.4999V32.4999C3.75 33.8807 4.86922 34.9999 6.25 34.9999H33.75C35.1308 34.9999 36.25 33.8807 36.25 32.4999V12.4999C36.25 11.1191 35.1308 9.99988 33.75 9.99988ZM20 6.24988C22.2791 6.25426 24.2686 7.79457 24.8438 9.99988H15.1562C15.7314 7.79457 17.7209 6.25426 20 6.24988Z" fill="#2E69FF"/>
</g>
<defs>
<clipPath id="clip0_2318_5762">
<rect width="40" height="40" fill="white"/>
</clipPath>
</defs>
</svg>
