<svg width="40" height="40" viewBox="0 0 40 40" fill="none" xmlns="http://www.w3.org/2000/svg">
<g clip-path="url(#clip0_2318_5764)">
<path d="M15 32.5C17.0675 32.5086 18.7414 34.1825 18.75 36.25C18.75 36.9403 19.3097 37.5 20 37.5C20.6903 37.5 21.25 36.9403 21.25 36.25C21.2586 34.1825 22.9325 32.5086 25 32.5H35C36.3808 32.5 37.5 31.3808 37.5 30V10C37.5 8.61922 36.3808 7.5 35 7.5H27.5C24.0483 7.5 21.25 10.2983 21.25 13.75V26.25C21.25 26.9403 20.6903 27.5 20 27.5C19.3097 27.5 18.75 26.9403 18.75 26.25V13.75C18.75 10.2983 15.9517 7.5 12.5 7.5H5C3.61922 7.5 2.5 8.61922 2.5 10V30C2.5 31.3808 3.61922 32.5 5 32.5H15Z" fill="#2E69FF"/>
</g>
<defs>
<clipPath id="clip0_2318_5764">
<rect width="40" height="40" fill="white"/>
</clipPath>
</defs>
</svg>
