<svg width="40" height="40" viewBox="0 0 40 40" fill="none" xmlns="http://www.w3.org/2000/svg">
<g clip-path="url(#clip0_2318_5765)">
<path d="M34.9996 13.75C35.0007 10.8441 34.1594 8.00016 32.5777 5.5625C32.3421 5.21469 31.9508 5.00453 31.5308 5H8.46832C8.04832 5.00453 7.65707 5.21469 7.42144 5.5625C2.90472 12.5173 4.88113 21.817 11.8361 26.3339C13.9103 27.6809 16.2852 28.4948 18.7496 28.7031V33.75H13.7496C13.0593 33.75 12.4996 34.3097 12.4996 35C12.4996 35.6903 13.0593 36.25 13.7496 36.25H26.2496C26.9399 36.25 27.4996 35.6903 27.4996 35C27.4996 34.3097 26.9399 33.75 26.2496 33.75H21.2496V28.7031C29.0171 28.0386 34.9874 21.5459 34.9996 13.75ZM9.17144 7.5H30.8277C31.7175 9.03156 32.2664 10.737 32.4371 12.5H7.56207C7.73269 10.737 8.2816 9.03156 9.17144 7.5Z" fill="#2E69FF"/>
</g>
<defs>
<clipPath id="clip0_2318_5765">
<rect width="40" height="40" fill="white"/>
</clipPath>
</defs>
</svg>
