<svg width="40" height="40" viewBox="0 0 40 40" fill="none" xmlns="http://www.w3.org/2000/svg">
<g clip-path="url(#clip0_2318_5766)">
<path d="M33.75 6.25H11.25C9.86922 6.25 8.75 7.36922 8.75 8.75V11.25H6.25C4.86922 11.25 3.75 12.3692 3.75 13.75V31.25C3.75 32.6308 4.86922 33.75 6.25 33.75H28.75C30.1308 33.75 31.25 32.6308 31.25 31.25V28.75H33.75C35.1308 28.75 36.25 27.6308 36.25 26.25V8.75C36.25 7.36922 35.1308 6.25 33.75 6.25ZM28.75 13.75V16.25H6.25V13.75H28.75ZM33.75 26.25H31.25V13.75C31.25 12.3692 30.1308 11.25 28.75 11.25H11.25V8.75H33.75V26.25Z" fill="#2E69FF"/>
<path d="M10 11.25V8.5C10 7.94772 10.4477 7.5 11 7.5H34C34.5523 7.5 35 7.94772 35 8.5V26.5C35 27.0523 34.5523 27.5 34 27.5H31.2" stroke="#2E69FF" stroke-width="2.5"/>
</g>
<defs>
<clipPath id="clip0_2318_5766">
<rect width="40" height="40" fill="white"/>
</clipPath>
</defs>
</svg>
