<svg width="40" height="40" viewBox="0 0 40 40" fill="none" xmlns="http://www.w3.org/2000/svg">
<g clip-path="url(#clip0_2318_5768)">
<path d="M32.5 5H28.75V3.75C28.75 3.05969 28.1903 2.5 27.5 2.5C26.8097 2.5 26.25 3.05969 26.25 3.75V5H13.75V3.75C13.75 3.05969 13.1903 2.5 12.5 2.5C11.8097 2.5 11.25 3.05969 11.25 3.75V5H7.5C6.11922 5 5 6.11922 5 7.5V32.5C5 33.8808 6.11922 35 7.5 35H32.5C33.8808 35 35 33.8808 35 32.5V7.5C35 6.11922 33.8808 5 32.5 5ZM26.4844 20.9062L19.1875 27.7812C18.9583 28.0058 18.6489 28.1295 18.3281 28.125C18.008 28.1262 17.6998 28.003 17.4688 27.7812L13.5156 24.0312C12.9955 23.5773 12.9417 22.7878 13.3955 22.2675C13.8494 21.7473 14.6389 21.6936 15.1592 22.1473C15.1853 22.17 15.2103 22.1939 15.2344 22.2186L18.3281 25.1561L24.7656 19.0936C25.2547 18.6186 26.0363 18.6302 26.5111 19.1192C26.518 19.1262 26.5245 19.1333 26.5312 19.1405C27.0053 19.6414 26.9844 20.4314 26.4844 20.9062ZM32.5 12.5H7.5V7.5H11.25V8.75C11.25 9.44031 11.8097 10 12.5 10C13.1903 10 13.75 9.44031 13.75 8.75V7.5H26.25V8.75C26.25 9.44031 26.8097 10 27.5 10C28.1903 10 28.75 9.44031 28.75 8.75V7.5H32.5V12.5Z" fill="#2E69FF"/>
</g>
<defs>
<clipPath id="clip0_2318_5768">
<rect width="40" height="40" fill="white"/>
</clipPath>
</defs>
</svg>
