<svg width="40" height="40" viewBox="0 0 40 40" fill="none" xmlns="http://www.w3.org/2000/svg">
<g clip-path="url(#clip0_2318_5769)">
<path d="M37.5 17.5H35.8125L31.4688 7.73439C31.0711 6.83001 30.1755 6.2472 29.1875 6.25001H10.8125C9.82453 6.2472 8.92891 6.83001 8.53125 7.73439L4.1875 17.5H2.5C1.80969 17.5 1.25 18.0597 1.25 18.75C1.25 19.4403 1.80969 20 2.5 20H3.75V32.5C3.75 33.8808 4.86922 35 6.25 35H10C11.3808 35 12.5 33.8808 12.5 32.5V30H27.5V32.5C27.5 33.8808 28.6192 35 30 35H33.75C35.1308 35 36.25 33.8808 36.25 32.5V20H37.5C38.1903 20 38.75 19.4403 38.75 18.75C38.75 18.0597 38.1903 17.5 37.5 17.5ZM12.5 25H10C9.30969 25 8.75 24.4403 8.75 23.75C8.75 23.0597 9.30969 22.5 10 22.5H12.5C13.1903 22.5 13.75 23.0597 13.75 23.75C13.75 24.4403 13.1903 25 12.5 25ZM27.5 25C26.8097 25 26.25 24.4403 26.25 23.75C26.25 23.0597 26.8097 22.5 27.5 22.5H30C30.6903 22.5 31.25 23.0597 31.25 23.75C31.25 24.4403 30.6903 25 30 25H27.5Z" fill="#2E69FF"/>
</g>
<defs>
<clipPath id="clip0_2318_5769">
<rect width="40" height="40" fill="white"/>
</clipPath>
</defs>
</svg>
