<svg width="40" height="40" viewBox="0 0 40 40" fill="none" xmlns="http://www.w3.org/2000/svg">
<g clip-path="url(#clip0_2318_5770)">
<path d="M35.625 31.25H34.375V6.25C34.375 5.55969 33.8153 5 33.125 5H24.375C23.6847 5 23.125 5.55969 23.125 6.25V12.5H15.625C14.9347 12.5 14.375 13.0597 14.375 13.75V20H6.875C6.18469 20 5.625 20.5597 5.625 21.25V31.25H4.375C3.68469 31.25 3.125 31.8097 3.125 32.5C3.125 33.1903 3.68469 33.75 4.375 33.75H35.625C36.3153 33.75 36.875 33.1903 36.875 32.5C36.875 31.8097 36.3153 31.25 35.625 31.25ZM16.875 15H23.125V31.25H16.875V15ZM8.125 22.5H14.375V31.25H8.125V22.5Z" fill="#2E69FF"/>
</g>
<defs>
<clipPath id="clip0_2318_5770">
<rect width="40" height="40" fill="white"/>
</clipPath>
</defs>
</svg>
