<svg width="40" height="40" viewBox="0 0 40 40" fill="none" xmlns="http://www.w3.org/2000/svg">
<g clip-path="url(#clip0_2318_5771)">
<path d="M36.25 15C36.25 13.6192 35.1308 12.5 33.75 12.5H28.75V7.5C28.75 6.11922 27.6308 5 26.25 5H6.25001C4.86922 5 3.75001 6.11922 3.75001 7.5V27.5C3.7486 27.9834 4.02954 28.4231 4.46876 28.625C4.89891 28.8353 5.41251 28.7742 5.78126 28.4688L11.25 24.0469V28.75C11.25 30.1308 12.3692 31.25 13.75 31.25H28.375L34.2188 35.9688C34.5875 36.2742 35.1011 36.3353 35.5312 36.125C35.9705 35.9231 36.2514 35.4834 36.25 35V15ZM29.5938 29.0312C29.375 28.8478 29.098 28.7481 28.8125 28.75H13.75V23.75H26.25C27.6308 23.75 28.75 22.6308 28.75 21.25V15H33.75V32.375L29.5938 29.0312Z" fill="#2E69FF"/>
</g>
<defs>
<clipPath id="clip0_2318_5771">
<rect width="40" height="40" fill="white"/>
</clipPath>
</defs>
</svg>
