<svg width="40" height="40" viewBox="0 0 40 40" fill="none" xmlns="http://www.w3.org/2000/svg">
<g clip-path="url(#clip0_2318_5773)">
<path d="M35.2969 16.0625C34.7031 15.4531 34.0938 14.8125 33.8594 14.2656C33.625 13.7188 33.6406 12.9062 33.625 12.0781C33.6094 10.5625 33.5781 8.82812 32.375 7.625C31.1719 6.42188 29.4375 6.39062 27.9219 6.375C27.0938 6.35938 26.25 6.34375 25.7344 6.14062C25.2188 5.9375 24.5469 5.29688 23.9375 4.70312C22.8594 3.67188 21.625 2.5 20 2.5C18.375 2.5 17.1406 3.67188 16.0625 4.70312C15.4531 5.29688 14.8125 5.90625 14.2656 6.14062C13.7188 6.375 12.9062 6.35938 12.0781 6.375C10.5625 6.39062 8.82812 6.42188 7.625 7.625C6.42188 8.82812 6.39062 10.5625 6.375 12.0781C6.35938 12.9062 6.34375 13.75 6.14062 14.2656C5.9375 14.7812 5.29688 15.4531 4.70312 16.0625C3.67188 17.1406 2.5 18.375 2.5 20C2.5 21.625 3.67188 22.8594 4.70312 23.9375C5.29688 24.5469 5.90625 25.1875 6.14062 25.7344C6.375 26.2812 6.35938 27.0938 6.375 27.9219C6.39062 29.4375 6.42188 31.1719 7.625 32.375C8.82812 33.5781 10.5625 33.6094 12.0781 33.625C12.9062 33.6406 13.75 33.6562 14.2656 33.8594C14.7812 34.0625 15.4531 34.7031 16.0625 35.2969C17.1406 36.3281 18.375 37.5 20 37.5C21.625 37.5 22.8594 36.3281 23.9375 35.2969C24.5469 34.7031 25.1875 34.0938 25.7344 33.8594C26.2812 33.625 27.0938 33.6406 27.9219 33.625C29.4375 33.6094 31.1719 33.5781 32.375 32.375C33.5781 31.1719 33.6094 29.4375 33.625 27.9219C33.6406 27.0938 33.6562 26.25 33.8594 25.7344C34.0625 25.2188 34.7031 24.5469 35.2969 23.9375C36.3281 22.8594 37.5 21.625 37.5 20C37.5 18.375 36.3281 17.1406 35.2969 16.0625ZM18.75 12.5C18.75 11.8097 19.3097 11.25 20 11.25C20.6903 11.25 21.25 11.8097 21.25 12.5V21.25C21.25 21.9403 20.6903 22.5 20 22.5C19.3097 22.5 18.75 21.9403 18.75 21.25V12.5ZM20 28.75C18.9645 28.75 18.125 27.9105 18.125 26.875C18.125 25.8395 18.9645 25 20 25C21.0355 25 21.875 25.8395 21.875 26.875C21.875 27.9105 21.0355 28.75 20 28.75Z" fill="#2E69FF"/>
</g>
<defs>
<clipPath id="clip0_2318_5773">
<rect width="40" height="40" fill="white"/>
</clipPath>
</defs>
</svg>
