<svg width="40" height="40" viewBox="0 0 40 40" fill="none" xmlns="http://www.w3.org/2000/svg">
<g clip-path="url(#clip0_2318_5772)">
<path d="M35.2969 16.0625C34.7031 15.4531 34.0938 14.8125 33.8594 14.2656C33.625 13.7188 33.6406 12.9063 33.625 12.0781C33.6094 10.5625 33.5781 8.82812 32.375 7.625C31.1719 6.42188 29.4375 6.39062 27.9219 6.375C27.0938 6.35937 26.25 6.34375 25.7344 6.14062C25.2188 5.9375 24.5469 5.29688 23.9375 4.70312C22.8594 3.67188 21.625 2.5 20 2.5C18.375 2.5 17.1406 3.67188 16.0625 4.70312C15.4531 5.29688 14.8125 5.90625 14.2656 6.14062C13.7188 6.375 12.9063 6.35937 12.0781 6.375C10.5625 6.39062 8.82812 6.42188 7.625 7.625C6.42188 8.82812 6.39062 10.5625 6.375 12.0781C6.35937 12.9063 6.34375 13.75 6.14062 14.2656C5.9375 14.7812 5.29688 15.4531 4.70312 16.0625C3.67188 17.1406 2.5 18.375 2.5 20C2.5 21.625 3.67188 22.8594 4.70312 23.9375C5.29688 24.5469 5.90625 25.1875 6.14062 25.7344C6.375 26.2812 6.35937 27.0938 6.375 27.9219C6.39062 29.4375 6.42188 31.1719 7.625 32.375C8.82812 33.5781 10.5625 33.6094 12.0781 33.625C12.9063 33.6406 13.75 33.6562 14.2656 33.8594C14.7812 34.0625 15.4531 34.7031 16.0625 35.2969C17.1406 36.3281 18.375 37.5 20 37.5C21.625 37.5 22.8594 36.3281 23.9375 35.2969C24.5469 34.7031 25.1875 34.0938 25.7344 33.8594C26.2812 33.625 27.0938 33.6406 27.9219 33.625C29.4375 33.6094 31.1719 33.5781 32.375 32.375C33.5781 31.1719 33.6094 29.4375 33.625 27.9219C33.6406 27.0938 33.6562 26.25 33.8594 25.7344C34.0625 25.2188 34.7031 24.5469 35.2969 23.9375C36.3281 22.8594 37.5 21.625 37.5 20C37.5 18.375 36.3281 17.1406 35.2969 16.0625ZM27.7344 17.1562L18.5781 25.9062C18.3414 26.1289 18.0281 26.252 17.7031 26.25C17.383 26.2512 17.0748 26.128 16.8438 25.9062L12.2656 21.5312C11.7455 21.0773 11.6916 20.2878 12.1455 19.7675C12.5994 19.2473 13.3889 19.1934 13.9092 19.6473C13.9353 19.67 13.9603 19.6939 13.9844 19.7186L17.7031 23.2655L26.0156 15.3436C26.5358 14.8897 27.3255 14.9436 27.7794 15.4638C28.2067 15.9539 28.1872 16.6897 27.7344 17.1562Z" fill="#2E69FF"/>
</g>
<defs>
<clipPath id="clip0_2318_5772">
<rect width="40" height="40" fill="white"/>
</clipPath>
</defs>
</svg>
