<svg width="40" height="40" viewBox="0 0 40 40" fill="none" xmlns="http://www.w3.org/2000/svg">
<g clip-path="url(#clip0_2318_5774)">
<path d="M25.0156 6.25C19.8016 6.25 15.035 9.19578 12.7031 13.8594C11.7488 15.7491 11.2511 17.8361 11.25 19.9531C11.2612 20.6206 10.7581 21.185 10.0938 21.25C9.40531 21.3017 8.80531 20.7856 8.75359 20.0973C8.75109 20.065 8.75 20.0325 8.75 20C8.75063 18.2533 9.03016 16.518 9.57812 14.8594C9.69094 14.5331 9.51797 14.1772 9.19172 14.0644C9.07969 14.0256 8.95906 14.0195 8.84375 14.0469C4.38391 15.1525 1.25141 19.1552 1.25 23.75C1.25 29.25 5.90625 33.75 11.3906 33.75H25C32.5939 33.7544 38.7534 27.6017 38.7578 20.0078C38.7622 12.4139 32.6095 6.25438 25.0156 6.25Z" fill="#2E69FF"/>
</g>
<defs>
<clipPath id="clip0_2318_5774">
<rect width="40" height="40" fill="white"/>
</clipPath>
</defs>
</svg>
