<svg width="40" height="40" viewBox="0 0 40 40" fill="none" xmlns="http://www.w3.org/2000/svg">
<path d="M34.8259 12.0985L25.1336 2.40615C24.8751 2.14769 24.5244 2 24.1551 2H7.53974C6.00743 2 4.77051 3.23692 4.77051 4.76923V35.2308C4.77051 36.7631 6.00743 38 7.53974 38H32.4628C33.9951 38 35.232 36.7631 35.232 35.2308V13.0769C35.232 12.7077 35.0844 12.3569 34.8259 12.0985Z" fill="#2E69FF"/>
<path d="M22.7695 28.3815H14.4618C13.7048 28.3815 13.0771 27.7538 13.0771 26.9969C13.0771 26.24 13.7048 25.6123 14.4618 25.6123H22.7695C23.5264 25.6123 24.1541 26.24 24.1541 26.9969C24.1541 27.7538 23.5264 28.3815 22.7695 28.3815Z" fill="white"/>
<path d="M25.5387 22.843H14.4618C13.7048 22.843 13.0771 22.2153 13.0771 21.4583C13.0771 20.7014 13.7048 20.0737 14.4618 20.0737H25.5387C26.2956 20.0737 26.9233 20.7014 26.9233 21.4583C26.9233 22.2153 26.2956 22.843 25.5387 22.843Z" fill="white"/>
<path d="M24.1533 10.3076V5.4707L31.7595 13.0769H26.9226C25.3902 13.0769 24.1533 11.8399 24.1533 10.3076Z" fill="white"/>
</svg>
