<svg width="40" height="40" viewBox="0 0 40 40" fill="none" xmlns="http://www.w3.org/2000/svg">
<path d="M37.8663 28.84C37.8663 28.84 37.8663 28.738 37.8663 28.687C37.8663 28.636 37.8496 28.585 37.8329 28.551C37.8329 28.517 37.8329 28.5 37.8162 28.466L31.1309 11.041C30.9471 10.548 30.4791 10.225 29.961 10.225H23.8942C23.3593 9.103 22.39 8.219 21.1866 7.862V4.275C21.1866 3.578 20.6184 3 19.9331 3C19.2479 3 18.6797 3.578 18.6797 4.275V7.862C17.4763 8.219 16.507 9.103 15.9721 10.225H9.90529C9.38719 10.225 8.91922 10.548 8.73538 11.041L2.05014 28.466C2.05014 28.466 2.05014 28.517 2.03343 28.551C2.03343 28.602 2 28.636 2 28.687C2 28.738 2 28.789 2 28.84C2 28.874 2 28.908 2 28.925C2 28.925 2 28.925 2 28.942C2 28.942 2 28.959 2 28.976C2.03343 33.396 5.5766 37 9.93872 37C14.3008 37 17.844 33.413 17.8774 28.976C17.8774 28.976 17.8774 28.959 17.8774 28.942C17.8774 28.942 17.8774 28.942 17.8774 28.925C17.8774 28.891 17.8774 28.857 17.8774 28.84C17.8774 28.789 17.8774 28.738 17.8774 28.687C17.8774 28.636 17.8607 28.585 17.844 28.551C17.844 28.517 17.844 28.5 17.8273 28.466L12.2953 14.05H16.039C16.7409 15.563 18.2451 16.6 20 16.6C21.7549 16.6 23.2591 15.563 23.961 14.05H27.7047L22.1727 28.466C22.1727 28.466 22.1727 28.517 22.156 28.551C22.156 28.602 22.1226 28.636 22.1226 28.687C22.1226 28.738 22.1226 28.789 22.1226 28.84C22.1226 28.874 22.1226 28.908 22.1226 28.925C22.1226 28.925 22.1226 28.925 22.1226 28.942C22.1226 28.942 22.1226 28.959 22.1226 28.976C22.156 33.396 25.6992 37 30.0613 37C34.4234 37 37.9666 33.413 38 28.976C38 28.976 38 28.959 38 28.942C38 28.942 38 28.942 38 28.925C38 28.891 38 28.857 38 28.84H37.8663ZM4.70752 28.5L9.88858 15.002L15.0696 28.5H4.70752ZM24.7632 28.5L29.9443 15.002L35.1253 28.5H24.7799H24.7632Z" fill="#2E69FF"/>
<path d="M19.9168 14.0499C20.9506 14.0499 21.7887 13.1975 21.7887 12.1459C21.7887 11.0944 20.9506 10.2419 19.9168 10.2419C18.883 10.2419 18.0449 11.0944 18.0449 12.1459C18.0449 13.1975 18.883 14.0499 19.9168 14.0499Z" fill="white"/>
<path d="M4.91602 28.6667L10.0827 15.4333L15.2493 28.6667H4.91602Z" fill="white"/>
<path d="M24.916 28.6667L30.0827 15.4333L35.2494 28.6667H24.916Z" fill="white"/>
</svg>
