<svg width="40" height="40" viewBox="0 0 40 40" fill="none" xmlns="http://www.w3.org/2000/svg">
<g clip-path="url(#clip0_2318_5778)">
<path d="M33.3906 10.3594L27.1406 4.1094C26.9025 3.87721 26.5825 3.74815 26.25 3.75002H13.75C12.3692 3.75002 11.25 4.86924 11.25 6.25002V8.75002H8.75C7.36922 8.75002 6.25 9.86924 6.25 11.25V33.75C6.25 35.1308 7.36922 36.25 8.75 36.25H26.25C27.6308 36.25 28.75 35.1308 28.75 33.75V31.25H31.25C32.6308 31.25 33.75 30.1308 33.75 28.75V11.25C33.7519 10.9175 33.6228 10.5975 33.3906 10.3594ZM21.25 30H13.75C13.0597 30 12.5 29.4403 12.5 28.75C12.5 28.0597 13.0597 27.5 13.75 27.5H21.25C21.9403 27.5 22.5 28.0597 22.5 28.75C22.5 29.4403 21.9403 30 21.25 30ZM21.25 25H13.75C13.0597 25 12.5 24.4403 12.5 23.75C12.5 23.0597 13.0597 22.5 13.75 22.5H21.25C21.9403 22.5 22.5 23.0597 22.5 23.75C22.5 24.4403 21.9403 25 21.25 25ZM31.25 28.75H28.75V16.25C28.7519 15.9175 28.6228 15.5975 28.3906 15.3594L22.1406 9.1094C21.9025 8.87721 21.5825 8.74815 21.25 8.75002H13.75V6.25002H25.7344L31.25 11.7656V28.75Z" fill="#2E69FF"/>
</g>
<defs>
<clipPath id="clip0_2318_5778">
<rect width="40" height="40" fill="white"/>
</clipPath>
</defs>
</svg>
