<svg width="40" height="40" viewBox="0 0 40 40" fill="none" xmlns="http://www.w3.org/2000/svg">
<g clip-path="url(#clip0_2318_5776)">
<path d="M33.3906 12.8594L24.6406 4.1094C24.4025 3.87721 24.0825 3.74815 23.75 3.75002H8.75C7.36922 3.75002 6.25 4.86924 6.25 6.25002V33.75C6.25 35.1308 7.36922 36.25 8.75 36.25H31.25C32.6308 36.25 33.75 35.1308 33.75 33.75V13.75C33.7519 13.4175 33.6228 13.0975 33.3906 12.8594ZM17.1406 26.6094C17.6292 27.1027 17.6292 27.8974 17.1406 28.3906C16.6439 28.8708 15.8561 28.8708 15.3594 28.3906L11.6094 24.6406C11.1208 24.1474 11.1208 23.3527 11.6094 22.8594L15.3594 19.1094C15.8997 18.666 16.6972 18.7446 17.1406 19.2849C17.5237 19.7516 17.5237 20.4239 17.1406 20.8906L14.2656 23.75L17.1406 26.6094ZM28.3906 24.6406L24.6406 28.3906C24.1439 28.8708 23.3561 28.8708 22.8594 28.3906C22.3708 27.8974 22.3708 27.1027 22.8594 26.6094L25.7344 23.75L22.8594 20.8906C22.4159 20.3503 22.4945 19.5528 23.0348 19.1094C23.5016 18.7263 24.1739 18.7263 24.6406 19.1094L28.3906 22.8594C28.8792 23.3527 28.8792 24.1474 28.3906 24.6406ZM23.75 13.75V6.87502L30.625 13.75H23.75Z" fill="#2E69FF"/>
</g>
<defs>
<clipPath id="clip0_2318_5776">
<rect width="40" height="40" fill="white"/>
</clipPath>
</defs>
</svg>
