<svg width="40" height="40" viewBox="0 0 40 40" fill="none" xmlns="http://www.w3.org/2000/svg">
<g clip-path="url(#clip0_2318_5777)">
<path d="M33.375 12.8594L24.6406 4.10938L24.5938 4.07813L24.5469 4.03125L24.5 4L24.4531 3.96875C24.4375 3.95313 24.4219 3.95313 24.4219 3.9375L24.3438 3.89063H24.3125L24.2344 3.84375H24.2188L24.1094 3.79688H8.75C7.38734 3.79656 6.27563 4.88766 6.25 6.25V33.75C6.25 35.1308 7.36922 36.25 8.75 36.25H31.25C32.6308 36.25 33.75 35.1308 33.75 33.75V13.75C33.7531 13.4141 33.6173 13.0919 33.375 12.8594ZM25.8438 29.6094C25.6105 29.8392 25.2963 29.9681 24.9688 29.9688C24.6369 29.9673 24.3181 29.8387 24.0781 29.6094L22.375 27.8906C21.4733 28.4481 20.4352 28.7456 19.375 28.75C16.2684 28.75 13.75 26.2316 13.75 23.125C13.75 20.0184 16.2684 17.5 19.375 17.5C22.4816 17.5 25 20.0184 25 23.125C25.0039 24.1863 24.7059 25.2267 24.1406 26.125L25.8438 27.8281C26.3356 28.3125 26.3417 29.1039 25.8573 29.5958C25.8528 29.6003 25.8483 29.6048 25.8438 29.6094ZM23.75 13.75V6.76562L30.7344 13.75H23.75Z" fill="#2E69FF"/>
<path d="M19.3748 20C18.547 20.0017 17.7541 20.3336 17.1717 20.9219C15.955 22.1214 15.9411 24.0803 17.1406 25.297C17.1509 25.3075 17.1613 25.3178 17.1717 25.3281C18.3836 26.5448 20.3523 26.5489 21.5691 25.337C21.572 25.3341 21.575 25.3311 21.578 25.3281C22.7947 24.1286 22.8086 22.1697 21.6091 20.953C21.5988 20.9425 21.5884 20.9322 21.578 20.9219C20.9956 20.3336 20.2027 20.0017 19.3748 20Z" fill="#2E69FF"/>
</g>
<defs>
<clipPath id="clip0_2318_5777">
<rect width="40" height="40" fill="white"/>
</clipPath>
</defs>
</svg>
