<svg width="40" height="40" viewBox="0 0 40 40" fill="none" xmlns="http://www.w3.org/2000/svg">
<g clip-path="url(#clip0_2318_5779)">
<path d="M33.75 11.25H28.2812C29.9956 9.0852 29.6303 5.94052 27.4655 4.22614C25.5027 2.67192 22.6928 2.80895 20.8906 4.54692C20.5223 4.91973 20.2211 5.35317 20 5.82817C19.7789 5.35317 19.4777 4.91973 19.1094 4.54692C17.1216 2.63005 13.9564 2.68755 12.0395 4.6752C10.3016 6.47739 10.1645 9.28723 11.7188 11.25H6.25C4.86922 11.25 3.75 12.3693 3.75 13.75V18.75C3.75 20.1308 4.86922 21.25 6.25 21.25V31.25C6.25 32.6308 7.36922 33.75 8.75 33.75H31.25C32.6308 33.75 33.75 32.6308 33.75 31.25V21.25C35.1308 21.25 36.25 20.1308 36.25 18.75V13.75C36.25 12.3693 35.1308 11.25 33.75 11.25ZM22.6562 6.31255C23.5833 5.28942 25.1644 5.21145 26.1875 6.13848C27.2106 7.06552 27.2886 8.64661 26.3616 9.66973C26.3064 9.73052 26.2484 9.78864 26.1875 9.8438C25.4219 10.625 23.1875 11.0469 21.2969 11.2032C21.4531 9.31255 21.875 7.07817 22.6562 6.31255ZM13.8125 6.31255C14.7919 5.34755 16.3644 5.34755 17.3438 6.31255C18.125 7.07817 18.5469 9.31255 18.7031 11.2032C16.8125 11.0469 14.5781 10.625 13.8125 9.8438C12.8266 8.86489 12.8016 7.29161 13.7805 6.30567C13.7847 6.30145 13.7889 6.29723 13.8125 6.31255ZM33.75 18.75H21.25V30C21.25 30.6904 20.6903 31.25 20 31.25C19.3097 31.25 18.75 30.6904 18.75 30V18.75H6.25V13.75H18.75V18.75H21.25V13.75H33.75V18.75Z" fill="#2E69FF"/>
</g>
<defs>
<clipPath id="clip0_2318_5779">
<rect width="40" height="40" fill="white"/>
</clipPath>
</defs>
</svg>
