<svg width="40" height="40" viewBox="0 0 40 40" fill="none" xmlns="http://www.w3.org/2000/svg">
<g clip-path="url(#clip0_2318_5780)">
<path d="M16.2503 10.625C16.2503 7.51844 13.7318 5 10.6253 5C7.5187 5 5.00026 7.51844 5.00026 10.625C5.00026 13.25 6.81589 15.5259 9.37526 16.1094V23.8906C6.34636 24.5809 4.45058 27.5961 5.14089 30.625C5.8312 33.6539 8.84636 35.5497 11.8753 34.8594C14.9042 34.1691 16.8 31.1539 16.1096 28.125C15.6292 26.017 13.9832 24.3711 11.8753 23.8906V16.1094C14.4314 15.5208 16.2445 13.248 16.2503 10.625ZM13.7503 29.375C13.7503 31.1009 12.3512 32.5 10.6253 32.5C8.89933 32.5 7.50026 31.1009 7.50026 29.375C7.50026 27.6491 8.89933 26.25 10.6253 26.25C12.3476 26.2586 13.7417 27.6527 13.7503 29.375ZM35.0003 29.375C35.0003 32.4816 32.4818 35 29.3753 35C26.2687 35 23.7503 32.4816 23.7503 29.375C23.7503 26.75 25.5659 24.4741 28.1253 23.8906V18.7344C28.1265 17.0763 27.469 15.4856 26.2971 14.3125L22.5003 10.5156V13.75C22.5003 14.4403 21.9406 15 21.2503 15C20.56 15 20.0003 14.4403 20.0003 13.75V7.5C20.0003 6.80969 20.56 6.25 21.2503 6.25H27.5003C28.1906 6.25 28.7503 6.80969 28.7503 7.5C28.7503 8.19031 28.1906 8.75 27.5003 8.75H24.2659L28.0628 12.5469C29.711 14.183 30.6342 16.4119 30.6253 18.7344V23.8906C33.1814 24.4792 34.9945 26.752 35.0003 29.375Z" fill="#2E69FF"/>
<circle cx="10.75" cy="29.3501" r="4.25" stroke="#2E69FF" stroke-width="3"/>
</g>
<defs>
<clipPath id="clip0_2318_5780">
<rect width="40" height="40" fill="white"/>
</clipPath>
</defs>
</svg>
