<svg width="40" height="40" viewBox="0 0 40 40" fill="none" xmlns="http://www.w3.org/2000/svg">
<g clip-path="url(#clip0_2318_5782)">
<path d="M37.3437 32.2186L35.1093 12.2186C34.9731 10.9511 33.8996 9.99254 32.6249 9.99988H27.3906C26.6857 5.91816 22.8054 3.18066 18.7237 3.88551C15.5976 4.42519 13.1492 6.87363 12.6093 9.99988H7.37495C6.10026 9.99254 5.02682 10.9511 4.89057 12.2186L2.6562 32.2186C2.57963 32.9286 2.80667 33.638 3.2812 34.1718C3.75432 34.7007 4.43088 35.0021 5.14057 34.9999H34.8593C35.569 35.0021 36.2456 34.7007 36.7187 34.1718C37.1932 33.638 37.4203 32.9286 37.3437 32.2186ZM14.9999 16.2499C14.9999 16.9402 14.4403 17.4999 13.7499 17.4999C13.0596 17.4999 12.4999 16.9402 12.4999 16.2499V13.7499C12.4999 13.0596 13.0596 12.4999 13.7499 12.4999C14.4403 12.4999 14.9999 13.0596 14.9999 13.7499V16.2499ZM15.1562 9.99988C15.8412 7.32473 18.5649 5.71144 21.2401 6.39629C23.0093 6.84926 24.3907 8.23082 24.8437 9.99988H15.1562ZM27.4999 16.2499C27.4999 16.9402 26.9403 17.4999 26.2499 17.4999C25.5596 17.4999 24.9999 16.9402 24.9999 16.2499V13.7499C24.9999 13.0596 25.5596 12.4999 26.2499 12.4999C26.9403 12.4999 27.4999 13.0596 27.4999 13.7499V16.2499Z" fill="#2E69FF"/>
</g>
<defs>
<clipPath id="clip0_2318_5782">
<rect width="40" height="40" fill="white"/>
</clipPath>
</defs>
</svg>
