<svg width="40" height="40" viewBox="0 0 40 40" fill="none" xmlns="http://www.w3.org/2000/svg">
<g clip-path="url(#clip0_2318_5783)">
<path d="M18.7185 33.5625C18.5763 34.1204 18.0755 34.5122 17.4997 34.5156C17.3989 34.5153 17.2988 34.4995 17.2028 34.4687L12.4841 33.2969C12.1013 33.2001 11.7475 33.0126 11.4528 32.75L7.9372 29.6875C7.41939 29.2387 7.36345 28.4553 7.8122 27.9375C8.26095 27.4197 9.04439 27.3637 9.5622 27.8125L13.0935 30.875L17.7966 32.0469C18.4658 32.2161 18.876 32.8904 18.7185 33.5625ZM39.4372 18.6875C39.2295 19.3233 38.7728 19.8476 38.1716 20.1406L34.531 21.9687L32.2028 24.7031H32.1716C32.1716 24.7187 32.156 24.7187 32.156 24.7344H32.1403L26.3903 30.4844C25.9138 30.9501 25.2755 31.2133 24.6091 31.2187C24.4088 31.2169 24.2094 31.1906 24.0153 31.1406L14.9528 28.9062C14.6106 28.8264 14.2905 28.6717 14.0153 28.4531L5.57783 21.8593L1.82783 19.9843C1.22877 19.6808 0.773923 19.1529 0.562204 18.5156C0.360017 17.8778 0.421892 17.1856 0.734079 16.5937L4.57783 9.23435C5.20939 8.03029 6.6833 7.54591 7.90595 8.1406L11.406 9.8906L19.0153 7.67185C19.5858 7.51638 20.1922 7.56044 20.7341 7.79685L25.8903 10.1406H28.4528L32.0935 8.31247C33.3114 7.70654 34.7903 8.1856 35.4216 9.3906L39.2653 16.75C39.5785 17.3472 39.6402 18.0445 39.4372 18.6875ZM29.3278 24.0312L24.3903 20.4375L23.1247 21.3906C20.8991 23.0468 17.8503 23.0468 15.6247 21.3906L14.781 20.75C13.6783 19.9334 13.4464 18.3775 14.263 17.275C14.3394 17.1717 14.4238 17.0747 14.5153 16.9843L20.6247 10.8593L20.906 10.625L19.7028 10.0781L12.0935 12.2968L7.84345 20.4531L15.5622 26.4843L24.6091 28.75L29.3278 24.0312ZM32.2497 20.7969L27.9997 12.6406H22.3903L16.281 18.75L17.1247 19.3906C18.4631 20.3753 20.2863 20.3753 21.6247 19.3906L23.6247 17.8906C24.0625 17.5603 24.6644 17.554 25.1091 17.875L31.0466 22.1875L32.2497 20.7969Z" fill="#2E69FF"/>
</g>
<defs>
<clipPath id="clip0_2318_5783">
<rect width="40" height="40" fill="white"/>
</clipPath>
</defs>
</svg>
