<svg width="40" height="40" viewBox="0 0 40 40" fill="none" xmlns="http://www.w3.org/2000/svg">
<g clip-path="url(#clip0_2318_5784)">
<path d="M36.4844 20.0001V32.5001C36.4758 35.9483 33.6827 38.7415 30.2344 38.7501H21.25C20.5597 38.7501 20 38.1904 20 37.5001C20 36.8098 20.5597 36.2501 21.25 36.2501H30.2344C32.3019 36.2415 33.9758 34.5676 33.9844 32.5001V32.2813C33.5834 32.4258 33.1606 32.4999 32.7344 32.5001H30.2344C28.1633 32.5001 26.4844 30.8212 26.4844 28.7501V22.5001C26.4844 20.429 28.1633 18.7501 30.2344 18.7501H33.9219C33.2722 11.6301 27.2744 6.19616 20.125 6.25007H20.1094C12.9544 6.18101 6.94781 11.6229 6.3125 18.7501H10C12.0675 18.7587 13.7414 20.4326 13.75 22.5001V28.7501C13.7414 30.8176 12.0675 32.4915 10 32.5001H7.5C5.4325 32.4915 3.75859 30.8176 3.75 28.7501V20.0001C3.74984 11.0254 11.025 3.74991 19.9997 3.74976C20.0363 3.74976 20.0728 3.74991 20.1094 3.75007H20.2344C29.2055 3.75866 36.4758 11.029 36.4844 20.0001Z" fill="#2E69FF"/>
</g>
<defs>
<clipPath id="clip0_2318_5784">
<rect width="40" height="40" fill="white"/>
</clipPath>
</defs>
</svg>
