<svg width="40" height="40" viewBox="0 0 40 40" fill="none" xmlns="http://www.w3.org/2000/svg">
<g clip-path="url(#clip0_2318_5785)">
<path d="M33.75 6.25H6.25C4.86922 6.25 3.75 7.36922 3.75 8.75V31.25C3.75 32.6308 4.86922 33.75 6.25 33.75H33.75C35.1308 33.75 36.25 32.6308 36.25 31.25V8.75C36.25 7.36922 35.1308 6.25 33.75 6.25ZM19.5469 27.4531C18.8798 27.6311 18.1948 27.2345 18.0169 26.5675C18.0164 26.5658 18.0159 26.5642 18.0156 26.5625C17.4853 24.5605 15.4325 23.3673 13.4305 23.8977C12.128 24.2427 11.1106 25.26 10.7656 26.5625C10.6175 27.1142 10.1181 27.4984 9.54688 27.5L9.23438 27.4531C8.57328 27.2864 8.17266 26.6153 8.33938 25.9544C8.34078 25.9487 8.34219 25.9431 8.34375 25.9375C8.72422 24.46 9.62953 23.1714 10.8906 22.3125C8.91859 20.3795 8.88688 17.2139 10.8198 15.2417C12.7528 13.2695 15.9184 13.238 17.8906 15.1709C19.8628 17.1039 19.8944 20.2695 17.9614 22.2417C17.9381 22.2655 17.9145 22.2891 17.8906 22.3125C19.1517 23.1714 20.057 24.46 20.4375 25.9375C20.6136 26.5961 20.2223 27.2727 19.5638 27.4487C19.5581 27.4503 19.5525 27.4517 19.5469 27.4531ZM30 23.75H23.75C23.0597 23.75 22.5 23.1903 22.5 22.5C22.5 21.8097 23.0597 21.25 23.75 21.25H30C30.6903 21.25 31.25 21.8097 31.25 22.5C31.25 23.1903 30.6903 23.75 30 23.75ZM30 18.75H23.75C23.0597 18.75 22.5 18.1903 22.5 17.5C22.5 16.8097 23.0597 16.25 23.75 16.25H30C30.6903 16.25 31.25 16.8097 31.25 17.5C31.25 18.1903 30.6903 18.75 30 18.75Z" fill="#2E69FF"/>
<path d="M14.3906 21.25C15.7713 21.25 16.8906 20.1307 16.8906 18.75C16.8906 17.3693 15.7713 16.25 14.3906 16.25C13.0099 16.25 11.8906 17.3693 11.8906 18.75C11.8906 20.1307 13.0099 21.25 14.3906 21.25Z" fill="#2E69FF"/>
</g>
<defs>
<clipPath id="clip0_2318_5785">
<rect width="40" height="40" fill="white"/>
</clipPath>
</defs>
</svg>
