<svg width="40" height="40" viewBox="0 0 40 40" fill="none" xmlns="http://www.w3.org/2000/svg">
<g clip-path="url(#clip0_2318_5786)">
<path d="M36.25 26.25H35V11.25C34.9914 9.1825 33.3175 7.50859 31.25 7.5H8.75C6.6825 7.50859 5.00859 9.1825 5 11.25V26.25H3.75C3.05969 26.25 2.5 26.8097 2.5 27.5V30C2.50859 32.0675 4.1825 33.7414 6.25 33.75H33.75C35.8175 33.7414 37.4914 32.0675 37.5 30V27.5C37.5 26.8097 36.9403 26.25 36.25 26.25ZM17.5 11.25H22.5C23.1903 11.25 23.75 11.8097 23.75 12.5C23.75 13.1903 23.1903 13.75 22.5 13.75H17.5C16.8097 13.75 16.25 13.1903 16.25 12.5C16.25 11.8097 16.8097 11.25 17.5 11.25ZM35 30C35 30.6903 34.4403 31.25 33.75 31.25H6.25C5.55969 31.25 5 30.6903 5 30V28.75H35V30Z" fill="#2E69FF"/>
</g>
<defs>
<clipPath id="clip0_2318_5786">
<rect width="40" height="40" fill="white"/>
</clipPath>
</defs>
</svg>
