<svg width="40" height="40" viewBox="0 0 40 40" fill="none" xmlns="http://www.w3.org/2000/svg">
<g clip-path="url(#clip0_2318_5787)">
<path d="M27.5003 36.25C27.5003 36.9403 26.9406 37.5 26.2503 37.5H13.7503C13.06 37.5 12.5003 36.9403 12.5003 36.25C12.5003 35.5597 13.06 35 13.7503 35H26.2503C26.9406 35 27.5003 35.5597 27.5003 36.25ZM33.7503 16.25C33.7587 20.4703 31.822 24.4591 28.5003 27.0625C27.8726 27.5362 27.5028 28.2762 27.5003 29.0625V30C27.5003 31.3808 26.3811 32.5 25.0003 32.5H15.0003C13.6195 32.5 12.5003 31.3808 12.5003 30V29.0625C12.4981 28.2877 12.1412 27.5564 11.5315 27.0781C8.2173 24.4931 6.2709 20.5312 6.25027 16.3281C6.2034 8.87499 12.2346 2.67187 19.6721 2.49999C27.2551 2.31015 33.5561 8.30343 33.7461 15.8862C33.749 16.0075 33.7504 16.1287 33.7503 16.25ZM25.8909 16.6094C25.3976 16.1208 24.6029 16.1208 24.1096 16.6094L20.0003 20.7344L15.8909 16.6094C15.3506 16.1659 14.5531 16.2444 14.1096 16.7847C13.7265 17.2514 13.7265 17.9237 14.1096 18.3906L18.7503 23.0156V28.75C18.7503 29.4403 19.31 30 20.0003 30C20.6906 30 21.2503 29.4403 21.2503 28.75V23.0156L25.8909 18.3906C26.3795 17.8973 26.3795 17.1027 25.8909 16.6094Z" fill="#2E69FF"/>
<path d="M26.25 37.5C26.9403 37.5 27.5 36.9403 27.5 36.25C27.5 35.5597 26.9403 35 26.25 35H13.75C13.0597 35 12.5 35.5597 12.5 36.25C12.5 36.9403 13.0597 37.5 13.75 37.5H26.25Z" fill="#2E69FF"/>
</g>
<defs>
<clipPath id="clip0_2318_5787">
<rect width="40" height="40" fill="white"/>
</clipPath>
</defs>
</svg>
