<svg width="40" height="40" viewBox="0 0 40 40" fill="none" xmlns="http://www.w3.org/2000/svg">
<path d="M34.3846 3H5.61538C4.17095 3 3 4.17095 3 5.61538V34.3846C3 35.8291 4.17095 37 5.61538 37H34.3846C35.8291 37 37 35.8291 37 34.3846V5.61538C37 4.17095 35.8291 3 34.3846 3Z" fill="#2E69FF"/>
<path d="M15.8849 11.073H12.4326V28.9448H15.8849V11.073Z" fill="white"/>
<path d="M26.6258 28.9273C26.4863 28.9273 26.312 28.8052 26.2073 28.7006C23.3304 25.8237 20.4535 22.9642 17.5068 20.0001C20.4709 17.036 23.3653 14.1417 26.2597 11.2647C26.3643 11.1601 26.5735 11.0729 26.713 11.0729C27.7417 11.0555 29.6422 11.0729 30.8802 11.0729C27.8115 14.0893 24.8648 16.9837 21.8658 19.9304C24.9345 22.9817 27.8638 25.876 30.9674 28.9447C29.6422 28.9447 27.7068 28.9447 26.6432 28.9447L26.6258 28.9273Z" fill="white"/>
</svg>
