<svg width="40" height="40" viewBox="0 0 40 40" fill="none" xmlns="http://www.w3.org/2000/svg">
<path d="M35.4286 6H4.57143C3.14857 6 2 7.2515 2 8.80187V14.555V31.1981C2 32.7485 3.14857 34 4.57143 34H35.4286C36.8514 34 38 32.7485 38 31.1981V8.80187C38 7.2515 36.8514 6 35.4286 6Z" fill="#2E69FF"/>
<path d="M21.2859 28.4149H18.7144C18.0116 28.4149 17.4287 27.7798 17.4287 27.014C17.4287 26.2481 18.0116 25.613 18.7144 25.613H21.2859C21.9887 25.613 22.5716 26.2481 22.5716 27.014C22.5716 27.7798 21.9887 28.4149 21.2859 28.4149Z" fill="white"/>
<path d="M31.5711 28.4149H26.4283C25.7254 28.4149 25.1426 27.7798 25.1426 27.014C25.1426 26.2481 25.7254 25.613 26.4283 25.613H31.5711C32.274 25.613 32.8569 26.2481 32.8569 27.014C32.8569 27.7798 32.274 28.4149 31.5711 28.4149Z" fill="white"/>
<path d="M35.4284 8.80176H4.57129V13.154H35.4284V8.80176Z" fill="white"/>
</svg>
