<svg width="40" height="40" viewBox="0 0 40 40" fill="none" xmlns="http://www.w3.org/2000/svg">
<g clip-path="url(#clip0_2318_5755)">
<path d="M19.5 37C29.165 37 37 29.165 37 19.5C37 9.83502 29.165 2 19.5 2C9.83502 2 2 9.83502 2 19.5C2 29.165 9.83502 37 19.5 37Z" fill="#2E69FF"/>
<path d="M22.8922 8.56934C22.8204 8.37191 22.6409 8.22832 22.4434 8.21037L20.505 8.06678L19.7691 6.3437C19.6434 6.07447 19.3383 5.96678 19.087 6.07447C18.9793 6.12832 18.8716 6.21806 18.8178 6.3437L18.0819 8.06678L16.1434 8.21037C15.8563 8.24627 15.6409 8.49755 15.6768 8.78473C15.6768 8.91037 15.7486 9.03601 15.8563 9.12575L17.3101 10.3283L16.8614 12.1232C16.8075 12.3206 16.8793 12.536 17.0588 12.6616C17.2204 12.7873 17.4537 12.8052 17.6332 12.6975L19.2845 11.7283L20.9357 12.6975C20.9357 12.6975 21.1152 12.7693 21.205 12.7693C21.3127 12.7693 21.4204 12.7334 21.5101 12.6616C21.6716 12.536 21.7614 12.3206 21.7075 12.1232L21.2588 10.3283L22.7127 9.12575C22.8742 8.98216 22.946 8.76678 22.8742 8.56934H22.8922Z" fill="white"/>
<path d="M10.0052 12.6974C9.78979 12.6974 9.6103 12.823 9.52056 13.0205L8.78466 14.8153L6.91799 14.9948C6.63081 15.0307 6.43338 15.282 6.45133 15.5692C6.45133 15.6948 6.52312 15.8205 6.61287 15.8923L8.01286 17.1307L7.56415 19.0153C7.5103 19.3025 7.67184 19.5718 7.95902 19.6435C8.08466 19.6794 8.22825 19.6435 8.33594 19.5718L9.93338 18.5666L11.4949 19.5359C11.6744 19.6435 11.8898 19.6435 12.0693 19.5179C12.2308 19.3923 12.3206 19.1948 12.2847 18.9794L11.8718 17.0948L13.3077 15.8205C13.3077 15.8205 13.4334 15.6769 13.4513 15.5871C13.4872 15.4794 13.4872 15.3718 13.4513 15.2641C13.3795 15.0666 13.2 14.923 13.0026 14.9051L11.1539 14.7615L10.4539 13.0025C10.3821 12.8051 10.1847 12.6794 9.96927 12.6794L10.0052 12.6974Z" fill="white"/>
<path d="M10.0052 12.6974C9.78979 12.6974 9.6103 12.823 9.52056 13.0205L8.78466 14.8153L6.91799 14.9948C6.63081 15.0307 6.43338 15.282 6.45133 15.5692C6.45133 15.6948 6.52312 15.8205 6.61287 15.8923L8.01286 17.1307L7.56415 19.0153C7.5103 19.3025 7.67184 19.5718 7.95902 19.6435C8.08466 19.6794 8.22825 19.6435 8.33594 19.5718L9.93338 18.5666L11.4949 19.5359C11.6744 19.6435 11.8898 19.6435 12.0693 19.5179C12.2308 19.3923 12.3206 19.1948 12.2847 18.9794L11.8718 17.0948L13.3077 15.8205C13.3077 15.8205 13.4334 15.6769 13.4513 15.5871C13.4872 15.4794 13.4872 15.3718 13.4513 15.2641C13.3795 15.0666 13.2 14.923 13.0026 14.9051L11.1539 14.7615L10.4539 13.0025C10.3821 12.8051 10.1847 12.6794 9.96927 12.6794L10.0052 12.6974Z" fill="white"/>
<path d="M9.95166 26.2309C9.87986 26.4283 9.95166 26.6437 10.1132 26.7873L11.585 28.0437L11.1722 29.8745C11.1183 30.1617 11.2978 30.4309 11.567 30.4847C11.6927 30.5027 11.8183 30.4847 11.926 30.4309L13.5414 29.4796L15.1927 30.4847C15.444 30.6283 15.767 30.5565 15.9106 30.3053C15.9824 30.1976 16.0004 30.054 15.9645 29.9104L15.4978 28.0796L16.9158 26.895C17.0773 26.7694 17.1311 26.536 17.0773 26.3386C17.0235 26.1411 16.844 25.9976 16.6286 25.9796L14.7081 25.8001L13.9363 24.0411C13.9363 24.0411 13.8465 23.8796 13.7568 23.8258C13.667 23.754 13.5594 23.7181 13.4517 23.736C13.2363 23.736 13.0568 23.8617 12.985 24.0591L12.285 25.7642L10.4004 25.8899C10.185 25.8899 10.0055 26.0514 9.93371 26.2488L9.95166 26.2309Z" fill="white"/>
<path d="M22.8029 30.4488C22.9645 30.5744 23.1978 30.5924 23.3773 30.4847L25.0286 29.4796L26.644 30.4308C26.8952 30.5744 27.2004 30.4847 27.344 30.2334C27.4158 30.1257 27.4337 30.0001 27.3978 29.8744L26.985 28.0437L28.4568 26.7872C28.6722 26.5898 28.6901 26.2667 28.4927 26.0513C28.4029 25.9437 28.2773 25.8898 28.1516 25.8719L26.267 25.7462L25.567 24.0411C25.4952 23.8437 25.2978 23.718 25.1004 23.718C24.885 23.718 24.7055 23.8437 24.6158 24.0231L23.844 25.7821L21.9234 25.9616C21.8337 25.9616 21.744 26.0155 21.6722 26.0513C21.5824 26.1231 21.5106 26.2129 21.4927 26.3206C21.4209 26.518 21.4927 26.7334 21.6542 26.877L23.0722 28.0616L22.6055 29.8924C22.5516 30.0898 22.6234 30.3052 22.8029 30.4308V30.4488Z" fill="white"/>
<path d="M30.7902 19.5539C30.9697 19.4283 31.0415 19.2129 30.9876 19.0154L30.5389 17.1308L31.9389 15.8924C32.1543 15.6949 32.1722 15.3719 31.9748 15.1565C31.885 15.0667 31.7774 14.9949 31.6517 14.9949L29.785 14.8154L29.0491 13.0206C28.9415 12.7513 28.6184 12.6257 28.3671 12.7513C28.2415 12.8052 28.1517 12.9129 28.0979 13.0206L27.3979 14.7795L25.5491 14.9231C25.3338 14.9231 25.1543 15.0847 25.1004 15.2821C25.0286 15.4795 25.1004 15.6949 25.244 15.8385L26.6799 17.1129L26.2671 18.9975C26.2492 19.0872 26.2671 19.177 26.2671 19.2667C26.303 19.3744 26.3748 19.4642 26.4645 19.518C26.6261 19.6437 26.8594 19.6437 27.0389 19.536L28.6004 18.5667L30.1979 19.5719C30.3774 19.6795 30.6107 19.6795 30.7722 19.5539H30.7902Z" fill="white"/>
</g>
<defs>
<clipPath id="clip0_2318_5755">
<rect width="40" height="40" fill="white"/>
</clipPath>
</defs>
</svg>
