<svg width="40" height="40" viewBox="0 0 40 40" fill="none" xmlns="http://www.w3.org/2000/svg">
<g clip-path="url(#clip0_2318_5789)">
<path d="M32.5 6.25H7.5C6.11922 6.25 5 7.36922 5 8.75V17.9219C5 31.8906 16.8438 36.5312 19.2188 37.3125C19.7262 37.4794 20.2738 37.4794 20.7812 37.3125C23.1562 36.5312 35 31.8906 35 17.9219V8.75C35 7.36922 33.8808 6.25 32.5 6.25ZM27.7344 17.1562L18.5781 25.9062C18.3414 26.1289 18.0281 26.252 17.7031 26.25C17.383 26.2512 17.0748 26.128 16.8438 25.9062L12.2656 21.5312C11.7455 21.0773 11.6916 20.2878 12.1455 19.7675C12.5994 19.2473 13.3889 19.1934 13.9092 19.6473C13.9353 19.67 13.9603 19.6939 13.9844 19.7186L17.7031 23.2655L26.0156 15.3436C26.5358 14.8897 27.3255 14.9436 27.7794 15.4638C28.2067 15.9539 28.1872 16.6897 27.7344 17.1562Z" fill="#2E69FF"/>
</g>
<defs>
<clipPath id="clip0_2318_5789">
<rect width="40" height="40" fill="white"/>
</clipPath>
</defs>
</svg>
