<svg width="40" height="40" viewBox="0 0 40 40" fill="none" xmlns="http://www.w3.org/2000/svg">
<path d="M32.4344 20.8718C30.8845 20.8718 29.5108 21.4995 28.5069 22.5108L25.7945 20.9067C26.0411 20.1918 26.1996 19.4072 26.1996 18.6051C26.1996 16.8441 25.5479 15.2574 24.4736 14.0195L26.5871 11.7005C27.0626 11.8574 27.5558 11.9621 28.0665 11.9621C30.5675 11.9621 32.593 9.95692 32.593 7.48103C32.593 5.00513 30.5675 3 28.0665 3C25.5656 3 23.5401 5.00513 23.5401 7.48103C23.5401 8.49231 23.8924 9.39897 24.456 10.1487L22.4129 12.3805C21.4266 11.8574 20.2994 11.561 19.1018 11.561C18.0978 11.561 17.1644 11.7703 16.3014 12.1364L14.6986 9.69538C15.1566 9.01539 15.4384 8.21333 15.4384 7.34154C15.4384 5.00513 13.5186 3.10462 11.1585 3.10462C8.79844 3.10462 6.87867 5.00513 6.87867 7.34154C6.87867 9.67795 8.79844 11.5785 11.1585 11.5785C11.6693 11.5785 12.1624 11.4738 12.6204 11.3169L14.1174 13.601C12.9902 14.6995 12.2329 16.1641 12.0568 17.8031L8.97456 18.3262C8.35812 17.1405 7.14286 16.3385 5.69863 16.3385C3.65558 16.3385 2 17.9774 2 20C2 22.0226 3.65558 23.6615 5.69863 23.6615C7.40705 23.6615 8.83366 22.5108 9.25636 20.9415L12.2505 20.4359C12.6556 21.9354 13.5538 23.2256 14.7515 24.1672L13.0959 27.6021C12.7789 27.5323 12.4442 27.48 12.1096 27.48C9.4501 27.48 7.30137 29.6072 7.30137 32.24C7.30137 34.8728 9.4501 37 12.1096 37C14.7691 37 16.9178 34.8728 16.9178 32.24C16.9178 30.8974 16.3366 29.6944 15.4207 28.8226L17.0939 25.3528C17.728 25.5446 18.4149 25.6492 19.1018 25.6492C21.2681 25.6492 23.1879 24.6903 24.4912 23.1908L27.1683 24.7774C27.0098 25.2831 26.9041 25.8062 26.9041 26.3641C26.9041 29.3979 29.3875 31.8564 32.4521 31.8564C35.5166 31.8564 38 29.3979 38 26.3641C38 23.3303 35.5166 20.8718 32.4521 20.8718H32.4344Z" fill="#2E69FF"/>
<path d="M19.1025 23.0339C21.5732 23.0339 23.5761 21.0511 23.5761 18.6052C23.5761 16.1593 21.5732 14.1765 19.1025 14.1765C16.6318 14.1765 14.6289 16.1593 14.6289 18.6052C14.6289 21.0511 16.6318 23.0339 19.1025 23.0339Z" fill="white"/>
</svg>
