<svg width="40" height="40" viewBox="0 0 40 40" fill="none" xmlns="http://www.w3.org/2000/svg">
<g clip-path="url(#clip0_2318_5757)">
<path d="M37.9157 4.37926C37.7444 3.21145 36.7739 2.2772 35.5179 2.1155C33.5008 1.82804 28.2675 1.70227 23.1675 6.51725L21.5689 8.00846H10.6267C9.86548 8.00846 9.14234 8.29592 8.6095 8.79897L2.8434 14.2607C2.10123 14.9614 1.81578 15.9855 2.12026 16.9377C2.42474 17.8899 3.26206 18.6086 4.28968 18.8062L11.3308 20.1357L18.7906 27.1785L20.1988 33.8261C20.4081 34.7963 21.1693 35.5868 22.1779 35.8742C22.4443 35.9461 22.7107 36 22.9962 36C23.7574 36 24.4805 35.7125 25.0134 35.2095L30.7985 29.7657C31.3313 29.2626 31.6358 28.5799 31.6358 27.8613V17.5306L33.2153 16.0214C38.3154 11.2065 38.1821 6.26572 37.8777 4.36129L37.9157 4.37926ZM10.6267 10.7034H18.7144L11.5972 17.4228L4.87961 16.1652L10.6457 10.7034H10.6267ZM28.8003 27.8613L23.0152 33.305L21.6831 26.9629L28.8003 20.2435V27.8792V27.8613Z" fill="#2E69FF"/>
<path d="M15.1337 27.6001C14.4837 27.3835 13.7837 27.7168 13.567 28.3668C13.567 28.3668 13.567 28.3668 13.567 28.3835C12.5337 31.4668 9.20033 32.4168 7.28366 32.7168C7.58366 30.8001 8.53366 27.4668 11.617 26.4335C12.2837 26.2668 12.7003 25.6001 12.5337 24.9168C12.367 24.2335 11.7003 23.8335 11.017 24.0001C10.9503 24.0168 10.8837 24.0335 10.817 24.0668C8.25033 24.9168 6.38366 26.9335 5.38366 29.9335C4.93366 31.2835 4.70033 32.6835 4.66699 34.0835C4.66699 34.7668 5.23366 35.3335 5.91699 35.3335C7.33366 35.3001 8.73366 35.0501 10.067 34.6168C13.0503 33.6168 15.0837 31.7501 15.9337 29.1835C16.1503 28.5335 15.817 27.8335 15.167 27.6168C15.167 27.6168 15.167 27.6168 15.1503 27.6168L15.1337 27.6001Z" fill="#2E69FF"/>
<path d="M10.6672 11.3999H17.7505L11.5172 17.6332L5.61719 16.4666L10.6672 11.3999Z" fill="white"/>
<path d="M28.6005 28.3333L23.5339 33.3833L22.3672 27.4833L28.6005 21.25V28.3333Z" fill="white"/>
</g>
<defs>
<clipPath id="clip0_2318_5757">
<rect width="40" height="40" fill="white"/>
</clipPath>
</defs>
</svg>
