<svg width="40" height="40" viewBox="0 0 40 40" fill="none" xmlns="http://www.w3.org/2000/svg">
<g clip-path="url(#clip0_2318_5792)">
<path d="M39.6405 20.8906L35.8905 24.6406C35.3938 25.1208 34.606 25.1208 34.1093 24.6406L30.3593 20.8906C30.0132 20.5217 29.9099 19.9869 30.0936 19.5156C30.2891 19.0505 30.7452 18.7484 31.2499 18.75H33.6874C33.0127 11.1949 26.341 5.61704 18.7858 6.29173C14.5604 6.66907 10.7464 8.97798 8.45301 12.5469C8.0752 13.1247 7.30051 13.2867 6.7227 12.9089C6.72129 12.908 6.72004 12.9072 6.71864 12.9063C6.14207 12.5425 5.96957 11.7802 6.33332 11.2036C6.33676 11.1981 6.3402 11.1928 6.34364 11.1875C11.2071 3.64501 21.2643 1.47313 28.8068 6.33657C33.0775 9.09032 35.8141 13.6834 36.203 18.75H38.7499C39.2546 18.7484 39.7107 19.0505 39.9061 19.5156C40.0899 19.9869 39.9866 20.5217 39.6405 20.8906ZM33.2811 27.0938C32.7049 26.7136 31.9296 26.8728 31.5494 27.4491C31.5485 27.4505 31.5477 27.4517 31.5468 27.4531C31.1693 28.0477 30.7461 28.6117 30.2811 29.1406C29.2693 27.6892 27.9654 26.4652 26.453 25.5469C22.8452 29.0033 17.1546 29.0033 13.5468 25.5469C12.0344 26.4652 10.7305 27.6892 9.71864 29.1406C7.76551 26.9444 6.57114 24.1777 6.31239 21.25H8.74989C9.25457 21.2516 9.71067 20.9495 9.90614 20.4844C10.0899 20.0131 9.9866 19.4783 9.64051 19.1094L5.89051 15.3594C5.39723 14.8708 4.60254 14.8708 4.10926 15.3594L0.359262 19.1094C0.0131681 19.4783 -0.0901131 20.0131 0.0936368 20.4844C0.289106 20.9495 0.745199 21.2516 1.24989 21.25H3.79676C4.11676 25.4366 6.04942 29.3353 9.18739 32.125L9.24989 32.1719C15.963 38.1152 26.2232 37.4909 32.1664 30.7778C32.7121 30.1614 33.2102 29.5044 33.6561 28.8125C34.0288 28.2417 33.8682 27.4767 33.2972 27.1041C33.2919 27.1006 33.2866 27.0972 33.2811 27.0938ZM19.9999 25.625C23.7969 25.625 26.8749 22.547 26.8749 18.75C26.8749 14.953 23.7969 11.875 19.9999 11.875C16.2029 11.875 13.1249 14.953 13.1249 18.75C13.1249 22.547 16.2029 25.625 19.9999 25.625Z" fill="#2E69FF"/>
</g>
<defs>
<clipPath id="clip0_2318_5792">
<rect width="40" height="40" fill="white"/>
</clipPath>
</defs>
</svg>
