<svg width="40" height="40" viewBox="0 0 40 40" fill="none" xmlns="http://www.w3.org/2000/svg">
<g clip-path="url(#clip0_2318_5793)">
<path d="M10 21.875C10.0088 22.5567 9.46317 23.1163 8.78145 23.125C8.77098 23.1252 8.76051 23.1252 8.75004 23.125H1.87504C1.40192 23.1211 0.96926 22.8569 0.750041 22.4375C0.546135 22.0105 0.59426 21.5058 0.875041 21.125C1.98129 19.64 3.45739 18.4709 5.15629 17.7344C2.6102 15.4038 2.43551 11.4503 4.76629 8.90422C7.09707 6.35813 11.0504 6.18344 13.5964 8.51422C14.59 9.4236 15.2633 10.6298 15.5157 11.9531C15.6104 12.4716 15.3738 12.9944 14.9219 13.2656C12.901 14.4641 11.3639 16.3327 10.5782 18.5469C10.1908 19.6134 9.99504 20.7402 10 21.875ZM39.125 21.125C38.0188 19.64 36.5427 18.4709 34.8438 17.7344C37.3899 15.4038 37.5646 11.4503 35.2338 8.90422C32.903 6.35813 28.9497 6.18344 26.4036 8.51422C25.41 9.42375 24.7368 10.63 24.4844 11.9533C24.3897 12.4717 24.6263 12.9945 25.0782 13.2658C27.1018 14.4611 28.6396 16.3309 29.4219 18.547C29.8093 19.6136 30.005 20.7403 30 21.8752C29.9913 22.5569 30.5369 23.1164 31.2186 23.1252C31.2291 23.1253 31.2396 23.1253 31.25 23.1252H38.125C38.8154 23.1252 39.375 22.5655 39.375 21.8752C39.375 21.6045 39.2874 21.3414 39.125 21.125ZM24.5625 27.8281C27.85 25.3083 28.4724 20.6006 25.9527 17.313C23.433 14.0253 18.725 13.4031 15.4375 15.923C12.15 18.4428 11.5277 23.1505 14.0474 26.4381C14.4477 26.9605 14.9152 27.4278 15.4375 27.8283C13.0071 28.9073 11.0368 30.8113 9.87504 33.2033C9.68707 33.59 9.71676 34.0472 9.95317 34.4064C10.1733 34.7748 10.5708 35.0003 11 35.0002H29C29.4293 35.0003 29.8268 34.7748 30.0469 34.4064C30.2833 34.0472 30.313 33.59 30.125 33.2033C28.9633 30.8111 26.993 28.9072 24.5625 27.8281Z" fill="#2E69FF"/>
</g>
<defs>
<clipPath id="clip0_2318_5793">
<rect width="40" height="40" fill="white"/>
</clipPath>
</defs>
</svg>
