<svg width="40" height="40" viewBox="0 0 40 40" fill="none" xmlns="http://www.w3.org/2000/svg">
<g clip-path="url(#clip0_2318_5794)">
<path d="M32.7652 17.1875L28.7027 3.39064C28.5433 2.85986 28.0536 2.49736 27.4995 2.50001H12.4995C11.9455 2.49736 11.4558 2.85986 11.2964 3.39064L7.23391 17.1875C6.88751 18.3338 6.97079 19.567 7.46829 20.6563C9.51032 25.1677 13.8183 28.2344 18.7495 28.6875V35H13.7495C13.0592 35 12.4995 35.5597 12.4995 36.25C12.4995 36.9403 13.0592 37.5 13.7495 37.5H26.2495C26.9398 37.5 27.4995 36.9403 27.4995 36.25C27.4995 35.5597 26.9398 35 26.2495 35H21.2495V28.6875C26.1808 28.2344 30.4888 25.1677 32.5308 20.6563C33.0283 19.567 33.1116 18.3338 32.7652 17.1875ZM20.562 15.125C16.4683 13.0938 13.187 13.0938 10.8902 13.6406L13.437 5.00001H26.562L29.812 16.0156C28.1402 16.7188 24.9683 17.3281 20.562 15.125Z" fill="#2E69FF"/>
</g>
<defs>
<clipPath id="clip0_2318_5794">
<rect width="40" height="40" fill="white"/>
</clipPath>
</defs>
</svg>
