<svg width="24" height="24" viewBox="0 0 24 24" fill="none" xmlns="http://www.w3.org/2000/svg">
<g clip-path="url(#clip0_1587_18843)">
<path d="M23.1429 21.9039L17.6604 16.4225C19.2494 14.5147 20.0418 12.0678 19.8727 9.59069C19.7036 7.1136 18.586 4.79706 16.7524 3.12298C14.9188 1.44891 12.5104 0.546178 10.0282 0.602591C7.54594 0.659003 5.18102 1.67021 3.42537 3.42586C1.66972 5.18151 0.658515 7.54643 0.602103 10.0286C0.54569 12.5109 1.44842 14.9193 3.12249 16.7529C4.79657 18.5865 7.11311 19.7041 9.5902 19.8732C12.0673 20.0423 14.5142 19.2499 16.422 17.6609L21.9034 23.1434C21.9848 23.2248 22.0814 23.2893 22.1877 23.3334C22.2941 23.3774 22.408 23.4001 22.5231 23.4001C22.6382 23.4001 22.7522 23.3774 22.8586 23.3334C22.9649 23.2893 23.0615 23.2248 23.1429 23.1434C23.2243 23.062 23.2888 22.9654 23.3329 22.859C23.3769 22.7527 23.3996 22.6387 23.3996 22.5236C23.3996 22.4085 23.3769 22.2946 23.3329 22.1882C23.2888 22.0819 23.2243 21.9853 23.1429 21.9039ZM2.37576 10.26C2.37576 8.70075 2.83813 7.1765 3.70441 5.88002C4.57069 4.58355 5.80197 3.57307 7.24253 2.97636C8.6831 2.37966 10.2683 2.22353 11.7976 2.52773C13.3269 2.83193 14.7316 3.58278 15.8342 4.68535C16.9367 5.78791 17.6876 7.19266 17.9918 8.72196C18.296 10.2513 18.1399 11.8364 17.5432 13.277C16.9465 14.7176 15.936 15.9488 14.6395 16.8151C13.343 17.6814 11.8188 18.1438 10.2595 18.1438C8.16933 18.1415 6.16541 17.3101 4.68742 15.8321C3.20943 14.3541 2.37808 12.3502 2.37576 10.26Z" fill="black"/>
</g>
<defs>
<clipPath id="clip0_1587_18843">
<rect width="24" height="24" fill="white"/>
</clipPath>
</defs>
</svg>
