<svg width="40" height="40" viewBox="0 0 40 40" fill="none" xmlns="http://www.w3.org/2000/svg">
<g clip-path="url(#clip0_2689_2765)">
<path d="M36.25 32.5C36.25 33.1903 35.6903 33.75 35 33.75H5C4.30969 33.75 3.75 33.1903 3.75 32.5V7.5C3.75 6.80969 4.30969 6.25 5 6.25C5.69031 6.25 6.25 6.80969 6.25 7.5V24.4844L14.1094 16.6094C14.6027 16.1208 15.3973 16.1208 15.8906 16.6094L20 20.7344L27.6094 13.125L25.3594 10.8906C25.0133 10.5217 24.91 9.98688 25.0938 9.51563C25.2927 9.05313 25.7466 8.7525 26.25 8.75H32.5C33.1903 8.75 33.75 9.30969 33.75 10V16.25C33.7516 16.7547 33.4495 17.2108 32.9844 17.4062C32.8302 17.4675 32.6659 17.4992 32.5 17.5C32.1681 17.4986 31.8494 17.37 31.6094 17.1406L29.375 14.8906L20.8906 23.3906C20.3973 23.8792 19.6027 23.8792 19.1094 23.3906L15 19.2656L6.25 28.0156V31.25H35C35.6903 31.25 36.25 31.8097 36.25 32.5Z" fill="#FFCA36"/>
</g>
<defs>
<clipPath id="clip0_2689_2765">
<rect width="40" height="40" fill="white"/>
</clipPath>
</defs>
</svg>
