<svg width="40" height="40" viewBox="0 0 40 40" fill="none" xmlns="http://www.w3.org/2000/svg">
<g clip-path="url(#clip0_2689_2760)">
<path d="M20 3.75C11.0253 3.75 3.75 11.0253 3.75 20C3.75 28.9747 11.0253 36.25 20 36.25C28.9747 36.25 36.25 28.9747 36.25 20C36.2328 11.0325 28.9675 3.76719 20 3.75ZM21.875 27.5H21.25V28.75C21.25 29.4403 20.6903 30 20 30C19.3097 30 18.75 29.4403 18.75 28.75V27.5H16.25C15.5597 27.5 15 26.9403 15 26.25C15 25.5597 15.5597 25 16.25 25H21.875C22.9105 25 23.75 24.1605 23.75 23.125C23.75 22.0895 22.9105 21.25 21.875 21.25H18.125C15.7087 21.25 13.75 19.2913 13.75 16.875C13.75 14.4587 15.7087 12.5 18.125 12.5H18.75V11.25C18.75 10.5597 19.3097 10 20 10C20.6903 10 21.25 10.5597 21.25 11.25V12.5H23.75C24.4403 12.5 25 13.0597 25 13.75C25 14.4403 24.4403 15 23.75 15H18.125C17.0895 15 16.25 15.8395 16.25 16.875C16.25 17.9105 17.0895 18.75 18.125 18.75H21.875C24.2913 18.75 26.25 20.7087 26.25 23.125C26.25 25.5413 24.2913 27.5 21.875 27.5Z" fill="#FFCA36"/>
</g>
<defs>
<clipPath id="clip0_2689_2760">
<rect width="40" height="40" fill="white"/>
</clipPath>
</defs>
</svg>
