<svg width="154" height="19" viewBox="0 0 154 19" fill="none" xmlns="http://www.w3.org/2000/svg">
<mask id="mask0_1600_808" style="mask-type:luminance" maskUnits="userSpaceOnUse" x="0" y="0" width="154" height="19">
<path d="M0.251953 0.534668H153.502V18.646H0.251953V0.534668Z" fill="white"/>
</mask>
<g mask="url(#mask0_1600_808)">
<mask id="mask1_1600_808" style="mask-type:luminance" maskUnits="userSpaceOnUse" x="0" y="0" width="154" height="19">
<path d="M0.251953 0.534668H153.502V18.646H0.251953V0.534668Z" fill="white"/>
</mask>
<g mask="url(#mask1_1600_808)">
<path d="M0.251953 1.66301C0.319 0.766121 0.481828 0.573244 1.22892 0.534668H23.3257C26.6588 0.534668 29.7622 2.50204 31.0265 5.66526C31.6395 7.19865 31.9747 8.75133 31.8502 10.3908C31.7065 12.1653 31.0839 13.7758 29.9729 15.1549C29.0055 16.3508 27.8753 17.3634 26.4098 17.942C25.4616 18.3085 24.4942 18.5882 23.4789 18.6075C21.6495 18.646 19.8201 18.6075 18.0002 18.646C17.2819 18.646 16.7072 18.376 16.2378 17.9034C14.6287 16.2833 13.0483 14.6438 11.4584 13.0043C11.3722 12.9175 11.3147 12.8114 11.2476 12.7343C11.2764 11.9531 11.4775 11.6927 12.1192 11.6156C12.33 11.5866 12.5407 11.6156 12.7514 11.6156H22.5498C23.0287 11.6156 23.4981 11.6156 23.9387 11.3552C24.7624 10.8826 25.0784 10.1111 24.8773 9.031C24.7432 8.33663 23.9099 7.64227 23.1341 7.57476C22.8659 7.55547 22.5977 7.57476 22.3295 7.57476C17.4159 7.57476 12.5024 7.55547 7.59837 7.57476C6.5352 7.57476 5.71148 7.23722 4.98355 6.4657C3.64261 5.04804 2.2442 3.6786 0.874531 2.28987C0.663812 2.0777 0.462672 1.85589 0.280687 1.66301" fill="black"/>
<path d="M76.3314 16.2831C74.2146 16.3506 72.5097 15.5695 71.1113 14.1615C69.4543 12.493 68.6785 9.65772 69.7512 7.17922C70.7569 4.86467 72.4714 3.49522 74.9617 3.02267C77.4137 2.5694 79.5305 3.21555 81.2546 4.95146C84.4058 8.10504 83.582 13.1874 79.8083 15.3669C78.6972 16.0131 77.5287 16.3603 76.3314 16.2735M80.4021 9.64808C80.4787 7.44925 78.7068 5.42402 76.2548 5.40473C73.707 5.38544 72.0117 7.27566 72.0117 9.64808C72.0117 12.0205 73.7549 13.8721 76.3122 13.8625C78.9175 13.8625 80.4692 11.6058 80.4021 9.64808ZM66.6096 8.98264C66.5426 12.2809 65.3261 14.1325 63.1615 15.4248C60.7382 16.8714 57.0506 16.5242 54.9243 14.5279C51.5719 11.3936 52.1083 6.18589 56.1216 3.82312C58.7268 2.29938 61.8684 2.54048 64.2151 4.4982C65.7955 5.81942 66.6766 7.56498 66.6 8.98264M63.8511 9.66737C63.9565 7.2178 61.7248 5.38544 59.8283 5.38544C57.5008 5.38544 55.4032 7.17922 55.4607 9.63843C55.5181 12.0976 57.1751 13.8818 59.8379 13.8528C62.3665 13.8239 63.8894 11.6926 63.8415 9.66737" fill="black"/>
<path d="M101.396 3.28338C101.578 3.26409 101.722 3.23516 101.866 3.23516C103.331 3.23516 104.797 3.19659 106.262 3.23516C109.432 3.3316 111.894 5.30861 112.488 8.50077C113.149 12.0015 111.08 14.8851 108.139 15.8205C107.555 16.0038 106.913 16.0616 106.3 16.0809C104.931 16.1195 103.551 16.0809 102.172 16.0809H101.396C101.205 15.319 101.195 4.06454 101.396 3.26409M104.011 5.72331C103.867 8.42362 103.925 12.9177 104.126 13.6796C104.691 13.6796 105.285 13.7085 105.869 13.6796C107.095 13.6024 108.178 13.207 108.992 12.204C110.649 10.1595 109.921 6.85165 107.249 5.94512C106.195 5.58829 105.122 5.82939 104.011 5.74259" fill="black"/>
<path d="M38.7558 3.26427C40.748 3.26427 42.7115 3.06175 44.6176 3.31249C47.2899 3.66932 49.0714 5.34737 49.8089 7.98017C50.489 10.4105 49.6365 13.2747 47.242 14.9238C46.3129 15.57 45.2785 15.975 44.1866 16.0329C42.405 16.1293 40.6043 16.0618 38.8228 16.0618C38.6408 15.406 38.5834 4.93268 38.7462 3.26427M41.4185 13.5447C42.1656 13.5447 42.8265 13.564 43.4778 13.5447C44.8379 13.4869 45.9298 12.8986 46.6673 11.722C47.7113 10.0536 47.3569 8.02839 46.1309 6.79396C44.7708 5.41487 43.0947 5.56918 41.4185 5.63669V13.5447ZM89.5485 11.5967V15.8207C88.9068 16.139 87.5946 16.1583 86.8763 15.8593V3.28356C87.0774 3.26427 87.2785 3.21605 87.4797 3.21605C89.1846 3.21605 90.8895 3.23534 92.5944 3.21605C94.5866 3.18712 96.6555 4.59514 96.8567 7.18936C96.9716 8.76133 96.282 10.0343 95.0177 10.9794C94.9506 11.0277 94.8644 11.0662 94.7878 11.1145C94.7399 11.1434 94.692 11.1916 94.6058 11.2688C95.4487 12.7636 96.282 14.2584 97.1248 15.7436C96.8471 15.9943 95.9563 16.1004 94.4525 16.0715C93.5235 14.6827 92.8338 13.0915 91.9048 11.6063H89.5485V11.5967ZM94.0407 7.92231C94.0503 7.74871 94.079 7.56548 94.079 7.38224C94.079 6.4082 93.5043 5.68491 92.5465 5.60775C91.5695 5.54025 90.5926 5.58846 89.606 5.58846V9.00243C90.4585 9.00243 91.263 8.95421 92.058 9.00243C92.9392 9.06029 93.5522 8.72276 94.0407 7.89338" fill="black"/>
<path d="M145.428 10.8627C145.342 12.5407 145.485 14.1899 145.342 15.8679C144.48 16.1765 143.656 15.974 142.803 16.0222C142.736 15.8293 142.641 15.6654 142.641 15.5111V3.7551C142.641 3.61044 142.698 3.46578 142.746 3.2729H145.303C145.524 4.07335 145.37 4.91237 145.399 5.74175C145.428 6.55184 145.399 7.37158 145.399 8.18168C146.06 8.33598 149.115 8.37456 150.839 8.24918V3.28254C151.769 3.16681 152.611 3.20539 153.502 3.25361V15.8679C152.659 16.1765 151.788 16.0319 150.849 15.9354V10.8531H145.428V10.8627Z" fill="black"/>
<path d="M119.471 3.23462H122.431C123.264 5.34665 124.117 7.46832 124.94 9.59963C125.745 11.702 126.607 13.7851 127.373 15.9261C126.846 16.1865 126.396 16.0611 125.956 16.0804C125.515 16.0997 125.065 16.0804 124.557 16.0804C124.174 15.0485 123.81 14.0551 123.427 13.0329H118.513C118.13 14.0166 117.738 15.0292 117.354 16.0322H114.787C114.711 16.0322 114.644 15.8682 114.558 15.7718C116.186 11.6056 117.814 7.44903 119.462 3.24426M120.927 6.40748C120.381 7.89265 119.883 9.23316 119.356 10.6701H120.946C121.435 10.6508 121.942 10.7473 122.469 10.593C121.962 9.21388 121.463 7.87337 120.927 6.40748Z" fill="black"/>
<path d="M138.465 4.71076C137.957 5.21224 137.497 5.67516 136.951 6.20557C136.731 6.08985 136.501 5.98376 136.291 5.8391C135.563 5.36655 134.796 5.21224 133.925 5.34726C133.35 5.43405 133.034 5.79088 132.67 6.19593V7.06389C133.178 7.8354 134.001 8.03793 134.787 8.28867C135.716 8.58763 136.674 8.79015 137.507 9.3495C138.704 10.1403 139.164 11.2301 139.001 12.6285C138.752 14.7308 137.239 16.1003 135.132 16.2642C133.963 16.3607 132.833 16.3221 131.731 15.8881C130.831 15.5409 130.036 15.0491 129.385 14.1618C129.883 13.6411 130.371 13.1299 130.831 12.6574C131.252 12.6381 131.406 12.9467 131.645 13.1107C132.67 13.8339 133.781 14.1426 135.007 13.7375C135.304 13.6411 135.601 13.4578 135.821 13.236C136.54 12.5031 136.396 11.6351 135.572 11.2397C134.93 10.9311 134.27 10.6804 133.599 10.4586C132.756 10.1789 131.904 9.93779 131.166 9.38808C129.222 7.93184 129.538 5.06758 131.291 3.74636C133.245 2.26119 136.645 2.71446 138.283 4.38286C138.34 4.44073 138.379 4.53716 138.465 4.69147" fill="black"/>
</g>
</g>
</svg>
