<svg width="40" height="40" viewBox="0 0 40 40" fill="none" xmlns="http://www.w3.org/2000/svg">
<g clip-path="url(#clip0_2689_2780)">
<path d="M33.3906 12.8594L24.6406 4.1094C24.4025 3.87721 24.0825 3.74815 23.75 3.75002H8.75C7.36922 3.75002 6.25 4.86924 6.25 6.25002V33.75C6.25 35.1308 7.36922 36.25 8.75 36.25H31.25C32.6308 36.25 33.75 35.1308 33.75 33.75V13.75C33.7519 13.4175 33.6228 13.0975 33.3906 12.8594ZM25.2656 25.2656L20.8906 29.6406C20.3939 30.1208 19.6061 30.1208 19.1094 29.6406L14.7344 25.2656C14.2909 24.7253 14.3695 23.9278 14.9098 23.4844C15.3766 23.1013 16.0489 23.1013 16.5156 23.4844L18.75 25.7344V18.75C18.75 18.0597 19.3097 17.5 20 17.5C20.6903 17.5 21.25 18.0597 21.25 18.75V25.7344L23.4844 23.4844C24.0247 23.041 24.8222 23.1196 25.2656 23.6599C25.6488 24.1266 25.6488 24.7989 25.2656 25.2656ZM23.75 13.75V6.87502L30.625 13.75H23.75Z" fill="#FFCA36"/>
</g>
<defs>
<clipPath id="clip0_2689_2780">
<rect width="40" height="40" fill="white"/>
</clipPath>
</defs>
</svg>
