<svg width="40" height="40" viewBox="0 0 40 40" fill="none" xmlns="http://www.w3.org/2000/svg">
<g clip-path="url(#clip0_2689_2770)">
<path d="M35.2972 25.5L35.3441 25.3438C36.5528 21.8837 36.5528 18.1163 35.3441 14.6562L35.2972 14.5C32.9689 8.05438 26.8536 3.75672 20.0003 3.75C13.147 3.75672 7.03172 8.05438 4.70344 14.5L4.65656 14.6562C3.44781 18.1163 3.44781 21.8837 4.65656 25.3438L4.70344 25.5C7.03938 31.9398 13.15 36.2341 20.0003 36.25C26.8536 36.2433 32.9689 31.9456 35.2972 25.5ZM20.0003 7.125C21.8205 8.99734 23.1841 11.2645 23.9847 13.75H16.0159C16.8166 11.2645 18.1802 8.99734 20.0003 7.125ZM16.0159 26.25H23.9847C23.1841 28.7355 21.8205 31.0027 20.0003 32.875C18.1802 31.0027 16.8166 28.7355 16.0159 26.25ZM15.3597 23.75C14.8806 21.273 14.8806 18.727 15.3597 16.25H24.6409C25.12 18.727 25.12 21.273 24.6409 23.75H15.3597ZM27.1878 16.25H33.2347C33.9223 18.7027 33.9223 21.2973 33.2347 23.75H27.1878C27.6045 21.2673 27.6045 18.7327 27.1878 16.25ZM32.2503 13.75H26.6253C25.8734 11.1177 24.592 8.66656 22.8597 6.54688C26.9102 7.42141 30.3559 10.0645 32.2503 13.75ZM22.8597 33.4531C24.592 31.3334 25.8734 28.8823 26.6253 26.25H32.2503C30.3559 29.9355 26.9102 32.5786 22.8597 33.4531Z" fill="#FFCA36"/>
</g>
<defs>
<clipPath id="clip0_2689_2770">
<rect width="40" height="40" fill="white"/>
</clipPath>
</defs>
</svg>
