<svg width="32" height="32" viewBox="0 0 32 32" fill="none" xmlns="http://www.w3.org/2000/svg">
<g clip-path="url(#clip0_2318_6013)">
<path d="M15.9998 0.800049C12.9935 0.800049 10.0548 1.69151 7.55514 3.36171C5.05552 5.03191 3.10729 7.40582 1.95684 10.1833C0.806391 12.9607 0.50538 16.0169 1.09188 18.9654C1.67837 21.9139 3.12603 24.6223 5.25179 26.7481C7.37755 28.8738 10.0859 30.3215 13.0344 30.908C15.9829 31.4945 19.0392 31.1935 21.8166 30.043C24.594 28.8926 26.9679 26.9443 28.6381 24.4447C30.3083 21.9451 31.1998 19.0063 31.1998 16C31.1956 11.9701 29.5928 8.10636 26.7431 5.25673C23.8935 2.40709 20.0298 0.804305 15.9998 0.800049ZM15.9998 28.8616C13.456 28.8616 10.9694 28.1073 8.85432 26.694C6.73925 25.2808 5.09076 23.2721 4.1173 20.9219C3.14384 18.5718 2.88914 15.9858 3.3854 13.4909C3.88167 10.996 5.10661 8.70429 6.90533 6.90557C8.70405 5.10685 10.9958 3.88191 13.4906 3.38564C15.9855 2.88938 18.5716 3.14408 20.9217 4.11754C23.2718 5.091 25.2805 6.73949 26.6938 8.85456C28.107 10.9696 28.8613 13.4563 28.8613 16C28.8575 19.41 27.5012 22.6791 25.09 25.0903C22.6788 27.5014 19.4097 28.8577 15.9998 28.8616Z" fill="#FF3B84"/>
<rect x="8" y="14.4" width="16" height="3.2" rx="1.6" fill="#FF3B84"/>
</g>
<defs>
<clipPath id="clip0_2318_6013">
<rect width="32" height="32" fill="white"/>
</clipPath>
</defs>
</svg>
