<svg width="72" height="21" viewBox="0 0 72 21" fill="none" xmlns="http://www.w3.org/2000/svg">
<path opacity="1" d="M25.5934 20.3995L29.6699 1.55633H34.7489L32.5436 11.6242L36.6201 6.59025H42.2337L37.1547 12.8486L39.2264 20.3995H34.2143L32.1426 13.2568L30.4719 20.3995H25.5934ZM7.34929 10.9439L10.958 20.3995H15.7697L19.913 1.55633H14.9677L12.8292 11.148L9.35414 1.55633H4.27519L0.131836 20.3315H5.21079C5.87907 17.4064 6.61418 14.2092 7.34929 10.9439ZM23.1876 20.3995L26.1949 6.59025H21.2496L18.2423 20.3995H23.1876ZM21.5169 3.59711C21.5169 4.00526 21.6506 5.56986 24.3237 5.56986C26.5958 5.56986 27.4646 4.07329 27.4646 2.98487C27.4646 2.23659 26.8632 0.944092 24.6578 0.944092C22.5861 0.944092 21.5169 2.37264 21.5169 3.59711ZM69.2323 6.38617C67.0938 5.70591 64.4875 6.79433 63.1509 8.63103C63.2846 8.08682 63.4182 7.40656 63.5519 6.65828H58.5398L55.5993 20.3995H60.6115L62.2822 12.5765C62.6163 11.148 63.7524 10.5358 64.7548 10.8079C65.2226 10.9439 65.7572 11.284 65.5567 12.4405L63.8192 20.3995H68.7645L71.0367 9.8555C71.5713 7.47459 69.7001 6.52223 69.2323 6.38617ZM52.3916 19.1751C54.5969 17.3384 55.6662 14.2772 55.5993 11.4201C55.5325 8.63103 53.2603 6.04604 49.2506 6.04604C41.6322 6.04604 40.4961 12.1004 40.2956 13.1888C39.761 15.9778 40.3625 19.6512 43.9712 20.6036C46.3102 21.2158 49.9857 21.1478 52.3916 19.1751ZM46.778 11.148C47.1121 10.1276 48.1146 9.92353 48.5824 9.92353C49.6516 9.92353 49.9857 10.6038 49.8521 11.216C49.5848 12.9167 48.9833 15.1615 48.7828 15.8418C48.5155 16.5901 47.8472 17.0663 46.9785 17.0663C46.1097 17.0663 45.6419 16.5221 45.7087 15.8418C45.8424 14.6853 46.5775 11.7602 46.778 11.148Z" fill="black"/>
</svg>
