<svg width="32" height="32" viewBox="0 0 32 32" fill="none" xmlns="http://www.w3.org/2000/svg">
<g clip-path="url(#clip0_2318_6019)">
<path d="M15.9998 0.799988C12.9935 0.799988 10.0548 1.69145 7.55514 3.36165C5.05552 5.03185 3.10729 7.40576 1.95684 10.1832C0.806391 12.9606 0.50538 16.0168 1.09188 18.9654C1.67837 21.9139 3.12603 24.6222 5.25179 26.748C7.37755 28.8738 10.0859 30.3214 13.0344 30.9079C15.9829 31.4944 19.0392 31.1934 21.8166 30.043C24.594 28.8925 26.9679 26.9443 28.6381 24.4447C30.3083 21.945 31.1998 19.0063 31.1998 16C31.1956 11.97 29.5928 8.10629 26.7431 5.25666C23.8935 2.40703 20.0298 0.804244 15.9998 0.799988ZM15.9998 28.8615C13.456 28.8615 10.9694 28.1072 8.85432 26.694C6.73925 25.2807 5.09076 23.272 4.1173 20.9219C3.14384 18.5717 2.88914 15.9857 3.3854 13.4908C3.88167 10.9959 5.10661 8.70422 6.90533 6.90551C8.70405 5.10679 10.9958 3.88184 13.4906 3.38558C15.9855 2.88931 18.5716 3.14402 20.9217 4.11748C23.2718 5.09093 25.2805 6.73943 26.6938 8.8545C28.107 10.9696 28.8613 13.4562 28.8613 16C28.8575 19.4099 27.5012 22.679 25.09 25.0902C22.6788 27.5014 19.4097 28.8577 15.9998 28.8615ZM23.0152 16C23.0152 16.3101 22.892 16.6075 22.6727 16.8268C22.4535 17.046 22.1561 17.1692 21.846 17.1692H17.169V21.8461C17.169 22.1562 17.0459 22.4536 16.8266 22.6729C16.6073 22.8922 16.3099 23.0154 15.9998 23.0154C15.6897 23.0154 15.3923 22.8922 15.173 22.6729C14.9538 22.4536 14.8306 22.1562 14.8306 21.8461V17.1692H10.1537C9.84356 17.1692 9.54616 17.046 9.32689 16.8268C9.10761 16.6075 8.98443 16.3101 8.98443 16C8.98443 15.6899 9.10761 15.3925 9.32689 15.1732C9.54616 14.9539 9.84356 14.8308 10.1537 14.8308H14.8306V10.1538C14.8306 9.84373 14.9538 9.54634 15.173 9.32706C15.3923 9.10779 15.6897 8.9846 15.9998 8.9846C16.3099 8.9846 16.6073 9.10779 16.8266 9.32706C17.0459 9.54634 17.169 9.84373 17.169 10.1538V14.8308H21.846C22.1561 14.8308 22.4535 14.9539 22.6727 15.1732C22.892 15.3925 23.0152 15.6899 23.0152 16Z" fill="#FF3B84"/>
</g>
<defs>
<clipPath id="clip0_2318_6019">
<rect width="32" height="32" fill="white"/>
</clipPath>
</defs>
</svg>
