<svg width="64" height="64" viewBox="0 0 64 64" fill="none" xmlns="http://www.w3.org/2000/svg">
<g clip-path="url(#clip0_1342_16034)">
<path d="M32 0C14.3553 0 0 14.3553 0 32C0 49.6447 14.3553 64 32 64C49.6447 64 64 49.6447 64 32C64 14.3553 49.6449 0 32 0ZM27.0379 45.3402C25.1692 47.0986 22.8287 47.9773 20.0166 47.9773C17.5113 47.9773 15.2913 46.8348 13.3578 44.549C11.4676 42.396 10.5229 40.0659 10.5229 37.5604C10.5229 30.2181 15.5842 23.1218 25.7078 16.2704C26.0679 16.0266 26.9719 15.8121 27.5008 16.3995L28.4766 17.6268C28.9485 18.4248 28.377 19.1649 28.007 19.4718C26.2477 20.9311 24.9685 22.06 24.1703 22.8584C22.6049 24.5046 21.4478 26.1525 20.6838 27.7953C20.5091 28.1709 20.955 28.4094 21.1867 28.4851C26.9552 30.3757 29.8404 33.7087 29.8404 38.4835C29.8398 41.2969 28.9056 43.5827 27.0379 45.3402ZM48.9923 45.3402C47.1236 47.0986 44.7831 47.9773 41.9709 47.9773C39.4657 47.9773 37.2457 46.8348 35.3122 44.549C33.422 42.396 32.4773 40.0659 32.4773 37.5604C32.4773 30.2181 37.5386 23.1218 47.6621 16.2704C48.0223 16.0266 48.9263 15.8121 49.4552 16.3995L50.431 17.6268C50.9029 18.4248 50.3314 19.1649 49.9613 19.4718C48.2021 20.9311 46.9229 22.06 46.1247 22.8584C44.5593 24.5046 43.4022 26.1525 42.6382 27.7953C42.4635 28.1709 42.9094 28.4094 43.1411 28.4851C48.9096 30.3757 51.7948 33.7087 51.7948 38.4835C51.7942 41.2969 50.86 43.5827 48.9923 45.3402Z" fill="black"/>
</g>
<defs>
<clipPath id="clip0_1342_16034">
<rect width="64" height="64" fill="white"/>
</clipPath>
</defs>
</svg>
