<svg width="63" height="26" viewBox="0 0 63 26" fill="none" xmlns="http://www.w3.org/2000/svg">
<g opacity="1">
<path d="M50.9876 14.7455L52.0087 14.4965C52.0304 14.491 52.0659 14.4826 52.1087 14.4681C52.3906 14.3884 52.6322 14.1964 52.7825 13.9325C52.9327 13.6687 52.9799 13.3536 52.9139 13.0538L52.91 13.0343C52.8765 12.8907 52.8178 12.755 52.737 12.6341C52.6227 12.4812 52.4813 12.3533 52.3205 12.2575C52.1312 12.1436 51.9331 12.0469 51.7284 11.9682L50.6093 11.5375C49.9814 11.291 49.3514 11.051 48.7191 10.8175C48.3079 10.6635 47.9598 10.5276 47.6572 10.4291C47.6 10.4103 47.5368 10.3916 47.4861 10.3736C47.1203 10.2557 46.8631 10.2064 46.6453 10.205C46.4999 10.1994 46.3551 10.2273 46.221 10.2869C46.0812 10.3507 45.9556 10.4447 45.8525 10.5629C45.8014 10.6245 45.7531 10.6886 45.7078 10.7551C45.6204 10.8967 45.5483 11.0482 45.4926 11.2066C45.2848 11.8539 45.1814 12.5334 45.1867 13.2168C45.1907 13.8348 45.2065 14.6276 45.5282 15.1652C45.6058 15.3032 45.7098 15.4225 45.8341 15.5154C46.0637 15.6826 46.2953 15.7048 46.5368 15.7228C46.8973 15.7499 47.2467 15.6569 47.5947 15.5716L50.9863 14.7455L50.9889 14.7469L50.9876 14.7455ZM62.3761 9.03142C62.0975 8.41486 61.7227 7.85192 61.2675 7.36603C61.2087 7.3042 61.1456 7.24716 61.0787 7.19539C61.0169 7.14659 60.9528 7.10121 60.8866 7.05944C60.8186 7.0199 60.7485 6.98447 60.6767 6.95332C60.5388 6.89359 60.3902 6.86666 60.2413 6.87445C60.0925 6.88224 59.9471 6.92457 59.8155 6.9984C59.6207 7.10037 59.4102 7.26406 59.1299 7.53874C59.0911 7.57897 59.0424 7.62475 58.999 7.66845C58.7681 7.89734 58.5108 8.18034 58.2049 8.50912C57.7319 9.01269 57.2667 9.51904 56.8042 10.0309L55.9766 10.9361C55.8252 11.1012 55.6871 11.2802 55.564 11.4702C55.4593 11.6308 55.3852 11.8112 55.3456 12.0015C55.3225 12.1475 55.3259 12.2967 55.3555 12.4413L55.3594 12.4607C55.4246 12.7604 55.5982 13.0219 55.8423 13.1897C56.0864 13.3576 56.3831 13.4186 56.6693 13.3597C56.7147 13.3527 56.7496 13.3444 56.7713 13.3388L61.1846 12.2637C61.5327 12.1791 61.8853 12.1014 62.1978 11.91C62.4077 11.7817 62.607 11.6547 62.7432 11.3988C62.8163 11.258 62.8603 11.1026 62.8728 10.9431C62.9406 10.3091 62.6261 9.5884 62.3741 9.03142H62.3761ZM54.4765 10.9888C54.7962 10.565 54.7956 9.93383 54.8239 9.41777C54.9199 7.69342 55.0213 5.96837 55.1015 4.24263C55.1324 3.58923 55.1989 2.94416 55.1621 2.28591C55.1318 1.7428 55.1278 1.11853 54.8028 0.673224C54.2285 -0.113348 53.0041 -0.0481473 52.1685 0.0732374C51.9126 0.110693 51.656 0.161328 51.4021 0.225141C51.1481 0.288955 50.8961 0.359704 50.6494 0.44294C49.8474 0.719696 48.7204 1.22812 48.5296 2.20198C48.4217 2.75271 48.677 3.31594 48.875 3.81813C49.1145 4.42713 49.4421 4.97579 49.7408 5.54942C50.5297 7.06291 51.3336 8.56739 52.135 10.0732C52.3745 10.5227 52.635 11.0922 53.0982 11.3252C53.1291 11.3391 53.16 11.3516 53.1916 11.3627C53.3995 11.4459 53.6258 11.4619 53.8423 11.4085L53.8811 11.3988C54.0811 11.3412 54.262 11.2267 54.4035 11.0679C54.4291 11.0422 54.4535 11.0159 54.4765 10.9881V10.9888ZM54.0936 15.6056C53.9685 15.4209 53.7914 15.2824 53.5875 15.2098C53.3835 15.1372 53.163 15.1342 52.9574 15.2012C52.909 15.218 52.862 15.2387 52.8166 15.263C52.7461 15.3006 52.679 15.3447 52.6159 15.3947C52.4317 15.5383 52.2771 15.7249 52.1363 15.9122C52.1008 15.9601 52.0679 16.0239 52.0251 16.0641L51.3152 17.0934C50.9126 17.6705 50.5158 18.2483 50.1224 18.8358C49.8658 19.2152 49.6434 19.535 49.4684 19.8187C49.4349 19.8721 49.4007 19.9318 49.3691 19.9789C49.1586 20.3223 49.0395 20.572 48.9789 20.7953C48.9329 20.9438 48.9184 21.1005 48.9362 21.2552C48.9559 21.4161 49.0072 21.5715 49.0875 21.7102C49.1303 21.7796 49.1757 21.8469 49.225 21.9121C49.3313 22.0411 49.4509 22.1572 49.5816 22.2582C50.0717 22.6175 50.608 22.8755 51.1724 23.0753C51.6419 23.2397 52.1299 23.3381 52.6238 23.368C52.708 23.3721 52.7922 23.3708 52.8758 23.3624C52.9534 23.3555 53.0304 23.3437 53.1074 23.3284C53.1837 23.3097 53.2594 23.2868 53.3337 23.2591C53.4778 23.2022 53.6094 23.1141 53.7192 23.0004C53.8232 22.8908 53.9035 22.7583 53.9541 22.6119C54.0364 22.3962 54.0903 22.1222 54.1258 21.7158C54.1291 21.6582 54.137 21.5888 54.1423 21.525C54.1706 21.1879 54.1831 20.7919 54.2035 20.3257C54.2383 19.6092 54.2653 18.8962 54.287 18.181L54.3324 16.9089C54.3429 16.6162 54.3344 16.2916 54.2574 15.9996C54.2237 15.8597 54.1689 15.7264 54.0949 15.6049L54.0936 15.6056ZM62.107 17.5956C61.959 17.4243 61.7491 17.2537 61.4175 17.0421C61.3695 17.0137 61.3136 16.9762 61.2622 16.9436C60.9866 16.7688 60.6543 16.585 60.2662 16.3631C59.6701 16.0183 59.074 15.6819 58.472 15.3483L57.4082 14.7538C57.3529 14.7372 57.297 14.6949 57.245 14.6685C57.0404 14.5659 56.8239 14.4695 56.5989 14.4251C56.4717 14.3972 56.341 14.3918 56.2121 14.4091C55.9994 14.4441 55.8027 14.5488 55.6497 14.7085C55.4967 14.8681 55.3954 15.0745 55.3601 15.2983C55.3438 15.4407 55.3487 15.5848 55.3746 15.7256C55.4265 16.0239 55.5529 16.3194 55.6838 16.5781L56.2516 17.7004C56.5674 18.3336 56.8878 18.9628 57.2154 19.5898C57.4266 19.999 57.6029 20.3493 57.7681 20.6393C57.799 20.6941 57.8345 20.7523 57.8615 20.803C58.0621 21.1518 58.2233 21.3717 58.3872 21.5292C58.4931 21.6367 58.6201 21.7192 58.7589 21.7699C58.9049 21.8212 59.0602 21.8392 59.2135 21.8233C59.2911 21.8136 59.3688 21.7997 59.4451 21.781C59.5204 21.7595 59.5946 21.734 59.6675 21.7047C59.7464 21.6735 59.8227 21.636 59.8964 21.593C60.3281 21.3376 60.7261 21.0235 61.08 20.6587C61.5044 20.2182 61.88 19.7382 62.1715 19.1882C62.2123 19.1105 62.2472 19.0294 62.2768 18.9468C62.3044 18.8698 62.3281 18.7914 62.3478 18.7124C62.3649 18.6312 62.3781 18.5501 62.3873 18.4675C62.4018 18.3061 62.3841 18.1433 62.3353 17.9896C62.2872 17.8424 62.2091 17.7082 62.1064 17.5963L62.107 17.5956Z" fill="black"/>
<path fill-rule="evenodd" clip-rule="evenodd" d="M25.4828 6.67724C25.4828 5.75264 26.1973 4.99658 27.0598 4.99658C27.9099 4.99658 28.6 5.75194 28.6369 6.68972V19.8076C28.6369 20.7322 27.9224 21.4882 27.0598 21.4882C26.1723 21.4882 25.4828 20.7329 25.4828 19.8076V6.67654V6.67724ZM24.0163 14.7795C24.0038 15.0403 23.9426 15.5217 23.6222 15.874C23.2775 16.2521 22.809 16.3429 22.538 16.3429C21.4103 16.3492 20.2833 16.3526 19.1556 16.3561C18.0279 16.3596 16.9003 16.3623 15.7733 16.3693C15.9153 16.8529 16.1695 17.2916 16.5128 17.6456C16.7053 17.839 16.9207 18.0055 17.1536 18.1408C17.2891 18.2324 17.7575 18.4925 18.3365 18.4925C18.9523 18.4925 19.4951 18.2837 20.0247 17.9972L20.0688 17.9729C20.4372 17.7718 20.8169 17.5644 21.2195 17.4888C21.6136 17.4236 22.0327 17.502 22.3406 17.7884C22.7103 18.1269 22.8584 18.6222 22.7228 19.1299C22.563 19.7028 22.107 20.1981 21.6261 20.4977C21.351 20.6672 21.0623 20.8111 20.7636 20.9278C20.0008 21.2133 19.1942 21.346 18.3852 21.319C18.1878 21.319 17.9786 21.319 17.7694 21.2926C17.5494 21.2627 17.3312 21.2192 17.1161 21.1622C16.7761 21.0841 16.4456 20.9662 16.1305 20.8106C15.8154 20.6629 15.5142 20.4841 15.2311 20.2765C14.9487 20.0626 14.6847 19.8229 14.4423 19.56C14.2018 19.2935 13.9833 19.006 13.789 18.7006C13.1238 17.6324 12.8153 16.3166 12.8771 15.0403C12.9265 13.7897 13.3206 12.5391 14.0357 11.5229C14.1114 11.4039 14.1954 11.2909 14.287 11.1851C14.3239 11.1407 14.3594 11.0977 14.393 11.054C15.2759 9.91647 16.4549 9.55648 16.9411 9.40804L16.968 9.39972C17.9549 9.10421 19.0003 9.10421 19.9872 9.39972C20.2214 9.46492 21.5399 9.89497 22.5623 11.054C22.6117 11.106 22.7472 11.2753 22.9196 11.5229C23.5676 12.4531 23.7906 13.3201 23.8663 13.6135L23.8683 13.6204C23.942 13.9069 24.0163 14.2981 24.0163 14.7795ZM16.7832 12.6299C16.2966 13.0472 15.9579 13.6255 15.822 14.2711H21.1945C21.0495 13.6262 20.7074 13.0495 20.2208 12.6299C19.4938 12.0175 18.7299 11.9786 18.4957 11.9786C18.2615 11.9786 17.4977 12.0175 16.7832 12.6299ZM37.2134 9.17776C35.8088 9.17776 34.5272 9.84225 33.6153 10.9236V10.8848C33.6038 10.4455 33.4272 10.029 33.1244 9.72695C32.8217 9.4249 32.4175 9.26203 32.0008 9.27418C31.5841 9.28632 31.1891 9.47247 30.9026 9.79169C30.6161 10.1109 30.4616 10.537 30.4731 10.9763V23.4949C30.4731 24.4195 31.1757 25.1624 32.0501 25.1624C32.9245 25.1624 33.6271 24.4202 33.6271 23.4949V19.587C34.539 20.6552 35.8081 21.3329 37.2253 21.3329C40.0471 21.3329 42.3393 18.6361 42.3393 15.2754C42.3268 11.9148 40.0353 9.17915 37.2134 9.17915V9.17776ZM36.5233 18.609C34.9213 18.609 33.6153 17.1371 33.6153 15.3004C33.6153 13.4505 34.9094 11.9786 36.5233 11.9786C38.1253 11.9786 39.4313 13.4505 39.4313 15.3004C39.4188 17.1371 38.1253 18.609 36.5233 18.609ZM10.5113 16.1466L9.99347 17.3452C9.7559 17.8712 9.52582 18.401 9.30332 18.9343C9.23226 19.098 9.16121 19.2652 9.08884 19.4351C8.10394 21.7456 6.93482 24.4875 4.38671 25.0701C3.15443 25.3566 1.29384 24.9661 0.603689 23.7411C-0.0864651 22.5037 0.936594 21.0839 2.25506 21.4092C2.46296 21.4577 2.66757 21.5652 2.8735 21.6741C3.21693 21.8545 3.56563 22.0383 3.94327 21.9564C4.30052 21.8912 4.52224 21.6179 4.8058 21.2663C5.10924 20.8932 5.32835 20.4522 5.44661 19.9768C5.43988 19.9618 5.43374 19.9466 5.42819 19.931C5.42253 19.9156 5.41638 19.9003 5.40977 19.8853C5.08871 19.2541 4.80909 18.6902 4.57487 18.2192C4.42224 17.9119 4.28934 17.6442 4.17749 17.4236L3.63997 16.3485C3.43161 15.9281 3.22063 15.5091 3.00706 15.0916C2.62377 14.3292 2.22121 13.5777 1.79978 12.838C1.34385 12.0306 0.875408 11.1317 1.25766 10.1807C1.40127 9.81222 1.67088 9.51398 2.01314 9.34507C2.35539 9.17615 2.74532 9.14887 3.10574 9.26863C3.89853 9.52249 4.24986 10.3181 4.57882 11.0623C4.63803 11.1969 4.69659 11.3294 4.75712 11.457C5.28674 12.564 5.80452 13.6718 6.3223 14.7788C6.36769 14.8891 6.43743 15.0389 6.5223 15.2213C6.59796 15.3843 6.68547 15.573 6.77823 15.7818C6.82692 15.8907 6.87297 15.9913 6.91508 16.0828C6.96837 16.2 7.01509 16.3006 7.0493 16.3811C7.28944 15.7492 7.53287 15.1208 7.77629 14.4923C8.01972 13.8639 8.26315 13.2355 8.50329 12.6036C8.50987 12.5682 8.56711 12.4336 8.65395 12.2304C8.72698 12.0584 8.82107 11.8378 8.92239 11.5874L9.02699 11.3225C9.34674 10.5005 9.73162 9.51278 10.5863 9.24296C10.8895 9.15027 11.2126 9.15944 11.5106 9.2692C11.8087 9.37896 12.0669 9.58386 12.2495 9.85543C12.4343 10.1287 12.508 10.4415 12.5205 10.7544C12.5304 11.4459 12.2139 12.1874 11.9416 12.8242C11.878 12.9713 11.8161 13.1193 11.756 13.2681L11.7231 13.3451C11.6481 13.5233 11.4435 14.0075 11.0902 14.8058C10.9626 15.0916 10.8409 15.3781 10.7172 15.6673L10.5113 16.1473V16.1466Z" fill="black"/>
</g>
</svg>
