<svg xmlns="http://www.w3.org/2000/svg" width="24" height="24"><path style="fill:none" d="M0 0h24v24H0z"/><path d="M21.75 12a9.777 9.777 0 0 1-8.578 9.684.385.385 0 0 1-.42-.345l-.002-.03V14.25H15a.75.75 0 0 0 .751-.749l-.001-.048a.768.768 0 0 0-.778-.703H12.75V10.5a1.5 1.5 0 0 1 1.5-1.5h1.5a.75.75 0 0 0 .751-.749l-.001-.048a.768.768 0 0 0-.778-.703H14.25a3 3 0 0 0-3 3v2.25H9a.75.75 0 0 0-.75.797c.034.402.374.71.778.703h2.222v7.059a.375.375 0 0 1-.373.377c-.013 0-.026 0-.039-.002-4.95-.6-8.775-4.903-8.578-10.05.233-5.379 4.784-9.551 10.164-9.317A9.75 9.75 0 0 1 21.75 12Z"/></svg>
