<svg width="16" height="17" viewBox="0 0 16 17" fill="none" xmlns="http://www.w3.org/2000/svg">
<path d="M10.7525 6.57506L8.82689 8.4999L10.7525 10.4247C10.8068 10.4791 10.8499 10.5435 10.8793 10.6145C10.9087 10.6855 10.9238 10.7615 10.9238 10.8384C10.9238 10.9152 10.9087 10.9912 10.8793 11.0622C10.8499 11.1332 10.8068 11.1977 10.7525 11.252C10.6982 11.3063 10.6337 11.3494 10.5627 11.3788C10.4917 11.4082 10.4157 11.4233 10.3389 11.4233C10.262 11.4233 10.186 11.4082 10.115 11.3788C10.044 11.3494 9.97956 11.3063 9.92524 11.252L8.00039 9.3264L6.07555 11.252C6.02123 11.3063 5.95675 11.3494 5.88578 11.3788C5.81481 11.4082 5.73875 11.4233 5.66193 11.4233C5.58512 11.4233 5.50905 11.4082 5.43808 11.3788C5.36712 11.3494 5.30263 11.3063 5.24832 11.252C5.194 11.1977 5.15091 11.1332 5.12152 11.0622C5.09212 10.9912 5.07699 10.9152 5.07699 10.8384C5.07699 10.7615 5.09212 10.6855 5.12152 10.6145C5.15091 10.5435 5.194 10.4791 5.24832 10.4247L7.17389 8.4999L5.24832 6.57506C5.13862 6.46536 5.07699 6.31658 5.07699 6.16144C5.07699 6.0063 5.13862 5.85752 5.24832 5.74782C5.35801 5.63813 5.5068 5.5765 5.66193 5.5765C5.81707 5.5765 5.96585 5.63813 6.07555 5.74782L8.00039 7.6734L9.92524 5.74782C9.97956 5.69351 10.044 5.65042 10.115 5.62103C10.186 5.59163 10.262 5.5765 10.3389 5.5765C10.4157 5.5765 10.4917 5.59163 10.5627 5.62103C10.6337 5.65042 10.6982 5.69351 10.7525 5.74782C10.8068 5.80214 10.8499 5.86662 10.8793 5.93759C10.9087 6.00856 10.9238 6.08462 10.9238 6.16144C10.9238 6.23826 10.9087 6.31432 10.8793 6.38529C10.8499 6.45626 10.8068 6.52074 10.7525 6.57506ZM15.6004 8.4999C15.6004 10.003 15.1547 11.4724 14.3196 12.7222C13.4845 13.972 12.2975 14.9462 10.9088 15.5214C9.52007 16.0966 7.99196 16.2471 6.51771 15.9539C5.04345 15.6606 3.68926 14.9368 2.62638 13.8739C1.5635 12.811 0.839674 11.4568 0.546426 9.98259C0.253178 8.50833 0.403684 6.98023 0.978909 5.59151C1.55414 4.20279 2.52825 3.01583 3.77806 2.18073C5.02787 1.34563 6.49725 0.899902 8.00039 0.899902C10.0154 0.90203 11.9472 1.70343 13.3721 3.12824C14.7969 4.55306 15.5983 6.48491 15.6004 8.4999ZM14.4312 8.4999C14.4312 7.22802 14.054 5.98469 13.3474 4.92716C12.6408 3.86962 11.6364 3.04538 10.4613 2.55865C9.28627 2.07192 7.99326 1.94457 6.74581 2.1927C5.49837 2.44083 4.35251 3.0533 3.45315 3.95266C2.55379 4.85202 1.94132 5.99787 1.69319 7.24532C1.44506 8.49277 1.57241 9.78578 2.05914 10.9608C2.54587 12.1359 3.37011 13.1403 4.42765 13.8469C5.48518 14.5535 6.72851 14.9307 8.00039 14.9307C9.70535 14.9287 11.3399 14.2506 12.5455 13.045C13.7511 11.8394 14.4292 10.2049 14.4312 8.4999Z" fill="black"/>
</svg>
