<svg width="24" height="24" viewBox="0 0 24 24" fill="none" xmlns="http://www.w3.org/2000/svg">
<g clip-path="url(#clip0_1587_14310)">
<path d="M12.0003 0.601122C5.71436 0.601122 0.600391 5.71521 0.600391 12.0012C0.600391 18.287 5.71436 23.4011 12.0003 23.4011C18.2863 23.4011 23.4004 18.287 23.4004 12.0012C23.4004 5.71521 18.2863 0.601122 12.0003 0.601122ZM12.0003 21.8406C6.57487 21.8406 2.16099 17.4266 2.16088 12.0012C2.16088 6.5757 6.57477 2.16179 12.0003 2.16169C17.4258 2.16179 21.8397 6.5757 21.8397 12.0013C21.8397 17.4265 17.4258 21.8406 12.0003 21.8406Z" fill="black"/>
<path d="M13.5313 7.11847C13.2266 6.81385 12.7325 6.81395 12.4278 7.11847C12.123 7.4233 12.123 7.91727 12.4279 8.2221L15.4264 11.2204L6.74352 11.2212C6.31259 11.2213 5.96333 11.5706 5.96333 12.0017C5.96343 12.4326 6.31269 12.7818 6.74363 12.7818L15.4268 12.7809L12.4276 15.7798C12.1229 16.0846 12.1229 16.5787 12.4276 16.8834C12.58 17.0357 12.7797 17.1119 12.9795 17.1119C13.1791 17.1119 13.3788 17.0357 13.5312 16.8835L17.8623 12.5526C18.0086 12.4063 18.0908 12.2079 18.0908 12.0009C18.0907 11.7938 18.0085 11.5955 17.8621 11.4489L13.5313 7.11847Z" fill="black"/>
</g>
<defs>
<clipPath id="clip0_1587_14310">
<rect width="24" height="24" fill="white"/>
</clipPath>
</defs>
</svg>
