<svg width="24" height="24" viewBox="0 0 24 24" fill="none" xmlns="http://www.w3.org/2000/svg">
<path d="M11.9997 0.601122C18.2856 0.601122 23.3996 5.71521 23.3996 12.0012C23.3996 18.287 18.2856 23.4011 11.9997 23.4011C5.71368 23.4011 0.599609 18.287 0.599609 12.0012C0.599609 5.71521 5.71368 0.601122 11.9997 0.601122ZM11.9997 21.8406C17.4251 21.8406 21.839 17.4266 21.8391 12.0012C21.8391 6.5757 17.4252 2.16179 11.9997 2.16169C6.5742 2.16179 2.16031 6.5757 2.16031 12.0013C2.16031 17.4265 6.5742 21.8406 11.9997 21.8406Z" fill="black"/>
<path d="M10.4687 7.11847C10.7734 6.81385 11.2675 6.81395 11.5722 7.11847C11.877 7.4233 11.877 7.91727 11.5721 8.2221L8.57363 11.2204L17.2565 11.2212C17.6874 11.2213 18.0367 11.5706 18.0367 12.0017C18.0366 12.4326 17.6873 12.7818 17.2564 12.7818L8.57322 12.7809L11.5724 15.7798C11.8771 16.0846 11.8771 16.5787 11.5724 16.8834C11.42 17.0357 11.2203 17.1119 11.0205 17.1119C10.8209 17.1119 10.6212 17.0357 10.4688 16.8835L6.13775 12.5526C5.99137 12.4063 5.90917 12.2079 5.90917 12.0009C5.90928 11.7938 5.99147 11.5955 6.13785 11.4489L10.4687 7.11847Z" fill="black"/>
</svg>
