<svg width="24" height="25" viewBox="0 0 24 25" fill="none" xmlns="http://www.w3.org/2000/svg">
<g clip-path="url(#clip0_1587_16202)">
<path d="M19.5 3.5H17.25V2.75C17.25 2.33581 16.9142 2 16.5 2C16.0858 2 15.75 2.33581 15.75 2.75V3.5H8.25V2.75C8.25 2.33581 7.91419 2 7.5 2C7.08581 2 6.75 2.33581 6.75 2.75V3.5H4.5C3.67153 3.5 3 4.17153 3 5V20C3 20.8285 3.67153 21.5 4.5 21.5H19.5C20.3285 21.5 21 20.8285 21 20V5C21 4.17153 20.3285 3.5 19.5 3.5ZM15.8906 13.0438L11.5125 17.1688C11.375 17.3035 11.1893 17.3777 10.9969 17.375C10.8048 17.3757 10.6199 17.3018 10.4813 17.1688L8.10938 14.9188C7.79728 14.6464 7.76503 14.1727 8.03728 13.8605C8.30963 13.5484 8.78334 13.5162 9.09553 13.7884C9.11119 13.802 9.12619 13.8163 9.14062 13.8312L10.9969 15.5937L14.8594 11.9562C15.1528 11.6712 15.6218 11.6781 15.9067 11.9715C15.9108 11.9757 15.9147 11.98 15.9188 11.9843C16.2032 12.2848 16.1906 12.7588 15.8906 13.0438ZM19.5 8H4.5V5H6.75V5.75C6.75 6.16419 7.08581 6.5 7.5 6.5C7.91419 6.5 8.25 6.16419 8.25 5.75V5H15.75V5.75C15.75 6.16419 16.0858 6.5 16.5 6.5C16.9142 6.5 17.25 6.16419 17.25 5.75V5H19.5V8Z" fill="#FFCA36"/>
</g>
<defs>
<clipPath id="clip0_1587_16202">
<rect width="24" height="24" fill="white" transform="translate(0 0.5)"/>
</clipPath>
</defs>
</svg>
