<svg width="14" height="15" viewBox="0 0 14 15" fill="none" xmlns="http://www.w3.org/2000/svg">
<path d="M12.5975 7.45636H11.6087C11.4039 7.45636 11.2379 7.62238 11.2379 7.82715V12.3353C11.2379 12.5745 11.0432 12.7692 10.8039 12.7692H2.16417C1.92494 12.7692 1.73035 12.5745 1.73035 12.3353V3.69567C1.73035 3.45634 1.92494 3.2616 2.16417 3.2616H6.90311C7.10788 3.2616 7.2739 3.09559 7.2739 2.89081V1.90204C7.2739 1.69726 7.10788 1.53125 6.90311 1.53125H2.16417C0.970825 1.53125 0 2.50222 0 3.69567V12.3353C0 13.5288 0.970875 14.4996 2.16417 14.4996H10.8039C11.9973 14.4996 12.9682 13.5287 12.9682 12.3353V7.8272C12.9683 7.62238 12.8023 7.45636 12.5975 7.45636Z" fill="#FF3B84"/>
<path d="M13.6287 0.5H9.69572C9.49095 0.5 9.32493 0.666015 9.32493 0.870789V1.85956C9.32493 2.06433 9.49095 2.23035 9.69572 2.23035H11.0456L5.96603 7.30981C5.82122 7.45462 5.82122 7.68935 5.96603 7.83421L6.66519 8.53342C6.73475 8.60298 6.82903 8.64204 6.92741 8.64204C7.02574 8.64204 7.12007 8.60298 7.18958 8.53342L12.2691 3.45385V4.80368C12.2691 5.00845 12.4352 5.17446 12.6399 5.17446H13.6287C13.8335 5.17446 13.9995 5.00845 13.9995 4.80368V0.870789C13.9995 0.666015 13.8335 0.5 13.6287 0.5Z" fill="#FF3B84"/>
</svg>
