<svg xmlns="http://www.w3.org/2000/svg" viewBox="0 0 99.002 35" style="enable-background:new 0 0 99.002 35" xml:space="preserve"><path style="fill: #fff;" d="M98.12 27.276c-.141.037-.338.077-.592.12s-.549.063-.887.063c-.451 0-.866-.071-1.246-.211-.38-.141-.688-.41-.923-.81-.235-.399-.352-.988-.352-1.767V12.874h4.439V9.323H94.12V4.439h-4.415v4.883h-8.87V6.481c0-.929.213-1.447.64-1.939.427-.493 1.143-.739 2.148-.739.432 0 .805.037 1.119.112.315.075.571.146.768.212l1-3.549c-.3-.113-.76-.237-1.38-.373C84.511.068 83.769 0 82.906 0c-1.174 0-2.253.228-3.239.683a5.562 5.562 0 0 0-2.373 2.056c-.596.915-.894 2.002-.894 3.373v3.211h-4.441v3.551H76.4v18.051h4.436V12.874h8.869V25.53c.011 1.324.264 2.422.86 3.296a5.351 5.351 0 0 0 2.352 1.936c.972.417 2.035.617 3.19.598a9.71 9.71 0 0 0 1.725-.183c.467-.099.885-.209 1.17-.296l-.882-3.605zm-44.991-8.498-3.506-.789c-1.164-.281-2.007-.636-2.528-1.063-.521-.427-.782-.988-.782-1.683 0-.807.39-1.47 1.169-1.986s1.746-.775 2.901-.775c.854 0 1.568.139 2.14.415.573.277 1.028.634 1.366 1.07.252.325.451.663.599 1.011.05.118.094.238.133.362h4.154a8.17 8.17 0 0 0-.127-.634 7.945 7.945 0 0 0-.406-1.244c-.493-1.175-1.239-2.116-2.269-2.889-1.371-1.028-3.248-1.542-5.633-1.542-1.653 0-3.114.27-4.386.809-1.272.54-2.267 1.293-2.986 2.26-.718.967-1.077 2.094-1.077 3.38 0 1.549.483 2.828 1.45 3.837.967 1.009 2.469 1.739 4.506 2.19l3.662.803c1.023.226 1.784.561 2.282 1.007a2.15 2.15 0 0 1 .746 1.669c0 .807-.401 1.49-1.204 2.049-.803.559-1.876.838-3.218.838-1.239 0-2.246-.265-3.021-.795-.775-.531-1.289-1.317-1.542-2.359h-4.341c0 .197.012.396.046.592.168.966.489 1.823.963 2.572a6.525 6.525 0 0 0 1.875 1.913c1.553 1.056 3.57 1.584 6.048 1.584 1.765 0 3.316-.289 4.654-.866s2.387-1.373 3.147-2.387c.76-1.014 1.141-2.178 1.141-3.493 0-1.53-.491-2.776-1.472-3.739-.979-.959-2.474-1.666-4.484-2.117zM63.532 30.92h4.439V9.32h-4.439v21.6z"></path><circle class="logo-highlight" cx="65.745" cy="4.439" r="2.664" style="fill: #316cff;"></circle><path class="logo-highlight" style="fill: #316cff;" d="M18.897 19.241a2.22 2.22 0 1 1-3.139-3.138 2.22 2.22 0 0 1 3.139 3.138zm-8.6-8.6a2.22 2.22 0 1 0 3.138 3.139 2.22 2.22 0 0 0-3.138-3.139zM4.835 8.318A2.22 2.22 0 1 0 7.974 5.18a2.22 2.22 0 0 0-3.139 3.138zm24.986 18.708a2.22 2.22 0 1 0-3.139 3.138 2.22 2.22 0 0 0 3.139-3.138zm-5.462-2.323a2.22 2.22 0 1 0-3.138-3.139 2.22 2.22 0 0 0 3.138 3.139zm-3.138-14.062a2.22 2.22 0 1 0 3.138 3.139 2.22 2.22 0 0 0-3.138-3.139zm-2.324-5.462a2.22 2.22 0 1 0-3.139 3.138 2.22 2.22 0 0 0 3.139-3.138zm-8.6-2.323A2.22 2.22 0 0 0 13.874.344a17.524 17.524 0 0 0-4.18 1.391c.084.41.284.802.603 1.121zm21.847 18.708a2.22 2.22 0 0 0 1.121 3.742 17.57 17.57 0 0 0 1.391-4.18 2.222 2.222 0 0 0-2.512.438zm-5.462-5.461a2.22 2.22 0 1 0 3.138 3.139 2.22 2.22 0 0 0-3.138-3.139zm0-10.924a2.22 2.22 0 1 0 3.138 3.139 2.22 2.22 0 0 0-3.138-3.139zm-5.461-2.323a2.22 2.22 0 0 0 3.742-1.121 17.57 17.57 0 0 0-4.18-1.391 2.218 2.218 0 0 0 .438 2.512zm10.923 10.923c.68.68 1.689.824 2.512.438a17.524 17.524 0 0 0-1.391-4.18 2.221 2.221 0 0 0-1.121 3.742zM7.974 30.165a2.22 2.22 0 1 0-3.138-3.139 2.22 2.22 0 0 0 3.138 3.139zm-5.462-8.601A2.218 2.218 0 0 0 0 21.126a17.524 17.524 0 0 0 1.391 4.18 2.22 2.22 0 0 0 1.121-3.742zm10.924 10.924a2.22 2.22 0 0 0-3.742 1.121A17.57 17.57 0 0 0 13.874 35a2.222 2.222 0 0 0-.438-2.512zm0-7.785a2.22 2.22 0 1 0-3.138-3.139 2.22 2.22 0 0 0 3.138 3.139zm-8.601-8.6a2.22 2.22 0 1 0 3.138 3.139 2.22 2.22 0 0 0-3.138-3.139zm-2.323-2.324a2.22 2.22 0 0 0-1.121-3.742A17.57 17.57 0 0 0 0 14.217a2.218 2.218 0 0 0 2.512-.438zm21.847 18.709A2.22 2.22 0 0 0 20.782 35a17.524 17.524 0 0 0 4.18-1.391 2.202 2.202 0 0 0-.603-1.121zm-8.6-5.462a2.22 2.22 0 1 0 3.138 3.139 2.22 2.22 0 0 0-3.138-3.139z"></path></svg>
