<svg xmlns="http://www.w3.org/2000/svg" xml:space="preserve" style="enable-background:new 0 0 99.312 35" viewBox="0 0 99.312 35"><path d="M98.355 27.285c-.141.028-.338.084-.591.113s-.563.056-.901.056c-.451 0-.873-.056-1.239-.225-.366-.169-.704-.422-.929-.817-.225-.394-.338-.986-.338-1.774V12.812h4.449v-3.52h-4.449V4.393h-4.421v4.899h-8.898V6.448c0-.929.225-1.464.648-1.943s1.154-.732 2.14-.732c.422 0 .817.028 1.126.113.31.084.563.141.76.225L86.726.563c-.31-.113-.76-.225-1.38-.366S83.994 0 83.121 0c-1.183 0-2.253.225-3.238.676s-1.774 1.154-2.365 2.056c-.591.901-.901 1.999-.901 3.379v3.21h-4.449v3.548h4.449v18.077h4.449V12.84h8.898v12.671c0 1.323.253 2.422.873 3.294.619.873 1.38 1.521 2.365 1.943s2.027.619 3.21.591a12.515 12.515 0 0 0 1.718-.169c.479-.113.873-.197 1.183-.31l-.958-3.575zm-45.081-8.532-3.52-.788c-1.154-.282-1.999-.648-2.534-1.07-.535-.422-.788-.986-.788-1.689 0-.817.394-1.464 1.183-1.999.788-.535 1.746-.76 2.9-.76.845 0 1.577.141 2.14.422.563.282 1.042.619 1.38 1.07.253.338.451.676.591 1.014.056.113.084.225.141.366h4.167c-.028-.197-.084-.422-.113-.648a12.818 12.818 0 0 0-.394-1.239c-.507-1.183-1.239-2.112-2.281-2.9-1.38-1.042-3.266-1.549-5.66-1.549-1.661 0-3.126.282-4.393.817-1.267.535-2.281 1.295-2.985 2.253-.732.957-1.07 2.084-1.07 3.379 0 1.549.479 2.844 1.464 3.858.957 1.014 2.478 1.746 4.505 2.196l3.66.817c1.014.225 1.802.563 2.281 1.014.507.451.732 1.014.732 1.661 0 .817-.394 1.492-1.211 2.056-.817.563-1.887.845-3.21.845-1.239 0-2.253-.253-3.041-.788-.788-.535-1.295-1.323-1.549-2.365h-4.336c0 .197 0 .394.056.591.169.957.479 1.83.957 2.591.479.76 1.098 1.38 1.887 1.915 1.549 1.07 3.576 1.577 6.054 1.577 1.774 0 3.323-.282 4.674-.873 1.352-.591 2.393-1.38 3.154-2.393a5.717 5.717 0 0 0 1.154-3.492c0-1.521-.507-2.788-1.464-3.745-1.039-.99-2.531-1.693-4.531-2.144zm10.419 12.164h4.449V9.292h-4.449v21.625z" style="fill:#fff"/><circle cx="65.917" cy="4.393" r="2.675" style="fill:#fff"/><path d="M18.978 19.232a2.227 2.227 0 0 1-3.154 0 2.227 2.227 0 0 1 0-3.154 2.227 2.227 0 0 1 3.154 0c.873.873.845 2.281 0 3.154zm-8.644-8.617c-.873.873-.873 2.281 0 3.154s2.281.873 3.154 0 .873-2.281 0-3.154a2.228 2.228 0 0 0-3.154 0zM4.871 8.278c.873.873 2.281.873 3.154 0s.873-2.281 0-3.154-2.281-.873-3.154 0-.873 2.281 0 3.154zm25.032 18.753a2.227 2.227 0 0 0-3.154 0 2.227 2.227 0 0 0 0 3.154 2.227 2.227 0 0 0 3.154 0 2.227 2.227 0 0 0 0-3.154zm-5.462-2.337a2.227 2.227 0 0 0 0-3.154 2.227 2.227 0 0 0-3.154 0 2.227 2.227 0 0 0 0 3.154 2.227 2.227 0 0 0 3.154 0zm-3.154-14.107a2.227 2.227 0 0 0 0 3.154 2.227 2.227 0 0 0 3.154 0 2.227 2.227 0 0 0 0-3.154c-.873-.873-2.281-.844-3.154 0zM18.95 5.125c-.873-.873-2.281-.873-3.154 0s-.873 2.281 0 3.154a2.227 2.227 0 0 0 3.154 0 2.227 2.227 0 0 0 0-3.154zm-8.616-2.337a2.227 2.227 0 0 0 3.154 0 2.254 2.254 0 0 0 .451-2.506A16.73 16.73 0 0 0 9.744 1.69c.083.394.28.788.59 1.098zm21.907 18.753a2.227 2.227 0 0 0 0 3.154c.31.31.704.507 1.126.619a17.918 17.918 0 0 0 1.38-4.195 2.196 2.196 0 0 0-2.506.422zm-5.491-5.463a2.227 2.227 0 0 0 0 3.154 2.227 2.227 0 0 0 3.154 0 2.227 2.227 0 0 0 0-3.154 2.227 2.227 0 0 0-3.154 0zm0-10.953a2.227 2.227 0 0 0 0 3.154 2.227 2.227 0 0 0 3.154 0 2.227 2.227 0 0 0 0-3.154 2.227 2.227 0 0 0-3.154 0zm-5.463-2.337a2.227 2.227 0 0 0 3.154 0c.31-.31.507-.704.619-1.126A19.384 19.384 0 0 0 20.865.254c-.394.844-.254 1.858.422 2.534zm10.954 10.953a2.254 2.254 0 0 0 2.506.451 17.872 17.872 0 0 0-1.38-4.195 2.044 2.044 0 0 0-1.126.619c-.873.844-.873 2.252 0 3.125zM8.025 30.157a2.227 2.227 0 0 0 0-3.154c-.873-.873-2.281-.873-3.154 0s-.873 2.281 0 3.154a2.227 2.227 0 0 0 3.154 0zm-5.491-8.616a2.254 2.254 0 0 0-2.506-.451 16.73 16.73 0 0 0 1.408 4.195 2.044 2.044 0 0 0 1.126-.619c.845-.845.845-2.252-.028-3.125zm10.954 10.953a2.227 2.227 0 0 0-3.154 0c-.31.31-.507.704-.619 1.126A17.918 17.918 0 0 0 13.91 35a2.2 2.2 0 0 0-.422-2.506zm0-7.8a2.227 2.227 0 0 0 0-3.154 2.227 2.227 0 0 0-3.154 0 2.227 2.227 0 0 0 0 3.154 2.227 2.227 0 0 0 3.154 0zm-8.617-8.616a2.227 2.227 0 0 0 0 3.154 2.227 2.227 0 0 0 3.154 0 2.227 2.227 0 0 0 0-3.154 2.227 2.227 0 0 0-3.154 0zm-2.337-2.337a2.227 2.227 0 0 0 0-3.154c-.31-.31-.704-.507-1.126-.619A19.33 19.33 0 0 0 0 14.163c.845.395 1.858.254 2.534-.422zm21.907 18.753a2.227 2.227 0 0 0-3.154 0A2.254 2.254 0 0 0 20.836 35a17.872 17.872 0 0 0 4.195-1.38 2.176 2.176 0 0 0-.59-1.126zm-8.616-5.491a2.227 2.227 0 0 0 0 3.154 2.227 2.227 0 0 0 3.154 0 2.227 2.227 0 0 0 0-3.154c-.874-.873-2.31-.845-3.154 0z" style="fill:#fff"/></svg>
