<svg width="28" height="29" viewBox="0 0 28 29" fill="none" xmlns="http://www.w3.org/2000/svg">
<g clip-path="url(#clip0_2687_16421)">
<circle cx="13.875" cy="14.375" r="13.875" fill="#FF3B84"/>
<path d="M13.625 3.4375C11.5112 3.4375 9.4449 4.06431 7.68735 5.23867C5.9298 6.41303 4.55995 8.08218 3.75104 10.0351C2.94213 11.988 2.73048 14.1369 3.14286 16.21C3.55524 18.2832 4.57313 20.1875 6.0678 21.6822C7.56247 23.1769 9.4668 24.1948 11.54 24.6071C13.6131 25.0195 15.762 24.8079 17.7149 23.999C19.6678 23.19 21.337 21.8202 22.5113 20.0627C23.6857 18.3051 24.3125 16.2388 24.3125 14.125C24.3095 11.2914 23.1825 8.57475 21.1789 6.5711C19.1753 4.56745 16.4586 3.44049 13.625 3.4375ZM13.625 23.1683C11.8364 23.1683 10.088 22.6379 8.60083 21.6442C7.11367 20.6505 5.95458 19.2381 5.27011 17.5857C4.58565 15.9333 4.40656 14.115 4.7555 12.3607C5.10444 10.6065 5.96572 8.99517 7.23045 7.73044C8.49517 6.46572 10.1065 5.60443 11.8607 5.25549C13.615 4.90656 15.4333 5.08564 17.0857 5.77011C18.7382 6.45457 20.1505 7.61367 21.1442 9.10083C22.1379 10.588 22.6683 12.3364 22.6683 14.125C22.6655 16.5226 21.7119 18.8212 20.0166 20.5165C18.3212 22.2119 16.0226 23.1655 13.625 23.1683ZM17.3697 13.4406L12.437 10.1521C12.3132 10.0695 12.1693 10.0221 12.0206 10.0149C11.8719 10.0076 11.724 10.041 11.5927 10.1112C11.4615 10.1815 11.3518 10.2861 11.2753 10.4138C11.1989 10.5416 11.1586 10.6877 11.1587 10.8365V17.4135C11.1586 17.5623 11.1989 17.7084 11.2753 17.8362C11.3518 17.9639 11.4615 18.0685 11.5927 18.1388C11.724 18.209 11.8719 18.2423 12.0206 18.2351C12.1693 18.2279 12.3132 18.1805 12.437 18.0979L17.3697 14.8094C17.4825 14.7344 17.575 14.6326 17.6389 14.5132C17.7029 14.3938 17.7364 14.2605 17.7364 14.125C17.7364 13.9895 17.7029 13.8562 17.6389 13.7368C17.575 13.6174 17.4825 13.5156 17.3697 13.4406ZM12.8029 15.8771V12.378L15.4316 14.125L12.8029 15.8771Z" fill="black"/>
</g>
<defs>
<clipPath id="clip0_2687_16421">
<rect width="27.75" height="27.75" fill="white" transform="translate(0 0.5)"/>
</clipPath>
</defs>
</svg>
