 <svg
      xmlns="http://www.w3.org/2000/svg"
      width="14"
      height="8"
      viewBox="0 0 14 8"
      fill="none"
      className='sm:w-[10px]'
    >
      <path
        d="M13.6871 1.80909C14.1044 1.39531 14.1042 0.724429 13.6871 0.310796C13.2696 -0.103121 12.5931 -0.103121 12.1756 0.310937L8.06914 4.3823L8.068 4.38159C6.98501 5.30805 6.98501 5.30805 6.98501 5.30805C6.98501 5.30805 6.98501 5.30805 5.93063 4.38173L5.93177 4.38286L1.82446 0.310515C1.4071 -0.103261 0.730267 -0.103261 0.313052 0.310515C0.104445 0.517473 -3.15222e-07 0.788567 -3.03366e-07 1.0598C-2.91516e-07 1.3309 0.104445 1.60199 0.31291 1.80895L6.24454 7.68982C6.44488 7.88858 6.71661 8.00018 7.00017 8.00018C7.28373 8.00004 7.55532 7.88844 7.75609 7.68967L13.6871 1.80909Z"
        fill="black"
      />
    </svg>