<svg width="24" height="24" viewBox="0 0 24 24" fill="none" xmlns="http://www.w3.org/2000/svg">
<g clip-path="url(#clip0_3942_4095)">
<path d="M12.0001 0.600098C9.74539 0.600098 7.54132 1.2687 5.6666 2.52134C3.79188 3.77399 2.33071 5.55443 1.46788 7.6375C0.605037 9.72058 0.379279 12.0127 0.819151 14.2241C1.25902 16.4355 2.34477 18.4668 3.93908 20.0611C5.5334 21.6554 7.56469 22.7412 9.77607 23.181C11.9875 23.6209 14.2796 23.3952 16.3627 22.5323C18.4458 21.6695 20.2262 20.2083 21.4788 18.3336C22.7315 16.4589 23.4001 14.2548 23.4001 12.0001C23.3969 8.97761 22.1948 6.07983 20.0576 3.9426C17.9204 1.80538 15.0226 0.603289 12.0001 0.600098ZM12.0001 21.6462C10.0923 21.6462 8.22729 21.0805 6.64099 20.0206C5.05468 18.9606 3.81831 17.4541 3.08822 15.6915C2.35812 13.9289 2.1671 11.9894 2.5393 10.1182C2.9115 8.24705 3.8302 6.52827 5.17924 5.17924C6.52828 3.8302 8.24706 2.91149 10.1182 2.53929C11.9894 2.16709 13.9289 2.35812 15.6915 3.08821C17.4541 3.81831 18.9606 5.05468 20.0206 6.64098C21.0805 8.22728 21.6462 10.0923 21.6462 12.0001C21.6433 14.5575 20.6261 17.0094 18.8178 18.8177C17.0094 20.6261 14.5575 21.6433 12.0001 21.6462Z" fill="black"/>
<rect x="6" y="10.7998" width="12" height="2.4" rx="1.2" fill="black"/>
</g>
<defs>
<clipPath id="clip0_3942_4095">
<rect width="24" height="24" fill="white"/>
</clipPath>
</defs>
</svg>
