<svg width="24" height="24" viewBox="0 0 24 24" fill="none" xmlns="http://www.w3.org/2000/svg">
<g clip-path="url(#clip0_3942_4096)">
<path d="M12.0001 0.600098C9.74539 0.600098 7.54132 1.2687 5.6666 2.52134C3.79188 3.77399 2.33071 5.55443 1.46788 7.6375C0.605037 9.72058 0.379279 12.0127 0.819151 14.2241C1.25902 16.4355 2.34477 18.4668 3.93908 20.0611C5.5334 21.6554 7.56469 22.7412 9.77607 23.181C11.9875 23.6209 14.2796 23.3952 16.3627 22.5323C18.4458 21.6695 20.2262 20.2083 21.4789 18.3336C22.7315 16.4589 23.4001 14.2548 23.4001 12.0001C23.3969 8.97761 22.1948 6.07983 20.0576 3.9426C17.9204 1.80538 15.0226 0.603289 12.0001 0.600098ZM12.0001 21.6462C10.0923 21.6462 8.22729 21.0805 6.64099 20.0206C5.05468 18.9606 3.81831 17.4541 3.08822 15.6915C2.35812 13.9289 2.1671 11.9894 2.5393 10.1182C2.9115 8.24705 3.8302 6.52827 5.17924 5.17924C6.52828 3.8302 8.24706 2.91149 10.1182 2.53929C11.9894 2.16709 13.9289 2.35812 15.6915 3.08821C17.4541 3.81831 18.9606 5.05468 20.0206 6.64098C21.0805 8.22728 21.6463 10.0923 21.6463 12.0001C21.6434 14.5575 20.6261 17.0094 18.8178 18.8177C17.0094 20.6261 14.5575 21.6433 12.0001 21.6462ZM17.2616 12.0001C17.2616 12.2327 17.1692 12.4557 17.0048 12.6202C16.8403 12.7846 16.6173 12.877 16.3847 12.877H12.877V16.3847C12.877 16.6173 12.7846 16.8403 12.6202 17.0048C12.4557 17.1692 12.2327 17.2616 12.0001 17.2616C11.7675 17.2616 11.5445 17.1692 11.38 17.0048C11.2156 16.8403 11.1232 16.6173 11.1232 16.3847V12.877H7.61549C7.38291 12.877 7.15986 12.7846 6.99541 12.6202C6.83095 12.4557 6.73856 12.2327 6.73856 12.0001C6.73856 11.7675 6.83095 11.5445 6.99541 11.38C7.15986 11.2156 7.38291 11.1232 7.61549 11.1232H11.1232V7.61548C11.1232 7.38291 11.2156 7.15986 11.38 6.9954C11.5445 6.83095 11.7675 6.73856 12.0001 6.73856C12.2327 6.73856 12.4557 6.83095 12.6202 6.9954C12.7846 7.15986 12.877 7.38291 12.877 7.61548V11.1232H16.3847C16.6173 11.1232 16.8403 11.2156 17.0048 11.38C17.1692 11.5445 17.2616 11.7675 17.2616 12.0001Z" fill="black"/>
</g>
<defs>
<clipPath id="clip0_3942_4096">
<rect width="24" height="24" fill="white"/>
</clipPath>
</defs>
</svg>
