<svg width="100" height="31" viewBox="0 0 100 31" fill="none" xmlns="http://www.w3.org/2000/svg">
<path d="M21.2815 7.22808V16.9669C21.2815 17.1247 21.2192 17.2761 21.1083 17.3877C20.9974 17.4994 20.847 17.5621 20.6902 17.5621H17.6364C17.4796 17.562 17.3293 17.4993 17.2184 17.3877C17.1076 17.2761 17.0452 17.1247 17.0452 16.9669V1.12626C17.0452 0.968394 17.1075 0.816997 17.2184 0.705371C17.3292 0.593745 17.4796 0.531034 17.6364 0.531034H20.4624C20.6192 0.531034 20.7696 0.593745 20.8805 0.705371C20.9914 0.816997 21.0536 0.968394 21.0536 1.12626V3.35703C21.0536 3.35703 22.0638 0.174897 25.0618 0.174897C25.0618 0.174897 28.0273 -0.185963 29.233 3.12739C29.233 3.12739 30.2432 0.174897 33.3064 0.174897C33.3064 0.174897 37.8618 -0.0977823 37.8618 4.64747L37.8964 7.26089V16.9997C37.8964 17.1575 37.8341 17.3089 37.7233 17.4206C37.6124 17.5322 37.462 17.5949 37.3052 17.5949H34.2511C34.0943 17.5948 33.944 17.5321 33.8331 17.4205C33.7222 17.3089 33.6599 17.1575 33.6599 16.9997L33.632 6.37514C33.7188 3.96931 31.7855 4.14436 31.7855 4.14436C29.3524 4.18819 29.5865 7.26089 29.5865 7.26089V16.9997C29.5865 17.1575 29.5242 17.3089 29.4133 17.4206C29.3024 17.5322 29.152 17.5949 28.9952 17.5949H25.9414C25.7846 17.5948 25.6343 17.5321 25.5234 17.4205C25.4126 17.3089 25.3502 17.1575 25.3502 16.9997V6.61554C25.3502 6.61554 25.5288 4.12232 23.3561 4.12232C23.3564 4.12232 21.2056 3.83809 21.2815 7.22808ZM100 7.19895V16.9375C99.9999 17.0953 99.9376 17.2467 99.8268 17.3583C99.7159 17.4699 99.5655 17.5326 99.4087 17.5327L96.2327 17.5946C96.0759 17.5946 95.9255 17.5318 95.8147 17.4202C95.7038 17.3086 95.6415 17.1572 95.6414 16.9994V6.61554C95.6414 6.61554 95.82 4.12232 93.6476 4.12232C93.6476 4.12232 91.5727 4.01944 91.5727 7.92855V16.9666C91.5727 17.1244 91.5103 17.2758 91.3995 17.3874C91.2886 17.499 91.1383 17.5618 90.9815 17.5618H87.9274C87.7706 17.5618 87.6203 17.499 87.5094 17.3874C87.3985 17.2758 87.3362 17.1244 87.3362 16.9666V1.12626C87.3362 0.968415 87.3985 0.817058 87.5094 0.705447C87.6203 0.593837 87.7706 0.531103 87.9274 0.531034H90.7534C90.9102 0.531034 91.0606 0.593745 91.1714 0.705371C91.2823 0.816997 91.3446 0.968394 91.3446 1.12626V3.35703C91.3446 3.35703 92.3548 0.174897 95.3528 0.174897C95.3528 0.174897 98.5643 -0.315611 99.646 3.06572C99.6462 3.06546 100 3.76303 100 7.19895ZM77.9503 0.109286C74.0451 0.109286 70.8789 3.42264 70.8789 8.99958C70.8789 13.9096 73.323 17.8899 77.9503 17.8899C82.317 17.8899 85.0217 13.9096 85.0217 8.99958C85.0217 3.52106 81.8558 0.109286 77.9503 0.109286ZM80.4152 9.19641C80.4152 11.296 80.1545 12.4114 80.1545 12.4114C79.7835 14.6308 78.1831 14.634 77.9472 14.6222C77.6925 14.6324 76.0785 14.6093 75.7446 12.4114C75.7446 12.4114 75.4839 11.296 75.4839 9.19641V8.84657C75.4839 6.74702 75.7446 5.63163 75.7446 5.63163C76.0785 3.43367 77.6927 3.41057 77.9472 3.42054C78.1831 3.40873 79.7835 3.41162 80.1545 5.63163C80.1545 5.63163 80.4152 6.74702 80.4152 8.84657V9.19641ZM69.1065 3.33499V1.06222C69.1064 0.904379 69.0441 0.753022 68.9332 0.641411C68.8223 0.5298 68.672 0.467067 68.5152 0.466997H58.421C58.2642 0.466997 58.1138 0.529708 58.003 0.641334C57.8921 0.75296 57.8298 0.904358 57.8298 1.06222V3.3174C57.8299 3.47524 57.8922 3.6266 58.003 3.73821C58.1139 3.84982 58.2643 3.91256 58.421 3.91263H63.6863L57.4541 13.0142C57.4541 13.0142 57.2085 13.3832 57.2166 13.7908V16.5593C57.2166 16.5593 57.176 17.5085 58.2453 16.9577C58.2453 16.9577 60.1448 15.8024 63.3297 15.8024C63.3297 15.8024 66.475 15.763 68.572 17.0571C68.572 17.0571 69.4425 17.4555 69.4425 16.5795V14.1697C69.4425 14.1697 69.5215 13.532 68.6907 13.1339C68.6907 13.1339 66.2771 11.7996 63.112 12.0185L69.1065 3.33499ZM14.6882 14.7293L13.7323 13.2643C13.428 12.7174 13.4499 12.1048 13.4499 12.1048V5.34715C13.5803 -0.492236 7.14968 0.0108696 7.14968 0.0108696C1.43313 0.0108696 0.588736 4.48948 0.588736 4.48948C0.35046 5.38992 1.04339 5.41171 1.04339 5.41171L3.83675 5.69698C3.83675 5.69698 4.31304 5.80669 4.4864 5.23587C4.4864 5.23587 4.85425 3.28197 6.9114 3.28197C9.14974 3.28197 9.12654 5.21592 9.12654 5.21592V6.83494C4.6582 6.98532 2.58749 8.23403 2.58749 8.23403C-0.171454 9.8087 0.00216985 12.9362 0.00216985 12.9362C0.00216985 18.0319 4.82505 17.813 4.82505 17.813C7.90987 17.813 9.73474 15.5386 9.73474 15.5386C10.2778 16.5013 11.2773 17.4193 11.2773 17.4193C11.7773 17.9652 12.2984 17.507 12.2984 17.507L14.5579 15.5607C15.0574 15.1885 14.6882 14.7293 14.6882 14.7293ZM6.33057 14.6663C4.87953 14.6663 4.34015 13.2147 4.58104 11.788C4.82218 10.3614 6.07456 9.24024 9.1268 9.27305V10.1404C9.23498 13.9296 7.53837 14.6663 6.33057 14.6663ZM55.2697 14.7293L54.314 13.2643C54.0098 12.7174 54.0314 12.1048 54.0314 12.1048V5.34715C54.1618 -0.492236 47.7312 0.0108696 47.7312 0.0108696C42.0147 0.0108696 41.1703 4.48948 41.1703 4.48948C40.932 5.38992 41.6249 5.41171 41.6249 5.41171L44.4183 5.69698C44.4183 5.69698 44.8946 5.80669 45.0679 5.23587C45.0679 5.23587 45.4358 3.28197 47.4929 3.28197C49.7313 3.28197 49.7081 5.21592 49.7081 5.21592V6.83494C45.24 6.98532 43.169 8.23403 43.169 8.23403C40.4101 9.8087 40.5837 12.9362 40.5837 12.9362C40.5837 18.0319 45.4066 17.813 45.4066 17.813C48.4914 17.813 50.3163 15.5386 50.3163 15.5386C50.8596 16.5013 51.8585 17.4193 51.8585 17.4193C52.3586 17.9652 52.88 17.507 52.88 17.507L55.1391 15.5607C55.6389 15.1885 55.2697 14.7293 55.2697 14.7293ZM46.9121 14.6663C45.4611 14.6663 44.9217 13.2147 45.1626 11.788C45.4037 10.3614 46.6561 9.24024 49.7081 9.27305V10.1404C49.8165 13.9296 48.1202 14.6663 46.9121 14.6663Z" fill="black"/>
<path d="M62.96 27.5201C62.96 27.5201 62.7045 27.9676 63.0184 28.0676C63.0184 28.0676 63.3729 28.2069 63.815 27.7938C63.815 27.7938 67.0396 24.9581 67.1173 19.7953C67.1173 19.7953 67.141 19.1505 66.884 18.9741C66.884 18.9741 65.8738 18.0745 62.2412 18.3482C62.2412 18.3482 59.0748 18.5634 57.3461 20.1084C57.3461 20.1084 57.1907 20.2452 57.1907 20.421C57.1907 20.421 57.1535 20.8008 58.1037 20.6362C58.1037 20.6362 61.2699 20.1861 63.1542 20.421C63.1542 20.421 64.1258 20.5383 64.3977 20.8711C64.3977 20.8711 64.8445 21.2427 64.6112 22.4744C64.6112 22.4749 63.9699 25.6037 62.96 27.5201Z" fill="#F3971B"/>
<path d="M62.3204 22.567C62.3204 22.567 62.7933 23.1838 62.0302 23.7157C62.0302 23.7157 53.879 30.2795 40.1925 30.2795C40.1925 30.2795 26.104 30.9791 14.34 20.2189C14.34 20.2189 13.9276 19.8544 14.1836 19.5156C14.1836 19.5156 14.4125 19.2038 15.0051 19.5429C15.0051 19.5429 26.0714 26.4848 40.6052 26.4848C40.6052 26.4848 50.7071 26.8785 61.0698 22.4169C61.0698 22.4169 61.8954 21.9862 62.3204 22.567Z" fill="#F3971B"/>
</svg>
