<svg width="14" height="8" viewBox="0 0 14 8" fill="none" xmlns="http://www.w3.org/2000/svg">
    <path d="M13.6871 1.80891C14.1044 1.39513 14.1042 0.724246 13.6871 0.310612C13.2696 -0.103304 12.5931 -0.103304 12.1756 0.310754L8.06914 4.38211L8.068 4.38141C6.98501 5.30787 6.98501 5.30787 6.98501 5.30787C6.98501 5.30787 6.98501 5.30787 5.93063 4.38155L5.93177 4.38268L1.82446 0.310331C1.4071 -0.103444 0.730267 -0.103444 0.313052 0.310331C0.104445 0.51729 -3.1523e-07 0.788383 -3.03374e-07 1.05962C-2.91524e-07 1.33071 0.104445 1.60181 0.31291 1.80877L6.24454 7.68963C6.44488 7.8884 6.71661 8 7.00017 8C7.28373 7.99986 7.55532 7.88826 7.75609 7.68949L13.6871 1.80891Z" fill="black"/>
</svg>