<svg width="120" height="40" viewBox="0 0 120 40" fill="none" xmlns="http://www.w3.org/2000/svg">
<path d="M29.5125 14.2473H15.5016V18.3981H25.425C24.9375 24.2363 20.0742 26.6996 15.5016 26.6996C9.63047 26.6996 4.53984 22.0941 4.53984 15.6395C4.53984 9.34649 9.40547 4.51602 15.5016 4.51602C20.2031 4.51602 22.9945 7.53242 22.9945 7.53242L25.9125 4.51602C25.9125 4.51602 22.1836 0.365234 15.3727 0.365234C6.7125 0.365234 0 7.69648 0 15.5762C0 23.327 6.32344 30.8832 15.6 30.8832C23.7727 30.8832 29.7398 25.2723 29.7398 17.0012C29.7398 15.2527 29.5125 14.2473 29.5125 14.2473Z" fill="#4285F4"/>
<path d="M40.9617 11.231C35.2219 11.231 31.1016 15.738 31.1016 20.9599C31.1016 26.2778 35.0906 30.8528 41.025 30.8528C46.4086 30.8528 50.7867 26.7349 50.7867 21.0911C50.8219 14.5708 45.6984 11.231 40.9617 11.231ZM41.0273 15.0911C43.8492 15.0911 46.5398 17.3622 46.5398 21.0583C46.5398 24.6583 43.8797 27.0255 41.0273 27.0255C37.882 27.0255 35.4164 24.5271 35.4164 21.0583C35.4164 17.62 37.8492 15.0911 41.0273 15.0911Z" fill="#EA4335"/>
<path d="M62.4332 11.231C56.6933 11.231 52.573 15.738 52.573 20.9599C52.573 26.2778 56.5621 30.8528 62.4964 30.8528C67.88 30.8528 72.2582 26.7349 72.2582 21.0911C72.2605 14.5708 67.1347 11.231 62.4332 11.231ZM62.4988 15.0911C65.3207 15.0911 68.0113 17.3622 68.0113 21.0583C68.0113 24.6583 65.3511 27.0255 62.4988 27.0255C59.3535 27.0255 56.8878 24.5271 56.8878 21.0583C56.855 17.62 59.3183 15.0911 62.4988 15.0911Z" fill="#FBBC05"/>
<path d="M83.4504 11.231C78.1629 11.231 74.0449 15.8364 74.0449 21.0255C74.0449 26.9271 78.8449 30.8528 83.3848 30.8528C86.1738 30.8528 87.6668 29.7513 88.7684 28.4528V30.3981C88.7684 33.7708 86.7246 35.8146 83.6121 35.8146C80.6285 35.8146 79.1051 33.5763 78.5848 32.313L74.823 33.9021C76.1519 36.7239 78.8449 39.6747 83.6449 39.6747C88.8996 39.6747 92.8887 36.3677 92.8887 29.4583V11.8146H88.7707V13.4692C87.5027 12.138 85.7519 11.231 83.4504 11.231ZM83.8394 15.0911C86.434 15.0911 89.0941 17.2966 89.0941 21.0583C89.0941 24.8856 86.434 26.9927 83.8066 26.9927C80.9848 26.9927 78.3902 24.7216 78.3902 21.0911C78.3574 17.3271 81.0832 15.0911 83.8394 15.0911Z" fill="#4285F4"/>
<path d="M111.145 11.231C106.184 11.231 102 15.1872 102 21.0255C102 27.22 106.671 30.8856 111.633 30.8856C115.784 30.8856 118.345 28.6146 119.838 26.5731L116.433 24.302C115.556 25.6638 114.066 26.995 111.633 26.995C108.877 26.995 107.611 25.4716 106.833 24.0114L120 18.5599L119.318 16.9708C118.055 13.8255 115.071 11.231 111.145 11.231ZM111.34 14.9927C113.123 14.9927 114.422 15.9325 114.973 17.0997L106.184 20.7653C105.795 17.913 108.487 14.9927 111.34 14.9927Z" fill="#EA4335"/>
<path d="M100.052 1.37061H95.7395V30.2995H100.052V1.37061Z" fill="#34A853"/>
</svg>
