<svg width="120" height="31" viewBox="0 0 120 31" fill="none" xmlns="http://www.w3.org/2000/svg">
<path d="M38.3857 23.9086L39.8857 20.4281C41.5076 21.6375 43.6568 22.2656 45.7826 22.2656C47.3529 22.2656 48.3443 21.6609 48.3443 20.7445C48.3209 18.1828 38.9412 20.1891 38.8686 13.7578C38.8451 10.493 41.7443 7.98053 45.8552 7.98053C48.2974 7.98053 50.7372 8.58522 52.4786 9.96334L51.0771 13.5164C49.4833 12.5016 47.5005 11.7774 45.6138 11.7774C44.3318 11.7774 43.4857 12.3821 43.4857 13.1555C43.5092 15.6703 52.9615 14.2922 53.0599 20.4305C53.0599 23.768 50.2333 26.1117 46.1693 26.1117C43.1998 26.1117 40.467 25.4062 38.3857 23.9086ZM95.8964 19.1695C95.1464 20.475 93.7472 21.368 92.1253 21.368C89.7324 21.368 87.7988 19.4344 87.7988 17.0414C87.7988 14.6485 89.7324 12.7149 92.1253 12.7149C93.7472 12.7149 95.1464 13.6102 95.8964 14.9133L100.028 12.6164C98.4792 9.86256 95.5073 7.9735 92.1253 7.9735C87.1214 7.9735 83.0621 12.0329 83.0621 17.0367C83.0621 22.0406 87.1214 26.1 92.1253 26.1C95.5355 26.1 98.4839 24.239 100.028 21.457C100.028 21.4687 95.8964 19.1695 95.8964 19.1695ZM55.1411 0.461819H60.3161V25.7719H55.1411V0.461819ZM102.06 0.461819V25.7719H107.235V18.1805L113.376 25.7719H119.999L112.192 16.7532L119.423 8.33913H113.09L107.242 15.3258V0.459473H102.06V0.461819ZM75.6863 19.2211C74.9363 20.4539 73.3895 21.3703 71.6481 21.3703C69.2551 21.3703 67.3215 19.4367 67.3215 17.0438C67.3215 14.6508 69.2551 12.7172 71.6481 12.7172C73.3871 12.7172 74.9363 13.6829 75.6863 14.9391V19.2211ZM75.6863 8.34147V10.3969C74.8426 8.96959 72.7379 7.98053 70.5371 7.98053C65.9926 7.98053 62.4137 11.9954 62.4137 17.0203C62.4137 22.0477 65.9903 26.1094 70.5371 26.1094C72.7356 26.1094 74.8403 25.1203 75.6863 23.693V25.7484H80.8613V8.34381H75.6863V8.34147Z" fill="black"/>
<path d="M6.40864 19.1975C6.40864 20.9624 4.9813 22.3897 3.21646 22.3897C1.45163 22.3897 0.024292 20.9624 0.024292 19.1975C0.024292 17.4327 1.45163 16.0054 3.21646 16.0054H6.40864V19.1975ZM8.00472 19.1975C8.00472 17.4327 9.43206 16.0054 11.1969 16.0054C12.9617 16.0054 14.3891 17.4327 14.3891 19.1975V27.1733C14.3891 28.9381 12.9617 30.3655 11.1969 30.3655C9.43206 30.3655 8.00472 28.9381 8.00472 27.1733V19.1975Z" fill="#E01E5A"/>
<path d="M11.1914 6.38435C9.42652 6.38435 7.99918 4.95701 7.99918 3.19217C7.99918 1.42734 9.42652 0 11.1914 0C12.9562 0 14.3835 1.42734 14.3835 3.19217V6.38435H11.1914ZM11.1914 8.00387C12.9562 8.00387 14.3835 9.43121 14.3835 11.196C14.3835 12.9609 12.9562 14.3882 11.1914 14.3882H3.19452C1.42734 14.3882 0 12.9609 0 11.196C0 9.43121 1.42734 8.00387 3.19217 8.00387H11.1914Z" fill="#36C5F0"/>
<path d="M23.9814 11.1961C23.9814 9.4313 25.4087 8.00397 27.1736 8.00397C28.9384 8.00397 30.3658 9.4313 30.3658 11.1961C30.3658 12.961 28.9384 14.3883 27.1736 14.3883H23.9814V11.1961ZM22.3853 11.1961C22.3853 12.961 20.958 14.3883 19.1931 14.3883C17.4283 14.3883 16.001 12.961 16.001 11.1961V3.19462C16.001 1.42978 17.4283 0.00244141 19.1931 0.00244141C20.958 0.00244141 22.3853 1.42978 22.3853 3.19462V11.1961Z" fill="#2EB67D"/>
<path d="M19.1931 23.9814C20.958 23.9814 22.3853 25.4087 22.3853 27.1736C22.3853 28.9384 20.958 30.3658 19.1931 30.3658C17.4283 30.3658 16.001 28.9384 16.001 27.1736V23.9814H19.1931ZM19.1931 22.3853C17.4283 22.3853 16.001 20.958 16.001 19.1931C16.001 17.4283 17.4283 16.001 19.1931 16.001H27.1947C28.9595 16.001 30.3868 17.4283 30.3868 19.1931C30.3868 20.958 28.9595 22.3853 27.1947 22.3853H19.1931Z" fill="#ECB22E"/>
</svg>
