<svg width="120" height="33" viewBox="0 0 120 33" fill="none" xmlns="http://www.w3.org/2000/svg">
<path d="M0 0H33.0008V33.0008H0V0Z" fill="#EB0A1E"/>
<path d="M110.855 17.5294L112.707 12.6745L114.555 17.5294H110.855ZM114.628 9.91765H110.783L105.411 23.0817H108.741L109.965 19.8692H115.446L116.67 23.0817H120L114.628 9.91765ZM87.5094 20.7929C85.3395 20.7929 83.5836 18.8356 83.5836 16.4201C83.5836 14.0045 85.3395 12.0457 87.5094 12.0457C89.6755 12.0457 91.4342 14.0044 91.4342 16.4201C91.4342 18.8358 89.6742 20.7929 87.5094 20.7929ZM87.5094 9.46484C83.6684 9.46484 80.5546 12.5785 80.5546 16.4185C80.5546 20.2585 83.6683 23.3705 87.5094 23.3705C91.3478 23.3705 94.463 20.2585 94.463 16.4185C94.463 12.5785 91.3478 9.46484 87.5094 9.46484ZM60.0706 20.7929C57.9045 20.7929 56.1473 18.8356 56.1473 16.4201C56.1473 14.0045 57.9045 12.0457 60.0706 12.0457C62.2392 12.0457 63.9965 14.0044 63.9965 16.4201C63.9965 18.8358 62.2392 20.7929 60.0706 20.7929ZM60.0706 9.46484C56.2305 9.46484 53.1198 12.5785 53.1198 16.4185C53.1198 20.2585 56.2307 23.3705 60.0706 23.3705C63.9104 23.3705 67.0242 20.2585 67.0242 16.4185C67.0242 12.5785 63.9106 9.46484 60.0706 9.46484ZM77.2578 9.91605L73.8508 15.2421L70.4412 9.91605H67.1085L72.3829 18.1713V23.0801H75.3161V18.1738L80.5897 9.91749L77.2578 9.91605ZM106.111 9.91605H94.857V12.4404H99.0254V23.0801H101.961V12.4401H106.112V9.91781L106.111 9.91605ZM41.2503 12.4402H45.4199V23.0799H48.3544V12.4418H52.5061V9.91781H41.25L41.2503 12.4402Z" fill="black"/>
<path d="M16.501 9.00879C10.2701 9.00879 5.50098 12.2219 5.50098 16.5003C5.50098 20.638 10.1485 23.9919 16.501 23.9919C22.8535 23.9919 27.5011 20.6378 27.5011 16.5003C27.5011 12.2219 22.7318 9.00879 16.501 9.00879ZM23.3599 12.2219C23.5892 13.1454 22.5135 14.2999 19.0521 14.6773C18.8217 12.3253 18.1241 10.3381 16.9679 9.91727C18.5244 9.96111 19.9999 10.2245 21.2863 10.691C22.4892 11.1448 23.2367 11.7238 23.3599 12.2219ZM18.2329 16.4642C18.2329 19.4444 17.3378 20.6796 16.501 20.6796C15.6642 20.6796 14.7692 19.4444 14.7692 16.4642L14.7693 16.4331C15.3255 16.4802 15.9044 16.5048 16.501 16.5048C17.0977 16.5048 17.6765 16.4802 18.2327 16.4331L18.2329 16.4642ZM16.5004 14.8031C15.9167 14.8031 15.3769 14.7864 14.8777 14.7557C15.1405 12.8069 15.8389 11.6741 16.5009 11.6741C17.1628 11.6741 17.8612 12.8069 18.1241 14.7557C17.6249 14.7866 17.0847 14.8031 16.5004 14.8031ZM9.64099 12.2219C9.76419 11.7264 10.5044 11.1507 11.6965 10.6978C12.9872 10.2267 14.47 9.96111 16.0325 9.91695C14.8762 10.3378 14.1788 12.325 13.9482 14.677C10.4861 14.2997 9.41011 13.1453 9.63939 12.2216L9.64099 12.2219ZM7.12306 16.2304C7.12306 14.9688 7.54547 13.8784 8.28067 12.9757C8.37587 14.6485 10.6386 15.896 13.865 16.3341L13.8645 16.4643C13.8645 20.5004 14.8993 22.6399 16.0461 23.082C11.1208 22.905 7.1229 19.8712 7.1229 16.2307L7.12306 16.2304ZM16.9356 23.0823C18.0905 22.6212 19.1375 20.3255 19.1375 16.4642L19.137 16.3339C22.3634 15.896 24.6262 14.6485 24.7214 12.9755C25.4564 13.8782 25.879 14.9687 25.879 16.2303C25.879 19.8759 21.8702 22.9128 16.9356 23.0823Z" fill="white"/>
</svg>
